<svg width="125" height="139" viewBox="0 0 125 139" fill="none" xmlns="http://www.w3.org/2000/svg">
<g opacity="0.4" filter="url(#filter0_f_292_21043)">
<path d="M73.7232 122.435L72.2158 117.568L69.5313 112.036L65.7904 106.046L61.1145 99.8377L55.7015 93.651L55.0304 92.9855L49.7604 87.7043L43.5001 82.2486L37.1737 77.4803L31.0235 73.5959L25.2913 70.7262L20.1863 68.9913L15.9174 68.4565L12.6276 69.1439L10.4712 71.0315L9.50293 74.0322L9.78897 78.0477L11.2964 82.9141L13.97 88.4461L17.7217 94.4365L22.3868 100.645L27.7998 106.832L33.18 112.211L33.7521 112.779L40.0124 118.234L46.3276 123.003L52.4778 126.887L58.2209 129.757L63.315 131.492L67.595 132.026L70.8736 131.339L73.041 129.451L73.9981 126.45L73.7232 122.435ZM67.287 123.788L67.21 124.017L65.4497 125.545L62.7872 126.112L60.3888 125.807L59.3106 126.036L56.0981 125.632L52.2583 124.334L47.9454 122.173L43.3244 119.249L38.5604 115.659L33.8515 111.557L29.3735 107.083L25.3026 102.424L21.7929 97.7536L18.9763 93.2473L16.9628 89.0901L15.8295 85.4238L15.6204 82.4123L15.7306 82.0523L15.5106 78.91L16.2918 76.4658L17.458 75.4511L18.0521 74.9382L20.7257 74.3709L24.2025 74.8074L25.9079 75.3858L28.3613 76.215L33.0263 78.55L38.0323 81.7252L43.1705 85.5988L48.2646 90.0397L53.1055 94.8733L57.5169 99.9141L61.3127 104.966L64.3605 109.843L66.5389 114.339L67.0561 116.008L67.7712 118.3L67.9912 121.573L67.287 123.788Z" fill="#AEABAB"/>
<path d="M86.5405 113.891L85.5834 116.892L73.0408 129.451L73.9981 126.45L73.723 122.435L72.2158 117.569L69.5313 112.036L65.7905 106.046L61.1145 99.8376L55.7015 93.6509L55.0302 92.9854L49.7601 87.7042L43.4998 82.2487L37.1737 77.4804L31.0233 73.596L25.2913 70.7263L20.1863 68.9914L15.9174 68.4567L12.6277 69.1443L10.4712 71.0319L23.0138 58.4729L25.1703 56.5853L28.4598 55.8979L32.7287 56.4324L37.8339 58.1674L43.5659 61.0371L49.7161 64.9215L54.6783 68.664L56.0425 69.6898L62.3027 75.1563L68.255 81.0919L73.4701 87.0497V87.0605L73.668 87.2787L78.3331 93.4872L82.0737 99.4776L84.7582 105.01L86.2656 109.876L86.5405 113.891Z" fill="#AEABAB"/>
<path d="M67.2428 118.725L66.5277 120.984L63.4141 124.104L64.1292 121.835L63.9202 118.823L62.7869 115.157L60.7734 111L57.957 106.494L54.4473 101.823L50.3655 97.1643L45.8987 92.6907L41.1896 88.5882L36.4256 84.9983L31.8046 82.0741L27.4919 79.9136L23.6521 78.6152L20.4284 78.2115L17.9639 78.7352L16.3354 80.1428L16.8858 79.6081V79.5973L19.4493 77.0331L21.0774 75.6145L23.5531 75.0908L25.9075 75.3855L28.3609 76.2147L33.0259 78.5497L38.032 81.7249L43.1699 85.5985L48.264 90.0395L53.1049 94.8731L57.5168 99.914L61.3126 104.966L64.3603 109.843L66.5386 114.339L67.0557 116.008L67.2428 118.725Z" fill="#AEABAB"/>
<path d="M25.9075 75.3856L23.553 75.0908L21.0774 75.6145L19.4492 77.0332L16.8857 79.5973L16.7427 77.6768L17.4578 75.4511L18.0519 74.9382L20.7253 74.3708L24.2021 74.8072L25.9075 75.3856Z" fill="#AEABAB"/>
<path d="M16.743 77.6769L16.886 79.5974V79.6082L16.3357 80.1429L15.7307 82.0524L15.5107 78.9101L16.2919 76.4659L17.4581 75.4512L16.743 77.6769Z" fill="#AEABAB"/>
<path d="M67.9912 121.573L67.287 123.788L66.6929 124.312L64.0193 124.868L62.7212 124.705L63.4143 124.104L66.5279 120.984L67.243 118.725L67.0559 116.008L67.771 118.3L67.9912 121.573Z" fill="#AEABAB"/>
<path d="M67.2871 123.788L67.2102 124.017L65.4499 125.545L62.7871 126.112L60.3887 125.807L61.786 125.512L62.7102 124.705H62.7213L64.0194 124.868L66.693 124.312L67.2871 123.788Z" fill="#AEABAB"/>
<path d="M63.9202 118.824L62.7869 115.157L60.7734 111L57.9568 106.494L54.4471 101.824L50.3653 97.1647L45.8984 92.6911L41.1896 88.5886L36.4256 84.9986L31.8046 82.0745L27.4917 79.914L23.6519 78.6156L20.4282 78.2119L17.9636 78.7356L16.3352 80.1432L15.7302 82.0526L15.6201 82.4126L15.8292 85.4242L16.9625 89.0904L18.9759 93.2477L21.7926 97.7539L25.3023 102.424L29.3732 107.083L33.8512 111.557L38.56 115.659L43.324 119.249L47.945 122.173L52.2579 124.334L56.0978 125.632L59.3103 126.036L60.3884 125.807L61.7857 125.512L62.7099 124.704H62.7208L63.4139 124.104L64.129 121.835L63.9202 118.824ZM60.4985 120.635L60.3115 121.213L58.9033 122.435L56.7579 122.893L53.9633 122.544L50.6298 121.41L46.878 119.533L42.8623 116.99L38.7364 113.881L34.6437 110.313L30.7599 106.428L27.2172 102.38L24.1693 98.3321L21.7267 94.4148L19.9773 90.8033L18.9871 87.6281L18.8111 84.9984L19.4382 83.0345L20.8463 81.8016L21.0995 81.7471L22.9919 81.3542L25.7865 81.7034L29.1201 82.8382L32.8609 84.715L36.8878 87.2573L41.0137 90.367L45.1066 93.935L46.1189 94.9498L48.6275 97.4484L48.9905 97.8194L50.1458 99.1397L52.5222 101.868L53.1054 102.653L53.1275 102.664L54.6017 104.628V104.639L55.5808 105.916L55.933 106.494L58.0234 109.833L59.7728 113.445L60.763 116.62L60.939 119.25L60.4985 120.635Z" fill="#AEABAB"/>
<path d="M60.4984 120.635L60.3114 121.213L58.9032 122.435L56.7576 122.893L53.963 122.544L50.6294 121.409L46.8777 119.533L42.8617 116.99L38.7361 113.881L34.6432 110.313L30.7593 106.428L27.2167 102.38L24.1692 98.332L21.7267 94.4147L19.9772 90.8032L18.987 87.628L18.811 84.9983L19.4381 83.0344L20.8465 81.8013L21.0994 81.7468V81.7579L20.6594 83.1436L20.8465 85.7731L21.8256 88.9483L23.575 92.56L26.0176 96.4771L29.0759 100.525L32.6077 104.573L36.5024 108.458L40.5845 112.026L44.7212 115.135L48.737 117.678L52.4778 119.555L55.8225 120.689L58.606 121.038L60.4984 120.635Z" fill="#AEABAB"/>
<path d="M57.2635 108.741L56.5043 109.505L24.895 91.5234L25.6542 90.7595L57.2635 108.741Z" fill="#AEABAB"/>
<path d="M48.6268 97.4482L48.5499 97.5247L25.0713 84.1692L25.8304 83.4055L46.1185 94.9495L48.6268 97.4482Z" fill="#AEABAB"/>
<path d="M60.7624 116.619L59.7722 113.444L58.0228 109.832L55.9324 106.494L55.4813 106.952L23.872 88.9702L22.9478 86.6897L23.7069 85.926L53.1048 102.653L52.5216 101.868L50.1452 99.1397L49.4741 99.8052L25.9844 86.4497L25.0711 84.1692L25.8302 83.4055L46.1183 94.9498L45.106 93.935L41.0131 90.367L36.8872 87.2573L32.8603 84.715L29.1195 82.8382L25.7859 81.7034L22.9913 81.3542L21.0989 81.7471V81.7582L20.6587 83.1439L20.8458 85.7736L21.8249 88.9488L23.5743 92.5603L26.0168 96.4776L29.0755 100.526L32.6072 104.574L36.5019 108.458L40.5838 112.026L44.7205 115.136L48.7363 117.678L52.4771 119.555L55.8218 120.69L58.6053 121.039L60.4977 120.635L60.9376 119.25L60.7624 116.619ZM55.9875 114.699L31.1334 100.558L30.2092 98.2776L30.9795 97.5139L55.8336 111.655L56.7578 113.935L55.9875 114.699ZM57.4178 111.786L25.8085 93.804L24.8954 91.5235L25.6545 90.7598L57.2638 108.742L58.188 111.022L57.4178 111.786Z" fill="#AEABAB"/>
<path d="M56.7576 113.935L55.9875 114.699L55.0742 112.418L55.8334 111.655L56.7576 113.935Z" fill="#AEABAB"/>
<path d="M55.8336 111.655L55.0745 112.419L30.2095 98.2776L30.9798 97.5137L55.8336 111.655Z" fill="#AEABAB"/>
<path d="M55.9878 114.699L31.1337 100.558L30.2095 98.2776L55.0745 112.419L55.9878 114.699Z" fill="#AEABAB"/>
<path d="M58.1882 111.022L57.4182 111.786L56.5049 109.505L57.264 108.741L58.1882 111.022Z" fill="#AEABAB"/>
<path d="M57.4181 111.786L25.8088 93.8039L24.8955 91.5234L56.5048 109.505L57.4181 111.786Z" fill="#AEABAB"/>
<path d="M54.6011 104.628V104.639L54.5573 104.671L22.9478 86.6895L23.7069 85.9258L53.1048 102.653L53.1268 102.664L54.6011 104.628Z" fill="#AEABAB"/>
<path d="M55.4813 106.952L23.872 88.9699L22.9478 86.6895L54.5573 104.671L55.4813 106.952Z" fill="#AEABAB"/>
<path d="M55.9327 106.494L55.4816 106.952L54.5576 104.671L54.6014 104.639L55.5808 105.915L55.9327 106.494Z" fill="#AEABAB"/>
<path d="M49.4741 99.8052L25.9844 86.4497L25.0713 84.1692L48.5499 97.5247L49.4741 99.8052Z" fill="#AEABAB"/>
<path d="M50.1456 99.1393L49.4745 99.805L48.5503 97.5246L48.6272 97.448L48.9905 97.819L50.1456 99.1393Z" fill="#AEABAB"/>
<path d="M118.095 48.9254L118.073 51.3806L117.38 53.9337L116.896 55.4505L115.454 58.2L113.243 61.0696L110.206 64.103L109.051 65.1069L105.156 68.2929L103.44 68.6532L97.6748 68.8168L93.1308 69.4605L89.0381 70.5844L84.9892 72.3847L81.6445 74.5996L79.0701 77.022L76.6276 80.2519L74.6582 83.9071L73.47 87.0496L68.2549 81.0919L62.3027 75.1562L56.0424 69.6897L54.6782 68.664L58.0778 67.3548L61.7306 65.3798L64.6462 63.1756L64.6682 63.1538L67.2317 60.426L69.5201 56.9452L71.2034 53.1372H71.1925L72.2486 49.242L72.9308 44.1136L73.0518 38.3088L73.5578 36.7375L76.7266 32.8423L79.7521 29.7979L80.9074 28.7832L83.779 26.5682L86.5295 25.128L89.17 24.3969L90.7215 24.0696L93.164 24.0259L94.9903 24.2551L97.1357 24.8114L99.0722 25.4661L101.24 26.5464L102.648 27.3756L104.606 28.6087L106.62 30.1252L108.611 31.871L110.503 33.7588L112.231 35.7338L113.716 37.7088L115.806 41.0911L116.819 43.1752L117.391 45.0192L117.974 47.2015L118.095 48.9254Z" fill="#AEABAB"/>
<path d="M94.9907 24.2551L97.1362 24.8118L99.0728 25.4661L101.24 26.5461L102.648 27.3752L104.606 28.6086L106.62 30.1252L108.611 31.8713L110.503 33.759L112.231 35.7336L113.716 37.7092L115.806 41.0911L116.819 43.175L117.391 45.0188L117.974 47.2014L118.095 48.925L118.073 51.3811L117.379 53.9338L116.896 55.4504L115.455 58.2004L113.243 61.0696L110.207 64.1028L109.051 65.1067L105.157 68.2932L104.016 68.5325C104.452 66.7105 104.684 64.8153 104.684 62.8694C104.684 48.6983 92.4749 37.2102 77.4146 37.2102C76.0201 37.2102 74.6501 37.3093 73.312 37.4993L73.5581 36.7375L76.7271 32.842L79.7524 29.7981L80.9077 28.7834L83.7788 26.5686L86.5298 25.1282L89.1704 24.3967L90.7212 24.0696L93.1646 24.0256L94.9907 24.2551Z" fill="#AEABAB"/>
</g>
<path d="M70.4239 104.409L68.9165 99.5423L66.232 94.0103L62.4911 88.0202L57.8152 81.8116L52.4021 75.6249L51.7311 74.9594L46.461 69.6782L40.2007 64.2225L33.8744 59.4542L27.7242 55.5698L21.9919 52.7001L16.8869 50.9651L12.6181 50.4304L9.32832 51.1178L7.17186 53.0054L6.20361 56.0061L6.48966 60.0215L7.99708 64.888L10.6707 70.42L14.4224 76.4104L19.0875 82.619L24.5005 88.8057L29.8807 94.1851L30.4527 94.7524L36.713 100.208L43.0283 104.976L49.1785 108.861L54.9216 111.731L60.0157 113.465L64.2957 114L67.5743 113.313L69.7417 111.425L70.6988 108.424L70.4239 104.409ZM63.9876 105.762L63.9107 105.991L62.1504 107.519L59.4879 108.086L57.0894 107.781L56.0113 108.01L52.7988 107.606L48.959 106.308L44.646 104.147L40.0251 101.223L35.261 97.6331L30.5522 93.5306L26.0742 89.057L22.0033 84.3979L18.4936 79.7275L15.6769 75.2212L13.6635 71.0639L12.5302 67.3977L12.3211 64.3862L12.4312 64.0262L12.2113 60.8839L12.9924 58.4397L14.1586 57.425L14.7527 56.9121L17.4264 56.3447L20.9032 56.7813L22.6086 57.3597L25.0619 58.1889L29.727 60.5239L34.733 63.6991L39.8711 67.5727L44.9652 72.0136L49.8062 76.8472L54.2176 81.8879L58.0134 86.9399L61.0611 91.8172L63.2396 96.3127L63.7568 97.9821L64.4719 100.273L64.6919 103.547L63.9876 105.762Z" fill="#3E73B2"/>
<path d="M83.2412 95.8652L82.2841 98.8659L69.7415 111.425L70.6988 108.424L70.4237 104.409L68.9165 99.5425L66.232 94.0102L62.4911 88.0201L57.8152 81.8115L52.4022 75.6248L51.7308 74.9593L46.4608 69.6781L40.2005 64.2226L33.8744 59.4543L27.724 55.5699L21.992 52.7002L16.887 50.9653L12.6181 50.4305L9.32834 51.1181L7.17188 53.0057L19.7145 40.4468L21.871 38.5592L25.1605 37.8718L29.4293 38.4063L34.5346 40.1413L40.2666 43.0109L46.4168 46.8953L51.379 50.6379L52.7431 51.6637L59.0034 57.1301L64.9557 63.0658L70.1708 69.0236V69.0344L70.3687 69.2525L75.0338 75.4611L78.7744 81.4515L81.4589 86.9835L82.9663 91.85L83.2412 95.8652Z" fill="#5199D2"/>
<path d="M63.9435 100.699L63.2284 102.958L60.1148 106.078L60.8299 103.809L60.6208 100.797L59.4875 97.131L57.4741 92.9737L54.6577 88.4675L51.148 83.7973L47.0662 79.1382L42.5993 74.6646L37.8903 70.5621L33.1262 66.9721L28.5053 64.048L24.1926 61.8875L20.3528 60.5891L17.1291 60.1854L14.6646 60.7091L13.0361 62.1167L13.5864 61.582V61.5712L16.1499 59.007L17.7781 57.5884L20.2538 57.0647L22.6082 57.3594L25.0616 58.1886L29.7266 60.5236L34.7326 63.6988L39.8705 67.5724L44.9646 72.0133L49.8056 76.8469L54.2175 81.8879L58.0133 86.9399L61.061 91.8172L63.2393 96.3126L63.7564 97.9821L63.9435 100.699Z" fill="#B02917"/>
<path d="M22.6081 57.3594L20.2537 57.0647L17.7781 57.5884L16.1499 59.007L13.5864 61.5712L13.4434 59.6507L14.1585 57.425L14.7526 56.9121L17.426 56.3447L20.9028 56.781L22.6081 57.3594Z" fill="#0A486E"/>
<path d="M13.4437 59.6508L13.5867 61.5713V61.5821L13.0364 62.1168L12.4314 64.0263L12.2114 60.8839L12.9926 58.4398L14.1588 57.425L13.4437 59.6508Z" fill="#26648A"/>
<path d="M64.6919 103.547L63.9877 105.762L63.3936 106.286L60.72 106.842L59.4219 106.679L60.115 106.078L63.2285 102.958L63.9436 100.699L63.7566 97.9822L64.4717 100.274L64.6919 103.547Z" fill="#0A486E"/>
<path d="M63.9878 105.762L63.9108 105.991L62.1505 107.519L59.4878 108.086L57.0894 107.781L58.4867 107.486L59.4109 106.679H59.422L60.7201 106.842L63.3937 106.286L63.9878 105.762Z" fill="#26648A"/>
<path d="M60.6209 100.797L59.4876 97.1312L57.4741 92.9739L54.6575 88.4676L51.1478 83.7977L47.066 79.1386L42.5991 74.665L37.8903 70.5624L33.1263 66.9725L28.5053 64.0484L24.1924 61.8879L20.3525 60.5895L17.1289 60.1858L14.6643 60.7095L13.0359 62.1171L12.4309 64.0265L12.3208 64.3865L12.5299 67.398L13.6632 71.0643L15.6766 75.2216L18.4933 79.7278L22.003 84.3977L26.0739 89.0568L30.5519 93.5304L35.2607 97.633L40.0247 101.223L44.6457 104.147L48.9586 106.308L52.7984 107.606L56.011 108.01L57.0891 107.78L58.4864 107.486L59.4106 106.678H59.4215L60.1146 106.078L60.8297 103.809L60.6209 100.797ZM57.1992 102.609L57.0121 103.187L55.604 104.409L53.4586 104.867L50.664 104.518L47.3305 103.383L43.5787 101.507L39.563 98.9643L35.4371 95.8546L31.3444 92.2865L27.4606 88.4021L23.9179 84.354L20.8699 80.306L18.4274 76.3887L16.678 72.7772L15.6877 69.6019L15.5118 66.9723L16.1388 65.0084L17.547 63.7755L17.8002 63.721L19.6926 63.3281L22.4872 63.6773L25.8208 64.812L29.5616 66.6888L33.5885 69.2312L37.7143 72.3408L41.8073 75.9089L42.8196 76.9236L45.3281 79.4223L45.6911 79.7933L46.8465 81.1135L49.2229 83.8414L49.8061 84.6269L49.8281 84.6379L51.3024 86.6021V86.6129L52.2815 87.8895L52.6336 88.4679L54.724 91.8068L56.4735 95.4185L57.4637 98.5937L57.6397 101.223L57.1992 102.609Z" fill="#DC4D4D"/>
<path d="M57.1991 102.609L57.0121 103.187L55.6039 104.409L53.4583 104.867L50.6637 104.518L47.3301 103.383L43.5784 101.507L39.5624 98.9642L35.4368 95.8545L31.3438 92.2865L27.46 88.4021L23.9173 84.354L20.8698 80.3059L18.4273 76.3886L16.6779 72.7771L15.6877 69.6019L15.5117 66.9722L16.1387 65.0083L17.5472 63.7752L17.8001 63.7207V63.7317L17.3601 65.1175L17.5472 67.7469L18.5263 70.9221L20.2757 74.5339L22.7182 78.4509L25.7766 82.499L29.3084 86.5471L33.2031 90.4315L37.2852 93.9996L41.4219 97.1093L45.4377 99.6516L49.1785 101.528L52.5232 102.663L55.3067 103.012L57.1991 102.609Z" fill="#B02917"/>
<path d="M53.9642 90.7152L53.205 91.4791L21.5957 73.4973L22.3549 72.7334L53.9642 90.7152Z" fill="#B02917"/>
<path d="M45.3275 79.422L45.2506 79.4986L21.772 66.1431L22.5311 65.3794L42.8192 76.9234L45.3275 79.422Z" fill="#B02917"/>
<path d="M57.4631 98.5932L56.4729 95.418L54.7234 91.8063L52.6331 88.4674L52.182 88.9256L20.5727 70.944L19.6485 68.6636L20.4076 67.8999L49.8055 84.6269L49.2223 83.8414L46.8459 81.1136L46.1748 81.7791L22.6851 68.4236L21.7718 66.1431L22.5309 65.3794L42.819 76.9236L41.8067 75.9089L37.7138 72.3408L33.5879 69.2312L29.561 66.6888L25.8202 64.812L22.4866 63.6773L19.692 63.3281L17.7996 63.721V63.732L17.3594 65.1178L17.5464 67.7475L18.5256 70.9227L20.275 74.5342L22.7175 78.4515L25.7761 82.4996L29.3079 86.5476L33.2026 90.432L37.2844 94.0001L41.4212 97.1098L45.4369 99.6521L49.1778 101.529L52.5225 102.664L55.3059 103.013L57.1984 102.609L57.6383 101.223L57.4631 98.5932ZM52.6882 96.673L27.8341 82.532L26.9099 80.2515L27.6802 79.4878L52.5343 93.6288L53.4585 95.9093L52.6882 96.673ZM54.1184 93.7596L22.5091 75.7779L21.5961 73.4974L22.3552 72.7337L53.9645 90.7155L54.8887 92.996L54.1184 93.7596Z" fill="#0A486E"/>
<path d="M53.4583 95.9089L52.6882 96.6728L51.7749 94.3923L52.5341 93.6284L53.4583 95.9089Z" fill="#B02917"/>
<path d="M52.5343 93.6286L51.7752 94.3925L26.9102 80.2515L27.6804 79.4875L52.5343 93.6286Z" fill="#B02917"/>
<path d="M52.6885 96.673L27.8344 82.5319L26.9102 80.2515L51.7752 94.3925L52.6885 96.673Z" fill="#DC4D4D"/>
<path d="M54.8889 92.9956L54.1189 93.7595L53.2056 91.479L53.9647 90.7151L54.8889 92.9956Z" fill="#B02917"/>
<path d="M54.1188 93.7596L22.5095 75.7778L21.5962 73.4973L53.2055 91.4791L54.1188 93.7596Z" fill="#DC4D4D"/>
<path d="M51.3018 86.6017V86.6125L51.258 86.6451L19.6484 68.6633L20.4076 67.8997L49.8055 84.6267L49.8275 84.6375L51.3018 86.6017Z" fill="#B02917"/>
<path d="M52.182 88.9256L20.5726 70.9438L19.6484 68.6633L51.258 86.6451L52.182 88.9256Z" fill="#DC4D4D"/>
<path d="M52.6333 88.4675L52.1823 88.9257L51.2583 86.6452L51.3021 86.6125L52.2815 87.8891L52.6333 88.4675Z" fill="#B02917"/>
<path d="M46.1748 81.7791L22.685 68.4235L21.772 66.1431L45.2506 79.4986L46.1748 81.7791Z" fill="#DC4D4D"/>
<path d="M46.8462 81.1132L46.1752 81.7789L45.251 79.4984L45.3279 79.4219L45.6912 79.7929L46.8462 81.1132Z" fill="#B02917"/>
<path d="M114.795 30.8993L114.774 33.3545L114.08 35.9076L113.596 37.4244L112.155 40.1738L109.944 43.0435L106.907 46.0769L105.752 47.0808L101.857 50.2668L100.141 50.627L94.3755 50.7907L89.8315 51.4344L85.7388 52.5583L81.6899 54.3586L78.3452 56.5735L75.7708 58.9958L73.3283 62.2258L71.3589 65.881L70.1707 69.0235L64.9556 63.0658L59.0034 57.1301L52.7431 51.6636L51.3789 50.6378L54.7785 49.3286L58.4313 47.3537L61.3469 45.1495L61.3689 45.1277L63.9324 42.3998L66.2208 38.9191L67.9041 35.111H67.8932L68.9493 31.2158L69.6315 26.0875L69.7525 20.2826L70.2585 18.7114L73.4273 14.8162L76.4528 11.7718L77.6081 10.757L80.4796 8.54208L83.2302 7.10184L85.8707 6.3708L87.4221 6.04344L89.8646 5.99976L91.691 6.22896L93.8364 6.78528L95.7728 7.44L97.9402 8.52024L99.3484 9.34944L101.307 10.5826L103.32 12.0991L105.312 13.8449L107.204 15.7327L108.931 17.7077L110.417 19.6826L112.507 23.065L113.519 25.1491L114.092 26.993L114.674 29.1754L114.795 30.8993Z" fill="#FFBA0A"/>
<path d="M91.6914 6.229L93.8369 6.78564L95.7734 7.43994L97.9404 8.52002L99.3486 9.34912L101.307 10.5825L103.32 12.0991L105.312 13.8452L107.204 15.7329L108.932 17.7075L110.417 19.6831L112.507 23.0649L113.52 25.1489L114.092 26.9927L114.675 29.1753L114.796 30.8989L114.773 33.355L114.08 35.9077L113.597 37.4243L112.155 40.1743L109.943 43.0435L106.907 46.0767L105.752 47.0806L101.857 50.2671L100.717 50.5063C101.153 48.6844 101.385 46.7892 101.385 44.8433C101.385 30.6721 89.1756 19.1841 74.1152 19.1841C72.7208 19.1841 71.3508 19.2831 70.0127 19.4731L70.2588 18.7114L73.4277 14.8159L76.4531 11.772L77.6084 10.7573L80.4795 8.54248L83.2305 7.10205L85.8711 6.37061L87.4219 6.04346L89.8652 5.99951L91.6914 6.229Z" fill="#F3A703"/>
<defs>
<filter id="filter0_f_292_21043" x="-2.70068" y="12.0261" width="133" height="132" filterUnits="userSpaceOnUse" color-interpolation-filters="sRGB">
<feFlood flood-opacity="0" result="BackgroundImageFix"/>
<feBlend mode="normal" in="SourceGraphic" in2="BackgroundImageFix" result="shape"/>
<feGaussianBlur stdDeviation="3" result="effect1_foregroundBlur_292_21043"/>
</filter>
</defs>
</svg>
