<svg width="394" height="401" viewBox="0 0 394 401" fill="none" xmlns="http://www.w3.org/2000/svg">
<path d="M196.57 400.604H196.388C172.701 400.604 149.45 396.31 127.328 387.832L191.367 214.576C192.968 215.205 194.641 215.501 196.461 215.501C196.679 215.501 197.043 215.501 197.297 215.501L207.012 400.345C203.519 400.53 199.99 400.641 196.533 400.641L196.57 400.604ZM272.834 384.908L202.1 214.354C203.92 213.576 205.63 212.355 207.049 210.837L339.092 338.188C320.28 358.401 297.976 374.135 272.834 384.908ZM69.2568 352.996C48.4443 334.967 31.8161 313.162 19.8452 288.21L183.362 207.098C184.235 208.949 185.545 210.615 187.109 211.985L69.2568 352.996ZM376.423 281.102L209.887 206.617C210.687 204.765 211.088 202.84 211.088 200.693C211.088 199.546 210.978 198.472 210.76 197.435L388.467 157.823C391.487 171.854 393.015 186.292 393.015 200.73C393.015 228.607 387.448 255.669 376.46 281.102H376.423ZM1.14309 222.202C0.378992 215.094 0.0151367 207.875 0.0151367 200.693C0.0151367 180.221 3.07152 160.008 9.07513 140.609L182.598 196.214C182.161 197.621 181.943 199.101 181.943 200.693C181.943 201.286 181.943 201.841 182.016 202.396L1.14309 222.202ZM208.868 192.845C207.776 191.068 206.285 189.513 204.611 188.365L306.854 35.2483C329.45 50.8709 348.261 70.677 362.815 94.185L208.868 192.845ZM184.854 191.771L40.112 79.6359C56.6674 57.5347 77.1524 39.4686 100.985 25.9561L189.475 187.699C187.692 188.699 186.091 190.105 184.854 191.808V191.771ZM200.172 186.329C198.243 185.811 196.024 185.737 194.023 186.07L164.805 3.37354C191.403 -1.03191 219.165 0.226794 245.254 7.00156L200.172 186.329Z" fill="url(#paint0_radial_26107_7882)"/>
<path d="M295.028 116.385L295.747 123.872L303.097 124.604L295.747 125.336L295.028 132.823L294.309 125.336L286.959 124.604L294.309 123.872L295.028 116.385Z" fill="#F6F6F6" fill-opacity="0.05"/>
<path d="M230.579 137.445L231.167 143.571L237.182 144.171L231.167 144.77L230.579 150.896L229.991 144.77L223.976 144.171L229.991 143.571L230.579 137.445Z" fill="#F6F6F6"/>
<path d="M284.006 129.509L285.157 141.498L296.927 142.67L285.157 143.843L284.006 155.832L282.855 143.843L271.085 142.67L282.855 141.498L284.006 129.509Z" fill="#F6F6F6"/>
<path d="M131.482 142.67L132.423 152.479L142.053 153.439L132.423 154.398L131.482 164.208L130.54 154.398L120.91 153.439L130.54 152.479L131.482 142.67Z" fill="#F6F6F6" fill-opacity="0.1"/>
<path d="M97.0596 129.287L97.6449 135.382L103.629 135.978L97.6449 136.575L97.0596 142.67L96.4743 136.575L90.4902 135.978L96.4743 135.382L97.0596 129.287Z" fill="#F6F6F6" fill-opacity="0.59"/>
<path d="M109.485 116.285L110.208 123.818L117.603 124.554L110.208 125.291L109.485 132.823L108.761 125.291L101.367 124.554L108.761 123.818L109.485 116.285Z" fill="#F6F6F6"/>
<path d="M102.486 227.556L101.767 220.069L94.417 219.336L101.767 218.604L102.486 211.117L103.205 218.604L110.555 219.336L103.205 220.069L102.486 227.556Z" fill="#F6F6F6"/>
<path d="M148.552 259.388L148.084 254.52L143.305 254.044L148.084 253.568L148.552 248.7L149.019 253.568L153.798 254.044L149.019 254.52L148.552 259.388Z" fill="#F6F6F6"/>
<path d="M155.154 267.496L154.566 261.369L148.551 260.77L154.566 260.171L155.154 254.044L155.742 260.171L161.757 260.77L155.742 261.369L155.154 267.496Z" fill="#F6F6F6"/>
<path d="M117.435 242.432L116.284 230.443L104.514 229.27L116.284 228.098L117.435 216.109L118.586 228.098L130.355 229.27L118.586 230.443L117.435 242.432Z" fill="#F6F6F6" fill-opacity="0.45"/>
<path d="M262.105 250.11L261.163 240.301L251.533 239.342L261.163 238.382L262.105 228.573L263.047 238.382L272.677 239.342L263.047 240.301L262.105 250.11Z" fill="#F6F6F6"/>
<path d="M303.399 258.494L302.814 252.399L296.83 251.802L302.814 251.206L303.399 245.111L303.985 251.206L309.969 251.802L303.985 252.399L303.399 258.494Z" fill="#F6F6F6" fill-opacity="0.1"/>
<path d="M284.102 276.496L283.379 268.963L275.984 268.226L283.379 267.49L284.102 259.957L284.826 267.49L292.22 268.226L284.826 268.963L284.102 276.496Z" fill="#F6F6F6"/>
<defs>
<radialGradient id="paint0_radial_26107_7882" cx="0" cy="0" r="1" gradientUnits="userSpaceOnUse" gradientTransform="translate(196.497 200.693) scale(196.482 199.911)">
<stop stop-color="white"/>
<stop offset="0.2" stop-color="#FFE46C" stop-opacity="0.6"/>
<stop offset="1" stop-color="white" stop-opacity="0"/>
</radialGradient>
</defs>
</svg>
