<svg width="101" height="101" viewBox="0 0 101 101" fill="none" xmlns="http://www.w3.org/2000/svg">
<g filter="url(#filter0_d_8_30562)">
<path d="M54.6258 90.7429C76.5962 88.4337 92.5347 68.7513 90.2256 46.7809C87.9164 24.8105 68.2339 8.87199 46.2635 11.1812C24.2932 13.4903 8.35463 33.1728 10.6638 55.1432C12.973 77.1136 32.6554 93.0521 54.6258 90.7429Z" fill="white"/>
<path d="M53.2188 82.4101C53.1296 81.7109 53.6247 81.0697 54.3239 80.9805C55.0231 80.8913 55.6643 81.3863 55.7535 82.0855C55.8427 82.7847 55.3491 83.4258 54.6498 83.5134L54.6203 83.5165C53.9319 83.5889 53.3084 83.0982 53.2204 82.4099L53.2188 82.4101ZM48.7644 83.7376C48.0598 83.7001 47.5191 83.1002 47.555 82.3958C47.591 81.6913 48.1923 81.1489 48.8969 81.1864C49.6014 81.2223 50.1421 81.8222 50.1061 82.5267C50.0725 83.1634 49.5803 83.6676 48.9665 83.7321C48.9013 83.739 48.8353 83.7396 48.766 83.7375L48.7644 83.7376ZM58.7969 81.4153C58.5849 80.7431 58.9571 80.0237 59.6308 79.8115C60.3029 79.5995 61.0223 79.9716 61.2345 80.6453C61.4466 81.3175 61.0742 82.0353 60.4007 82.2491C60.317 82.2752 60.2324 82.2919 60.1485 82.3007C59.558 82.3628 58.986 82.0034 58.7985 81.4151L58.7969 81.4153ZM42.9336 82.9113C42.2473 82.7494 41.8216 82.062 41.982 81.3758C42.1438 80.688 42.8311 80.2622 43.519 80.424C44.2053 80.586 44.6311 81.2734 44.4691 81.9597C44.3425 82.504 43.8844 82.8837 43.3591 82.9389C43.2208 82.9534 43.077 82.945 42.9338 82.9129L42.9336 82.9113ZM64.1091 79.4445C63.7795 78.8193 64.0173 78.048 64.6424 77.7168C65.266 77.3873 66.0389 77.625 66.3685 78.2502C66.698 78.8739 66.4603 79.6467 65.8351 79.9764C65.6878 80.0547 65.5293 80.1012 65.3739 80.1176C64.8704 80.1705 64.3617 79.9192 64.1107 79.4444L64.1091 79.4445ZM37.3445 81.051C36.6991 80.77 36.4031 80.0172 36.6855 79.37C36.968 78.7245 37.7195 78.4303 38.3664 78.711C39.012 78.9935 39.3079 79.7464 39.0254 80.392C38.8341 80.8284 38.4295 81.1051 37.9882 81.1514C37.7753 81.1738 37.5536 81.1421 37.3445 81.051ZM68.9819 76.5521C68.545 75.9979 68.6412 75.1944 69.1939 74.7577C69.7482 74.3208 70.5517 74.417 70.9886 74.9712C71.4239 75.5256 71.3275 76.3276 70.7748 76.7643C70.5789 76.9185 70.351 77.0068 70.1195 77.0312C69.6968 77.0756 69.2629 76.9091 68.9819 76.5521ZM32.1828 78.2203C31.5978 77.8262 31.442 77.0319 31.8346 76.447C32.227 75.8606 33.0215 75.7064 33.6062 76.0974C34.1928 76.4914 34.347 77.2859 33.956 77.8706C33.7358 78.1969 33.3916 78.3902 33.0279 78.4285C32.7405 78.4587 32.4411 78.3911 32.1827 78.2188L32.1828 78.2203ZM73.2538 72.8305C72.7272 72.3643 72.6768 71.5558 73.1446 71.029C73.6122 70.5006 74.4194 70.4519 74.9477 70.9196C75.4759 71.3857 75.5247 72.1944 75.0569 72.7211C74.8365 72.9706 74.5402 73.1117 74.2341 73.1439C73.8907 73.1799 73.5343 73.0776 73.2538 72.8305ZM27.6052 74.5192C27.0981 74.0289 27.0853 73.2195 27.5756 72.7124C28.0659 72.2052 28.8752 72.1924 29.3824 72.6827C29.8895 73.173 29.9023 73.9824 29.412 74.4895C29.1952 74.7134 28.9149 74.8419 28.6274 74.8721C28.2653 74.9101 27.8885 74.7926 27.6052 74.5192ZM76.7989 68.4123C76.1963 68.0452 76.0053 67.2593 76.374 66.6565C76.7396 66.0541 77.527 65.8629 78.1281 66.2302C78.7305 66.5958 78.9217 67.3832 78.5544 67.9843C78.3371 68.3386 77.9776 68.5508 77.5954 68.591C77.3265 68.6193 77.0473 68.5638 76.7989 68.4123ZM23.7553 70.0581C23.3448 69.4854 23.4762 68.6876 24.0489 68.277C24.6232 67.8663 25.421 67.9977 25.8315 68.5704C26.2421 69.1432 26.1108 69.9425 25.538 70.3515C25.351 70.4858 25.1405 70.5614 24.9276 70.5838C24.4863 70.6301 24.0333 70.4452 23.7553 70.0581ZM79.5013 63.4354C78.8431 63.1825 78.514 62.4425 78.7669 61.7844C79.0198 61.1262 79.7597 60.7971 80.4163 61.0501C81.0745 61.303 81.4035 62.0414 81.1507 62.7012C80.9732 63.1644 80.5538 63.4646 80.0908 63.5133C79.8981 63.5335 79.6946 63.5109 79.4997 63.4356L79.5013 63.4354ZM20.7707 64.9798C20.4695 64.3421 20.7415 63.5814 21.3792 63.2803C22.0166 62.9776 22.7791 63.251 23.0802 63.8886C23.3813 64.5263 23.1093 65.287 22.4703 65.5898C22.3371 65.6525 22.1979 65.6891 22.0581 65.7038C21.5329 65.759 21.0073 65.4828 20.7705 64.9782L20.7707 64.9798ZM81.267 58.0526C80.5747 57.9227 80.1179 57.2543 80.2478 56.5619C80.3793 55.8694 81.0461 55.4128 81.7385 55.5427C82.4324 55.6724 82.8876 56.341 82.7593 57.0332C82.6524 57.6006 82.1848 58.0096 81.6378 58.067C81.5166 58.0798 81.3936 58.0754 81.2669 58.051L81.267 58.0526ZM18.7425 59.4505C18.5593 58.7691 18.9633 58.0683 19.6449 57.8867C20.3264 57.7035 21.0271 58.1075 21.2088 58.7891C21.3904 59.4707 20.9864 60.1715 20.3048 60.3531C20.2376 60.3712 20.173 60.3843 20.1077 60.3911C19.4939 60.4556 18.9061 60.0649 18.7425 59.4505ZM82.0394 52.4411C81.3335 52.4368 80.7654 51.8602 80.7714 51.1541C80.7757 50.4482 81.3509 49.8819 82.0568 49.8862C82.7627 49.8906 83.3308 50.4672 83.3248 51.1732C83.3216 51.8303 82.8205 52.3685 82.1833 52.4354C82.1367 52.4403 82.0882 52.4423 82.0396 52.4427L82.0394 52.4411ZM19.1115 54.8147C18.4092 54.8744 17.7918 54.3517 17.7336 53.6476C17.6739 52.9454 18.1966 52.328 18.9006 52.2697C19.6031 52.2116 20.2203 52.7327 20.2786 53.4367C20.3359 54.1314 19.8296 54.7408 19.1412 54.8131C19.1319 54.8141 19.121 54.8153 19.1132 54.8161L19.1115 54.8147ZM80.3233 45.74C80.2032 45.0457 80.6694 44.3839 81.3637 44.2638C82.058 44.1422 82.7197 44.6084 82.8398 45.3027C82.9599 45.9971 82.4937 46.6588 81.7993 46.7789C81.7717 46.785 81.7422 46.7881 81.7142 46.791C81.0507 46.8608 80.4388 46.4051 80.3233 45.74ZM18.9203 49.1537C18.2188 49.086 17.7039 48.463 17.7714 47.7599C17.8391 47.0583 18.4621 46.5435 19.1652 46.611C19.8668 46.6787 20.3816 47.3017 20.3157 48.0046C20.2563 48.6205 19.77 49.0911 19.1795 49.1531C19.0956 49.162 19.0093 49.1632 18.922 49.1551L18.9203 49.1537ZM78.9218 40.4922C78.6793 39.8295 79.0186 39.0963 79.6828 38.8536C80.3454 38.6112 81.0788 38.952 81.3213 39.6147C81.5638 40.2773 81.2229 41.0107 80.5603 41.2532C80.4588 41.289 80.3561 41.3139 80.2536 41.3247C79.6848 41.3845 79.127 41.055 78.9219 40.4937L78.9218 40.4922ZM19.7373 43.5485C19.0589 43.3574 18.6642 42.6511 18.8567 41.971C19.0477 41.2926 19.7541 40.8978 20.4342 41.0903C21.1126 41.2814 21.5073 41.9877 21.3148 42.6678C21.1682 43.186 20.7244 43.5374 20.2194 43.5905C20.0624 43.607 19.9008 43.5942 19.7389 43.5483L19.7373 43.5485ZM76.6049 35.5793C76.2487 34.971 76.451 34.1893 77.0606 33.8315C77.6688 33.4738 78.4506 33.6775 78.8083 34.2857C79.166 34.8938 78.9623 35.6756 78.3541 36.0333C78.1914 36.129 78.0166 36.1851 77.841 36.2035C77.3577 36.2543 76.8671 36.0262 76.6049 35.5793ZM21.5472 38.1815C20.9144 37.8709 20.6532 37.105 20.9639 36.4737C21.276 35.8407 22.0402 35.5782 22.6732 35.8903C23.306 36.2008 23.5686 36.9651 23.2565 37.598C23.056 38.0072 22.6648 38.262 22.2422 38.3064C22.0122 38.3306 21.7708 38.2915 21.5472 38.1815ZM73.4434 31.1653C72.9819 30.6309 73.0432 29.8248 73.5761 29.3634C74.1104 28.9019 74.9166 28.9633 75.3764 29.4963C75.8379 30.0307 75.7781 30.8366 75.2437 31.2981C75.039 31.4736 74.795 31.5731 74.5448 31.5994C74.1423 31.6417 73.7275 31.4921 73.4432 31.1637L73.4434 31.1653ZM24.2927 33.2267C23.7256 32.8087 23.6053 32.0075 24.0233 31.4404C24.4415 30.8749 25.2425 30.753 25.8096 31.171C26.3769 31.5905 26.497 32.3902 26.079 32.9573C25.856 33.2572 25.5289 33.433 25.1839 33.4693C24.8778 33.5014 24.5601 33.4233 24.2927 33.2267ZM69.5391 27.3824C69.5391 27.3824 69.5305 27.3754 69.5255 27.3728C69.5255 27.3728 69.5169 27.3658 69.515 27.3629C68.9657 26.9195 68.8797 26.1162 69.3264 25.5681C69.7698 25.0187 70.5731 24.9327 71.1209 25.3763C71.1209 25.3763 71.1294 25.3833 71.1346 25.3875C71.1346 25.3875 71.1432 25.3944 71.1483 25.3986C71.6961 25.8422 71.7806 26.6456 71.337 27.1934C71.1145 27.4682 70.8012 27.6268 70.4764 27.6609C70.1517 27.695 69.8123 27.605 69.5391 27.3824ZM27.8753 28.836C27.391 28.3244 27.4129 27.5162 27.926 27.0318C28.4391 26.5473 29.2474 26.5692 29.7318 27.0823C30.2162 27.5954 30.1944 28.4037 29.6812 28.8881C29.4699 29.0895 29.2083 29.2018 28.9379 29.2302C28.5572 29.2702 28.1599 29.1376 27.8768 28.8358L27.8753 28.836ZM65.0037 24.3366C64.3852 23.9979 64.1589 23.2204 64.4979 22.6034C64.8366 21.985 65.6139 21.7571 66.231 22.0976C66.8495 22.4364 67.0756 23.2123 66.7369 23.8308C66.5272 24.2126 66.1524 24.4437 65.7499 24.486C65.4997 24.5123 65.2403 24.4657 65.0037 24.3366ZM32.1792 25.1503C31.7952 24.5607 31.9616 23.767 32.5528 23.3828C33.144 22.9986 33.9362 23.1667 34.3202 23.7564C34.7045 24.3476 34.5363 25.1398 33.9467 25.5238C33.7717 25.6381 33.5791 25.7039 33.3849 25.7243C32.9234 25.7728 32.4508 25.5664 32.1808 25.1501L32.1792 25.1503ZM60.0263 22.1685C59.3573 21.9466 58.9937 21.2228 59.217 20.552C59.4389 19.883 60.1613 19.5211 60.8319 19.7428C61.5009 19.9648 61.863 20.6887 61.6411 21.3577C61.479 21.8492 61.0466 22.1743 60.5618 22.2253C60.3862 22.2438 60.2051 22.2251 60.0262 22.1669L60.0263 22.1685ZM37.0754 22.301C36.8028 21.651 37.1091 20.9023 37.7607 20.6296C38.4108 20.357 39.1594 20.6633 39.4321 21.3149C39.7048 21.9665 39.3984 22.7136 38.7468 22.9863C38.6295 23.0364 38.5086 23.0664 38.3873 23.0791C37.8419 23.1364 37.2979 22.8338 37.0754 22.301ZM54.7398 20.9299C54.0396 20.8307 53.5539 20.1857 53.6532 19.4856C53.751 18.7871 54.3975 18.3013 55.0959 18.3991C55.7945 18.4985 56.2804 19.145 56.1826 19.8434C56.0986 20.4352 55.6217 20.8749 55.0529 20.9347C54.9504 20.9455 54.845 20.944 54.7381 20.9285L54.7398 20.9299ZM42.4032 20.3742C42.2506 19.6848 42.6865 19.0043 43.3744 18.8518C44.0638 18.6993 44.7459 19.135 44.8967 19.823C45.0493 20.5124 44.6135 21.1945 43.9257 21.3469C43.878 21.3567 43.8302 21.3648 43.782 21.3699C43.1433 21.437 42.5445 21.0161 42.4032 20.3742ZM49.3155 20.6532C48.6113 20.6801 48.0162 20.1299 47.9893 19.4257C47.9624 18.7215 48.5128 18.1279 49.217 18.1011C49.9211 18.0742 50.5146 18.623 50.5414 19.3272C50.5685 20.003 50.0633 20.5777 49.3998 20.6475C49.3718 20.6504 49.3438 20.6534 49.314 20.6533L49.3155 20.6532Z" fill="#CBCBCB"/>
<path d="M54.2012 86.7026C73.9402 84.6279 88.26 66.9444 86.1853 47.2054C84.1107 27.4664 66.4272 13.1466 46.6882 15.2213C26.9492 17.2959 12.6294 34.9794 14.7041 54.7184C16.7787 74.4574 34.4622 88.7772 54.2012 86.7026Z" stroke="#CBCBCB" stroke-width="2" stroke-linecap="round" stroke-linejoin="round"/>
<g clip-path="url(#clip0_8_30562)">
<path d="M37.1054 53.6838L60.9614 51.1765L62.4034 64.8967C62.5078 65.8892 61.7851 66.7796 60.7904 66.8842L40.5385 69.0127C39.5438 69.1173 38.6518 68.3966 38.5475 67.4041L37.1054 53.6838Z" fill="#CBCBCB" stroke="white" stroke-miterlimit="10"/>
<path d="M51.7039 52.1495L46.3625 52.7109L47.9935 68.2292L53.3349 67.6678L51.7039 52.1495Z" fill="#CBCBCB" stroke="white" stroke-miterlimit="10"/>
<path d="M45.2464 47.4559C44.9455 47.4876 44.664 47.4881 44.4237 47.4815C42.9028 47.4423 41.3051 47.1148 39.8048 46.5353C36.7701 45.3636 35.3304 43.3843 36.0469 41.3692C36.6946 39.5487 38.7479 38.802 41.8295 39.2671C43.6364 39.5399 45.2337 40.3146 46.3284 41.4466C47.0461 42.1902 47.7902 43.4972 47.8335 44.7416C47.8778 45.9868 47.2178 46.9188 46.0241 47.2969C45.7605 47.381 45.4968 47.4287 45.2463 47.455L45.2464 47.4559ZM39.526 41.1517C39.4079 41.1641 39.2949 41.1806 39.1867 41.2001C38.2601 41.3729 38.0228 41.7578 37.9251 42.0335C37.4259 43.4376 40.2055 44.5571 40.5246 44.6808C41.796 45.1717 43.2001 45.4604 44.4762 45.4935C44.7594 45.501 45.1234 45.4973 45.4214 45.4024C45.7564 45.2962 45.854 45.1587 45.8422 44.8127C45.8193 44.1607 45.3416 43.291 44.8929 42.8273C44.1007 42.0071 42.9071 41.4417 41.5306 41.2337C40.7771 41.1202 40.0927 41.0922 39.526 41.1517Z" fill="#CBCBCB"/>
<path d="M48.54 46.3489C47.6542 46.442 46.8521 46.0736 46.2717 45.2839C45.5339 44.2797 45.3066 42.7929 45.4082 41.766C45.5642 40.1998 46.3376 38.6042 47.5869 37.2721C49.7167 35.0004 51.792 34.3159 53.4305 35.3445C55.2437 36.4828 55.3422 38.9276 53.6874 41.7239C52.8691 43.1079 51.8183 44.3527 50.6487 45.3237C50.311 45.6047 49.8496 45.9549 49.2781 46.1695C49.0275 46.264 48.7805 46.3236 48.54 46.3489ZM47.8798 44.1068C48.0849 44.3852 48.2474 44.4326 48.5761 44.309C48.8688 44.1992 49.1561 43.9772 49.3739 43.7961C50.355 42.9804 51.2776 41.8863 51.9715 40.7135C52.1456 40.4198 53.6325 37.8211 52.3694 37.0276C52.1217 36.8727 51.6972 36.7165 50.8622 37.1542C50.3018 37.4476 49.6732 37.9582 49.0432 38.6298C48.0922 39.6441 47.5059 40.8274 47.3928 41.961C47.3291 42.6031 47.4938 43.5811 47.8798 44.1068Z" fill="#CBCBCB"/>
<path d="M36.9604 46.9888L56.1991 40.3224C57.1441 39.9949 58.177 40.4943 58.5048 41.4371L59.6376 44.6959L36.9749 52.5487L35.8421 49.29C35.5144 48.3472 36.0154 47.3163 36.9604 46.9888Z" fill="#CBCBCB" stroke="white" stroke-miterlimit="10"/>
<path d="M49.1167 42.7766L44.0425 44.5349L45.769 49.5016L50.8432 47.7433L49.1167 42.7766Z" fill="#CBCBCB" stroke="white" stroke-miterlimit="10"/>
<path d="M61.8039 46.913L62.0989 45.255C62.2184 44.586 63.1388 44.4892 63.3948 45.1188L64.0281 46.6792L65.6895 46.9728C66.3599 47.0917 66.4565 48.0101 65.8254 48.2658L64.2613 48.8984L63.9663 50.5564C63.8468 51.2254 62.9264 51.3222 62.6704 50.6926L62.0371 49.1322L60.3757 48.8386C59.7052 48.7197 59.6087 47.8013 60.2398 47.5456L61.8039 46.913Z" fill="#CBCBCB"/>
</g>
</g>
<defs>
<filter id="filter0_d_8_30562" x="-3.51733" y="-3" width="107.924" height="107.924" filterUnits="userSpaceOnUse" color-interpolation-filters="sRGB">
<feFlood flood-opacity="0" result="BackgroundImageFix"/>
<feColorMatrix in="SourceAlpha" type="matrix" values="0 0 0 0 0 0 0 0 0 0 0 0 0 0 0 0 0 0 127 0" result="hardAlpha"/>
<feMorphology radius="2" operator="dilate" in="SourceAlpha" result="effect1_dropShadow_8_30562"/>
<feOffset/>
<feGaussianBlur stdDeviation="4"/>
<feComposite in2="hardAlpha" operator="out"/>
<feColorMatrix type="matrix" values="0 0 0 0 0.750065 0 0 0 0 0.750065 0 0 0 0 0.750065 0 0 0 0.5 0"/>
<feBlend mode="normal" in2="BackgroundImageFix" result="effect1_dropShadow_8_30562"/>
<feBlend mode="normal" in="SourceGraphic" in2="effect1_dropShadow_8_30562" result="shape"/>
</filter>
<clipPath id="clip0_8_30562">
<rect width="34" height="34" fill="white" transform="translate(31.4827 36.3623) rotate(-6)"/>
</clipPath>
</defs>
</svg>
