<svg width="48" height="48" viewBox="0 0 48 48" fill="none" xmlns="http://www.w3.org/2000/svg">
<path d="M47.5337 23.7744C47.5337 25.5318 45.7919 27.0701 45.4162 28.718C45.0404 30.3658 45.925 32.5578 45.1852 34.0921C44.4455 35.6265 42.1948 36.2802 41.1262 37.6188C40.0577 38.9574 39.9324 41.2864 38.5859 42.3589C37.2395 43.4314 34.9575 43.0321 33.3997 43.7836C31.8418 44.5351 30.7537 46.5666 29.0549 46.9502C27.3562 47.3338 25.5243 45.9756 23.7669 45.9756C22.0094 45.9756 20.1228 47.326 18.4788 46.9502C16.8349 46.5744 15.6645 44.5195 14.1341 43.7836C12.6036 43.0478 10.2865 43.4274 8.9478 42.3589C7.60916 41.2903 7.47999 38.9653 6.4075 37.6188C5.33502 36.2723 3.10003 35.65 2.3485 34.0921C1.59698 32.5343 2.50507 30.4167 2.11757 28.7219C1.73007 27.027 0 25.5318 0 23.7744C0 22.0169 1.74181 20.4786 2.11757 18.8308C2.49333 17.1829 1.60873 14.991 2.3485 13.4566C3.08828 11.9222 5.33893 11.2686 6.4075 9.92993C7.47607 8.59128 7.60133 6.26234 8.9478 5.18986C10.2943 4.11738 12.5762 4.51662 14.1341 3.7651C15.6919 3.01358 16.7801 0.982122 18.4788 0.598533C20.1776 0.214944 22.0094 1.57316 23.7669 1.57316C25.5243 1.57316 27.411 0.222773 29.0549 0.598533C30.6989 0.974294 31.8692 3.02924 33.3997 3.7651C34.9301 4.50097 37.2473 4.12129 38.5859 5.18986C39.9246 6.25843 40.0537 8.58345 41.1262 9.92993C42.1987 11.2764 44.4337 11.8988 45.1852 13.4566C45.9368 15.0144 45.0287 17.132 45.4162 18.8268C45.8037 20.5217 47.5337 22.0091 47.5337 23.7704V23.7744Z" fill="#0A486E"/>
<path d="M44.2597 30.8042C44.2597 30.8042 44.021 30.7925 43.9779 30.9451C43.8918 31.2661 44.1188 31.3953 44.4006 31.4618L44.6355 31.8845C44.4946 31.9628 44.5689 32.0803 44.5415 32.1664C44.5298 32.2055 44.4593 32.2251 44.4476 32.2603C44.3889 32.4482 44.6472 32.6556 44.7294 32.8239V33.0118C44.5729 33.2506 44.522 33.4854 44.2128 33.2467C43.9035 33.0079 43.9309 32.8592 44.0718 32.5421L43.6021 32.0724C43.5591 31.9315 43.379 31.4931 43.2733 31.4618C43.1794 31.4344 43.0698 31.5088 42.9915 31.3679H42.8976C42.7919 31.3992 42.5531 31.6419 42.5218 31.6497C42.4396 31.6732 42.056 31.6653 41.9582 31.6497C41.923 31.6419 41.876 31.5049 41.7233 31.5558L41.6294 31.133C41.6411 31.0861 41.9308 30.906 41.9582 30.8982C42.1421 30.8551 42.4279 30.9373 42.6158 30.8982C42.6941 30.8825 42.9759 30.6672 43.0855 30.6164C43.1324 30.5968 43.2107 30.6359 43.2733 30.6164C43.3164 30.6046 43.4965 30.3267 43.5082 30.2876C43.5434 30.1506 43.5082 29.9823 43.6021 29.8179C43.7117 29.6339 44.0523 29.5204 43.9779 29.2542C43.9701 29.2307 43.6922 28.9528 43.6491 28.9254C43.5434 28.8628 43.3399 28.8589 43.2733 28.8315C43.2107 28.8041 43.0542 28.671 42.9915 28.6436C42.925 28.6162 42.7215 28.6123 42.6158 28.5497C42.2948 28.3579 42.2948 27.9899 42.6158 27.7981C42.6353 27.7864 42.6823 27.8099 42.7097 27.7981C42.7489 27.7786 42.7684 27.712 42.8036 27.7042C43.5473 27.5398 43.6295 28.1974 44.1658 28.5027C44.111 28.6045 44.248 28.6436 44.2597 28.6906C44.2832 28.7689 44.2401 28.8863 44.2597 28.9724C44.2675 29.0076 44.3497 29.0311 44.3537 29.0663C44.3928 29.3325 44.3967 30.315 44.3537 30.5694C44.3537 30.5811 44.2675 30.7964 44.2597 30.8042Z" fill="#235777"/>
<path d="M40.4081 20.2826C40.3611 20.4392 40.4707 20.4509 40.5021 20.5175C40.7486 21.0459 41.281 21.5351 41.6763 21.8796C41.7663 21.9579 42.0012 22.2397 42.0521 22.2553C42.3769 22.3493 42.5766 21.6878 42.8975 21.7856C42.9406 21.7974 43.2146 21.9774 43.2263 22.0205C43.2537 22.1144 43.1794 22.224 43.3203 22.3023C43.1794 22.3806 43.2537 22.4902 43.2263 22.5841C43.2146 22.6272 42.9367 22.8072 42.8975 22.819C42.8192 22.8425 42.694 22.7955 42.6157 22.819C42.5844 22.8268 42.3417 23.0773 42.2399 23.1008C42.1656 23.1165 41.9386 23.1165 41.8642 23.1008C41.829 23.093 41.8094 23.0225 41.7702 23.0069C41.4923 22.8973 41.1909 22.7798 40.9718 22.5841C40.9522 22.2906 40.8074 21.9383 40.549 21.7856C40.4394 21.7191 40.232 21.6682 40.0793 21.5978C39.8132 21.4764 39.5666 21.4686 39.6566 21.0811C39.6644 21.042 39.7466 21.0224 39.7505 20.9872C39.7858 20.7562 39.6683 20.2826 39.9854 20.1887C40.1615 20.1378 40.2437 20.31 40.4081 20.2826Z" fill="#235777"/>
<path d="M46.1383 25.0735C45.9856 25.0226 45.9387 25.1596 45.9034 25.1675C45.7508 25.1949 45.5512 25.1479 45.3868 25.1675C45.4376 25.0148 45.3085 24.9835 45.2928 24.9326C45.2537 24.7995 45.2537 24.5216 45.1989 24.369C45.1597 24.2633 44.9366 23.9815 44.9171 23.8993C44.8936 23.7897 44.8897 23.0538 44.9171 22.9599C44.921 22.9442 45.1167 22.7485 45.1519 22.725C45.1715 22.7133 45.2184 22.7368 45.2458 22.725C45.285 22.7054 45.3046 22.6389 45.3398 22.6311C45.8291 22.5215 46.2361 22.6976 46.1383 23.2417C46.0169 23.9071 46.1579 23.7662 46.2322 24.275C46.2518 24.4042 46.2557 24.7134 46.2322 24.8387C46.2244 24.8739 46.0874 24.9209 46.1383 25.0735Z" fill="#235777"/>
<path d="M25.5655 6.09777V6.42656C25.3972 6.48918 25.3933 6.73969 25.3776 6.75535C25.362 6.771 25.2876 6.73578 25.2367 6.75535C25.1976 6.771 25.1741 6.84146 25.1428 6.84929C24.951 6.88452 24.7709 6.82189 24.5791 6.94323C24.4069 7.05282 24.2816 7.49121 24.1094 7.60081C24.0899 7.61255 24.0468 7.58515 24.0155 7.60081C23.9763 7.62038 23.9568 7.67909 23.9215 7.69475C23.8707 7.71432 23.7924 7.67909 23.7337 7.69475C23.6945 7.70649 23.6749 7.78086 23.6397 7.78869C23.4558 7.83174 23.1661 7.74563 23.217 7.55384C23.2287 7.51078 23.3657 7.45598 23.3109 7.27202C23.2992 7.23679 23.2326 7.21722 23.217 7.17808C23.1974 7.12719 23.2326 7.05282 23.217 7.03717C23.1974 7.0176 23.0526 7.05674 22.9821 7.03717C22.9313 7.02151 22.7708 6.96671 22.7003 6.94323C22.6455 6.92366 22.622 6.7984 22.4655 6.84929C22.5164 6.69664 22.3833 6.66141 22.3715 6.61444C22.2972 6.35219 22.8138 6.3561 22.9821 6.37959C23.0174 6.3835 23.0409 6.46961 23.0761 6.47353C23.4049 6.5205 23.7258 6.37959 24.0155 6.28565C24.0664 6.26999 24.1133 6.13691 24.2973 6.19171L24.8609 6.56747C24.951 6.55181 25.0684 6.58704 25.1428 6.56747C25.3306 6.51658 25.2171 6.03905 25.5655 6.09777Z" fill="#235777"/>
<path d="M10.6291 7.97662C10.7543 7.96487 11.2593 8.29758 11.2867 8.39935C11.4276 8.91602 11.0009 9.00605 10.5821 8.91602C10.5508 8.90819 10.3316 8.73597 10.3003 8.72814C10.1398 8.69291 9.89713 8.76337 9.73665 8.72814C9.70533 8.72031 9.68185 8.65377 9.64271 8.6342C9.61139 8.61854 9.56834 8.64594 9.54876 8.6342C9.28651 8.46589 9.47048 8.15667 9.40786 7.92965C9.35697 7.73785 9.09472 7.82005 8.98512 7.78874C8.96947 7.78482 8.75419 7.56954 8.75027 7.55389C8.69156 7.35035 8.8403 7.21727 8.84421 7.03722C9.02427 7.03722 9.15343 6.88848 9.36088 6.94328C9.40394 6.95502 9.58399 7.23292 9.59574 7.27207C9.62705 7.38558 9.56834 7.76917 9.83059 7.6948C9.86973 7.68306 9.8893 7.60869 9.92453 7.60086C10.2416 7.5304 10.6291 7.62434 10.6291 7.97662Z" fill="#235777"/>
<path d="M20.8684 20.7526C20.8332 20.596 20.9272 20.5647 21.0094 20.4708C21.1894 20.2672 21.4751 20.1537 21.6669 20.0011C22.0036 19.7349 22.0544 19.4061 22.6063 19.5314C22.6416 19.5392 22.6611 19.6057 22.7003 19.6253C22.7277 19.637 22.7747 19.6136 22.7942 19.6253C22.9899 19.7427 23.033 20.0089 23.217 20.142C23.2013 20.2633 23.2365 20.4042 23.217 20.5177C23.2091 20.553 23.1348 20.5725 23.123 20.6117C23.1074 20.6743 23.1426 20.7487 23.123 20.7996C23.1074 20.8348 23.0486 20.8544 23.0291 20.8935C23.0134 20.9248 23.0408 20.9679 23.0291 20.9874C22.939 21.1283 22.7942 21.1088 22.7003 21.2223C22.622 21.0814 22.5085 21.1557 22.4185 21.1283C22.3363 21.1049 22.121 20.7761 22.0427 20.7526C21.9644 20.7291 21.8509 20.7682 21.7609 20.7526C21.7257 20.7448 21.6983 20.6586 21.6669 20.6586C21.6474 20.6586 21.4203 20.7252 21.2912 20.7526C21.256 20.7604 21.2364 20.8348 21.1972 20.8465C21.0798 20.8818 21.0211 20.7056 20.8684 20.7526Z" fill="#235777"/>
<path d="M32.705 18.2159C32.6893 18.3529 32.7245 18.5095 32.705 18.6386C32.701 18.6739 32.6149 18.6973 32.611 18.7326C32.5719 18.9909 32.7128 19.3549 32.705 19.3902C32.6736 19.5076 32.4897 19.6681 32.4231 19.7659C32.4075 19.7894 32.4388 19.8403 32.4231 19.8599C32.294 20.0321 32.1335 20.1573 31.9065 20.0947C31.6794 20.0321 31.7969 19.4802 31.7656 19.2962C31.7577 19.261 31.6834 19.2414 31.6716 19.2023C31.652 19.1475 31.6873 19.0731 31.6716 19.0144C31.6677 18.9948 31.4759 18.803 31.4368 18.7795C31.3976 18.7561 31.198 18.713 31.1549 18.6856C30.9827 18.576 30.8653 18.3803 30.9201 18.1689C30.9671 17.9967 31.2567 18.0711 31.3428 17.9341H31.4368C31.4837 18.0398 31.6012 18.0124 31.6246 18.028C31.7695 18.118 31.8164 18.396 32.0004 18.4977C32.2822 18.4703 32.4114 18.1572 32.705 18.2159Z" fill="#235777"/>
<path d="M31.4839 26.9527L31.5779 27.1875L31.2021 27.939C31.2569 28.0095 31.3782 28.26 31.39 28.3148C31.4409 28.5262 31.3469 28.577 31.296 28.6905C31.2804 28.7219 31.3078 28.7649 31.296 28.7845C31.1669 28.988 30.7167 29.0781 30.4976 29.0193C30.3058 28.9645 30.2118 28.5966 30.2627 28.4087C30.2784 28.35 30.4936 28.213 30.5445 28.1269C30.5602 28.0995 30.5328 27.986 30.6385 27.939V27.7511C30.4467 27.5202 30.5054 27.1171 30.7794 26.9527C30.7989 26.9409 30.8459 26.9644 30.8733 26.9527C30.9125 26.9331 30.932 26.8665 30.9673 26.8587C31.1786 26.8078 31.2921 26.9409 31.4839 26.9527Z" fill="#235777"/>
<path d="M12.8837 8.16425C12.8954 8.35605 13.0285 8.46956 12.9776 8.68092C12.9698 8.71615 12.8954 8.73572 12.8837 8.77486C12.8641 8.82966 12.8994 8.90403 12.8837 8.96274C12.8681 9.01754 12.5236 9.37765 12.5079 9.43245C12.4571 9.60858 12.6567 9.72992 12.6019 9.90215C12.5158 10.1761 12.5158 10.2427 12.5079 10.5597C12.5079 10.638 12.551 10.8885 12.367 10.7946C12.3318 10.775 12.0461 10.4893 12.0382 10.4658C12.0226 10.4071 12.0578 10.3327 12.0382 10.2779C12.0265 10.2388 11.9521 10.2192 11.9443 10.184C11.9286 10.0861 11.9247 9.80429 11.9443 9.71427C11.9521 9.68295 12.1244 9.46376 12.1322 9.43245C12.23 8.98232 11.9012 8.91969 11.8504 8.68092C11.8347 8.61047 11.8347 8.36779 11.8504 8.30516C11.8973 8.13294 12.187 8.20731 12.2731 8.07031L12.8837 8.16425Z" fill="#235777"/>
<path d="M39.2339 16.8069C39.6957 16.6816 39.864 17.1279 40.1733 17.3705C40.2202 17.4058 40.4981 17.5193 40.549 17.5584C40.7173 17.6876 40.7682 17.8363 40.8778 17.9812V18.169C40.733 18.4039 40.686 18.5722 40.3611 18.4978C40.3416 18.4939 40.0206 18.3334 39.9854 18.3099C39.7114 18.1299 39.4452 17.7541 39.2808 17.5115C39.2378 17.4488 39.1047 17.3666 39.0929 17.3236C39.0577 17.1905 39.0812 16.846 39.2339 16.8069Z" fill="#235777"/>
<path d="M15.0912 7.03745C15.4591 6.93569 15.9758 7.23708 16.2655 7.46018C16.2459 7.5737 16.2929 7.73809 16.2655 7.83594C16.2576 7.85943 15.9602 8.15691 15.9367 8.16474C15.7175 8.22345 15.6353 8.09037 15.5609 8.0708C15.4317 8.03557 15.4004 8.02774 15.2791 7.97686C15.1225 7.91031 14.6098 7.75375 14.6685 7.55413C14.7546 7.44061 14.9699 7.07268 15.0912 7.03745Z" fill="#235777"/>
<path d="M28.2427 19.3434C28.3993 19.3004 28.9394 19.8014 29.0412 19.954C29.0569 19.9736 29.0255 20.0245 29.0412 20.048C29.1743 20.2633 29.276 20.4942 29.417 20.7056L29.1821 20.9404L28.6185 20.7525C28.5206 20.6116 28.3836 20.4629 28.2897 20.3298C28.274 20.3102 28.3053 20.2554 28.2897 20.2359C28.231 20.1498 28.0235 20.0088 28.0079 19.954C27.9374 19.6996 28.0392 19.4922 28.2427 19.3434Z" fill="#235777"/>
<path d="M23.4989 29.583V29.9587L23.1701 30.0527C23.0957 29.9078 22.9627 29.99 22.8883 29.9587C22.7552 29.9039 22.5595 29.7434 22.4186 29.6769C22.3716 29.6534 22.2933 29.6965 22.2307 29.6769C22.0507 29.626 21.7336 28.9606 21.808 28.7375L22.2307 28.6436L22.7943 29.2072C23.0409 29.2581 23.2366 29.5751 23.4989 29.583Z" fill="#235777"/>
<path d="M44.4006 25.0738C44.4632 25.0542 44.6981 25.0581 44.7764 25.0738C44.8116 25.0816 44.8312 25.156 44.8703 25.1677C44.9329 25.1834 45.0073 25.1482 45.0582 25.1677C45.0934 25.1834 45.113 25.2421 45.1521 25.2617C45.1991 25.2852 45.3557 25.293 45.387 25.4026C45.4026 25.4652 45.4026 25.8097 45.387 25.8723C45.3792 25.8958 45.0817 26.1933 45.0582 26.2011C44.9643 26.2285 44.8547 26.1541 44.7764 26.295C44.6276 26.1815 44.3693 26.0563 44.2597 25.8723C44.248 25.8527 44.2714 25.8057 44.2597 25.7784C44.2401 25.7392 44.1736 25.7196 44.1658 25.6844C44.1227 25.4887 44.201 25.1286 44.4006 25.0738Z" fill="#235777"/>
<path d="M26.6927 21.5042C26.5284 21.4768 26.4462 21.649 26.27 21.5981C26.2544 21.5942 26.0587 21.3985 26.0352 21.3633C26.0234 21.3437 26.0469 21.2968 26.0352 21.2694C26.0156 21.2302 25.9491 21.2106 25.9412 21.1754C25.7886 20.4983 26.2583 20.3926 26.8337 20.4709C27.092 20.5061 27.1272 20.7723 27.0685 20.9875C27.0333 21.1128 26.6184 21.2889 26.6927 21.5042Z" fill="#235777"/>
<path d="M35.1006 31.7437C35.3941 31.6654 35.719 31.8455 35.899 32.0725C35.9695 32.3152 36.1652 32.5344 36.0869 32.824C36.083 32.8397 35.8677 33.055 35.8521 33.0589C35.7268 33.098 35.6525 32.9297 35.5703 32.871C35.5468 32.8553 35.4959 32.8866 35.4763 32.871C35.3941 32.8084 35.2102 32.6244 35.1475 32.5422C35.1319 32.5226 35.1632 32.4717 35.1475 32.4483C35.1045 32.3856 34.9714 32.3034 34.9596 32.2604C34.9244 32.1273 34.9479 31.7828 35.1006 31.7437Z" fill="#235777"/>
<path d="M36.7444 24.6981L37.1201 24.0875C37.0419 23.7548 37.3707 23.426 37.6838 23.6178C37.9343 23.7705 38.0439 24.0836 37.9656 24.3693C37.9539 24.4124 37.6642 24.5964 37.6368 24.6042C37.4528 24.6472 37.218 24.565 37.0262 24.7451L36.7444 24.6981Z" fill="#235777"/>
<path d="M20.9625 30.2403C21.0525 30.436 20.7981 30.8509 20.6337 30.8979C20.4028 30.9605 19.9879 30.8822 19.7882 30.8039L19.2716 31.0858C19.2481 30.9018 19.2676 30.8235 19.4125 30.71C19.663 30.5143 19.6434 30.7531 19.7882 30.71C19.8 30.71 19.9605 30.6239 19.9761 30.6161C20.2423 30.4556 20.3166 30.0563 20.7276 30.1464C20.7707 30.1542 20.8098 30.2912 20.9625 30.2403Z" fill="#235777"/>
<path d="M38.5761 7.13106C38.7758 7.07626 38.9871 7.18978 39.0928 7.36591C39.1045 7.38549 39.0811 7.43245 39.0928 7.45985C39.1124 7.499 39.1789 7.51857 39.1867 7.55379C39.2768 7.93738 38.9362 8.14875 38.5761 8.07047C38.5448 8.06264 38.2591 7.87867 38.2473 7.83561C38.2317 7.7769 38.2317 7.51857 38.2473 7.45985C38.2552 7.43637 38.5526 7.13889 38.5761 7.13106Z" fill="#235777"/>
<path d="M36.4627 17.8404C36.764 17.7817 36.9128 17.9931 36.8384 18.2632C36.8228 18.314 36.6662 18.4002 36.6505 18.451C36.627 18.5293 36.674 18.6546 36.6505 18.7329C36.6427 18.7681 36.5762 18.7877 36.5566 18.8268C36.5409 18.8581 36.5683 18.9012 36.5566 18.9207C36.4196 19.136 35.9538 19.1125 35.899 18.9207C35.7346 18.318 36.4509 18.3806 36.4627 17.8404Z" fill="#235777"/>
<path d="M34.7717 28.7376C34.7717 28.7376 34.7991 28.5497 34.6777 28.5027L34.7717 28.08L35.2883 27.8921C35.6641 28.0682 35.9068 28.4831 35.4762 28.7376C35.4488 28.7532 35.3353 28.7258 35.2883 28.8315L34.7717 28.7376Z" fill="#235777"/>
<path d="M37.4958 14.7401C37.5702 14.5757 37.4019 14.427 37.4019 14.4113C37.4019 14.38 37.4841 14.3565 37.4958 14.3174C37.5115 14.2548 37.4762 14.1804 37.4958 14.1295C37.5115 14.0943 37.5702 14.0747 37.5897 14.0356C37.6093 13.9925 37.5702 13.9182 37.6837 13.8477C38.0164 13.6402 38.2082 13.9964 38.3413 14.2235V14.3174C38.2004 14.3957 38.2747 14.5053 38.2473 14.5992C38.2121 14.7166 37.9851 14.7323 37.9185 14.8341L37.4958 14.7401Z" fill="#235777"/>
<path d="M23.5458 36.0645C23.9293 35.9588 24.172 36.1858 24.0624 36.5811C23.9802 36.8825 23.1426 36.542 22.9821 36.9099C22.9195 36.8395 22.8099 36.7847 22.8412 36.6751C22.8764 36.5576 23.0643 36.542 23.0761 36.5342C23.1817 36.4441 23.487 36.0801 23.5458 36.0645Z" fill="#235777"/>
<path d="M34.161 16.4312C34.251 16.4156 34.5563 16.4116 34.6307 16.4312C34.6816 16.443 34.893 16.67 34.8656 16.76C34.8029 16.9675 34.2784 17.1201 34.0671 17.1827C33.9066 17.0457 33.7813 16.8814 33.7383 16.6661L34.161 16.4312Z" fill="#235777"/>
<path d="M23.9686 23.1008C23.9177 23.2534 24.0547 23.2926 24.0625 23.3356C24.1408 23.684 23.8355 24.0597 23.4519 24.0402L23.217 23.7114C23.311 23.3591 23.5732 23.0186 23.9686 23.1008Z" fill="#235777"/>
<path d="M19.1774 28.1737C19.2283 28.021 19.0991 27.9897 19.0834 27.9388C19.0326 27.7627 19.2048 27.6805 19.1774 27.5161C19.3574 27.5161 19.4905 27.3634 19.694 27.4221C19.8858 27.4769 19.9798 27.8449 19.9289 28.0327C19.8976 28.1502 19.6666 28.1658 19.6001 28.2676L19.1774 28.1737Z" fill="#235777"/>
<path d="M26.1292 8.25851C26.0783 8.41116 26.2153 8.4503 26.2231 8.49336C26.2701 8.69689 26.1331 9.09614 25.8944 9.10397C25.6908 9.01003 25.3855 9.04525 25.3777 8.77518C25.4795 8.36027 25.6947 8.18805 26.1292 8.25851Z" fill="#235777"/>
<path d="M6.07299 20.3766C6.16693 20.3492 6.31175 20.3687 6.40178 20.4235C6.58966 20.537 6.74231 20.768 6.6836 20.9872C6.67968 21.0028 6.4644 21.2181 6.44875 21.222C6.20998 21.2925 5.92816 21.0028 5.83813 20.7993V20.7053C5.9399 20.6388 5.95556 20.4079 6.07299 20.3766Z" fill="#235777"/>
<path d="M3.20761 14.928C3.12933 14.2587 3.43464 13.7616 4.05308 14.3174C3.85345 14.6188 3.63035 15.0141 3.20761 14.928Z" fill="#235777"/>
<path d="M2.40917 26.3888C2.50311 26.3614 2.64793 26.3809 2.73796 26.4357C2.78101 26.4631 3.01586 26.698 3.01978 26.7175C3.12937 27.109 2.82798 27.1833 2.50311 27.1403C2.28 27.109 2.22911 26.9015 2.17432 26.7175C2.27608 26.651 2.29174 26.4201 2.40917 26.3888Z" fill="#235777"/>
<path d="M8.93812 29.5826C8.84418 29.0699 9.20428 29.0542 9.64267 29.1129C9.99103 29.1599 9.92058 29.6296 9.73661 29.6766C9.6505 29.7001 9.27474 29.6962 9.17297 29.6766C9.13774 29.6688 9.08686 29.5318 8.93812 29.5826Z" fill="#235777"/>
<path d="M30.6854 20.0011C30.838 19.9541 31.1707 20.2203 31.202 20.3299C31.3351 20.7722 30.4779 20.9249 30.3566 20.5178C30.3096 20.3651 30.5758 20.0324 30.6854 20.0011Z" fill="#235777"/>
<path d="M19.4126 1.58864C19.7296 1.50253 19.7923 1.69824 19.9293 1.91743C19.9136 2.17577 19.5183 2.65721 19.3186 2.34016C19.2404 2.21491 19.3147 2.09748 19.1777 2.01137V1.91743C19.2795 1.85089 19.2952 1.61995 19.4126 1.58864Z" fill="#235777"/>
<path d="M34.5369 22.8188L34.8187 23.0067C35.0222 23.3355 34.6543 23.6017 34.349 23.6643C33.9145 23.3277 34.1024 23.038 34.5369 22.8188Z" fill="#235777"/>
<path d="M35.9459 15.9616C36.3725 15.8325 36.3647 16.6466 36.1337 16.7131C35.7462 16.8227 35.4331 16.5566 35.711 16.1965C35.7462 16.1495 35.9224 15.9694 35.9459 15.9616Z" fill="#235777"/>
<path d="M24.6261 27.3281V27.7039C24.3208 27.7 23.6554 27.7782 23.4988 27.469C23.4049 27.2851 23.6554 27.3281 23.7337 27.3281C24.0311 27.3242 24.3286 27.332 24.6261 27.3281Z" fill="#235777"/>
<path d="M26.5988 37.8495C26.7006 37.8652 26.8415 37.826 26.9276 37.8495C26.9707 37.8613 27.1547 38.147 27.1625 38.1783C27.2095 38.3897 27.0881 38.6402 26.9276 38.7889C26.6928 38.5227 26.5519 38.2018 26.5988 37.8495Z" fill="#235777"/>
<path d="M28.7594 24.0402C28.5754 24.0441 28.4501 24.1889 28.2427 24.1341C27.9922 24.0676 28.1644 23.7349 28.1957 23.5705L28.6184 23.4766L28.8533 23.7114L28.7594 24.0402Z" fill="#235777"/>
<path d="M37.6369 36.7222C37.7034 36.7026 38.04 36.7026 38.1066 36.7222C38.2905 36.7692 38.361 37.235 38.0126 37.2858C37.496 37.3602 37.3511 36.7966 37.6369 36.7222Z" fill="#235777"/>
<path d="M8.56226 12.2979C8.33915 12.748 7.90468 13.3273 7.7168 12.5327L7.81074 12.2979H8.56226Z" fill="#235777"/>
<path d="M13.823 5.34619C13.8113 5.71412 13.9522 6.16034 13.4473 6.09771C13.4982 5.94506 13.3612 5.90592 13.3533 5.86286C13.3025 5.63975 13.4434 5.53016 13.4473 5.34619H13.823Z" fill="#235777"/>
<path d="M37.1203 26.1069L37.2142 26.4357L36.9794 26.6706L36.5566 26.5766L36.6506 26.1069H37.1203Z" fill="#235777"/>
<path d="M5.18037 15.2097C5.21951 15.2489 5.56396 15.2097 5.46219 15.5855C5.32128 15.5542 5.243 15.378 5.1334 15.3037C5.09426 15.2763 4.89463 15.2371 4.85158 15.2097C4.64021 15.0767 4.5815 14.8927 4.61673 14.6461C4.69893 14.5561 5.1334 14.9866 5.18037 15.0688C5.20385 15.1119 5.16471 15.1941 5.18037 15.2097Z" fill="#235777"/>
<path d="M17.4865 41.1374C17.7292 41.1022 18.1519 41.1218 18.0502 41.4662C18.0188 41.568 17.7723 41.7441 17.6274 41.7011C17.5061 41.6659 17.4983 41.4428 17.3926 41.3723L17.4865 41.1374Z" fill="#235777"/>
<path d="M13.729 19.0617C13.7642 19.3083 13.7485 19.7232 13.4002 19.6254C13.134 19.551 13.2632 19.0656 13.4941 18.9678L13.729 19.0617Z" fill="#235777"/>
<path d="M32.2352 16.2432C32.2469 16.431 32.3761 16.5446 32.3291 16.7598C32.3213 16.8029 32.1843 16.8459 32.2352 16.9477L31.9534 16.9947V16.478L32.2352 16.2432Z" fill="#235777"/>
<path d="M33.5505 19.3435C33.664 19.7114 33.0808 20.0011 32.9868 19.6723C32.889 19.3278 33.3039 19.3083 33.5505 19.3435Z" fill="#235777"/>
<path d="M10.3473 20.0007C10.2259 20.0281 10.0067 19.9851 9.97151 19.8598C9.84626 19.4019 10.3668 19.3157 10.4412 19.578C10.4921 19.758 10.3199 19.8363 10.3473 20.0007Z" fill="#235777"/>
<path d="M29.7928 17.0886C29.9533 17.6992 29.2018 17.6679 29.3231 17.2295C29.3701 17.0651 29.6558 17.0768 29.7928 17.0886Z" fill="#235777"/>
<path d="M43.6021 23.8526C43.8526 23.8212 44.2596 23.8291 44.1657 24.1813C44.1148 24.3771 43.9504 24.2518 43.8369 24.2283L43.6021 23.8526Z" fill="#235777"/>
<path d="M31.8596 7.22506H31.4838C31.5347 7.08415 31.3899 7.00978 31.3899 6.99021C31.3899 6.97064 31.5347 6.89627 31.4838 6.75536C31.8439 6.70839 31.8948 6.90801 31.8596 7.22506Z" fill="#235777"/>
<path d="M26.5989 10.795V10.4192C27.2251 10.3488 27.2251 10.8654 26.5989 10.795Z" fill="#235777"/>
<path d="M33.2685 40.4801C32.7675 40.6014 32.834 39.9282 33.1276 40.0104C33.2841 40.0535 33.2841 40.3274 33.2685 40.4801Z" fill="#235777"/>
<path d="M30.7321 22.6313C30.8808 23.2028 30.2741 23.1637 30.3563 22.8662C30.3681 22.8192 30.5012 22.784 30.4503 22.6313H30.7321Z" fill="#235777"/>
<path d="M19.929 16.0557C19.5728 16.0791 19.3458 15.4529 19.7881 15.586C19.9486 15.6329 19.9407 15.903 19.929 16.0557Z" fill="#235777"/>
<path d="M13.3535 20.6587H12.9778V21.0345H13.3535V20.6587Z" fill="#235777"/>
<path d="M3.06691 31.9312C3.29002 32.1151 3.43092 32.2873 3.16085 32.4948C2.93774 32.3108 2.79683 32.1386 3.06691 31.9312Z" fill="#235777"/>
<path d="M7.34106 11.3585C7.20015 11.3076 7.12578 11.4524 7.10621 11.4524C7.08664 11.4524 7.01227 11.3076 6.87136 11.3585C6.86745 10.971 7.34498 10.971 7.34106 11.3585Z" fill="#235777"/>
<path d="M4.0532 23.3828C4.04537 23.1832 4.01406 23.0305 4.19411 22.9131C4.44853 23.0971 4.3585 23.3945 4.0532 23.3828Z" fill="#235777"/>
<path d="M10.9109 27.7041C10.9109 28.0759 10.5391 28.0759 10.5352 27.7041H10.9109Z" fill="#235777"/>
<path d="M29.1353 13.4251V13.7069H28.8535C28.8261 13.5268 28.9553 13.3977 29.1353 13.4251Z" fill="#235777"/>
<path d="M20.4928 7.88281C20.5202 8.06286 20.391 8.19203 20.2109 8.16463V7.88281H20.4928Z" fill="#235777"/>
<path d="M23.7669 43.1686C34.4781 43.1686 43.1613 34.4854 43.1613 23.7742C43.1613 13.063 34.4781 4.37988 23.7669 4.37988C13.0557 4.37988 4.37256 13.063 4.37256 23.7742C4.37256 34.4854 13.0557 43.1686 23.7669 43.1686Z" stroke="white" stroke-width="1.17425" stroke-miterlimit="10"/>
<path d="M25.385 40.6195C25.3369 40.2429 25.6036 39.8975 25.9802 39.8494C26.3568 39.8014 26.7022 40.068 26.7502 40.4447C26.7983 40.8213 26.5324 41.1665 26.1557 41.2138L26.1398 41.2154C25.7691 41.2544 25.4332 40.9901 25.3858 40.6194L25.385 40.6195ZM22.9857 41.3345C22.6062 41.3143 22.3149 40.9912 22.3343 40.6118C22.3536 40.2323 22.6775 39.9402 23.0571 39.9603C23.4365 39.9797 23.7277 40.3028 23.7084 40.6823C23.6903 41.0252 23.4252 41.2968 23.0946 41.3316C23.0594 41.3353 23.0239 41.3356 22.9865 41.3344L22.9857 41.3345ZM28.3895 40.0836C28.2753 39.7216 28.4758 39.3341 28.8387 39.2198C29.2007 39.1056 29.5882 39.3061 29.7025 39.6689C29.8167 40.031 29.6162 40.4176 29.2534 40.5328C29.2083 40.5468 29.1627 40.5558 29.1175 40.5606C28.7994 40.594 28.4914 40.4004 28.3904 40.0836L28.3895 40.0836ZM19.845 40.8895C19.4754 40.8022 19.2461 40.432 19.3325 40.0624C19.4196 39.6919 19.7899 39.4626 20.1604 39.5497C20.53 39.637 20.7594 40.0072 20.6721 40.3769C20.6039 40.6701 20.3572 40.8746 20.0742 40.9043C19.9998 40.9121 19.9223 40.9076 19.8451 40.8903L19.845 40.8895ZM31.2508 39.0221C31.0733 38.6854 31.2014 38.2699 31.5381 38.0915C31.874 37.9141 32.2903 38.0421 32.4678 38.3789C32.6453 38.7148 32.5173 39.1311 32.1805 39.3086C32.1012 39.3508 32.0158 39.3759 31.9321 39.3847C31.6609 39.4132 31.3869 39.2778 31.2517 39.022L31.2508 39.0221ZM16.8346 39.8874C16.4869 39.7361 16.3275 39.3306 16.4796 38.982C16.6318 38.6343 17.0365 38.4758 17.385 38.6271C17.7327 38.7792 17.8921 39.1847 17.74 39.5325C17.6369 39.7676 17.419 39.9166 17.1813 39.9415C17.0666 39.9536 16.9472 39.9365 16.8346 39.8874ZM33.8755 37.4642C33.6402 37.1657 33.692 36.7329 33.9897 36.4976C34.2882 36.2623 34.721 36.3141 34.9563 36.6127C35.1908 36.9113 35.1389 37.3433 34.8412 37.5785C34.7357 37.6615 34.6129 37.7091 34.4882 37.7222C34.2605 37.7462 34.0269 37.6565 33.8755 37.4642ZM14.0543 38.3627C13.7392 38.1505 13.6553 37.7226 13.8668 37.4076C14.0781 37.0917 14.5061 37.0087 14.821 37.2193C15.137 37.4315 15.22 37.8594 15.0094 38.1744C14.8908 38.3501 14.7054 38.4543 14.5095 38.4748C14.3547 38.4911 14.1935 38.4548 14.0542 38.3619L14.0543 38.3627ZM36.1764 35.4596C35.8928 35.2085 35.8656 34.773 36.1176 34.4892C36.3695 34.2047 36.8043 34.1784 37.0888 34.4303C37.3733 34.6814 37.3997 35.117 37.1477 35.4007C37.0289 35.5351 36.8694 35.6111 36.7045 35.6284C36.5195 35.6478 36.3275 35.5927 36.1764 35.4596ZM11.5887 36.3692C11.3155 36.1051 11.3086 35.6692 11.5727 35.396C11.8368 35.1228 12.2728 35.1159 12.5459 35.38C12.8191 35.6441 12.826 36.08 12.5619 36.3532C12.4451 36.4738 12.2941 36.543 12.1393 36.5593C11.9443 36.5798 11.7413 36.5165 11.5887 36.3692ZM38.086 33.0799C37.7614 32.8821 37.6585 32.4588 37.8571 32.1341C38.054 31.8096 38.4781 31.7066 38.8019 31.9045C39.1264 32.1014 39.2294 32.5255 39.0315 32.8493C38.9145 33.0402 38.7209 33.1544 38.515 33.1761C38.3702 33.1913 38.2198 33.1614 38.086 33.0799ZM9.51503 33.9663C9.29389 33.6578 9.36466 33.2281 9.67315 33.007C9.98247 32.7857 10.4122 32.8565 10.6333 33.165C10.8545 33.4735 10.7838 33.904 10.4752 34.1243C10.3745 34.1967 10.2611 34.2374 10.1465 34.2494C9.90876 34.2744 9.66473 34.1748 9.51503 33.9663ZM39.5415 30.3991C39.187 30.2629 39.0097 29.8643 39.146 29.5098C39.2822 29.1553 39.6807 28.978 40.0344 29.1143C40.3889 29.2506 40.5661 29.6483 40.43 30.0036C40.3344 30.2532 40.1085 30.4148 39.8591 30.4411C39.7553 30.452 39.6457 30.4398 39.5407 30.3992L39.5415 30.3991ZM7.90738 31.231C7.74519 30.8875 7.89169 30.4778 8.23514 30.3156C8.57851 30.1525 8.98918 30.2998 9.15137 30.6432C9.31356 30.9867 9.16707 31.3964 8.82286 31.5596C8.7511 31.5933 8.67616 31.6131 8.60083 31.621C8.31792 31.6507 8.03487 31.5019 7.90729 31.2301L7.90738 31.231ZM40.4926 27.4998C40.1197 27.4298 39.8737 27.0698 39.9437 26.6968C40.0145 26.3238 40.3737 26.0779 40.7466 26.1479C41.1204 26.2177 41.3655 26.5779 41.2964 26.9507C41.2388 27.2563 40.9869 27.4766 40.6923 27.5076C40.627 27.5144 40.5608 27.5121 40.4925 27.4989L40.4926 27.4998ZM6.81497 28.2527C6.7163 27.8857 6.93389 27.5082 7.30103 27.4104C7.66809 27.3117 8.04554 27.5293 8.14336 27.8965C8.24119 28.2636 8.0236 28.6411 7.65646 28.7389C7.62025 28.7486 7.58544 28.7557 7.55029 28.7594C7.21967 28.7941 6.90306 28.5837 6.81497 28.2527ZM40.9087 24.4772C40.5284 24.4749 40.2225 24.1643 40.2256 23.784C40.228 23.4038 40.5378 23.0988 40.918 23.1011C41.2982 23.1035 41.6042 23.414 41.601 23.7943C41.5993 24.1482 41.3294 24.4381 40.9862 24.4742C40.9611 24.4768 40.935 24.4779 40.9087 24.4781L40.9087 24.4772ZM7.01372 25.7557C6.63544 25.7879 6.3029 25.5063 6.2715 25.1271C6.23936 24.7488 6.5209 24.4163 6.90011 24.3849C7.27848 24.3536 7.61094 24.6343 7.64233 25.0135C7.6732 25.3877 7.40051 25.7159 7.02971 25.7549C7.02469 25.7554 7.01883 25.756 7.01465 25.7565L7.01372 25.7557ZM39.9843 20.8678C39.9196 20.4938 40.1707 20.1374 40.5447 20.0727C40.9186 20.0072 41.2751 20.2583 41.3398 20.6323C41.4045 21.0063 41.1534 21.3627 40.7794 21.4274C40.7645 21.4307 40.7486 21.4324 40.7335 21.4339C40.3761 21.4715 40.0465 21.226 39.9843 20.8678ZM6.91072 22.7065C6.53285 22.6701 6.25555 22.3345 6.29191 21.9558C6.32836 21.5779 6.66395 21.3006 7.04266 21.337C7.42053 21.3734 7.69783 21.709 7.6623 22.0876C7.63031 22.4193 7.36839 22.6728 7.05033 22.7062C7.00513 22.711 6.95865 22.7116 6.91165 22.7073L6.91072 22.7065ZM39.2294 18.0412C39.0988 17.6842 39.2815 17.2893 39.6393 17.1586C39.9962 17.028 40.3913 17.2116 40.5219 17.5685C40.6525 17.9254 40.4689 18.3205 40.1119 18.4511C40.0573 18.4704 40.002 18.4838 39.9468 18.4896C39.6404 18.5218 39.34 18.3444 39.2295 18.042L39.2294 18.0412ZM7.35079 19.6874C6.9854 19.5845 6.77278 19.204 6.87644 18.8377C6.97936 18.4723 7.35983 18.2597 7.72615 18.3633C8.09154 18.4663 8.30417 18.8467 8.2005 19.2131C8.12151 19.4922 7.88246 19.6814 7.61043 19.71C7.5259 19.7189 7.43885 19.712 7.35163 19.6873L7.35079 19.6874ZM37.9815 15.3949C37.7896 15.0673 37.8985 14.6463 38.2269 14.4535C38.5545 14.2608 38.9756 14.3706 39.1683 14.6981C39.361 15.0257 39.2512 15.4468 38.9237 15.6395C38.836 15.691 38.7418 15.7212 38.6473 15.7312C38.3869 15.7585 38.1227 15.6357 37.9815 15.3949ZM8.32563 16.7966C7.98479 16.6293 7.8441 16.2167 8.01147 15.8767C8.17958 15.5358 8.59122 15.3943 8.93216 15.5624C9.27301 15.7297 9.41444 16.1414 9.24632 16.4823C9.13832 16.7027 8.92764 16.8399 8.69998 16.8638C8.5761 16.8769 8.44611 16.8558 8.32563 16.7966ZM36.2786 13.0174C36.03 12.7296 36.063 12.2954 36.35 12.0469C36.6379 11.7983 37.0721 11.8314 37.3197 12.1184C37.5683 12.4063 37.5361 12.8404 37.2483 13.089C37.138 13.1835 37.0066 13.2371 36.8718 13.2512C36.655 13.274 36.4316 13.1934 36.2785 13.0166L36.2786 13.0174ZM9.80448 14.1278C9.49902 13.9026 9.4342 13.4711 9.65935 13.1656C9.88459 12.861 10.316 12.7953 10.6215 13.0205C10.9271 13.2465 10.9918 13.6772 10.7666 13.9826C10.6465 14.1442 10.4703 14.2389 10.2845 14.2584C10.1196 14.2757 9.94847 14.2336 9.80448 14.1278ZM34.1756 10.9798C34.1756 10.9798 34.171 10.9761 34.1683 10.9747C34.1683 10.9747 34.1636 10.9709 34.1626 10.9693C33.8667 10.7305 33.8204 10.2978 34.061 10.0026C34.2999 9.70669 34.7325 9.66037 35.0276 9.89931C35.0276 9.89931 35.0322 9.90305 35.035 9.9053C35.035 9.9053 35.0396 9.90904 35.0424 9.91129C35.3375 10.1502 35.3829 10.583 35.144 10.878C35.0241 11.026 34.8554 11.1115 34.6805 11.1298C34.5055 11.1482 34.3227 11.0997 34.1756 10.9798ZM11.7342 11.7628C11.4733 11.4872 11.4851 11.0519 11.7615 10.791C12.0379 10.53 12.4732 10.5418 12.7341 10.8182C12.9951 11.0946 12.9833 11.5299 12.7069 11.7909C12.5931 11.8993 12.4522 11.9598 12.3065 11.9751C12.1015 11.9967 11.8875 11.9252 11.735 11.7627L11.7342 11.7628ZM31.7327 9.33928C31.3995 9.15681 31.2777 8.73804 31.4602 8.40574C31.6427 8.0726 32.0614 7.94989 32.3938 8.13329C32.7269 8.31576 32.8487 8.7337 32.6662 9.06684C32.5533 9.2725 32.3514 9.39696 32.1346 9.41974C31.9999 9.43391 31.8602 9.40882 31.7327 9.33928ZM14.0524 9.77755C13.8455 9.45995 13.9352 9.03248 14.2536 8.82553C14.572 8.61858 14.9988 8.70913 15.2056 9.02674C15.4126 9.34518 15.322 9.77189 15.0044 9.97876C14.9102 10.0403 14.8064 10.0757 14.7018 10.0867C14.4532 10.1129 14.1987 10.0017 14.0532 9.77747L14.0524 9.77755ZM29.0517 8.17144C28.6914 8.05192 28.4955 7.66207 28.6158 7.30077C28.7353 6.9404 29.1244 6.74549 29.4856 6.86493C29.846 6.98445 30.041 7.37439 29.9215 7.73476C29.8342 7.9995 29.6013 8.17461 29.3401 8.20206C29.2455 8.212 29.148 8.20194 29.0516 8.1706L29.0517 8.17144ZM16.6896 8.24284C16.5428 7.8927 16.7078 7.48947 17.0587 7.34257C17.4089 7.19575 17.8121 7.3607 17.959 7.71169C18.1059 8.06267 17.9409 8.46506 17.5899 8.61197C17.5267 8.63892 17.4616 8.65507 17.3963 8.66193C17.1025 8.69281 16.8095 8.52982 16.6896 8.24284ZM26.2042 7.50431C25.8271 7.45086 25.5655 7.10347 25.6189 6.72635C25.6716 6.35015 26.0199 6.08845 26.3961 6.14115C26.7723 6.19469 27.034 6.54292 26.9813 6.91912C26.9361 7.23782 26.6792 7.4747 26.3729 7.50689C26.3177 7.5127 26.2609 7.5119 26.2033 7.50356L26.2042 7.50431ZM19.5593 7.20499C19.4771 6.83366 19.712 6.4671 20.0824 6.385C20.4538 6.30282 20.8212 6.53754 20.9024 6.90812C20.9846 7.27944 20.7499 7.64684 20.3794 7.72894C20.3537 7.73418 20.328 7.73858 20.302 7.74131C19.958 7.77747 19.6354 7.55072 19.5593 7.20499ZM23.2825 7.35527C22.9032 7.36974 22.5827 7.0734 22.5682 6.69411C22.5537 6.31482 22.8502 5.99509 23.2295 5.98061C23.6087 5.96614 23.9284 6.26173 23.9429 6.64102C23.9574 7.00507 23.6853 7.31462 23.3279 7.35219C23.3128 7.35377 23.2978 7.35536 23.2817 7.35535L23.2825 7.35527Z" fill="white"/>
<path d="M23.9973 27.3075C23.9973 27.18 23.8941 27.0767 23.7668 27.0767C23.6396 27.0767 23.5364 27.18 23.5364 27.3075V28.7427C23.5364 28.8702 23.6396 28.9736 23.7668 28.9736C23.8941 28.9736 23.9973 28.8702 23.9973 28.7427V27.3075Z" fill="white"/>
<g clip-path="url(#clip0_115_11494)">
<path d="M15.4355 25.0996L30.8777 23.4766L31.8111 32.3578C31.8787 33.0002 31.4109 33.5766 30.767 33.6443L17.6578 35.0221C17.0139 35.0898 16.4365 34.6233 16.369 33.9808L15.4355 25.0996Z" fill="#0A486E" stroke="white" stroke-width="0.647307" stroke-miterlimit="10"/>
<path d="M24.8855 24.1063L21.428 24.4697L22.4838 34.5148L25.9413 34.1514L24.8855 24.1063Z" fill="white" stroke="white" stroke-width="0.647307" stroke-miterlimit="10"/>
<path d="M20.7058 21.0678C20.511 21.0883 20.3288 21.0886 20.1733 21.0843C19.1888 21.059 18.1546 20.847 17.1834 20.4719C15.219 19.7134 14.2871 18.4322 14.7509 17.1278C15.1702 15.9494 16.4992 15.4661 18.494 15.7671C19.6636 15.9437 20.6976 16.4451 21.4062 17.1779C21.8707 17.6592 22.3524 18.5053 22.3804 19.3108C22.4091 20.1168 21.9819 20.7201 21.2092 20.9649C21.0386 21.0193 20.8679 21.0502 20.7057 21.0672L20.7058 21.0678ZM17.0029 16.987C16.9265 16.9951 16.8533 17.0057 16.7833 17.0184C16.1835 17.1302 16.0299 17.3794 15.9667 17.5578C15.6435 18.4667 17.4427 19.1914 17.6493 19.2715C18.4723 19.5892 19.3812 19.7761 20.2073 19.7975C20.3906 19.8024 20.6262 19.8 20.8191 19.7385C21.0359 19.6698 21.0991 19.5808 21.0915 19.3568C21.0766 18.9348 20.7674 18.3718 20.477 18.0717C19.9642 17.5407 19.1915 17.1748 18.3005 17.0401C17.8128 16.9666 17.3698 16.9485 17.0029 16.987Z" fill="white"/>
<path d="M22.8375 20.3511C22.2641 20.4114 21.7449 20.1729 21.3692 19.6617C20.8916 19.0117 20.7445 18.0493 20.8102 17.3846C20.9113 16.3708 21.4119 15.3379 22.2205 14.4756C23.5992 13.0051 24.9425 12.5621 26.0032 13.2279C27.1769 13.9647 27.2406 15.5472 26.1695 17.3573C25.6397 18.2532 24.9596 19.059 24.2024 19.6875C23.9839 19.8694 23.6852 20.0961 23.3153 20.235C23.1531 20.2962 22.9932 20.3347 22.8375 20.3511ZM22.4101 18.8998C22.5429 19.08 22.6481 19.1107 22.8608 19.0307C23.0503 18.9596 23.2363 18.8159 23.3773 18.6987C24.0123 18.1706 24.6096 17.4624 25.0587 16.7033C25.1714 16.5131 26.1339 14.831 25.3163 14.3174C25.156 14.2171 24.8812 14.116 24.3407 14.3993C23.978 14.5892 23.571 14.9197 23.1632 15.3545C22.5476 16.0111 22.1681 16.777 22.0949 17.5108C22.0537 17.9264 22.1603 18.5595 22.4101 18.8998Z" fill="white"/>
<path d="M15.3418 20.7659L27.7952 16.4507C28.4069 16.2387 29.0755 16.562 29.2876 17.1722L30.0209 19.2817L15.3512 24.3649L14.618 22.2555C14.4058 21.6452 14.7301 20.9779 15.3418 20.7659Z" fill="#0A486E"/>
<path d="M28.9818 17.2781C28.8285 16.8373 28.3446 16.6026 27.9013 16.7562L15.448 21.0714C15.0047 21.2251 14.7704 21.7086 14.9236 22.1494L15.5506 23.9532L29.6088 19.0818L28.9818 17.2781ZM30.4331 19.4814L15.1519 24.7765L14.3123 22.3612C14.0413 21.5816 14.4556 20.7306 15.2356 20.4603L27.6888 16.1451C28.4688 15.8748 29.3224 16.2865 29.5935 17.0661L30.4331 19.4814Z" fill="white"/>
<path d="M23.2106 18.0391L19.926 19.1772L21.0436 22.3922L24.3282 21.2541L23.2106 18.0391Z" fill="white" stroke="white" stroke-width="0.647307" stroke-miterlimit="10"/>
<path d="M31.4231 20.7169L31.6141 19.6436C31.6914 19.2106 32.2873 19.148 32.4529 19.5555L32.8629 20.5655L33.9383 20.7556C34.3723 20.8326 34.4348 21.4271 34.0263 21.5925L33.0139 22.0021L32.8229 23.0753C32.7456 23.5083 32.1497 23.571 31.9841 23.1634L31.5741 22.1534L30.4987 21.9633C30.0647 21.8864 30.0022 21.2919 30.4107 21.1264L31.4231 20.7169Z" fill="white"/>
</g>
<path d="M44.2137 2.12842L44.3752 3.84613L46.0261 4.01414L44.3752 4.18215L44.2137 5.89987L44.0523 4.18215L42.4014 4.01414L44.0523 3.84613L44.2137 2.12842Z" fill="white" fill-opacity="0.15"/>
<path d="M36.7294 4.67383L36.8344 5.79065L37.9078 5.89989L36.8344 6.00912L36.7294 7.12595L36.6244 6.00912L35.551 5.89989L36.6244 5.79065L36.7294 4.67383Z" fill="#F6F6F6" fill-opacity="0.75"/>
<path d="M39.559 5.07227L39.8871 7.90731L42.6118 8.24871L39.8871 8.59012L39.559 11.4252L39.2309 8.59012L36.5061 8.24871L39.2309 7.90731L39.559 5.07227Z" fill="white"/>
<path d="M41.5433 9.36035L41.671 11.2921L43.5276 11.4249L41.671 11.5578L41.5433 13.4895L41.4156 11.5578L39.5591 11.4249L41.4156 11.2921L41.5433 9.36035Z" fill="white" fill-opacity="0.45"/>
<path d="M5.78192 6.38574L5.91338 7.7842L7.25744 7.92099L5.91338 8.05777L5.78192 9.45623L5.65046 8.05777L4.3064 7.92099L5.65046 7.7842L5.78192 6.38574Z" fill="white" fill-opacity="0.59"/>
<path d="M9.94011 4.25732L10.1945 6.39971L12.3546 6.65201L10.1945 6.90431L9.94011 9.04669L9.68572 6.90431L7.52563 6.65201L9.68572 6.39971L9.94011 4.25732Z" fill="white"/>
<path d="M6.11426 38.0986L5.95317 36.4385L4.30616 36.2762L5.95317 36.1138L6.11426 34.4537L6.27535 36.1138L7.92236 36.2762L6.27535 36.4385L6.11426 38.0986Z" fill="white"/>
<path d="M8.81129 42.4189L8.55334 39.7607L5.91604 39.5007L8.55334 39.2407L8.81129 36.5825L9.06924 39.2407L11.7065 39.5007L9.06924 39.7607L8.81129 42.4189Z" fill="white" fill-opacity="0.45"/>
<path d="M39.9414 41.8901L39.7303 39.7151L37.5724 39.5024L39.7303 39.2897L39.9414 37.1147L40.1524 39.2897L42.3103 39.5024L40.1524 39.7151L39.9414 41.8901Z" fill="white"/>
<path d="M43.8734 39.0176L43.7423 37.666L42.4014 37.5338L43.7423 37.4016L43.8734 36.0501L44.0046 37.4016L45.3455 37.5338L44.0046 37.666L43.8734 39.0176Z" fill="white" fill-opacity="0.15"/>
<defs>
<clipPath id="clip0_115_11494">
<rect width="22.0084" height="22.0084" fill="white" transform="translate(11.7961 13.8872) rotate(-6)"/>
</clipPath>
</defs>
</svg>
