<svg width="119" height="119" viewBox="0 0 119 119" fill="none" xmlns="http://www.w3.org/2000/svg">
<g filter="url(#filter0_d_8_30833)">
<path d="M92.9667 15.467L93.6034 18.6457L96.6965 18.6381L93.6694 19.2737L93.7075 22.5153L93.0708 19.3366L89.9778 19.3442L93.0048 18.7086L92.9667 15.467Z" fill="white" fill-opacity="0.15"/>
<path d="M86.4539 20.1736L87.4734 25.2636L92.4261 25.2514L87.5791 26.2692L87.6401 31.4599L86.6206 26.3699L81.6678 26.3822L86.5149 25.3644L86.4539 20.1736Z" fill="white"/>
<path d="M22.5675 30.9103L23.0858 33.4982L25.604 33.492L23.1396 34.0095L23.1706 36.6486L22.6522 34.0607L20.1341 34.0669L22.5985 33.5495L22.5675 30.9103Z" fill="white" fill-opacity="0.59"/>
<path d="M29.8569 26.1222L30.6841 30.1569L34.8027 30.1271L30.768 30.9543L30.7977 35.0728L29.9705 31.0381L25.852 31.0679L29.8867 30.2407L29.8569 26.1222Z" fill="white"/>
<path d="M29.6486 92.3562L29.0239 89.2851L25.9392 89.3025L28.9601 88.6781L28.9326 85.5443L29.5573 88.6154L32.642 88.598L29.6211 89.2223L29.6486 92.3562Z" fill="white"/>
<path d="M35.4963 99.9049L34.496 94.9872L29.5566 95.0151L34.3939 94.0154L34.3499 88.9972L35.3501 93.9149L40.2896 93.887L35.4523 94.8867L35.4963 99.9049Z" fill="white" fill-opacity="0.45"/>
<path d="M93.0934 92.8519L92.275 88.8282L88.2335 88.851L92.1914 88.0331L92.1554 83.9271L92.9739 87.9508L97.0154 87.928L93.0574 88.746L93.0934 92.8519Z" fill="white"/>
<path d="M99.8176 86.7177L99.309 84.2174L96.7977 84.2316L99.2571 83.7233L99.2347 81.1719L99.7433 83.6722L102.255 83.658L99.7952 84.1663L99.8176 86.7177Z" fill="white" fill-opacity="0.15"/>
<path d="M64.1258 99.7429C86.0962 97.4337 102.035 77.7513 99.7256 55.7809C97.4164 33.8105 77.7339 17.872 55.7635 20.1812C33.7932 22.4903 17.8546 42.1728 20.1638 64.1432C22.473 86.1136 42.1554 102.052 64.1258 99.7429Z" fill="white"/>
<mask id="path-10-inside-1_8_30833" fill="white">
<path d="M62.5928 91.6369C62.5036 90.9377 62.9986 90.2965 63.6978 90.2073C64.397 90.1181 65.0382 90.6131 65.1274 91.3123C65.2166 92.0115 64.7231 92.6526 64.0238 92.7402L63.9942 92.7433C63.3058 92.8157 62.6824 92.325 62.5943 91.6367L62.5928 91.6369ZM58.1384 92.9644C57.4337 92.9269 56.8931 92.3271 56.929 91.6226C56.9649 90.9181 57.5662 90.3757 58.2709 90.4132C58.9754 90.4491 59.516 91.049 59.4801 91.7535C59.4465 92.3902 58.9543 92.8944 58.3405 92.9589C58.2752 92.9658 58.2093 92.9664 58.1399 92.9643L58.1384 92.9644ZM68.1709 90.6421C67.9589 89.9699 68.331 89.2505 69.0047 89.0383C69.6769 88.8263 70.3963 89.1984 70.6085 89.8721C70.8205 90.5443 70.4482 91.2621 69.7747 91.4759C69.691 91.502 69.6063 91.5187 69.5224 91.5275C68.9319 91.5896 68.36 91.2302 68.1725 90.6419L68.1709 90.6421ZM52.3076 92.1381C51.6213 91.9762 51.1955 91.2888 51.3559 90.6026C51.5177 89.9148 52.2051 89.489 52.893 89.6508C53.5793 89.8128 54.005 90.5002 53.8431 91.1865C53.7165 91.7308 53.2583 92.1105 52.7331 92.1657C52.5948 92.1802 52.4509 92.1718 52.3077 92.1397L52.3076 92.1381ZM73.4831 88.6713C73.1534 88.0461 73.3913 87.2748 74.0163 86.9436C74.64 86.6141 75.4128 86.8518 75.7425 87.4771C76.072 88.1007 75.8343 88.8735 75.2091 89.2032C75.0618 89.2815 74.9032 89.328 74.7478 89.3444C74.2444 89.3973 73.7356 89.146 73.4846 88.6712L73.4831 88.6713ZM46.7184 90.2778C46.073 89.9969 45.7771 89.244 46.0594 88.5969C46.3419 87.9513 47.0934 87.6571 47.7404 87.9378C48.3859 88.2204 48.6819 88.9732 48.3994 89.6188C48.208 90.0553 47.8035 90.3319 47.3622 90.3783C47.1493 90.4006 46.9275 90.3689 46.7184 90.2778ZM78.3559 85.779C77.919 85.2247 78.0152 84.4212 78.5679 83.9845C79.1221 83.5476 79.9257 83.6438 80.3625 84.198C80.7979 84.7524 80.7015 85.5544 80.1488 85.9911C79.9529 86.1453 79.725 86.2336 79.4934 86.258C79.0708 86.3024 78.6369 86.1359 78.3559 85.779ZM41.5568 87.4471C40.9717 87.053 40.816 86.2587 41.2086 85.6738C41.601 85.0874 42.3955 84.9332 42.9802 85.3242C43.5667 85.7182 43.721 86.5127 43.3299 87.0974C43.1097 87.4238 42.7655 87.617 42.4019 87.6553C42.1144 87.6855 41.8151 87.618 41.5566 87.4456L41.5568 87.4471ZM82.6278 82.0573C82.1011 81.5911 82.0507 80.7826 82.5185 80.2558C82.9862 79.7274 83.7933 79.6787 84.3217 80.1464C84.8498 80.6125 84.8987 81.4212 84.4309 81.948C84.2104 82.1974 83.9142 82.3385 83.6081 82.3707C83.2646 82.4068 82.9082 82.3044 82.6278 82.0573ZM36.9792 83.746C36.472 83.2557 36.4593 82.4463 36.9495 81.9392C37.4398 81.432 38.2492 81.4192 38.7563 81.9095C39.2635 82.3998 39.2763 83.2092 38.786 83.7163C38.5691 83.9402 38.2889 84.0687 38.0014 84.0989C37.6393 84.1369 37.2625 84.0194 36.9792 83.746ZM86.1728 77.6391C85.5702 77.272 85.3792 76.4861 85.7479 75.8833C86.1135 75.2809 86.901 75.0897 87.502 75.457C88.1045 75.8226 88.2957 76.61 87.9283 77.2111C87.7111 77.5655 87.3516 77.7776 86.9693 77.8178C86.7005 77.8461 86.4213 77.7906 86.1728 77.6391ZM33.1293 79.2849C32.7187 78.7122 32.8501 77.9144 33.4229 77.5038C33.9971 77.0931 34.7949 77.2245 35.2055 77.7972C35.616 78.37 35.4848 79.1693 34.9119 79.5783C34.7249 79.7126 34.5145 79.7882 34.3016 79.8106C33.8603 79.8569 33.4072 79.672 33.1293 79.2849ZM88.8752 72.6622C88.2171 72.4093 87.8879 71.6694 88.1408 71.0112C88.3937 70.353 89.1337 70.0239 89.7903 70.2769C90.4485 70.5298 90.7774 71.2682 90.5247 71.928C90.3472 72.3913 89.9278 72.6914 89.4647 72.7401C89.272 72.7603 89.0686 72.7377 88.8737 72.6624L88.8752 72.6622ZM30.1446 74.2066C29.8435 73.5689 30.1155 72.8082 30.7531 72.5071C31.3906 72.2044 32.153 72.4778 32.4542 73.1154C32.7553 73.7531 32.4833 74.5138 31.8443 74.8166C31.711 74.8793 31.5719 74.916 31.432 74.9307C30.9068 74.9859 30.3813 74.7096 30.1445 74.205L30.1446 74.2066ZM90.641 67.2794C89.9486 67.1495 89.4919 66.4811 89.6218 65.7887C89.7532 65.0962 90.4201 64.6396 91.1125 64.7695C91.8064 64.8992 92.2616 65.5678 92.1332 66.26C92.0263 66.8274 91.5587 67.2364 91.0117 67.2939C90.8905 67.3066 90.7675 67.3022 90.6408 67.2779L90.641 67.2794ZM28.1165 68.6773C27.9333 67.9959 28.3373 67.2951 29.0189 67.1135C29.7004 66.9303 30.4011 67.3343 30.5827 68.0159C30.7644 68.6976 30.3604 69.3983 29.6788 69.5799C29.6115 69.598 29.5469 69.6111 29.4817 69.6179C28.8678 69.6824 28.28 69.2917 28.1165 68.6773ZM91.4134 61.6679C90.7075 61.6636 90.1394 61.087 90.1453 60.3809C90.1497 59.675 90.7249 59.1087 91.4308 59.113C92.1367 59.1174 92.7047 59.694 92.6988 60.4001C92.6956 61.0571 92.1944 61.5953 91.5573 61.6622C91.5107 61.6671 91.4622 61.6691 91.4135 61.6695L91.4134 61.6679ZM28.4855 64.0415C27.7832 64.1012 27.1658 63.5785 27.1075 62.8745C27.0478 62.1722 27.5705 61.5548 28.2746 61.4965C28.977 61.4384 29.5942 61.9595 29.6525 62.6635C29.7098 63.3582 29.2036 63.9676 28.5152 64.04C28.5059 64.0409 28.495 64.0421 28.4872 64.0429L28.4855 64.0415ZM89.6973 54.9668C89.5771 54.2725 90.0433 53.6107 90.7377 53.4906C91.4319 53.369 92.0937 53.8352 92.2138 54.5295C92.3339 55.2239 91.8677 55.8856 91.1733 56.0058C91.1457 56.0118 91.1161 56.0149 91.0882 56.0178C90.4246 56.0876 89.8127 55.6319 89.6973 54.9668ZM28.2943 58.3805C27.5927 58.3128 27.0779 57.6898 27.1454 56.9867C27.2131 56.2851 27.8361 55.7703 28.5392 55.8378C29.2407 55.9055 29.7556 56.5285 29.6896 57.2315C29.6302 57.8473 29.1439 58.3179 28.5534 58.3799C28.4695 58.3888 28.3832 58.39 28.296 58.3819L28.2943 58.3805ZM88.2957 49.719C88.0532 49.0563 88.3925 48.3231 89.0567 48.0805C89.7194 47.838 90.4528 48.1788 90.6953 48.8415C90.9377 49.5041 90.5969 50.2375 89.9342 50.48C89.8327 50.5158 89.7301 50.5407 89.6275 50.5515C89.0588 50.6113 88.501 50.2819 88.2959 49.7205L88.2957 49.719ZM29.1113 52.7753C28.4329 52.5842 28.0382 51.8779 28.2306 51.1978C28.4217 50.5194 29.1281 50.1247 29.8081 50.3171C30.4865 50.5082 30.8813 51.2146 30.6888 51.8946C30.5422 52.4128 30.0983 52.7643 29.5933 52.8173C29.4364 52.8338 29.2748 52.821 29.1128 52.7751L29.1113 52.7753ZM85.9789 44.8061C85.6227 44.1978 85.8249 43.4162 86.4346 43.0583C87.0427 42.7006 87.8246 42.9043 88.1823 43.5125C88.54 44.1206 88.3362 44.9024 87.7281 45.2601C87.5653 45.3558 87.3905 45.4119 87.2149 45.4303C86.7317 45.4811 86.2411 45.253 85.9789 44.8061ZM30.9211 47.4083C30.2883 47.0977 30.0271 46.3318 30.3379 45.7005C30.65 45.0676 31.4142 44.805 32.0472 45.1171C32.68 45.4276 32.9426 46.1919 32.6304 46.8249C32.4299 47.234 32.0388 47.4888 31.6161 47.5332C31.3861 47.5574 31.1448 47.5183 30.9211 47.4083ZM82.8173 40.3921C82.3558 39.8577 82.4172 39.0516 82.95 38.5902C83.4844 38.1287 84.2905 38.1901 84.7503 38.7231C85.2119 39.2575 85.152 40.0634 84.6177 40.5249C84.413 40.7004 84.1689 40.7999 83.9188 40.8262C83.5163 40.8685 83.1015 40.7189 82.8172 40.3905L82.8173 40.3921ZM33.6667 42.4535C33.0996 42.0355 32.9792 41.2343 33.3972 40.6672C33.8154 40.1017 34.6164 39.9798 35.1836 40.3978C35.7508 40.8173 35.871 41.617 35.453 42.1841C35.23 42.484 34.9028 42.6598 34.5579 42.6961C34.2517 42.7283 33.934 42.6501 33.6667 42.4535ZM78.913 36.6092C78.913 36.6092 78.9044 36.6022 78.8995 36.5996C78.8995 36.5996 78.8909 36.5926 78.889 36.5897C78.3396 36.1463 78.2536 35.343 78.7003 34.7949C79.1438 34.2455 79.947 34.1595 80.4948 34.6032C80.4948 34.6032 80.5034 34.6101 80.5086 34.6143C80.5086 34.6143 80.5171 34.6212 80.5223 34.6254C81.0701 35.069 81.1545 35.8724 80.7109 36.4202C80.4884 36.695 80.1752 36.8536 79.8504 36.8877C79.5256 36.9218 79.1862 36.8318 78.913 36.6092ZM37.2492 38.0628C36.765 37.5512 36.7869 36.743 37.3 36.2586C37.8131 35.7741 38.6214 35.796 39.1058 36.3091C39.5902 36.8223 39.5683 37.6305 39.0552 38.1149C38.8438 38.3163 38.5823 38.4286 38.3119 38.457C37.9312 38.497 37.5339 38.3644 37.2508 38.0626L37.2492 38.0628ZM74.3776 33.5634C73.7591 33.2247 73.5329 32.4472 73.8718 31.8303C74.2106 31.2118 74.9879 30.984 75.605 31.3244C76.2235 31.6632 76.4496 32.4391 76.1108 33.0576C75.9011 33.4394 75.5264 33.6705 75.1239 33.7128C74.8737 33.7391 74.6143 33.6925 74.3776 33.5634ZM41.5532 34.3771C41.1691 33.7875 41.3355 32.9938 41.9267 32.6096C42.5179 32.2254 43.3102 32.3935 43.6942 32.9832C44.0784 33.5744 43.9103 34.3666 43.3207 34.7507C43.1457 34.8649 42.9531 34.9307 42.7588 34.9511C42.2973 34.9996 41.8247 34.7932 41.5547 34.3769L41.5532 34.3771ZM69.4003 31.3953C68.7312 31.1734 68.3677 30.4496 68.591 29.7788C68.8129 29.1098 69.5352 28.7479 70.2058 28.9697C70.8749 29.1916 71.2369 29.9155 71.015 30.5845C70.853 31.076 70.4206 31.4012 69.9357 31.4521C69.7601 31.4706 69.5791 31.4519 69.4001 31.3937L69.4003 31.3953ZM46.4494 31.5278C46.1768 30.8778 46.483 30.1292 47.1346 29.8564C47.7847 29.5839 48.5333 29.8901 48.8061 30.5417C49.0788 31.1933 48.7724 31.9404 48.1208 32.2131C48.0035 32.2632 47.8825 32.2932 47.7613 32.3059C47.2159 32.3632 46.6719 32.0606 46.4494 31.5278ZM64.1137 30.1567C63.4136 30.0575 62.9279 29.4125 63.0271 28.7124C63.125 28.0139 63.7715 27.5281 64.4699 27.6259C65.1685 27.7253 65.6544 28.3718 65.5565 29.0703C65.4726 29.662 64.9956 30.1017 64.4269 30.1615C64.3243 30.1723 64.2189 30.1708 64.112 30.1553L64.1137 30.1567ZM51.7771 29.601C51.6245 28.9116 52.0605 28.2311 52.7483 28.0786C53.4377 27.9261 54.1198 28.3618 54.2707 29.0498C54.4233 29.7392 53.9875 30.4213 53.2997 30.5737C53.252 30.5835 53.2041 30.5916 53.156 30.5967C52.5173 30.6638 51.9184 30.2429 51.7771 29.601ZM58.6895 29.88C57.9853 29.9069 57.3902 29.3567 57.3633 28.6525C57.3364 27.9483 57.8867 27.3548 58.5909 27.3279C59.2951 27.301 59.8885 27.8498 59.9154 28.554C59.9424 29.2298 59.4372 29.8045 58.7737 29.8743C58.7457 29.8772 58.7178 29.8802 58.6879 29.8802L58.6895 29.88Z"/>
</mask>
<path d="M62.5928 91.6369C62.5036 90.9377 62.9986 90.2965 63.6978 90.2073C64.397 90.1181 65.0382 90.6131 65.1274 91.3123C65.2166 92.0115 64.7231 92.6526 64.0238 92.7402L63.9942 92.7433C63.3058 92.8157 62.6824 92.325 62.5943 91.6367L62.5928 91.6369ZM58.1384 92.9644C57.4337 92.9269 56.8931 92.3271 56.929 91.6226C56.9649 90.9181 57.5662 90.3757 58.2709 90.4132C58.9754 90.4491 59.516 91.049 59.4801 91.7535C59.4465 92.3902 58.9543 92.8944 58.3405 92.9589C58.2752 92.9658 58.2093 92.9664 58.1399 92.9643L58.1384 92.9644ZM68.1709 90.6421C67.9589 89.9699 68.331 89.2505 69.0047 89.0383C69.6769 88.8263 70.3963 89.1984 70.6085 89.8721C70.8205 90.5443 70.4482 91.2621 69.7747 91.4759C69.691 91.502 69.6063 91.5187 69.5224 91.5275C68.9319 91.5896 68.36 91.2302 68.1725 90.6419L68.1709 90.6421ZM52.3076 92.1381C51.6213 91.9762 51.1955 91.2888 51.3559 90.6026C51.5177 89.9148 52.2051 89.489 52.893 89.6508C53.5793 89.8128 54.005 90.5002 53.8431 91.1865C53.7165 91.7308 53.2583 92.1105 52.7331 92.1657C52.5948 92.1802 52.4509 92.1718 52.3077 92.1397L52.3076 92.1381ZM73.4831 88.6713C73.1534 88.0461 73.3913 87.2748 74.0163 86.9436C74.64 86.6141 75.4128 86.8518 75.7425 87.4771C76.072 88.1007 75.8343 88.8735 75.2091 89.2032C75.0618 89.2815 74.9032 89.328 74.7478 89.3444C74.2444 89.3973 73.7356 89.146 73.4846 88.6712L73.4831 88.6713ZM46.7184 90.2778C46.073 89.9969 45.7771 89.244 46.0594 88.5969C46.3419 87.9513 47.0934 87.6571 47.7404 87.9378C48.3859 88.2204 48.6819 88.9732 48.3994 89.6188C48.208 90.0553 47.8035 90.3319 47.3622 90.3783C47.1493 90.4006 46.9275 90.3689 46.7184 90.2778ZM78.3559 85.779C77.919 85.2247 78.0152 84.4212 78.5679 83.9845C79.1221 83.5476 79.9257 83.6438 80.3625 84.198C80.7979 84.7524 80.7015 85.5544 80.1488 85.9911C79.9529 86.1453 79.725 86.2336 79.4934 86.258C79.0708 86.3024 78.6369 86.1359 78.3559 85.779ZM41.5568 87.4471C40.9717 87.053 40.816 86.2587 41.2086 85.6738C41.601 85.0874 42.3955 84.9332 42.9802 85.3242C43.5667 85.7182 43.721 86.5127 43.3299 87.0974C43.1097 87.4238 42.7655 87.617 42.4019 87.6553C42.1144 87.6855 41.8151 87.618 41.5566 87.4456L41.5568 87.4471ZM82.6278 82.0573C82.1011 81.5911 82.0507 80.7826 82.5185 80.2558C82.9862 79.7274 83.7933 79.6787 84.3217 80.1464C84.8498 80.6125 84.8987 81.4212 84.4309 81.948C84.2104 82.1974 83.9142 82.3385 83.6081 82.3707C83.2646 82.4068 82.9082 82.3044 82.6278 82.0573ZM36.9792 83.746C36.472 83.2557 36.4593 82.4463 36.9495 81.9392C37.4398 81.432 38.2492 81.4192 38.7563 81.9095C39.2635 82.3998 39.2763 83.2092 38.786 83.7163C38.5691 83.9402 38.2889 84.0687 38.0014 84.0989C37.6393 84.1369 37.2625 84.0194 36.9792 83.746ZM86.1728 77.6391C85.5702 77.272 85.3792 76.4861 85.7479 75.8833C86.1135 75.2809 86.901 75.0897 87.502 75.457C88.1045 75.8226 88.2957 76.61 87.9283 77.2111C87.7111 77.5655 87.3516 77.7776 86.9693 77.8178C86.7005 77.8461 86.4213 77.7906 86.1728 77.6391ZM33.1293 79.2849C32.7187 78.7122 32.8501 77.9144 33.4229 77.5038C33.9971 77.0931 34.7949 77.2245 35.2055 77.7972C35.616 78.37 35.4848 79.1693 34.9119 79.5783C34.7249 79.7126 34.5145 79.7882 34.3016 79.8106C33.8603 79.8569 33.4072 79.672 33.1293 79.2849ZM88.8752 72.6622C88.2171 72.4093 87.8879 71.6694 88.1408 71.0112C88.3937 70.353 89.1337 70.0239 89.7903 70.2769C90.4485 70.5298 90.7774 71.2682 90.5247 71.928C90.3472 72.3913 89.9278 72.6914 89.4647 72.7401C89.272 72.7603 89.0686 72.7377 88.8737 72.6624L88.8752 72.6622ZM30.1446 74.2066C29.8435 73.5689 30.1155 72.8082 30.7531 72.5071C31.3906 72.2044 32.153 72.4778 32.4542 73.1154C32.7553 73.7531 32.4833 74.5138 31.8443 74.8166C31.711 74.8793 31.5719 74.916 31.432 74.9307C30.9068 74.9859 30.3813 74.7096 30.1445 74.205L30.1446 74.2066ZM90.641 67.2794C89.9486 67.1495 89.4919 66.4811 89.6218 65.7887C89.7532 65.0962 90.4201 64.6396 91.1125 64.7695C91.8064 64.8992 92.2616 65.5678 92.1332 66.26C92.0263 66.8274 91.5587 67.2364 91.0117 67.2939C90.8905 67.3066 90.7675 67.3022 90.6408 67.2779L90.641 67.2794ZM28.1165 68.6773C27.9333 67.9959 28.3373 67.2951 29.0189 67.1135C29.7004 66.9303 30.4011 67.3343 30.5827 68.0159C30.7644 68.6976 30.3604 69.3983 29.6788 69.5799C29.6115 69.598 29.5469 69.6111 29.4817 69.6179C28.8678 69.6824 28.28 69.2917 28.1165 68.6773ZM91.4134 61.6679C90.7075 61.6636 90.1394 61.087 90.1453 60.3809C90.1497 59.675 90.7249 59.1087 91.4308 59.113C92.1367 59.1174 92.7047 59.694 92.6988 60.4001C92.6956 61.0571 92.1944 61.5953 91.5573 61.6622C91.5107 61.6671 91.4622 61.6691 91.4135 61.6695L91.4134 61.6679ZM28.4855 64.0415C27.7832 64.1012 27.1658 63.5785 27.1075 62.8745C27.0478 62.1722 27.5705 61.5548 28.2746 61.4965C28.977 61.4384 29.5942 61.9595 29.6525 62.6635C29.7098 63.3582 29.2036 63.9676 28.5152 64.04C28.5059 64.0409 28.495 64.0421 28.4872 64.0429L28.4855 64.0415ZM89.6973 54.9668C89.5771 54.2725 90.0433 53.6107 90.7377 53.4906C91.4319 53.369 92.0937 53.8352 92.2138 54.5295C92.3339 55.2239 91.8677 55.8856 91.1733 56.0058C91.1457 56.0118 91.1161 56.0149 91.0882 56.0178C90.4246 56.0876 89.8127 55.6319 89.6973 54.9668ZM28.2943 58.3805C27.5927 58.3128 27.0779 57.6898 27.1454 56.9867C27.2131 56.2851 27.8361 55.7703 28.5392 55.8378C29.2407 55.9055 29.7556 56.5285 29.6896 57.2315C29.6302 57.8473 29.1439 58.3179 28.5534 58.3799C28.4695 58.3888 28.3832 58.39 28.296 58.3819L28.2943 58.3805ZM88.2957 49.719C88.0532 49.0563 88.3925 48.3231 89.0567 48.0805C89.7194 47.838 90.4528 48.1788 90.6953 48.8415C90.9377 49.5041 90.5969 50.2375 89.9342 50.48C89.8327 50.5158 89.7301 50.5407 89.6275 50.5515C89.0588 50.6113 88.501 50.2819 88.2959 49.7205L88.2957 49.719ZM29.1113 52.7753C28.4329 52.5842 28.0382 51.8779 28.2306 51.1978C28.4217 50.5194 29.1281 50.1247 29.8081 50.3171C30.4865 50.5082 30.8813 51.2146 30.6888 51.8946C30.5422 52.4128 30.0983 52.7643 29.5933 52.8173C29.4364 52.8338 29.2748 52.821 29.1128 52.7751L29.1113 52.7753ZM85.9789 44.8061C85.6227 44.1978 85.8249 43.4162 86.4346 43.0583C87.0427 42.7006 87.8246 42.9043 88.1823 43.5125C88.54 44.1206 88.3362 44.9024 87.7281 45.2601C87.5653 45.3558 87.3905 45.4119 87.2149 45.4303C86.7317 45.4811 86.2411 45.253 85.9789 44.8061ZM30.9211 47.4083C30.2883 47.0977 30.0271 46.3318 30.3379 45.7005C30.65 45.0676 31.4142 44.805 32.0472 45.1171C32.68 45.4276 32.9426 46.1919 32.6304 46.8249C32.4299 47.234 32.0388 47.4888 31.6161 47.5332C31.3861 47.5574 31.1448 47.5183 30.9211 47.4083ZM82.8173 40.3921C82.3558 39.8577 82.4172 39.0516 82.95 38.5902C83.4844 38.1287 84.2905 38.1901 84.7503 38.7231C85.2119 39.2575 85.152 40.0634 84.6177 40.5249C84.413 40.7004 84.1689 40.7999 83.9188 40.8262C83.5163 40.8685 83.1015 40.7189 82.8172 40.3905L82.8173 40.3921ZM33.6667 42.4535C33.0996 42.0355 32.9792 41.2343 33.3972 40.6672C33.8154 40.1017 34.6164 39.9798 35.1836 40.3978C35.7508 40.8173 35.871 41.617 35.453 42.1841C35.23 42.484 34.9028 42.6598 34.5579 42.6961C34.2517 42.7283 33.934 42.6501 33.6667 42.4535ZM78.913 36.6092C78.913 36.6092 78.9044 36.6022 78.8995 36.5996C78.8995 36.5996 78.8909 36.5926 78.889 36.5897C78.3396 36.1463 78.2536 35.343 78.7003 34.7949C79.1438 34.2455 79.947 34.1595 80.4948 34.6032C80.4948 34.6032 80.5034 34.6101 80.5086 34.6143C80.5086 34.6143 80.5171 34.6212 80.5223 34.6254C81.0701 35.069 81.1545 35.8724 80.7109 36.4202C80.4884 36.695 80.1752 36.8536 79.8504 36.8877C79.5256 36.9218 79.1862 36.8318 78.913 36.6092ZM37.2492 38.0628C36.765 37.5512 36.7869 36.743 37.3 36.2586C37.8131 35.7741 38.6214 35.796 39.1058 36.3091C39.5902 36.8223 39.5683 37.6305 39.0552 38.1149C38.8438 38.3163 38.5823 38.4286 38.3119 38.457C37.9312 38.497 37.5339 38.3644 37.2508 38.0626L37.2492 38.0628ZM74.3776 33.5634C73.7591 33.2247 73.5329 32.4472 73.8718 31.8303C74.2106 31.2118 74.9879 30.984 75.605 31.3244C76.2235 31.6632 76.4496 32.4391 76.1108 33.0576C75.9011 33.4394 75.5264 33.6705 75.1239 33.7128C74.8737 33.7391 74.6143 33.6925 74.3776 33.5634ZM41.5532 34.3771C41.1691 33.7875 41.3355 32.9938 41.9267 32.6096C42.5179 32.2254 43.3102 32.3935 43.6942 32.9832C44.0784 33.5744 43.9103 34.3666 43.3207 34.7507C43.1457 34.8649 42.9531 34.9307 42.7588 34.9511C42.2973 34.9996 41.8247 34.7932 41.5547 34.3769L41.5532 34.3771ZM69.4003 31.3953C68.7312 31.1734 68.3677 30.4496 68.591 29.7788C68.8129 29.1098 69.5352 28.7479 70.2058 28.9697C70.8749 29.1916 71.2369 29.9155 71.015 30.5845C70.853 31.076 70.4206 31.4012 69.9357 31.4521C69.7601 31.4706 69.5791 31.4519 69.4001 31.3937L69.4003 31.3953ZM46.4494 31.5278C46.1768 30.8778 46.483 30.1292 47.1346 29.8564C47.7847 29.5839 48.5333 29.8901 48.8061 30.5417C49.0788 31.1933 48.7724 31.9404 48.1208 32.2131C48.0035 32.2632 47.8825 32.2932 47.7613 32.3059C47.2159 32.3632 46.6719 32.0606 46.4494 31.5278ZM64.1137 30.1567C63.4136 30.0575 62.9279 29.4125 63.0271 28.7124C63.125 28.0139 63.7715 27.5281 64.4699 27.6259C65.1685 27.7253 65.6544 28.3718 65.5565 29.0703C65.4726 29.662 64.9956 30.1017 64.4269 30.1615C64.3243 30.1723 64.2189 30.1708 64.112 30.1553L64.1137 30.1567ZM51.7771 29.601C51.6245 28.9116 52.0605 28.2311 52.7483 28.0786C53.4377 27.9261 54.1198 28.3618 54.2707 29.0498C54.4233 29.7392 53.9875 30.4213 53.2997 30.5737C53.252 30.5835 53.2041 30.5916 53.156 30.5967C52.5173 30.6638 51.9184 30.2429 51.7771 29.601ZM58.6895 29.88C57.9853 29.9069 57.3902 29.3567 57.3633 28.6525C57.3364 27.9483 57.8867 27.3548 58.5909 27.3279C59.2951 27.301 59.8885 27.8498 59.9154 28.554C59.9424 29.2298 59.4372 29.8045 58.7737 29.8743C58.7457 29.8772 58.7178 29.8802 58.6879 29.8802L58.6895 29.88Z" fill="url(#paint0_linear_8_30833)" stroke="url(#paint1_linear_8_30833)" stroke-width="2" mask="url(#path-10-inside-1_8_30833)"/>
<path d="M63.7121 96.0409C83.4511 93.9663 97.7709 76.2828 95.6963 56.5438C93.6216 36.8048 75.9381 22.485 56.1991 24.5597C36.4601 26.6343 22.1403 44.3178 24.215 64.0568C26.2896 83.7958 43.9731 98.1156 63.7121 96.0409Z" stroke="url(#paint2_linear_8_30833)" stroke-width="2" stroke-linecap="round" stroke-linejoin="round"/>
<g clip-path="url(#clip0_8_30833)">
<path d="M46.6052 62.6838L70.4612 60.1765L71.9033 73.8967C72.0076 74.8892 71.2849 75.7796 70.2902 75.8842L50.0383 78.0127C49.0436 78.1173 48.1516 77.3966 48.0473 76.4041L46.6052 62.6838Z" fill="url(#paint3_linear_8_30833)" stroke="white" stroke-miterlimit="10"/>
<path d="M61.2037 61.1495L55.8623 61.7109L57.4933 77.2292L62.8347 76.6678L61.2037 61.1495Z" fill="url(#paint4_linear_8_30833)" stroke="white" stroke-miterlimit="10"/>
<path d="M54.7462 56.4557C54.4452 56.4873 54.1638 56.4878 53.9235 56.4813C52.4026 56.442 50.8049 56.1146 49.3046 55.5351C46.2699 54.3633 44.8302 52.384 45.5467 50.369C46.1944 48.5484 48.2476 47.8018 51.3292 48.2669C53.1362 48.5396 54.7335 49.3143 55.8281 50.4464C56.5458 51.1899 57.2899 52.497 57.3332 53.7414C57.3776 54.9865 56.7176 55.9185 55.5238 56.2967C55.2603 56.3807 54.9966 56.4285 54.7461 56.4548L54.7462 56.4557ZM49.0257 50.1515C48.9077 50.1639 48.7946 50.1803 48.6864 50.1999C47.7599 50.3727 47.5225 50.7576 47.4249 51.0333C46.9256 52.4374 49.7052 53.5569 50.0243 53.6806C51.2957 54.1714 52.6999 54.4601 53.976 54.4933C54.2592 54.5008 54.6232 54.4971 54.9211 54.4021C55.2562 54.296 55.3538 54.1585 55.342 53.8125C55.319 53.1605 54.8413 52.2908 54.3927 51.8271C53.6004 51.0068 52.4068 50.4415 51.0303 50.2335C50.2768 50.12 49.5925 50.0919 49.0257 50.1515Z" fill="url(#paint5_linear_8_30833)"/>
<path d="M58.0399 55.3487C57.1542 55.4418 56.352 55.0734 55.7716 54.2836C55.0339 53.2795 54.8065 51.7927 54.9081 50.7658C55.0642 49.1996 55.8375 47.6039 57.0868 46.2719C59.2166 44.0001 61.2919 43.3157 62.9305 44.3442C64.7437 45.4826 64.8421 47.9273 63.1874 50.7236C62.369 52.1077 61.3183 53.3525 60.1486 54.3235C59.811 54.6044 59.3495 54.9547 58.7781 55.1693C58.5275 55.2638 58.2805 55.3234 58.0399 55.3487ZM57.3797 53.1065C57.5848 53.3849 57.7474 53.4324 58.076 53.3088C58.3687 53.1989 58.6561 52.9769 58.8739 52.7959C59.8549 51.9801 60.7776 50.886 61.4715 49.7132C61.6456 49.4195 63.1325 46.8208 61.8693 46.0274C61.6217 45.8725 61.1971 45.7162 60.3622 46.154C59.8018 46.4474 59.1731 46.9579 58.5431 47.6295C57.5921 48.6439 57.0059 49.8272 56.8927 50.9607C56.829 51.6028 56.9938 52.5808 57.3797 53.1065Z" fill="url(#paint6_linear_8_30833)"/>
<path d="M46.4602 55.9888L65.699 49.3224C66.644 48.9949 67.6769 49.4943 68.0046 50.4371L69.1374 53.6959L46.4748 61.5487L45.342 58.29C45.0143 57.3472 45.5152 56.3163 46.4602 55.9888Z" fill="url(#paint7_linear_8_30833)" stroke="white" stroke-miterlimit="10"/>
<path d="M58.6167 51.7764L53.5425 53.5347L55.269 58.5014L60.3432 56.7431L58.6167 51.7764Z" fill="url(#paint8_linear_8_30833)" stroke="white" stroke-miterlimit="10"/>
<path d="M71.3038 55.913L71.5988 54.255C71.7183 53.586 72.6388 53.4892 72.8947 54.1188L73.528 55.6792L75.1895 55.9728C75.8599 56.0917 75.9564 57.0101 75.3254 57.2658L73.7612 57.8984L73.4662 59.5564C73.3468 60.2254 72.4263 60.3222 72.1704 59.6926L71.5371 58.1322L69.8756 57.8386C69.2052 57.7197 69.1087 56.8013 69.7397 56.5456L71.3038 55.913Z" fill="url(#paint9_linear_8_30833)"/>
</g>
</g>
<defs>
<filter id="filter0_d_8_30833" x="0.62207" y="0.796875" width="117.815" height="117.815" filterUnits="userSpaceOnUse" color-interpolation-filters="sRGB">
<feFlood flood-opacity="0" result="BackgroundImageFix"/>
<feColorMatrix in="SourceAlpha" type="matrix" values="0 0 0 0 0 0 0 0 0 0 0 0 0 0 0 0 0 0 127 0" result="hardAlpha"/>
<feMorphology radius="2" operator="dilate" in="SourceAlpha" result="effect1_dropShadow_8_30833"/>
<feOffset/>
<feGaussianBlur stdDeviation="4"/>
<feComposite in2="hardAlpha" operator="out"/>
<feColorMatrix type="matrix" values="0 0 0 0 0.750065 0 0 0 0 0.750065 0 0 0 0 0.750065 0 0 0 0.5 0"/>
<feBlend mode="normal" in2="BackgroundImageFix" result="effect1_dropShadow_8_30833"/>
<feBlend mode="normal" in="SourceGraphic" in2="effect1_dropShadow_8_30833" result="shape"/>
</filter>
<linearGradient id="paint0_linear_8_30833" x1="32.1783" y1="23.5982" x2="103.09" y2="77.4543" gradientUnits="userSpaceOnUse">
<stop stop-color="#AF43F2"/>
<stop offset="0.5" stop-color="#F448F7"/>
<stop offset="1" stop-color="#D12C58"/>
</linearGradient>
<linearGradient id="paint1_linear_8_30833" x1="13.2306" y1="-0.770171" x2="128.239" y2="82.9203" gradientUnits="userSpaceOnUse">
<stop stop-color="#9F51E2"/>
<stop offset="0.5" stop-color="#D457FE"/>
<stop offset="1" stop-color="#B22E95"/>
</linearGradient>
<linearGradient id="paint2_linear_8_30833" x1="29.6833" y1="20.2244" x2="107.349" y2="79.2095" gradientUnits="userSpaceOnUse">
<stop stop-color="#AF43F2"/>
<stop offset="0.5" stop-color="#F448F7"/>
<stop offset="1" stop-color="#D12C58"/>
</linearGradient>
<linearGradient id="paint3_linear_8_30833" x1="49.7702" y1="60.805" x2="66.3465" y2="80.0793" gradientUnits="userSpaceOnUse">
<stop stop-color="#AF43F2"/>
<stop offset="0.5" stop-color="#F448F7"/>
<stop offset="1" stop-color="#D12C58"/>
</linearGradient>
<linearGradient id="paint4_linear_8_30833" x1="56.4462" y1="60.1034" x2="65.7554" y2="62.0687" gradientUnits="userSpaceOnUse">
<stop stop-color="#AF43F2"/>
<stop offset="0.5" stop-color="#F448F7"/>
<stop offset="1" stop-color="#D12C58"/>
</linearGradient>
<linearGradient id="paint5_linear_8_30833" x1="46.5817" y1="47.5319" x2="56.2215" y2="57.2053" gradientUnits="userSpaceOnUse">
<stop stop-color="#AF43F2"/>
<stop offset="0.5" stop-color="#F448F7"/>
<stop offset="1" stop-color="#D12C58"/>
</linearGradient>
<linearGradient id="paint6_linear_8_30833" x1="55.4164" y1="43.3831" x2="67.1244" y2="51.2963" gradientUnits="userSpaceOnUse">
<stop stop-color="#AF43F2"/>
<stop offset="0.5" stop-color="#F448F7"/>
<stop offset="1" stop-color="#D12C58"/>
</linearGradient>
<linearGradient id="paint7_linear_8_30833" x1="47.7375" y1="54.9978" x2="53.1531" y2="63.5814" gradientUnits="userSpaceOnUse">
<stop stop-color="#AF43F2"/>
<stop offset="0.5" stop-color="#F448F7"/>
<stop offset="1" stop-color="#D12C58"/>
</linearGradient>
<linearGradient id="paint8_linear_8_30833" x1="54.0797" y1="52.8001" x2="60.6383" y2="55.8136" gradientUnits="userSpaceOnUse">
<stop stop-color="#AF43F2"/>
<stop offset="0.5" stop-color="#F448F7"/>
<stop offset="1" stop-color="#D12C58"/>
</linearGradient>
<linearGradient id="paint9_linear_8_30833" x1="69.8121" y1="53.3116" x2="76.7807" y2="58.6163" gradientUnits="userSpaceOnUse">
<stop stop-color="#AF43F2"/>
<stop offset="0.5" stop-color="#F448F7"/>
<stop offset="1" stop-color="#D12C58"/>
</linearGradient>
<clipPath id="clip0_8_30833">
<rect width="34" height="34" fill="white" transform="translate(40.9827 45.3623) rotate(-6)"/>
</clipPath>
</defs>
</svg>
