<svg width="34" height="34" viewBox="0 0 34 34" fill="none" xmlns="http://www.w3.org/2000/svg">
<path d="M34.0023 16.6272C34.0023 17.8843 32.7563 18.9847 32.4875 20.1635C32.2187 21.3422 32.8515 22.9102 32.3223 24.0078C31.7931 25.1053 30.1832 25.5729 29.4188 26.5305C28.6544 27.4881 28.5648 29.154 27.6016 29.9212C26.6385 30.6884 25.0061 30.4028 23.8917 30.9404C22.7774 31.4779 21.999 32.9311 20.7838 33.2055C19.5687 33.4799 18.2583 32.5083 17.0011 32.5083C15.744 32.5083 14.3944 33.4743 13.2184 33.2055C12.0425 32.9367 11.2053 31.4667 10.1105 30.9404C9.01575 30.414 7.35819 30.6856 6.40062 29.9212C5.44305 29.1568 5.35065 27.4937 4.58347 26.5305C3.81629 25.5673 2.21754 25.1221 1.67995 24.0078C1.14237 22.8934 1.79195 21.3786 1.51476 20.1663C1.23757 18.9539 0 17.8843 0 16.6272C0 15.37 1.24597 14.2696 1.51476 13.0909C1.78355 11.9121 1.15077 10.3441 1.67995 9.24657C2.20914 8.149 3.81909 7.68141 4.58347 6.72384C5.34785 5.76627 5.43745 4.10031 6.40062 3.33314C7.36379 2.56596 8.99615 2.85155 10.1105 2.31397C11.2249 1.77638 12.0033 0.323221 13.2184 0.0488283C14.4336 -0.225564 15.744 0.746009 17.0011 0.746009C18.2583 0.746009 19.6079 -0.219964 20.7838 0.0488283C21.9598 0.317621 22.797 1.78758 23.8917 2.31397C24.9865 2.84035 26.6441 2.56876 27.6016 3.33314C28.5592 4.09752 28.6516 5.76067 29.4188 6.72384C30.186 7.68701 31.7847 8.1322 32.3223 9.24657C32.8599 10.3609 32.2103 11.8757 32.4875 13.0881C32.7647 14.3004 34.0023 15.3644 34.0023 16.6244V16.6272Z" fill="#CBCBCB"/>
<path d="M31.6601 21.656C31.6601 21.656 31.4893 21.6476 31.4585 21.7568C31.3969 21.9864 31.5593 22.0788 31.7609 22.1264L31.9289 22.4288C31.8281 22.4848 31.8813 22.5688 31.8617 22.6304C31.8533 22.6584 31.8029 22.6724 31.7945 22.6976C31.7525 22.832 31.9373 22.9804 31.9961 23.1008V23.2352C31.8841 23.406 31.8477 23.574 31.6265 23.4032C31.4053 23.2324 31.4249 23.126 31.5257 22.8992L31.1897 22.5632C31.1589 22.4624 31.0301 22.1488 30.9545 22.1264C30.8873 22.1068 30.8089 22.16 30.7529 22.0592H30.6857C30.6101 22.0816 30.4393 22.2552 30.4169 22.2608C30.3581 22.2776 30.0838 22.272 30.0138 22.2608C29.9886 22.2552 29.955 22.1572 29.8458 22.1936L29.7786 21.8912C29.787 21.8576 29.9942 21.7288 30.0138 21.7232C30.1454 21.6924 30.3497 21.7512 30.4841 21.7232C30.5401 21.712 30.7417 21.558 30.8201 21.5216C30.8537 21.5076 30.9097 21.5356 30.9545 21.5216C30.9853 21.5132 31.1141 21.3145 31.1225 21.2865C31.1477 21.1885 31.1225 21.0681 31.1897 20.9505C31.2681 20.8189 31.5117 20.7377 31.4585 20.5473C31.4529 20.5305 31.2541 20.3317 31.2233 20.3121C31.1477 20.2673 31.0021 20.2645 30.9545 20.2449C30.9097 20.2253 30.7977 20.1301 30.7529 20.1105C30.7053 20.0909 30.5597 20.0881 30.4841 20.0433C30.2546 19.9061 30.2546 19.6429 30.4841 19.5057C30.4981 19.4973 30.5317 19.5141 30.5513 19.5057C30.5793 19.4917 30.5933 19.4441 30.6185 19.4385C31.1505 19.3209 31.2093 19.7913 31.5929 20.0097C31.5537 20.0825 31.6517 20.1105 31.6601 20.1441C31.6769 20.2001 31.6461 20.2841 31.6601 20.3457C31.6657 20.3709 31.7245 20.3877 31.7273 20.4129C31.7553 20.6033 31.7581 21.3061 31.7273 21.488C31.7273 21.4964 31.6657 21.6504 31.6601 21.656Z" fill="#DADADA"/>
<path d="M28.9049 14.1296C28.8713 14.2416 28.9497 14.25 28.9721 14.2976C29.1485 14.6756 29.5292 15.0256 29.812 15.272C29.8764 15.328 30.0444 15.5296 30.0808 15.5408C30.3132 15.608 30.456 15.1348 30.6856 15.2048C30.7164 15.2132 30.9124 15.342 30.9208 15.3728C30.9404 15.44 30.8872 15.5184 30.988 15.5744C30.8872 15.6304 30.9404 15.7088 30.9208 15.776C30.9124 15.8068 30.7136 15.9356 30.6856 15.944C30.6296 15.9608 30.54 15.9272 30.484 15.944C30.4616 15.9496 30.288 16.1288 30.2152 16.1456C30.162 16.1568 29.9996 16.1568 29.9464 16.1456C29.9212 16.14 29.9072 16.0896 29.8792 16.0784C29.6804 16 29.4648 15.916 29.3081 15.776C29.2941 15.566 29.1905 15.314 29.0057 15.2048C28.9273 15.1572 28.7789 15.1208 28.6697 15.0704C28.4793 14.9836 28.3029 14.978 28.3673 14.7008C28.3729 14.6728 28.4317 14.6588 28.4345 14.6336C28.4597 14.4684 28.3757 14.1296 28.6025 14.0624C28.7285 14.026 28.7873 14.1492 28.9049 14.1296Z" fill="#DADADA"/>
<path d="M33.0039 17.5564C32.8947 17.52 32.8611 17.618 32.8359 17.6236C32.7267 17.6432 32.584 17.6096 32.4664 17.6236C32.5028 17.5144 32.4104 17.492 32.3992 17.4556C32.3712 17.3604 32.3712 17.1616 32.332 17.0524C32.304 16.9768 32.1444 16.7752 32.1304 16.7164C32.1136 16.638 32.1108 16.1117 32.1304 16.0445C32.1332 16.0333 32.2732 15.8933 32.2984 15.8765C32.3124 15.8681 32.346 15.8849 32.3656 15.8765C32.3936 15.8625 32.4076 15.8149 32.4328 15.8093C32.7827 15.7309 33.0739 15.8569 33.0039 16.2461C32.9171 16.722 33.0179 16.6212 33.0711 16.9852C33.0851 17.0776 33.0879 17.2988 33.0711 17.3884C33.0655 17.4136 32.9675 17.4472 33.0039 17.5564Z" fill="#DADADA"/>
<path d="M18.2875 3.98209V4.21728C18.1671 4.26208 18.1643 4.44127 18.1531 4.45247C18.1419 4.46367 18.0887 4.43847 18.0523 4.45247C18.0243 4.46367 18.0075 4.51407 17.9851 4.51967C17.8479 4.54487 17.7191 4.50007 17.5819 4.58687C17.4587 4.66527 17.3691 4.97886 17.2459 5.05726C17.2319 5.06566 17.2011 5.04606 17.1787 5.05726C17.1507 5.07126 17.1367 5.11326 17.1115 5.12446C17.0751 5.13845 17.0191 5.11326 16.9771 5.12446C16.9491 5.13285 16.9351 5.18605 16.9099 5.19165C16.7783 5.22245 16.5711 5.16085 16.6075 5.02366C16.6159 4.99286 16.7139 4.95366 16.6747 4.82206C16.6663 4.79686 16.6187 4.78286 16.6075 4.75486C16.5935 4.71847 16.6187 4.66527 16.6075 4.65407C16.5935 4.64007 16.4899 4.66807 16.4395 4.65407C16.4031 4.64287 16.2884 4.60367 16.238 4.58687C16.1988 4.57287 16.182 4.48327 16.07 4.51967C16.1064 4.41048 16.0112 4.38528 16.0028 4.35168C15.9496 4.16408 16.3192 4.16688 16.4395 4.18368C16.4647 4.18648 16.4815 4.24808 16.5067 4.25088C16.7419 4.28448 16.9715 4.18368 17.1787 4.11648C17.2151 4.10528 17.2487 4.01009 17.3803 4.04929L17.7835 4.31808C17.8479 4.30688 17.9319 4.33208 17.9851 4.31808C18.1195 4.28168 18.0383 3.94009 18.2875 3.98209Z" fill="#DADADA"/>
<path d="M7.60303 5.32695C7.69263 5.31855 8.05382 5.55655 8.07342 5.62934C8.17422 5.99893 7.86902 6.06333 7.56943 5.99893C7.54703 5.99333 7.39024 5.87014 7.36784 5.86454C7.25304 5.83934 7.07945 5.88974 6.96465 5.86454C6.94225 5.85894 6.92545 5.81134 6.89745 5.79734C6.87505 5.78614 6.84425 5.80574 6.83025 5.79734C6.64266 5.67694 6.77425 5.45575 6.72946 5.29335C6.69306 5.15616 6.50546 5.21496 6.42706 5.19256C6.41586 5.18976 6.26187 5.03576 6.25907 5.02456C6.21707 4.87897 6.32347 4.78377 6.32627 4.65497C6.45506 4.65497 6.54746 4.54857 6.69586 4.58777C6.72666 4.59617 6.85545 4.79497 6.86385 4.82297C6.88625 4.90416 6.84425 5.17856 7.03185 5.12536C7.05985 5.11696 7.07385 5.06376 7.09905 5.05816C7.32584 5.00776 7.60303 5.07496 7.60303 5.32695Z" fill="#DADADA"/>
<path d="M14.9276 14.4655C14.9024 14.3535 14.9696 14.3311 15.0284 14.2639C15.1572 14.1183 15.3616 14.0371 15.4987 13.9279C15.7395 13.7375 15.7759 13.5023 16.1707 13.5919C16.1959 13.5975 16.2099 13.6451 16.2379 13.6591C16.2575 13.6675 16.2911 13.6507 16.3051 13.6591C16.4451 13.7431 16.4759 13.9335 16.6075 14.0287C16.5963 14.1155 16.6215 14.2163 16.6075 14.2975C16.6019 14.3227 16.5487 14.3367 16.5403 14.3647C16.5291 14.4095 16.5543 14.4627 16.5403 14.4991C16.5291 14.5243 16.4871 14.5383 16.4731 14.5663C16.4619 14.5887 16.4815 14.6195 16.4731 14.6335C16.4087 14.7343 16.3051 14.7203 16.2379 14.8015C16.1819 14.7007 16.1007 14.7539 16.0363 14.7343C15.9775 14.7175 15.8235 14.4823 15.7675 14.4655C15.7115 14.4487 15.6303 14.4767 15.5659 14.4655C15.5407 14.4599 15.5211 14.3983 15.4987 14.3983C15.4847 14.3983 15.3224 14.4459 15.23 14.4655C15.2048 14.4711 15.1908 14.5243 15.1628 14.5327C15.0788 14.5579 15.0368 14.4319 14.9276 14.4655Z" fill="#DADADA"/>
<path d="M23.3946 12.6508C23.3834 12.7488 23.4086 12.8608 23.3946 12.9532C23.3918 12.9784 23.3302 12.9952 23.3274 13.0204C23.2994 13.2052 23.4002 13.4656 23.3946 13.4908C23.3722 13.5748 23.2406 13.6896 23.193 13.7596C23.1818 13.7764 23.2042 13.8128 23.193 13.8268C23.1007 13.95 22.9859 14.0396 22.8235 13.9948C22.6611 13.95 22.7451 13.5552 22.7227 13.4236C22.7171 13.3984 22.6639 13.3844 22.6555 13.3564C22.6415 13.3172 22.6667 13.264 22.6555 13.222C22.6527 13.208 22.5155 13.0708 22.4875 13.054C22.4595 13.0372 22.3167 13.0064 22.2859 12.9868C22.1627 12.9084 22.0787 12.7684 22.1179 12.6172C22.1515 12.494 22.3587 12.5472 22.4203 12.4492H22.4875C22.5211 12.5248 22.6051 12.5052 22.6219 12.5164C22.7255 12.5808 22.7591 12.7796 22.8907 12.8524C23.0923 12.8328 23.1846 12.6088 23.3946 12.6508Z" fill="#DADADA"/>
<path d="M22.5211 18.9007L22.5883 19.0686L22.3195 19.6062C22.3587 19.6566 22.4455 19.8358 22.4539 19.875C22.4903 20.0262 22.4231 20.0626 22.3867 20.1438C22.3755 20.1662 22.3951 20.197 22.3867 20.211C22.2943 20.3566 21.9723 20.421 21.8155 20.379C21.6783 20.3398 21.6111 20.0766 21.6475 19.9422C21.6587 19.9002 21.8127 19.8022 21.8491 19.7406C21.8603 19.721 21.8407 19.6398 21.9163 19.6062V19.4718C21.7791 19.3066 21.8211 19.0183 22.0171 18.9007C22.0311 18.8923 22.0647 18.9091 22.0843 18.9007C22.1123 18.8867 22.1263 18.8391 22.1515 18.8335C22.3027 18.7971 22.3839 18.8923 22.5211 18.9007Z" fill="#DADADA"/>
<path d="M9.21584 5.46075C9.22424 5.59795 9.31944 5.67915 9.28304 5.83034C9.27744 5.85554 9.22424 5.86954 9.21584 5.89754C9.20184 5.93674 9.22704 5.98994 9.21584 6.03194C9.20464 6.07114 8.95825 6.32873 8.94705 6.36793C8.91065 6.49392 9.05344 6.58072 9.01425 6.70392C8.95265 6.89991 8.95265 6.94751 8.94705 7.1743C8.94705 7.2303 8.97785 7.4095 8.84625 7.3423C8.82105 7.3283 8.61666 7.12391 8.61106 7.10711C8.59986 7.06511 8.62506 7.01191 8.61106 6.97271C8.60266 6.94471 8.54946 6.93071 8.54386 6.90551C8.53266 6.83551 8.52986 6.63392 8.54386 6.56952C8.54946 6.54712 8.67265 6.39033 8.67825 6.36793C8.74825 6.04594 8.51306 6.00114 8.47666 5.83034C8.46546 5.77994 8.46546 5.60635 8.47666 5.56155C8.51026 5.43835 8.71745 5.49155 8.77905 5.39355L9.21584 5.46075Z" fill="#DADADA"/>
<path d="M28.0649 11.6435C28.3953 11.5539 28.5157 11.8731 28.7369 12.0467C28.7705 12.0719 28.9693 12.1531 29.0057 12.1811C29.1261 12.2735 29.1625 12.3799 29.2409 12.4835V12.6179C29.1373 12.7859 29.1037 12.9062 28.8713 12.853C28.8573 12.8502 28.6277 12.7355 28.6025 12.7187C28.4065 12.5899 28.2161 12.3211 28.0985 12.1475C28.0677 12.1027 27.9725 12.0439 27.9641 12.0131C27.9389 11.9179 27.9557 11.6715 28.0649 11.6435Z" fill="#DADADA"/>
<path d="M10.795 4.65422C11.0582 4.58142 11.4278 4.79701 11.635 4.95661C11.621 5.0378 11.6546 5.1554 11.635 5.2254C11.6294 5.2422 11.4166 5.45499 11.3998 5.46059C11.243 5.50259 11.1842 5.40739 11.131 5.39339C11.0386 5.3682 11.0162 5.3626 10.9294 5.3262C10.8174 5.2786 10.4506 5.1666 10.4926 5.02381C10.5542 4.94261 10.7082 4.67941 10.795 4.65422Z" fill="#DADADA"/>
<path d="M20.2027 13.4579C20.3147 13.4271 20.7011 13.7855 20.7739 13.8947C20.7851 13.9087 20.7627 13.9451 20.7739 13.9619C20.8691 14.1159 20.9419 14.2811 21.0427 14.4323L20.8747 14.6003L20.4715 14.4659C20.4015 14.3651 20.3035 14.2587 20.2363 14.1635C20.2251 14.1495 20.2475 14.1103 20.2363 14.0963C20.1943 14.0347 20.0459 13.9339 20.0347 13.8947C19.9843 13.7127 20.0571 13.5643 20.2027 13.4579Z" fill="#DADADA"/>
<path d="M16.8093 20.7823V21.0511L16.5741 21.1183C16.5209 21.0147 16.4257 21.0735 16.3725 21.0511C16.2773 21.0119 16.1373 20.8971 16.0365 20.8495C16.0029 20.8327 15.9469 20.8635 15.9021 20.8495C15.7733 20.8131 15.5465 20.3371 15.5997 20.1775L15.9021 20.1104L16.3053 20.5135C16.4817 20.5499 16.6217 20.7767 16.8093 20.7823Z" fill="#DADADA"/>
<path d="M31.7609 17.5564C31.8057 17.5424 31.9737 17.5452 32.0297 17.5564C32.0549 17.562 32.0689 17.6152 32.0969 17.6236C32.1417 17.6348 32.1949 17.6096 32.2313 17.6236C32.2565 17.6348 32.2705 17.6768 32.2985 17.6908C32.3321 17.7076 32.4441 17.7132 32.4665 17.7915C32.4777 17.8363 32.4777 18.0827 32.4665 18.1275C32.4609 18.1443 32.2481 18.3571 32.2313 18.3627C32.1641 18.3823 32.0857 18.3291 32.0297 18.4299C31.9233 18.3487 31.7385 18.2591 31.6601 18.1275C31.6517 18.1135 31.6685 18.0799 31.6601 18.0603C31.6461 18.0323 31.5985 18.0183 31.5929 17.9931C31.5621 17.8531 31.6181 17.5956 31.7609 17.5564Z" fill="#DADADA"/>
<path d="M19.0938 15.0031C18.9762 14.9835 18.9174 15.1067 18.7914 15.0703C18.7802 15.0675 18.6402 14.9275 18.6234 14.9023C18.615 14.8883 18.6318 14.8547 18.6234 14.8351C18.6094 14.8071 18.5618 14.7931 18.5562 14.7679C18.447 14.2835 18.783 14.2079 19.1946 14.2639C19.3794 14.2891 19.4046 14.4795 19.3626 14.6335C19.3374 14.7231 19.0406 14.8491 19.0938 15.0031Z" fill="#DADADA"/>
<path d="M25.1081 22.3278C25.3181 22.2718 25.5505 22.4006 25.6793 22.563C25.7297 22.7365 25.8697 22.8933 25.8137 23.1005C25.8109 23.1117 25.6569 23.2657 25.6457 23.2685C25.5561 23.2965 25.5029 23.1761 25.4441 23.1341C25.4273 23.1229 25.3909 23.1453 25.3769 23.1341C25.3181 23.0893 25.1865 22.9577 25.1417 22.8989C25.1305 22.8849 25.1529 22.8485 25.1417 22.8317C25.1109 22.787 25.0157 22.7282 25.0073 22.6974C24.9821 22.6022 24.9989 22.3558 25.1081 22.3278Z" fill="#DADADA"/>
<path d="M26.2842 17.288L26.553 16.8512C26.497 16.6132 26.7322 16.378 26.9562 16.5152C27.1354 16.6244 27.2138 16.8484 27.1578 17.0528C27.1494 17.0836 26.9422 17.2152 26.9226 17.2208C26.791 17.2516 26.623 17.1928 26.4858 17.3216L26.2842 17.288Z" fill="#DADADA"/>
<path d="M14.9949 21.2523C15.0593 21.3923 14.8773 21.6891 14.7597 21.7227C14.5945 21.7675 14.2977 21.7115 14.1549 21.6555L13.7853 21.8571C13.7685 21.7255 13.7825 21.6695 13.8861 21.5883C14.0653 21.4483 14.0513 21.6191 14.1549 21.5883C14.1633 21.5883 14.2781 21.5267 14.2893 21.5211C14.4797 21.4063 14.5329 21.1207 14.8269 21.1851C14.8577 21.1907 14.8857 21.2887 14.9949 21.2523Z" fill="#DADADA"/>
<path d="M27.5944 4.72184C27.7372 4.68264 27.8884 4.76384 27.964 4.88984C27.9724 4.90384 27.9556 4.93743 27.964 4.95703C27.978 4.98503 28.0256 4.99903 28.0312 5.02423C28.0956 5.29862 27.852 5.44982 27.5944 5.39382C27.572 5.38822 27.3676 5.25662 27.3592 5.22583C27.348 5.18383 27.348 4.99903 27.3592 4.95703C27.3648 4.94023 27.5776 4.72744 27.5944 4.72184Z" fill="#DADADA"/>
<path d="M26.0826 12.3821C26.2982 12.3401 26.4046 12.4913 26.3514 12.6844C26.3402 12.7208 26.2282 12.7824 26.217 12.8188C26.2002 12.8748 26.2338 12.9644 26.217 13.0204C26.2114 13.0456 26.1638 13.0596 26.1498 13.0876C26.1386 13.11 26.1582 13.1408 26.1498 13.1548C26.0518 13.3088 25.7186 13.292 25.6794 13.1548C25.5618 12.7236 26.0742 12.7684 26.0826 12.3821Z" fill="#DADADA"/>
<path d="M24.8729 20.177C24.8729 20.177 24.8925 20.0427 24.8057 20.0091L24.8729 19.7067L25.2425 19.5723C25.5112 19.6983 25.6848 19.9951 25.3768 20.177C25.3572 20.1882 25.2761 20.1686 25.2425 20.2442L24.8729 20.177Z" fill="#DADADA"/>
<path d="M26.8216 10.1646C26.8748 10.047 26.7544 9.94057 26.7544 9.92937C26.7544 9.90697 26.8132 9.89018 26.8216 9.86218C26.8328 9.81738 26.8076 9.76418 26.8216 9.72778C26.8328 9.70258 26.8748 9.68858 26.8888 9.66058C26.9028 9.62978 26.8748 9.57658 26.956 9.52618C27.194 9.37779 27.3312 9.63258 27.4264 9.79498V9.86218C27.3256 9.91817 27.3788 9.99657 27.3592 10.0638C27.334 10.1478 27.1716 10.159 27.124 10.2318L26.8216 10.1646Z" fill="#DADADA"/>
<path d="M16.8429 25.4189C17.1173 25.3433 17.2909 25.5057 17.2125 25.7885C17.1537 26.0041 16.5545 25.7605 16.4397 26.0237C16.3949 25.9733 16.3165 25.9341 16.3389 25.8557C16.3641 25.7717 16.4985 25.7605 16.5069 25.7549C16.5825 25.6905 16.8009 25.4301 16.8429 25.4189Z" fill="#DADADA"/>
<path d="M24.4362 11.3747C24.5006 11.3635 24.719 11.3607 24.7722 11.3747C24.8086 11.3831 24.9598 11.5455 24.9402 11.6099C24.8954 11.7583 24.5202 11.8675 24.369 11.9123C24.2542 11.8143 24.1646 11.6967 24.1338 11.5427L24.4362 11.3747Z" fill="#DADADA"/>
<path d="M17.1453 16.1456C17.1089 16.2548 17.2069 16.2828 17.2125 16.3136C17.2684 16.5628 17.0501 16.8316 16.7757 16.8176L16.6077 16.5824C16.6749 16.3304 16.8625 16.0868 17.1453 16.1456Z" fill="#DADADA"/>
<path d="M13.718 19.7738C13.7544 19.6646 13.662 19.6422 13.6508 19.6058C13.6144 19.4798 13.7376 19.421 13.718 19.3034C13.8468 19.3034 13.942 19.1942 14.0876 19.2362C14.2248 19.2754 14.292 19.5386 14.2556 19.673C14.2332 19.757 14.068 19.7682 14.0204 19.841L13.718 19.7738Z" fill="#DADADA"/>
<path d="M18.6907 5.52855C18.6543 5.63775 18.7523 5.66575 18.7579 5.69655C18.7915 5.84214 18.6935 6.12774 18.5227 6.13334C18.3771 6.06614 18.1587 6.09134 18.1531 5.89814C18.2259 5.60135 18.3799 5.47815 18.6907 5.52855Z" fill="#DADADA"/>
<path d="M4.34402 14.1963C4.41122 14.1767 4.51482 14.1907 4.57921 14.2299C4.71361 14.3111 4.82281 14.4763 4.78081 14.6331C4.77801 14.6443 4.62401 14.7983 4.61281 14.8011C4.44202 14.8515 4.24042 14.6443 4.17603 14.4987V14.4315C4.24882 14.3839 4.26002 14.2187 4.34402 14.1963Z" fill="#DADADA"/>
<path d="M2.29451 10.2997C2.23852 9.8209 2.45691 9.46531 2.8993 9.8629C2.7565 10.0785 2.59691 10.3613 2.29451 10.2997Z" fill="#DADADA"/>
<path d="M1.72317 18.4971C1.79037 18.4775 1.89397 18.4915 1.95837 18.5307C1.98916 18.5503 2.15716 18.7183 2.15996 18.7323C2.23836 19.0123 2.02276 19.0655 1.79037 19.0347C1.63077 19.0123 1.59437 18.8639 1.55518 18.7323C1.62797 18.6847 1.63917 18.5195 1.72317 18.4971Z" fill="#DADADA"/>
<path d="M6.39356 20.7826C6.32636 20.4158 6.58395 20.4046 6.89754 20.4466C7.14674 20.4802 7.09634 20.8161 6.96474 20.8497C6.90314 20.8665 6.63435 20.8637 6.56155 20.8497C6.53635 20.8441 6.49996 20.7462 6.39356 20.7826Z" fill="#DADADA"/>
<path d="M21.9498 13.9278C22.059 13.8942 22.297 14.0846 22.3194 14.163C22.4146 14.4793 21.8014 14.5885 21.7146 14.2974C21.681 14.1882 21.8714 13.9502 21.9498 13.9278Z" fill="#DADADA"/>
<path d="M13.8863 0.757044C14.1131 0.695445 14.1579 0.835441 14.2558 0.992237C14.2446 1.17703 13.9619 1.52142 13.8191 1.29463C13.7631 1.20503 13.8163 1.12103 13.7183 1.05944V0.992237C13.7911 0.944638 13.8023 0.779443 13.8863 0.757044Z" fill="#DADADA"/>
<path d="M24.7052 15.9434L24.9068 16.0778C25.0523 16.3129 24.7892 16.5033 24.5708 16.5481C24.26 16.3074 24.3944 16.1002 24.7052 15.9434Z" fill="#DADADA"/>
<path d="M25.7128 11.0382C26.018 10.9458 26.0124 11.5282 25.8472 11.5758C25.57 11.6542 25.346 11.4638 25.5448 11.2062C25.57 11.1726 25.696 11.0438 25.7128 11.0382Z" fill="#DADADA"/>
<path d="M17.6157 19.1691V19.4379C17.3973 19.4351 16.9213 19.4911 16.8093 19.2699C16.7421 19.1383 16.9213 19.1691 16.9773 19.1691C17.1901 19.1663 17.4029 19.1719 17.6157 19.1691Z" fill="#DADADA"/>
<path d="M19.0267 26.6959C19.0995 26.7071 19.2003 26.6791 19.2619 26.6959C19.2927 26.7043 19.4243 26.9087 19.4299 26.9311C19.4635 27.0823 19.3767 27.2615 19.2619 27.3679C19.0939 27.1775 18.9931 26.9479 19.0267 26.6959Z" fill="#DADADA"/>
<path d="M20.5722 16.8173C20.4406 16.8201 20.351 16.9236 20.2026 16.8844C20.0234 16.8369 20.1466 16.5989 20.169 16.4813L20.4714 16.4141L20.6394 16.5821L20.5722 16.8173Z" fill="#DADADA"/>
<path d="M26.9227 25.8894C26.9703 25.8754 27.211 25.8754 27.2586 25.8894C27.3902 25.923 27.4406 26.2562 27.1915 26.2926C26.8219 26.3458 26.7183 25.9426 26.9227 25.8894Z" fill="#DADADA"/>
<path d="M6.1248 8.41797C5.96521 8.73996 5.65442 9.15435 5.52002 8.58596L5.58722 8.41797H6.1248Z" fill="#DADADA"/>
<path d="M9.88785 3.44531C9.87945 3.70851 9.98025 4.0277 9.61906 3.9829C9.65546 3.8737 9.55746 3.8457 9.55186 3.8149C9.51546 3.65531 9.61626 3.57691 9.61906 3.44531H9.88785Z" fill="#DADADA"/>
<path d="M26.5528 18.2959L26.62 18.5311L26.452 18.6991L26.1497 18.6319L26.2169 18.2959H26.5528Z" fill="#DADADA"/>
<path d="M3.70567 10.5009C3.73367 10.5289 3.98007 10.5009 3.90727 10.7697C3.80647 10.7473 3.75047 10.6213 3.67208 10.5681C3.64408 10.5485 3.50128 10.5205 3.47048 10.5009C3.31929 10.4057 3.27729 10.2741 3.30249 10.0977C3.36128 10.0333 3.67208 10.3413 3.70567 10.4001C3.72247 10.4309 3.69448 10.4897 3.70567 10.5009Z" fill="#DADADA"/>
<path d="M12.5084 29.047C12.682 29.0218 12.9843 29.0358 12.9115 29.2822C12.8891 29.355 12.7128 29.481 12.6092 29.4502C12.5224 29.425 12.5168 29.2654 12.4412 29.215L12.5084 29.047Z" fill="#DADADA"/>
<path d="M9.82063 13.2557C9.84583 13.4321 9.83463 13.7289 9.58544 13.6589C9.39505 13.6057 9.48744 13.2585 9.65264 13.1885L9.82063 13.2557Z" fill="#DADADA"/>
<path d="M23.0585 11.2402C23.0669 11.3746 23.1593 11.4558 23.1257 11.6098C23.1201 11.6406 23.0221 11.6714 23.0585 11.7442L22.8569 11.7778V11.4082L23.0585 11.2402Z" fill="#DADADA"/>
<path d="M23.9994 13.4571C24.0806 13.7203 23.6634 13.9275 23.5962 13.6923C23.5262 13.4459 23.823 13.4319 23.9994 13.4571Z" fill="#DADADA"/>
<path d="M7.40154 13.9279C7.31474 13.9475 7.15795 13.9167 7.13275 13.8271C7.04315 13.4995 7.41554 13.438 7.46874 13.6255C7.50514 13.7543 7.38194 13.8103 7.40154 13.9279Z" fill="#DADADA"/>
<path d="M21.3116 11.8452C21.4264 12.2819 20.8888 12.2595 20.9756 11.946C21.0092 11.8284 21.2136 11.8368 21.3116 11.8452Z" fill="#DADADA"/>
<path d="M31.1897 16.6832C31.3689 16.6608 31.6601 16.6664 31.5929 16.9184C31.5565 17.0584 31.4389 16.9688 31.3577 16.952L31.1897 16.6832Z" fill="#DADADA"/>
<path d="M22.7898 4.78912H22.5211C22.5575 4.68832 22.4539 4.63512 22.4539 4.62112C22.4539 4.60712 22.5575 4.55392 22.5211 4.45313C22.7786 4.41953 22.815 4.56232 22.7898 4.78912Z" fill="#DADADA"/>
<path d="M19.0269 7.34286V7.07407C19.4748 7.02367 19.4748 7.39326 19.0269 7.34286Z" fill="#DADADA"/>
<path d="M23.7977 28.5773C23.4393 28.6641 23.4869 28.1825 23.6969 28.2413C23.8089 28.2721 23.8089 28.4681 23.7977 28.5773Z" fill="#DADADA"/>
<path d="M21.9835 15.8096C22.0899 16.2184 21.6559 16.1904 21.7147 15.9776C21.7231 15.944 21.8183 15.9188 21.7819 15.8096H21.9835Z" fill="#DADADA"/>
<path d="M14.2557 11.1051C14.0009 11.1219 13.8385 10.674 14.1549 10.7692C14.2697 10.8027 14.2641 10.9959 14.2557 11.1051Z" fill="#DADADA"/>
<path d="M9.552 14.3984H9.2832V14.6672H9.552V14.3984Z" fill="#DADADA"/>
<path d="M2.19373 22.4619C2.35333 22.5935 2.45412 22.7167 2.26093 22.8651C2.10133 22.7335 2.00054 22.6103 2.19373 22.4619Z" fill="#DADADA"/>
<path d="M5.25105 7.74598C5.15025 7.70958 5.09705 7.81318 5.08305 7.81318C5.06905 7.81318 5.01585 7.70958 4.91506 7.74598C4.91226 7.46879 5.25385 7.46879 5.25105 7.74598Z" fill="#DADADA"/>
<path d="M2.89909 16.3467C2.89349 16.2039 2.87109 16.0947 2.99989 16.0107C3.18188 16.1423 3.11748 16.3551 2.89909 16.3467Z" fill="#DADADA"/>
<path d="M7.80468 19.4385C7.80468 19.7045 7.53869 19.7045 7.53589 19.4385H7.80468Z" fill="#DADADA"/>
<path d="M20.8412 9.22431V9.4259H20.6396C20.62 9.2971 20.7124 9.20471 20.8412 9.22431Z" fill="#DADADA"/>
<path d="M14.6589 5.25977C14.6785 5.38856 14.5861 5.48096 14.4573 5.46136V5.25977H14.6589Z" fill="#DADADA"/>
<path d="M17.001 30.5006C24.6631 30.5006 30.8744 24.2893 30.8744 16.6272C30.8744 8.96521 24.6631 2.75391 17.001 2.75391C9.33899 2.75391 3.12769 8.96521 3.12769 16.6272C3.12769 24.2893 9.33899 30.5006 17.001 30.5006Z" stroke="white" stroke-width="0.839976" stroke-miterlimit="10"/>
<path d="M17.9908 29.224C17.9564 28.9546 18.1471 28.7076 18.4165 28.6732C18.6859 28.6388 18.933 28.8296 18.9674 29.099C19.0017 29.3684 18.8116 29.6154 18.5421 29.6491L18.5307 29.6503C18.2655 29.6782 18.0253 29.4892 17.9914 29.224L17.9908 29.224ZM16.2745 29.7355C16.003 29.7211 15.7947 29.49 15.8085 29.2185C15.8224 28.9471 16.054 28.7381 16.3255 28.7525C16.597 28.7664 16.8053 28.9975 16.7914 29.269C16.7785 29.5143 16.5889 29.7086 16.3524 29.7334C16.3272 29.7361 16.3018 29.7363 16.2751 29.7355L16.2745 29.7355ZM20.14 28.8407C20.0583 28.5818 20.2017 28.3046 20.4613 28.2228C20.7202 28.1411 20.9974 28.2845 21.0792 28.5441C21.1609 28.8031 21.0174 29.0797 20.7579 29.162C20.7257 29.1721 20.6931 29.1785 20.6607 29.1819C20.4332 29.2058 20.2129 29.0674 20.1406 28.8407L20.14 28.8407ZM14.0279 29.4172C13.7634 29.3548 13.5994 29.0899 13.6612 28.8256C13.7236 28.5605 13.9884 28.3965 14.2534 28.4588C14.5179 28.5212 14.6819 28.7861 14.6195 29.0505C14.5707 29.2602 14.3942 29.4065 14.1918 29.4278C14.1386 29.4334 14.0831 29.4301 14.0279 29.4178L14.0279 29.4172ZM22.1868 28.0814C22.0598 27.8405 22.1514 27.5434 22.3922 27.4157C22.6325 27.2888 22.9303 27.3804 23.0573 27.6213C23.1843 27.8616 23.0927 28.1593 22.8518 28.2863C22.795 28.3165 22.734 28.3345 22.6741 28.3407C22.4801 28.3611 22.2841 28.2643 22.1874 28.0814L22.1868 28.0814ZM11.8744 28.7004C11.6257 28.5921 11.5117 28.3021 11.6205 28.0527C11.7293 27.804 12.0189 27.6906 12.2682 27.7988C12.5169 27.9077 12.6309 28.1977 12.5221 28.4465C12.4483 28.6146 12.2925 28.7212 12.1224 28.7391C12.0404 28.7477 11.955 28.7355 11.8744 28.7004ZM24.0643 26.967C23.8959 26.7534 23.933 26.4438 24.1459 26.2756C24.3595 26.1072 24.6691 26.1443 24.8374 26.3579C25.0052 26.5715 24.968 26.8805 24.7551 27.0487C24.6796 27.1081 24.5918 27.1422 24.5026 27.1516C24.3397 27.1687 24.1725 27.1045 24.0643 26.967ZM9.88562 27.6097C9.66021 27.4579 9.60019 27.1518 9.75145 26.9265C9.90265 26.7005 10.2088 26.6411 10.434 26.7918C10.6601 26.9436 10.7195 27.2497 10.5688 27.475C10.484 27.6007 10.3513 27.6752 10.2112 27.6899C10.1005 27.7016 9.98515 27.6756 9.88555 27.6091L9.88562 27.6097ZM25.7102 25.5331C25.5073 25.3534 25.4879 25.0419 25.6681 24.8389C25.8483 24.6353 26.1593 24.6166 26.3629 24.7968C26.5664 24.9764 26.5852 25.2879 26.405 25.4909C26.32 25.587 26.2059 25.6414 26.0879 25.6538C25.9556 25.6677 25.8183 25.6282 25.7102 25.5331ZM8.12188 26.1837C7.92648 25.9948 7.92155 25.6829 8.11046 25.4875C8.29937 25.2921 8.61121 25.2872 8.80662 25.4761C9.00202 25.665 9.00695 25.9769 8.81804 26.1723C8.73449 26.2585 8.62649 26.308 8.51573 26.3197C8.37622 26.3343 8.23102 26.2891 8.12188 26.1837ZM27.0761 23.8307C26.8439 23.6893 26.7703 23.3865 26.9124 23.1542C27.0533 22.9221 27.3567 22.8484 27.5883 22.99C27.8204 23.1308 27.894 23.4342 27.7525 23.6658C27.6688 23.8023 27.5303 23.8841 27.383 23.8996C27.2794 23.9105 27.1718 23.8891 27.0761 23.8307ZM6.63852 24.4648C6.48034 24.2442 6.53096 23.9368 6.75163 23.7786C6.9729 23.6204 7.28029 23.671 7.43847 23.8916C7.59666 24.1123 7.5461 24.4203 7.32536 24.5779C7.25332 24.6297 7.17224 24.6588 7.09021 24.6674C6.92017 24.6852 6.74561 24.614 6.63852 24.4648ZM28.1174 21.9131C27.8638 21.8157 27.7369 21.5306 27.8344 21.277C27.9318 21.0234 28.2169 20.8966 28.4699 20.9941C28.7235 21.0915 28.8503 21.376 28.7529 21.6302C28.6845 21.8087 28.5229 21.9244 28.3445 21.9431C28.2702 21.9509 28.1918 21.9422 28.1168 21.9132L28.1174 21.9131ZM5.48853 22.5082C5.37251 22.2625 5.4773 21.9694 5.72298 21.8534C5.9686 21.7367 6.26237 21.8421 6.37839 22.0878C6.49441 22.3334 6.38962 22.6265 6.1434 22.7432C6.09206 22.7674 6.03846 22.7815 5.98457 22.7872C5.7822 22.8084 5.57972 22.702 5.48847 22.5076L5.48853 22.5082ZM28.7977 19.8391C28.5309 19.7891 28.3549 19.5315 28.405 19.2648C28.4556 18.9979 28.7126 18.822 28.9794 18.8721C29.2467 18.9221 29.4221 19.1797 29.3727 19.4464C29.3315 19.665 29.1513 19.8226 28.9405 19.8447C28.8938 19.8496 28.8464 19.8479 28.7976 19.8385L28.7977 19.8391ZM4.70709 20.3778C4.63652 20.1152 4.79216 19.8452 5.05479 19.7752C5.31736 19.7046 5.58736 19.8603 5.65733 20.1229C5.72731 20.3855 5.57166 20.6555 5.30904 20.7255C5.28313 20.7325 5.25824 20.7375 5.23309 20.7402C4.99659 20.765 4.77011 20.6145 4.70709 20.3778ZM29.0953 17.677C28.8233 17.6754 28.6044 17.4532 28.6067 17.1812C28.6084 16.9092 28.83 16.691 29.102 16.6927C29.374 16.6943 29.5929 16.9165 29.5906 17.1885C29.5893 17.4417 29.3962 17.649 29.1507 17.6748C29.1328 17.6767 29.1141 17.6775 29.0953 17.6776L29.0953 17.677ZM4.84927 18.5916C4.57868 18.6146 4.34079 18.4132 4.31834 18.1419C4.29534 17.8713 4.49674 17.6334 4.768 17.611C5.03865 17.5886 5.27647 17.7894 5.29893 18.0606C5.32101 18.3283 5.12595 18.5631 4.86071 18.591C4.85712 18.5914 4.85292 18.5918 4.84993 18.5921L4.84927 18.5916ZM28.4341 15.0951C28.3878 14.8276 28.5674 14.5726 28.835 14.5263C29.1024 14.4795 29.3574 14.6591 29.4037 14.9266C29.45 15.1942 29.2703 15.4491 29.0028 15.4954C28.9921 15.4977 28.9808 15.4989 28.97 15.5001C28.7143 15.5269 28.4786 15.3514 28.4341 15.0951ZM4.77559 16.4104C4.50529 16.3843 4.30693 16.1443 4.33294 15.8734C4.35901 15.6031 4.59906 15.4047 4.86996 15.4307C5.14027 15.4568 5.33863 15.6968 5.31322 15.9677C5.29033 16.205 5.10297 16.3863 4.87545 16.4102C4.84312 16.4136 4.80988 16.4141 4.77625 16.4109L4.77559 16.4104ZM27.8941 13.0731C27.8006 12.8178 27.9314 12.5353 28.1873 12.4418C28.4426 12.3484 28.7252 12.4797 28.8186 12.735C28.912 12.9904 28.7807 13.2729 28.5254 13.3664C28.4863 13.3801 28.4467 13.3898 28.4072 13.3939C28.1881 13.4169 27.9732 13.29 27.8941 13.0737L27.8941 13.0731ZM5.09039 14.2507C4.82901 14.1771 4.67691 13.905 4.75107 13.6429C4.82469 13.3815 5.09685 13.2294 5.35889 13.3036C5.62026 13.3772 5.77236 13.6494 5.6982 13.9114C5.6417 14.1111 5.4707 14.2465 5.27611 14.2669C5.21564 14.2733 5.15337 14.2683 5.09098 14.2507L5.09039 14.2507ZM27.0014 11.1802C26.8642 10.9458 26.9421 10.6447 27.177 10.5068C27.4113 10.3689 27.7125 10.4475 27.8504 10.6818C27.9882 10.9161 27.9097 11.2173 27.6754 11.3551C27.6126 11.392 27.5453 11.4136 27.4776 11.4207C27.2914 11.4403 27.1024 11.3524 27.0014 11.1802ZM5.78772 12.1828C5.5439 12.0632 5.44326 11.768 5.56298 11.5248C5.68324 11.2809 5.9777 11.1798 6.22158 11.3C6.4654 11.4197 6.56657 11.7141 6.44631 11.958C6.36905 12.1157 6.21835 12.2138 6.05549 12.231C5.96688 12.2403 5.87389 12.2252 5.78772 12.1828ZM25.7833 9.4795C25.6054 9.2736 25.6291 8.963 25.8344 8.78524C26.0403 8.60742 26.3509 8.63107 26.528 8.83643C26.7059 9.04232 26.6828 9.35287 26.4769 9.53069C26.3981 9.5983 26.304 9.63663 26.2076 9.64676C26.0526 9.66306 25.8927 9.6054 25.7832 9.4789L25.7833 9.4795ZM6.84558 10.2738C6.62707 10.1127 6.5807 9.80401 6.74176 9.5855C6.90288 9.36759 7.21152 9.32063 7.43002 9.48169C7.64859 9.64334 7.6949 9.95144 7.53384 10.1699C7.44792 10.2855 7.32186 10.3532 7.18895 10.3672C7.071 10.3796 6.94858 10.3495 6.84558 10.2738ZM24.2789 8.02194C24.2789 8.02194 24.2756 8.01926 24.2737 8.01825C24.2737 8.01825 24.2704 8.01557 24.2697 8.01444C24.058 7.84358 24.0249 7.5341 24.197 7.32291C24.3678 7.11124 24.6773 7.0781 24.8884 7.24903C24.8884 7.24903 24.8917 7.2517 24.8937 7.25331C24.8937 7.25331 24.897 7.25599 24.899 7.2576C25.11 7.42852 25.1426 7.73806 24.9717 7.94913C24.8859 8.055 24.7652 8.11611 24.6401 8.12926C24.515 8.14242 24.3842 8.10773 24.2789 8.02194ZM8.22593 8.58203C8.03935 8.38492 8.04778 8.0735 8.24548 7.88685C8.44318 7.70021 8.75461 7.70864 8.94125 7.90634C9.1279 8.10404 9.11947 8.41547 8.92177 8.60211C8.84033 8.67968 8.73955 8.72297 8.63537 8.73391C8.48868 8.74933 8.3356 8.69823 8.22653 8.58196L8.22593 8.58203ZM22.5314 6.84843C22.2931 6.7179 22.206 6.41833 22.3366 6.18063C22.4671 5.94233 22.7666 5.85455 23.0044 5.98574C23.2427 6.11627 23.3298 6.41523 23.1992 6.65354C23.1185 6.80065 22.9741 6.88968 22.819 6.90598C22.7226 6.91611 22.6226 6.89817 22.5314 6.84843ZM9.88423 7.16193C9.73626 6.93474 9.80037 6.62896 10.0282 6.48092C10.2559 6.33289 10.5612 6.39766 10.7092 6.62485C10.8572 6.85264 10.7924 7.15788 10.5652 7.30586C10.4978 7.34987 10.4236 7.37522 10.3488 7.38309C10.1709 7.40178 9.98886 7.32225 9.88483 7.16187L9.88423 7.16193ZM20.6137 6.01303C20.3559 5.92753 20.2158 5.64867 20.3018 5.39022C20.3873 5.13244 20.6657 4.99301 20.9241 5.07845C21.1818 5.16395 21.3213 5.44288 21.2358 5.70066C21.1734 5.89004 21.0068 6.0153 20.82 6.03494C20.7523 6.04205 20.6826 6.03485 20.6136 6.01244L20.6137 6.01303ZM11.7707 6.06411C11.6657 5.81364 11.7837 5.5252 12.0348 5.42012C12.2852 5.3151 12.5737 5.43309 12.6788 5.68416C12.7838 5.93523 12.6658 6.22307 12.4147 6.32815C12.3695 6.34743 12.3229 6.35899 12.2762 6.3639C12.0661 6.38599 11.8565 6.26939 11.7707 6.06411ZM18.5768 5.53582C18.307 5.49758 18.1199 5.24908 18.1581 4.97932C18.1958 4.71021 18.4449 4.52301 18.714 4.56071C18.9832 4.59901 19.1704 4.84811 19.1327 5.11721C19.1003 5.34519 18.9166 5.51463 18.6974 5.53766C18.6579 5.54182 18.6173 5.54124 18.5761 5.53528L18.5768 5.53582ZM13.8235 5.3217C13.7647 5.05608 13.9327 4.79387 14.1977 4.73514C14.4633 4.67635 14.7261 4.84426 14.7843 5.10934C14.8431 5.37496 14.6752 5.63777 14.4101 5.6965C14.3918 5.70025 14.3733 5.7034 14.3548 5.70535C14.1087 5.73121 13.878 5.56902 13.8235 5.3217ZM16.4868 5.4292C16.2155 5.43956 15.9862 5.22757 15.9758 4.95626C15.9655 4.68494 16.1775 4.45623 16.4488 4.44587C16.7202 4.43552 16.9488 4.64696 16.9592 4.91828C16.9696 5.17869 16.7749 5.40013 16.5193 5.427C16.5085 5.42813 16.4977 5.42926 16.4862 5.42926L16.4868 5.4292Z" fill="white"/>
<path d="M17.1659 19.1544C17.1659 19.0632 17.0921 18.9893 17.001 18.9893C16.91 18.9893 16.8362 19.0632 16.8362 19.1544V20.181C16.8362 20.2723 16.91 20.3462 17.001 20.3462C17.0921 20.3462 17.1659 20.2723 17.1659 20.181V19.1544Z" fill="white"/>
<g clip-path="url(#clip0_179_33768)">
<path d="M10.8735 18.1221L21.9197 16.9611L22.5875 23.314C22.6358 23.7736 22.3011 24.1859 21.8405 24.2343L12.4632 25.2199C12.0026 25.2683 11.5896 24.9346 11.5413 24.475L10.8735 18.1221Z" fill="#CBCBCB" stroke="white" stroke-width="0.463037" stroke-miterlimit="10"/>
<path d="M17.6334 17.4119L15.1602 17.6719L15.9154 24.8574L18.3886 24.5975L17.6334 17.4119Z" fill="white" stroke="white" stroke-width="0.463037" stroke-miterlimit="10"/>
<path d="M14.6436 15.2382C14.5042 15.2529 14.3739 15.2531 14.2627 15.2501C13.5584 15.2319 12.8186 15.0803 12.1239 14.812C10.7188 14.2694 10.0521 13.3529 10.3839 12.4199C10.6838 11.5769 11.6345 11.2312 13.0614 11.4465C13.8981 11.5728 14.6377 11.9315 15.1446 12.4557C15.4769 12.8 15.8214 13.4052 15.8415 13.9814C15.862 14.558 15.5564 14.9895 15.0037 15.1646C14.8817 15.2035 14.7595 15.2256 14.6436 15.2378L14.6436 15.2382ZM11.9948 12.3192C11.9402 12.3249 11.8878 12.3325 11.8377 12.3416C11.4087 12.4216 11.2988 12.5998 11.2536 12.7275C11.0224 13.3776 12.3095 13.896 12.4572 13.9533C13.0459 14.1805 13.6961 14.3142 14.287 14.3296C14.4181 14.3331 14.5867 14.3313 14.7246 14.2874C14.8797 14.2382 14.9249 14.1746 14.9195 14.0144C14.9088 13.7124 14.6877 13.3097 14.4799 13.095C14.1131 12.7152 13.5604 12.4534 12.923 12.3571C12.5741 12.3046 12.2572 12.2916 11.9948 12.3192Z" fill="white"/>
<path d="M16.1684 14.7255C15.7582 14.7686 15.3868 14.5981 15.1181 14.2324C14.7765 13.7674 14.6712 13.079 14.7182 12.6035C14.7905 11.8783 15.1486 11.1394 15.727 10.5226C16.7132 9.47074 17.6742 9.15382 18.4329 9.63007C19.2725 10.1572 19.318 11.2892 18.5518 12.584C18.1729 13.2248 17.6864 13.8012 17.1448 14.2508C16.9885 14.3809 16.7748 14.5431 16.5102 14.6425C16.3941 14.6862 16.2798 14.7138 16.1684 14.7255ZM15.8627 13.6874C15.9576 13.8163 16.0329 13.8382 16.1851 13.781C16.3206 13.7301 16.4537 13.6273 16.5545 13.5435C17.0088 13.1658 17.436 12.6592 17.7573 12.1161C17.8379 11.9801 18.5264 10.7768 17.9415 10.4094C17.8269 10.3377 17.6303 10.2654 17.2437 10.468C16.9842 10.6039 16.6931 10.8403 16.4014 11.1513C15.961 11.621 15.6896 12.1689 15.6372 12.6938C15.6077 12.9911 15.684 13.4439 15.8627 13.6874Z" fill="white"/>
<path d="M10.8066 15.0222L19.7149 11.9354C20.1524 11.7838 20.6307 12.015 20.7825 12.4515L21.307 13.9605L10.8133 17.5966L10.2888 16.0877C10.1371 15.6512 10.369 15.1738 10.8066 15.0222Z" fill="#CBCBCB"/>
<path d="M20.5636 12.5275C20.454 12.2122 20.1078 12.0443 19.7907 12.1542L10.8825 15.241C10.5654 15.3509 10.3978 15.6968 10.5074 16.0121L10.9559 17.3024L21.0122 13.8178L20.5636 12.5275ZM21.6018 14.1036L10.6707 17.8914L10.0701 16.1636C9.87628 15.6059 10.1726 14.9972 10.7306 14.8039L19.6387 11.7171C20.1967 11.5237 20.8073 11.8182 21.0012 12.3759L21.6018 14.1036Z" fill="white"/>
<path d="M16.4352 13.0716L14.0857 13.8857L14.8851 16.1855L17.2347 15.3714L16.4352 13.0716Z" fill="white" stroke="white" stroke-width="0.463037" stroke-miterlimit="10"/>
<path d="M22.3101 14.9865L22.4467 14.2188C22.502 13.909 22.9283 13.8642 23.0468 14.1558L23.34 14.8783L24.1093 15.0142C24.4198 15.0693 24.4644 15.4945 24.1722 15.6129L23.448 15.9059L23.3114 16.6736C23.2561 16.9834 22.8299 17.0281 22.7114 16.7366L22.4181 16.0141L21.6488 15.8782C21.3384 15.8231 21.2937 15.3978 21.5859 15.2795L22.3101 14.9865Z" fill="white"/>
</g>
<defs>
<clipPath id="clip0_179_33768">
<rect width="15.7433" height="15.7433" fill="white" transform="translate(8.27026 10.1016) rotate(-6)"/>
</clipPath>
</defs>
</svg>
