<svg width="169" height="136" viewBox="0 0 169 136" fill="none" xmlns="http://www.w3.org/2000/svg">
<g filter="url(#filter0_d_8_29526)">
<path d="M119.269 115.502C143.437 112.962 160.969 91.3109 158.429 67.1435C155.889 42.9761 134.238 25.4437 110.071 27.9838C85.9033 30.5239 68.3709 52.1746 70.911 76.342C73.4511 100.509 95.1018 118.042 119.269 115.502Z" fill="url(#paint0_radial_8_29526)"/>
<path d="M117.722 106.335C117.624 105.566 118.168 104.861 118.937 104.763C119.706 104.665 120.412 105.209 120.51 105.978C120.608 106.748 120.065 107.453 119.296 107.549L119.263 107.553C118.506 107.632 117.82 107.092 117.723 106.335L117.722 106.335ZM112.822 107.796C112.047 107.755 111.452 107.095 111.492 106.32C111.531 105.545 112.193 104.948 112.968 104.989C113.743 105.029 114.337 105.689 114.298 106.464C114.261 107.164 113.719 107.719 113.044 107.79C112.972 107.797 112.9 107.798 112.824 107.796L112.822 107.796ZM123.858 105.241C123.624 104.502 124.034 103.71 124.775 103.477C125.514 103.244 126.306 103.653 126.539 104.394C126.772 105.134 126.363 105.923 125.622 106.158C125.53 106.187 125.437 106.205 125.344 106.215C124.695 106.283 124.066 105.888 123.859 105.241L123.858 105.241ZM106.408 106.887C105.653 106.709 105.185 105.953 105.361 105.198C105.539 104.441 106.295 103.973 107.052 104.151C107.807 104.329 108.275 105.085 108.097 105.84C107.958 106.439 107.454 106.856 106.876 106.917C106.724 106.933 106.566 106.924 106.408 106.889L106.408 106.887ZM129.701 103.073C129.338 102.386 129.6 101.537 130.288 101.173C130.974 100.81 131.824 101.072 132.186 101.76C132.549 102.446 132.287 103.296 131.6 103.658C131.438 103.745 131.263 103.796 131.092 103.814C130.538 103.872 129.979 103.595 129.703 103.073L129.701 103.073ZM100.26 104.84C99.55 104.531 99.2245 103.703 99.5351 102.991C99.8458 102.281 100.672 101.958 101.384 102.267C102.094 102.577 102.42 103.405 102.109 104.116C101.899 104.596 101.453 104.9 100.968 104.951C100.734 104.976 100.49 104.941 100.26 104.84ZM135.061 99.8918C134.581 99.2821 134.686 98.3982 135.294 97.9178C135.904 97.4372 136.788 97.5431 137.268 98.1527C137.747 98.7626 137.641 99.6448 137.033 100.125C136.818 100.295 136.567 100.392 136.312 100.419C135.848 100.468 135.37 100.284 135.061 99.8918ZM94.5821 101.727C93.9386 101.293 93.7673 100.419 94.1991 99.7761C94.6308 99.1311 95.5047 98.9614 96.1479 99.3916C96.7931 99.8249 96.9627 100.699 96.5326 101.342C96.2904 101.701 95.9118 101.914 95.5118 101.956C95.1956 101.989 94.8663 101.915 94.582 101.725L94.5821 101.727ZM139.76 95.798C139.181 95.2851 139.125 94.3957 139.64 93.8163C140.154 93.2351 141.042 93.1815 141.624 93.6959C142.204 94.2086 142.258 95.0982 141.744 95.6777C141.501 95.952 141.175 96.1072 140.839 96.1426C140.461 96.1823 140.069 96.0697 139.76 95.798ZM89.5468 97.6555C88.9889 97.1162 88.9749 96.2259 89.5142 95.668C90.0535 95.1101 90.9438 95.0961 91.5017 95.6354C92.0595 96.1747 92.0736 97.065 91.5343 97.6229C91.2957 97.8692 90.9874 98.0104 90.6712 98.0437C90.2729 98.0855 89.8584 97.9563 89.5468 97.6555ZM143.66 90.938C142.997 90.5341 142.787 89.6696 143.192 89.0066C143.595 88.3439 144.461 88.1336 145.122 88.5376C145.785 88.9398 145.995 89.806 145.591 90.4671C145.352 90.8569 144.956 91.0903 144.536 91.1345C144.24 91.1656 143.933 91.1045 143.66 90.938ZM85.3119 92.7483C84.8603 92.1183 85.0048 91.2407 85.6348 90.7891C86.2665 90.3373 87.1441 90.4819 87.5957 91.1119C88.0473 91.7419 87.903 92.6211 87.2728 93.071C87.0671 93.2188 86.8356 93.3019 86.6014 93.3265C86.116 93.3775 85.6176 93.1742 85.3119 92.7483ZM146.632 85.4633C145.908 85.1852 145.546 84.3712 145.825 83.6472C146.103 82.9232 146.917 82.5612 147.639 82.8395C148.363 83.1177 148.725 83.93 148.447 84.6557C148.252 85.1653 147.79 85.4955 147.281 85.549C147.069 85.5713 146.845 85.5464 146.631 85.4635L146.632 85.4633ZM82.0288 87.1621C81.6975 86.4607 81.9967 85.6239 82.6981 85.2927C83.3993 84.9598 84.238 85.2605 84.5692 85.9619C84.9005 86.6633 84.6013 87.5001 83.8984 87.8332C83.7518 87.9022 83.5988 87.9425 83.4449 87.9586C82.8672 88.0194 82.2891 87.7154 82.0286 87.1604L82.0288 87.1621ZM148.575 79.5423C147.813 79.3994 147.311 78.6641 147.454 77.9025C147.598 77.1407 148.332 76.6385 149.093 76.7814C149.857 76.9241 150.357 77.6595 150.216 78.4209C150.099 79.0451 149.584 79.4949 148.983 79.5582C148.849 79.5722 148.714 79.5674 148.575 79.5405L148.575 79.5423ZM79.7978 81.08C79.5963 80.3304 80.0407 79.5595 80.7905 79.3598C81.5401 79.1583 82.3109 79.6026 82.5107 80.3524C82.7105 81.1022 82.2661 81.873 81.5163 82.0728C81.4424 82.0927 81.3713 82.1071 81.2995 82.1146C80.6243 82.1856 79.9777 81.7558 79.7978 81.08ZM149.424 73.3696C148.648 73.3648 148.023 72.7306 148.03 71.9539C148.034 71.1775 148.667 70.5545 149.444 70.5593C150.22 70.5641 150.845 71.1983 150.838 71.975C150.835 72.6977 150.284 73.2897 149.583 73.3634C149.531 73.3687 149.478 73.3709 149.425 73.3713L149.424 73.3696ZM80.2037 75.9806C79.4312 76.0462 78.7521 75.4712 78.6879 74.6968C78.6223 73.9243 79.1973 73.2451 79.9717 73.181C80.7444 73.1171 81.4234 73.6904 81.4875 74.4648C81.5505 75.2289 80.9936 75.8993 80.2364 75.9789C80.2261 75.9799 80.2142 75.9812 80.2056 75.9821L80.2037 75.9806ZM147.537 65.9984C147.405 65.2346 147.917 64.5067 148.681 64.3746C149.445 64.2408 150.173 64.7536 150.305 65.5174C150.437 66.2812 149.924 67.0091 149.16 67.1412C149.13 67.1479 149.097 67.1513 149.067 67.1545C148.337 67.2312 147.664 66.73 147.537 65.9984ZM79.9934 69.7534C79.2217 69.679 78.6554 68.9937 78.7296 68.2203C78.8041 67.4486 79.4894 66.8823 80.2628 66.9565C81.0345 67.0309 81.6008 67.7163 81.5283 68.4895C81.4629 69.1669 80.928 69.6846 80.2785 69.7528C80.1862 69.7625 80.0912 69.7639 79.9953 69.755L79.9934 69.7534ZM145.995 60.2258C145.728 59.4969 146.101 58.6903 146.832 58.4234C147.561 58.1567 148.368 58.5316 148.634 59.2605C148.901 59.9895 148.526 60.7962 147.797 61.0629C147.686 61.1023 147.573 61.1297 147.46 61.1416C146.834 61.2073 146.221 60.8449 145.995 60.2275L145.995 60.2258ZM80.8921 63.5877C80.1459 63.3776 79.7116 62.6006 79.9234 61.8525C80.1335 61.1063 80.9105 60.672 81.6586 60.8837C82.4049 61.0939 82.8391 61.8709 82.6274 62.619C82.4661 63.189 81.9779 63.5756 81.4223 63.634C81.2497 63.6521 81.0719 63.638 80.8938 63.5876L80.8921 63.5877ZM143.446 54.8216C143.055 54.1525 143.277 53.2927 143.948 52.899C144.617 52.5055 145.477 52.7297 145.87 53.3986C146.264 54.0676 146.04 54.9276 145.371 55.3211C145.192 55.4263 144.999 55.488 144.806 55.5083C144.275 55.5641 143.735 55.3132 143.446 54.8216ZM82.8829 57.684C82.1868 57.3424 81.8995 56.4999 82.2413 55.8055C82.5846 55.1092 83.4253 54.8204 84.1216 55.1637C84.8177 55.5053 85.1065 56.346 84.7632 57.0422C84.5426 57.4923 84.1123 57.7726 83.6474 57.8214C83.3944 57.848 83.1289 57.8051 82.8829 57.684ZM139.969 49.9662C139.461 49.3784 139.529 48.4916 140.115 47.9842C140.703 47.4765 141.589 47.544 142.095 48.1303C142.603 48.7181 142.537 49.6047 141.949 50.1124C141.724 50.3054 141.456 50.4148 141.18 50.4438C140.738 50.4903 140.281 50.3257 139.969 49.9645L139.969 49.9662ZM85.903 52.2338C85.2792 51.774 85.1468 50.8927 85.6066 50.2689C86.0666 49.6467 86.9478 49.5127 87.5716 49.9725C88.1956 50.434 88.3278 51.3136 87.868 51.9374C87.6227 52.2673 87.2628 52.4607 86.8833 52.5006C86.5466 52.536 86.1971 52.45 85.903 52.2338ZM135.674 45.805C135.674 45.805 135.665 45.7973 135.659 45.7945C135.659 45.7945 135.65 45.7868 135.648 45.7836C135.043 45.2958 134.949 44.4122 135.44 43.8093C135.928 43.205 136.811 43.1104 137.414 43.5984C137.414 43.5984 137.423 43.606 137.429 43.6106C137.429 43.6106 137.439 43.6183 137.444 43.6229C138.047 44.1108 138.14 44.9945 137.652 45.5971C137.407 45.8994 137.062 46.0738 136.705 46.1114C136.348 46.1489 135.975 46.0499 135.674 45.805ZM89.8438 47.404C89.3112 46.8413 89.3352 45.9522 89.8997 45.4193C90.4641 44.8865 91.3532 44.9105 91.886 45.475C92.4189 46.0394 92.3948 46.9285 91.8304 47.4614C91.5979 47.6828 91.3102 47.8064 91.0128 47.8376C90.594 47.8816 90.1569 47.7357 89.8455 47.4038L89.8438 47.404ZM130.685 42.4547C130.005 42.082 129.756 41.2268 130.129 40.5482C130.501 39.8679 131.356 39.6173 132.035 39.9918C132.716 40.3644 132.964 41.218 132.592 41.8983C132.361 42.3183 131.949 42.5725 131.506 42.619C131.231 42.6479 130.945 42.5967 130.685 42.4547ZM94.5782 43.3497C94.1557 42.7011 94.3388 41.8281 94.9891 41.4055C95.6394 40.9829 96.5108 41.1678 96.9333 41.8164C97.3559 42.4667 97.171 43.3382 96.5224 43.7606C96.3299 43.8863 96.1181 43.9587 95.9044 43.9811C95.3967 44.0345 94.8769 43.8074 94.5799 43.3496L94.5782 43.3497ZM125.21 40.0697C124.474 39.8256 124.074 39.0295 124.32 38.2916C124.564 37.5557 125.358 37.1576 126.096 37.4015C126.832 37.6456 127.23 38.442 126.986 39.1779C126.808 39.7186 126.332 40.0762 125.799 40.1322C125.606 40.1525 125.407 40.132 125.21 40.068L125.21 40.0697ZM99.964 40.2155C99.6641 39.5005 100.001 38.677 100.718 38.377C101.433 38.0771 102.256 38.414 102.556 39.1308C102.856 39.8476 102.519 40.6693 101.803 40.9694C101.674 41.0244 101.54 41.0574 101.407 41.0714C100.807 41.1345 100.209 40.8016 99.964 40.2155ZM119.395 38.7073C118.625 38.5981 118.09 37.8887 118.2 37.1185C118.307 36.3503 119.018 35.8158 119.787 35.9234C120.555 36.0328 121.089 36.7439 120.982 37.5122C120.89 38.1631 120.365 38.6468 119.739 38.7126C119.626 38.7244 119.51 38.7228 119.393 38.7058L119.395 38.7073ZM105.825 38.096C105.657 37.3377 106.136 36.5891 106.893 36.4214C107.651 36.2536 108.401 36.7329 108.567 37.4897C108.735 38.2481 108.256 38.9984 107.499 39.166C107.447 39.1767 107.394 39.1857 107.341 39.1913C106.639 39.2651 105.98 38.8021 105.825 38.096ZM113.428 38.4029C112.654 38.4325 111.999 37.8273 111.969 37.0527C111.94 36.2781 112.545 35.6251 113.32 35.5956C114.094 35.566 114.747 36.1697 114.777 36.9443C114.806 37.6877 114.251 38.3199 113.521 38.3966C113.49 38.3999 113.459 38.4031 113.426 38.4031L113.428 38.4029Z" fill="url(#paint1_linear_8_29526)"/>
<path d="M118.802 111.057C140.515 108.775 156.267 89.3234 153.985 67.6105C151.703 45.8976 132.251 30.1458 110.538 32.4279C88.8249 34.71 73.0732 54.1618 75.3553 75.8748C77.6374 97.5877 97.0892 113.339 118.802 111.057Z" stroke="url(#paint2_linear_8_29526)" stroke-width="2" stroke-linecap="round" stroke-linejoin="round"/>
<path d="M113.606 60.913C117.324 60.5223 120.239 59.2688 120.118 58.1133C119.996 56.9578 116.884 56.3378 113.166 56.7285C109.449 57.1193 106.533 58.3728 106.655 59.5283C106.776 60.6838 109.888 61.3037 113.606 60.913Z" fill="url(#paint3_linear_8_29526)"/>
<path d="M110.522 79.1605C110.496 78.9113 110.273 78.7305 110.025 78.7566C109.776 78.7828 109.595 79.006 109.622 79.2552L109.916 82.0602C109.943 82.3095 110.166 82.4903 110.414 82.4642C110.663 82.438 110.843 82.2148 110.817 81.9656L110.522 79.1605Z" fill="url(#paint4_linear_8_29526)"/>
<path d="M124.577 57.2179L126.198 57.0476C128.11 56.8465 130.532 58.6624 131.271 60.3631C131.727 61.4126 132.055 64.1432 132.051 65.3188C132.043 67.3814 129.503 68.5712 127.784 67.4731C127.377 67.2134 126.655 66.3647 126.605 65.8912L126.268 62.6862C126.092 62.7358 125.577 62.6656 125.532 62.8777C125.625 63.77 125.685 64.671 125.801 65.5609C125.868 66.081 126.081 66.1519 125.871 66.7478C125.322 68.3143 123.338 69.0222 121.903 68.1932C120.107 67.1549 120.635 65.1085 120.246 63.3848L119.511 63.3964L119.939 67.1173C119.232 69.7026 115.631 69.9187 114.681 67.3744C114.645 67.2779 114.511 66.8755 114.504 66.814L114.204 63.9525L113.515 64.0249L113.852 67.2299C113.884 67.5342 113.998 67.5049 113.869 67.9384C113.057 70.6852 108.794 70.1638 108.522 67.5809L108.207 64.5828L107.518 64.6552L107.863 67.9303C107.872 68.0192 107.978 68.0547 107.94 68.3075C107.656 70.2056 105.132 71.0343 103.61 69.9119C103.238 69.6382 102.588 68.7992 102.541 68.3514L102.211 65.2147L101.522 65.2871L101.874 68.6306C101.876 68.6511 101.946 68.7077 101.952 68.8125C101.961 69.0206 101.696 69.5826 101.576 69.7749C100.261 71.8849 97.0004 71.2806 96.5286 68.8467C95.9584 65.9048 95.7853 62.7448 98.4059 60.7774C98.8673 60.4317 100.006 59.8022 100.556 59.7443L102.418 59.5487L102.509 59.4353L102.248 56.9534C102.217 56.6508 102.953 55.7663 103.341 55.7567L122.855 53.7057C123.498 53.6588 124.278 54.3597 124.344 54.9802L124.579 57.2211L124.577 57.2179ZM103.736 56.7054C103.339 56.8266 103.27 57.088 103.274 57.4661C103.293 59.0332 103.734 60.7756 103.792 62.363C103.851 62.6281 103.95 62.8475 104.245 62.8926L123.33 60.9056C123.624 60.8799 123.802 60.7298 123.839 60.4357L123.322 55.2224C123.279 54.9486 123.053 54.7529 122.785 54.7189L103.735 56.7073L103.736 56.7054Z" fill="url(#paint5_linear_8_29526)"/>
<path d="M133.547 86.8697L132.721 79.0118C132.82 78.9824 132.893 79.0129 132.984 79.0396C133.97 79.3317 134.619 81.5758 134.793 82.4925L134.866 82.5332C137.186 81.8002 139.626 84.0169 138.477 86.3532L133.549 86.8712L133.547 86.8697Z" fill="url(#paint6_linear_8_29526)"/>
<path d="M99.4955 90.4487L98.6696 82.5909C98.5668 82.5827 98.5023 82.6275 98.4189 82.6726C97.5148 83.1634 97.3467 85.4934 97.3669 86.4262L97.3036 86.4813C94.8819 86.2467 92.9562 88.9222 94.5659 90.9686L99.4939 90.4506L99.4955 90.4487Z" fill="url(#paint7_linear_8_29526)"/>
<path d="M130.884 68.8201L130.826 68.268C129.703 68.7956 128.466 68.7476 127.426 68.0654L126.428 67.1956C125.313 69.6252 122.087 69.9798 120.498 67.8189L119.736 68.8408C118.19 70.4291 115.682 70.1397 114.426 68.3862C113.418 70.8961 109.943 71.2614 108.43 69.0164C107.355 71.5074 104.075 71.8867 102.439 69.717L101.582 70.8509C100.671 71.7036 99.4936 71.9327 98.2907 71.6859L98.3488 72.238C100.596 71.8152 100.876 74.6615 98.621 74.8276L98.8414 76.925C101.07 76.5075 101.389 79.4552 99.1094 79.4753L100.261 90.4356L132.797 87.0159L131.645 76.0557L131.377 73.5054L131.152 71.367L130.884 68.8167L130.884 68.8201ZM112.086 88.7227L103.052 89.6722C102.997 89.678 102.906 89.6133 102.853 89.4943C102.824 89.43 102.797 89.3032 102.772 89.216L101.137 73.5469L101.194 73.2472L110.512 72.2679L110.632 72.5283L112.289 88.157C112.325 88.5801 112.195 88.7234 112.084 88.7229L112.086 88.7227ZM129.347 82.5378L114.361 84.1129C114.27 84.1224 114.126 84.0823 114.052 84.0002C114.011 83.9544 113.977 83.8629 113.946 83.8005L112.753 72.2518L112.876 72.0228L128.332 70.3984L128.507 70.5822L129.741 82.0972C129.758 82.4099 129.531 82.5289 129.349 82.5394L129.347 82.5378Z" fill="url(#paint8_linear_8_29526)"/>
<path d="M98.7115 72.5974L96.9492 72.7826C96.4649 72.8335 96.1135 73.2674 96.1644 73.7516C96.2153 74.2359 96.6492 74.5873 97.1335 74.5364L98.8958 74.3511C99.3801 74.3002 99.7314 73.8664 99.6805 73.3821C99.6296 72.8978 99.1958 72.5465 98.7115 72.5974Z" fill="url(#paint9_linear_8_29526)"/>
<path d="M99.2066 77.3083L97.4443 77.4935C96.96 77.5444 96.6086 77.9783 96.6595 78.4626C96.7104 78.9469 97.1443 79.2982 97.6286 79.2473L99.3909 79.0621C99.8752 79.0112 100.227 78.5773 100.176 78.093C100.125 77.6087 99.6909 77.2574 99.2066 77.3083Z" fill="url(#paint10_linear_8_29526)"/>
<path d="M96.9458 72.7828L92.8109 73.2174C92.4333 73.2571 92.1594 73.5954 92.1991 73.973L92.9141 80.7762C92.9538 81.1538 93.2921 81.4277 93.6697 81.3881L97.8046 80.9535C98.1822 80.9138 98.4561 80.5755 98.4164 80.1979L97.7014 73.3947C97.6617 73.0171 97.3234 72.7432 96.9458 72.7828Z" fill="url(#paint11_linear_8_29526)"/>
</g>
<g filter="url(#filter1_d_8_29526)">
<path d="M94.2692 98.7326C118.437 96.1925 135.969 74.5418 133.429 50.3744C130.889 26.207 109.238 8.67462 85.0707 11.2147C60.9033 13.7548 43.3709 35.4055 45.911 59.5729C48.4511 83.7403 70.1018 101.273 94.2692 98.7326Z" fill="url(#paint12_radial_8_29526)"/>
<path d="M92.7217 89.5664C92.6236 88.7973 93.1682 88.092 93.9373 87.9939C94.7064 87.8957 95.4117 88.4403 95.5098 89.2094C95.608 89.9785 95.0651 90.6837 94.2958 90.7801L94.2633 90.7835C93.5061 90.8631 92.8203 90.3234 92.7234 89.5662L92.7217 89.5664ZM87.8219 91.0267C87.0468 90.9855 86.4521 90.3256 86.4916 89.5507C86.5311 88.7757 87.1925 88.1791 87.9676 88.2203C88.7426 88.2599 89.3373 88.9198 89.2978 89.6947C89.2608 90.3951 88.7194 90.9497 88.0442 91.0207C87.9724 91.0282 87.8999 91.0289 87.8236 91.0266L87.8219 91.0267ZM98.8577 88.4722C98.6244 87.7328 99.0338 86.9415 99.7749 86.708C100.514 86.4748 101.306 86.8842 101.539 87.6252C101.772 88.3646 101.363 89.1542 100.622 89.3893C100.53 89.418 100.437 89.4365 100.344 89.4462C99.6948 89.5144 99.0657 89.1191 98.8594 88.472L98.8577 88.4722ZM81.408 90.1178C80.6531 89.9397 80.1847 89.1835 80.3612 88.4288C80.5392 87.6721 81.2953 87.2038 82.052 87.3818C82.8069 87.5599 83.2752 88.3161 83.0971 89.071C82.9578 89.6698 82.4538 90.0874 81.8761 90.1481C81.724 90.1641 81.5657 90.1548 81.4082 90.1195L81.408 90.1178ZM104.701 86.3043C104.338 85.6166 104.6 84.7682 105.288 84.4039C105.974 84.0414 106.824 84.3029 107.186 84.9906C107.549 85.6767 107.287 86.5268 106.6 86.8894C106.438 86.9756 106.263 87.0267 106.092 87.0447C105.538 87.1029 104.979 86.8264 104.703 86.3042L104.701 86.3043ZM75.26 88.0714C74.55 87.7624 74.2245 86.9342 74.5351 86.2224C74.8458 85.5123 75.6724 85.1886 76.3841 85.4975C77.0942 85.8083 77.4198 86.6364 77.109 87.3465C76.8985 87.8266 76.4535 88.1309 75.968 88.1819C75.7339 88.2066 75.49 88.1717 75.26 88.0714ZM110.061 83.1227C109.581 82.513 109.686 81.6292 110.294 81.1488C110.904 80.6682 111.788 80.774 112.268 81.3837C112.747 81.9936 112.641 82.8757 112.033 83.3561C111.818 83.5257 111.567 83.6229 111.312 83.6496C110.848 83.6985 110.37 83.5154 110.061 83.1227ZM69.5821 84.9577C68.9386 84.5242 68.7673 83.6504 69.1991 83.0071C69.6308 82.362 70.5047 82.1924 71.1479 82.6225C71.7931 83.0559 71.9627 83.9298 71.5326 84.573C71.2904 84.932 70.9118 85.1446 70.5118 85.1867C70.1956 85.2199 69.8663 85.1456 69.582 84.956L69.5821 84.9577ZM114.76 79.0289C114.181 78.5161 114.125 77.6267 114.64 77.0472C115.154 76.466 116.042 76.4125 116.624 76.9269C117.204 77.4396 117.258 78.3292 116.744 78.9086C116.501 79.183 116.175 79.3382 115.839 79.3736C115.461 79.4133 115.069 79.3007 114.76 79.0289ZM64.5468 80.8864C63.9889 80.3471 63.9749 79.4568 64.5142 78.899C65.0535 78.3411 65.9438 78.327 66.5017 78.8664C67.0595 79.4057 67.0736 80.296 66.5343 80.8538C66.2957 81.1001 65.9874 81.2414 65.6712 81.2746C65.2729 81.3165 64.8584 81.1872 64.5468 80.8864ZM118.66 74.1689C117.997 73.7651 117.787 72.9006 118.192 72.2375C118.595 71.5748 119.461 71.3645 120.122 71.7686C120.785 72.1707 120.995 73.0369 120.591 73.6981C120.352 74.0879 119.956 74.3213 119.536 74.3654C119.24 74.3965 118.933 74.3355 118.66 74.1689ZM60.3119 75.9793C59.8603 75.3493 60.0048 74.4717 60.6348 74.0201C61.2665 73.5683 62.1441 73.7128 62.5957 74.3428C63.0473 74.9728 62.903 75.8521 62.2728 76.302C62.0671 76.4498 61.8356 76.5329 61.6014 76.5575C61.116 76.6085 60.6176 76.4051 60.3119 75.9793ZM121.632 68.6943C120.908 68.4161 120.546 67.6022 120.825 66.8782C121.103 66.1542 121.917 65.7921 122.639 66.0705C123.363 66.3487 123.725 67.1609 123.447 67.8866C123.252 68.3962 122.79 68.7264 122.281 68.78C122.069 68.8022 121.845 68.7774 121.631 68.6945L121.632 68.6943ZM57.0288 70.3931C56.6975 69.6917 56.9967 68.8549 57.6981 68.5237C58.3993 68.1907 59.238 68.4914 59.5692 69.1928C59.9005 69.8942 59.6013 70.731 58.8984 71.0642C58.7518 71.1331 58.5988 71.1734 58.4449 71.1896C57.8672 71.2503 57.2891 70.9464 57.0286 70.3914L57.0288 70.3931ZM123.575 62.7732C122.813 62.6303 122.311 61.8951 122.454 61.1334C122.598 60.3717 123.332 59.8694 124.093 60.0123C124.857 60.155 125.357 60.8905 125.216 61.6519C125.099 62.276 124.584 62.7259 123.983 62.7891C123.849 62.8031 123.714 62.7983 123.575 62.7715L123.575 62.7732ZM54.7978 64.3109C54.5963 63.5613 55.0407 62.7905 55.7905 62.5907C56.5401 62.3892 57.3109 62.8336 57.5107 63.5834C57.7105 64.3332 57.2661 65.104 56.5163 65.3038C56.4424 65.3236 56.3713 65.338 56.2995 65.3456C55.6243 65.4165 54.9777 64.9868 54.7978 64.3109ZM124.424 56.6006C123.648 56.5958 123.023 55.9615 123.03 55.1849C123.034 54.4084 123.667 53.7854 124.444 53.7902C125.22 53.795 125.845 54.4293 125.838 55.2059C125.835 55.9287 125.284 56.5207 124.583 56.5943C124.531 56.5997 124.478 56.6019 124.425 56.6023L124.424 56.6006ZM55.2037 59.2115C54.4312 59.2772 53.7521 58.7022 53.6879 57.9278C53.6223 57.1552 54.1973 56.4761 54.9717 56.412C55.7444 56.3481 56.4234 56.9213 56.4875 57.6957C56.5505 58.4599 55.9936 59.1302 55.2364 59.2098C55.2261 59.2109 55.2142 59.2121 55.2056 59.213L55.2037 59.2115ZM122.537 49.2294C122.405 48.4656 122.917 47.7377 123.681 47.6056C124.445 47.4717 125.173 47.9845 125.305 48.7484C125.437 49.5122 124.924 50.2401 124.16 50.3722C124.13 50.3788 124.097 50.3823 124.067 50.3855C123.337 50.4622 122.664 49.9609 122.537 49.2294ZM54.9934 52.9844C54.2217 52.91 53.6554 52.2246 53.7296 51.4512C53.8041 50.6795 54.4894 50.1132 55.2628 50.1875C56.0345 50.2619 56.6008 50.9472 56.5283 51.7205C56.4629 52.3979 55.928 52.9155 55.2785 52.9838C55.1862 52.9935 55.0912 52.9948 54.9953 52.9859L54.9934 52.9844ZM120.995 43.4567C120.728 42.7278 121.101 41.9213 121.832 41.6544C122.561 41.3876 123.368 41.7626 123.634 42.4915C123.901 43.2204 123.526 44.0271 122.797 44.2939C122.686 44.3333 122.573 44.3607 122.46 44.3725C121.834 44.4383 121.221 44.0759 120.995 43.4585L120.995 43.4567ZM55.8921 46.8187C55.1459 46.6085 54.7116 45.8315 54.9234 45.0834C55.1335 44.3372 55.9105 43.903 56.6586 44.1147C57.4049 44.3249 57.8391 45.1019 57.6274 45.85C57.4661 46.42 56.9779 46.8065 56.4223 46.8649C56.2497 46.8831 56.0719 46.8689 55.8938 46.8185L55.8921 46.8187ZM118.446 38.0526C118.055 37.3835 118.277 36.5236 118.948 36.13C119.617 35.7365 120.477 35.9606 120.87 36.6296C121.264 37.2985 121.04 38.1585 120.371 38.552C120.192 38.6572 119.999 38.7189 119.806 38.7392C119.275 38.7951 118.735 38.5442 118.446 38.0526ZM57.8829 40.915C57.1868 40.5734 56.8995 39.7308 57.2413 39.0364C57.5846 38.3402 58.4253 38.0513 59.1216 38.3947C59.8177 38.7363 60.1065 39.5769 59.7632 40.2732C59.5426 40.7233 59.1123 41.0035 58.6474 41.0524C58.3944 41.079 58.1289 41.036 57.8829 40.915ZM114.969 33.1972C114.461 32.6094 114.529 31.7226 115.115 31.2151C115.703 30.7075 116.589 30.775 117.095 31.3613C117.603 31.9491 117.537 32.8356 116.949 33.3433C116.724 33.5363 116.456 33.6458 116.18 33.6747C115.738 33.7212 115.281 33.5566 114.969 33.1955L114.969 33.1972ZM60.903 35.4647C60.2792 35.0049 60.1468 34.1236 60.6066 33.4998C61.0666 32.8777 61.9478 32.7436 62.5716 33.2034C63.1956 33.6649 63.3278 34.5445 62.868 35.1684C62.6227 35.4983 62.2628 35.6917 61.8833 35.7316C61.5466 35.7669 61.1971 35.681 60.903 35.4647ZM110.674 29.036C110.674 29.036 110.665 29.0283 110.659 29.0254C110.659 29.0254 110.65 29.0178 110.648 29.0145C110.043 28.5268 109.949 27.6432 110.44 27.0403C110.928 26.436 111.811 26.3414 112.414 26.8293C112.414 26.8293 112.423 26.837 112.429 26.8416C112.429 26.8416 112.439 26.8492 112.444 26.8538C113.047 27.3418 113.14 28.2255 112.652 28.8281C112.407 29.1303 112.062 29.3048 111.705 29.3424C111.348 29.3799 110.975 29.2809 110.674 29.036ZM64.8438 30.635C64.3112 30.0722 64.3352 29.1831 64.8997 28.6503C65.4641 28.1174 66.3532 28.1415 66.886 28.7059C67.4189 29.2703 67.3948 30.1595 66.8304 30.6923C66.5979 30.9138 66.3102 31.0373 66.0128 31.0686C65.594 31.1126 65.1569 30.9667 64.8455 30.6348L64.8438 30.635ZM105.685 25.6856C105.005 25.313 104.756 24.4578 105.129 23.7791C105.501 23.0988 106.356 22.8482 107.035 23.2228C107.716 23.5954 107.964 24.4489 107.592 25.1293C107.361 25.5493 106.949 25.8034 106.506 25.85C106.231 25.8789 105.945 25.8277 105.685 25.6856ZM69.5782 26.5807C69.1557 25.9321 69.3388 25.0591 69.9891 24.6365C70.6394 24.2138 71.5108 24.3987 71.9333 25.0474C72.3559 25.6977 72.171 26.5691 71.5224 26.9916C71.3299 27.1172 71.1181 27.1896 70.9044 27.2121C70.3967 27.2654 69.8769 27.0384 69.5799 26.5805L69.5782 26.5807ZM100.21 23.3007C99.474 23.0566 99.0741 22.2604 99.3197 21.5226C99.5638 20.7866 100.358 20.3886 101.096 20.6325C101.832 20.8766 102.23 21.6729 101.986 22.4089C101.808 22.9495 101.332 23.3071 100.799 23.3632C100.606 23.3835 100.407 23.363 100.21 23.299L100.21 23.3007ZM74.964 23.4465C74.6641 22.7314 75.001 21.9079 75.7178 21.6079C76.4329 21.3081 77.2563 21.645 77.5564 22.3618C77.8564 23.0785 77.5193 23.9003 76.8025 24.2003C76.6735 24.2553 76.5404 24.2883 76.4071 24.3024C75.8071 24.3654 75.2088 24.0325 74.964 23.4465ZM94.3948 21.9382C93.6246 21.8291 93.0904 21.1196 93.1995 20.3495C93.3071 19.5812 94.0183 19.0468 94.7866 19.1544C95.555 19.2637 96.0895 19.9749 95.9818 20.7432C95.8895 21.394 95.3649 21.8778 94.7393 21.9435C94.6264 21.9554 94.5105 21.9537 94.3929 21.9367L94.3948 21.9382ZM80.8245 21.327C80.6567 20.5686 81.1362 19.82 81.8928 19.6524C82.6512 19.4845 83.4015 19.9639 83.5674 20.7207C83.7353 21.479 83.2559 22.2293 82.4993 22.397C82.4468 22.4077 82.3942 22.4167 82.3412 22.4222C81.6387 22.4961 80.98 22.033 80.8245 21.327ZM88.4281 21.6339C87.6535 21.6634 86.9989 21.0582 86.9693 20.2836C86.9397 19.509 87.5451 18.8561 88.3197 18.8265C89.0943 18.797 89.747 19.4006 89.7766 20.1752C89.8064 20.9187 89.2507 21.5509 88.5208 21.6276C88.49 21.6308 88.4592 21.634 88.4264 21.634L88.4281 21.6339Z" fill="url(#paint13_linear_8_29526)"/>
<path d="M93.8021 94.2883C115.515 92.0061 131.267 72.5543 128.985 50.8414C126.703 29.1285 107.251 13.3768 85.5378 15.6589C63.8249 17.941 48.0732 37.3928 50.3553 59.1057C52.6374 80.8186 72.0892 96.5704 93.8021 94.2883Z" stroke="url(#paint14_linear_8_29526)" stroke-width="2" stroke-linecap="round" stroke-linejoin="round"/>
<path d="M88.6061 44.1439C92.3237 43.7532 95.239 42.4997 95.1176 41.3442C94.9961 40.1887 91.8839 39.5688 88.1663 39.9595C84.4487 40.3502 81.5334 41.6037 81.6548 42.7592C81.7763 43.9147 84.8885 44.5347 88.6061 44.1439Z" fill="url(#paint15_linear_8_29526)"/>
<path d="M85.5225 62.3915C85.4963 62.1423 85.2734 61.9614 85.0246 61.9876C84.7759 62.0137 84.5955 62.2369 84.6216 62.4862L84.9165 65.2912C84.9427 65.5404 85.1656 65.7213 85.4143 65.6951C85.6631 65.669 85.8435 65.4457 85.8173 65.1965L85.5225 62.3915Z" fill="url(#paint16_linear_8_29526)"/>
<path d="M99.5772 40.4488L101.198 40.2785C103.11 40.0775 105.532 41.8933 106.271 43.594C106.727 44.6435 107.055 47.3741 107.051 48.5498C107.043 50.6124 104.503 51.8022 102.784 50.704C102.377 50.4444 101.655 49.5957 101.605 49.1222L101.268 45.9172C101.092 45.9668 100.577 45.8966 100.532 46.1087C100.625 47.001 100.685 47.9019 100.801 48.7919C100.868 49.312 101.081 49.3829 100.871 49.9788C100.322 51.5452 98.3379 52.2532 96.9027 51.4241C95.1068 50.3859 95.6349 48.3395 95.2463 46.6158L94.5113 46.6274L94.9387 50.3482C94.2323 52.9336 90.6309 53.1496 89.6808 50.6053C89.6448 50.5089 89.5109 50.1065 89.5044 50.0449L89.2037 47.1835L88.5148 47.2559L88.8517 50.4609C88.8837 50.7652 88.9981 50.7358 88.8691 51.1694C88.0569 53.9162 83.7939 53.3947 83.5225 50.8119L83.2073 47.8137L82.5185 47.8861L82.8627 51.1612C82.872 51.2501 82.9777 51.2857 82.9404 51.5385C82.656 53.4365 80.1317 54.2653 78.6104 53.1428C78.2378 52.8692 77.5879 52.0302 77.5408 51.5823L77.2112 48.4457L76.5223 48.5181L76.8737 51.8615C76.8759 51.8821 76.9458 51.9387 76.9516 52.0435C76.9614 52.2516 76.6955 52.8135 76.5758 53.0058C75.2611 55.1159 72.0004 54.5116 71.5286 52.0777C70.9584 49.1357 70.7853 45.9757 73.4059 44.0084C73.8673 43.6626 75.0057 43.0331 75.5561 42.9753L77.4175 42.7796L77.5093 42.6663L77.2484 40.1843C77.2166 39.8818 77.9532 38.9973 78.3411 38.9876L97.8548 36.9367C98.498 36.8898 99.2785 37.5907 99.3437 38.2111L99.5792 40.4521L99.5772 40.4488ZM78.7363 39.9364C78.3395 40.0576 78.2701 40.3189 78.2736 40.697C78.2931 42.2642 78.7338 44.0066 78.7917 45.5939C78.8507 45.859 78.9498 46.0785 79.2449 46.1235L98.3299 44.1366C98.6244 44.1108 98.8022 43.9608 98.8387 43.6666L98.3219 38.4533C98.2793 38.1796 98.053 37.9839 97.785 37.9498L78.7348 39.9383L78.7363 39.9364Z" fill="url(#paint17_linear_8_29526)"/>
<path d="M108.547 70.1006L107.721 62.2428C107.82 62.2134 107.893 62.2438 107.984 62.2706C108.97 62.5626 109.619 64.8068 109.793 65.7235L109.866 65.7641C112.186 65.0312 114.626 67.2478 113.477 69.5842L108.549 70.1021L108.547 70.1006Z" fill="url(#paint18_linear_8_29526)"/>
<path d="M74.4955 73.6797L73.6696 65.8219C73.5668 65.8137 73.5023 65.8585 73.4189 65.9035C72.5148 66.3943 72.3467 68.7244 72.3669 69.6572L72.3036 69.7122C69.8819 69.4777 67.9562 72.1532 69.5659 74.1995L74.4939 73.6816L74.4955 73.6797Z" fill="url(#paint19_linear_8_29526)"/>
<path d="M105.884 52.051L105.826 51.4989C104.703 52.0266 103.466 51.9786 102.426 51.2963L101.428 50.4266C100.313 52.8561 97.087 53.2107 95.498 51.0498L94.7362 52.0718C93.1904 53.66 90.6817 53.3707 89.4259 51.6172C88.4178 54.1271 84.9427 54.4923 83.4296 52.2474C82.3555 54.7383 79.0755 55.1176 77.4389 52.9479L76.5817 54.0819C75.6706 54.9346 74.4936 55.1637 73.2907 54.9168L73.3488 55.4689C75.596 55.0461 75.8761 57.8924 73.621 58.0586L73.8414 60.1559C76.0701 59.7385 76.3886 62.6862 74.1094 62.7063L75.2614 73.6665L107.797 70.2469L106.645 59.2867L106.377 56.7363L106.152 54.5979L105.884 52.0476L105.884 52.051ZM87.0856 71.9537L78.0518 72.9032C77.9971 72.9089 77.9056 72.8442 77.8533 72.7253C77.8241 72.6609 77.7969 72.5342 77.7722 72.4469L76.1374 56.7779L76.1941 56.4782L85.5117 55.4988L85.6323 55.7592L87.2888 71.3879C87.3246 71.811 87.1945 71.9543 87.0839 71.9539L87.0856 71.9537ZM104.347 65.7688L89.361 67.3439C89.2704 67.3534 89.1262 67.3132 89.0519 67.2312C89.0108 67.1854 88.977 67.0939 88.9463 67.0314L87.7532 55.4827L87.876 55.2538L103.332 53.6293L103.507 53.8131L104.741 65.3281C104.758 65.6408 104.531 65.7598 104.349 65.7703L104.347 65.7688Z" fill="url(#paint20_linear_8_29526)"/>
<path d="M73.7115 55.8283L71.9492 56.0135C71.4649 56.0644 71.1135 56.4983 71.1644 56.9826C71.2153 57.4669 71.6492 57.8182 72.1335 57.7673L73.8958 57.5821C74.3801 57.5312 74.7314 57.0973 74.6805 56.613C74.6296 56.1287 74.1958 55.7774 73.7115 55.8283Z" fill="url(#paint21_linear_8_29526)"/>
<path d="M74.2066 60.5393L72.4443 60.7245C71.96 60.7754 71.6086 61.2092 71.6595 61.6935C71.7104 62.1778 72.1443 62.5292 72.6286 62.4783L74.3909 62.293C74.8752 62.2421 75.2266 61.8083 75.1757 61.324C75.1247 60.8397 74.6909 60.4884 74.2066 60.5393Z" fill="url(#paint22_linear_8_29526)"/>
<path d="M71.9458 56.0138L67.8109 56.4484C67.4333 56.4881 67.1594 56.8264 67.1991 57.204L67.9141 64.0071C67.9538 64.3848 68.2921 64.6587 68.6697 64.619L72.8046 64.1844C73.1822 64.1447 73.4561 63.8064 73.4164 63.4288L72.7014 56.6257C72.6617 56.2481 72.3234 55.9741 71.9458 56.0138Z" fill="url(#paint23_linear_8_29526)"/>
</g>
<g filter="url(#filter2_d_8_29526)">
<path d="M100.617 22.7981L101.318 26.2947L104.72 26.2863L101.39 26.9855L101.432 30.5513L100.732 27.0547L97.3297 27.0631L100.659 26.3639L100.617 22.7981Z" fill="white" fill-opacity="0.15"/>
<path d="M93.4534 27.9753L94.5749 33.5742L100.023 33.5608L94.6912 34.6804L94.7583 40.3902L93.6368 34.7912L88.1888 34.8046L93.5206 33.6851L93.4534 27.9753Z" fill="white"/>
<path d="M23.1784 39.7859L23.7486 42.6326L26.5185 42.6257L23.8077 43.195L23.8418 46.098L23.2716 43.2513L20.5016 43.2581L23.2125 42.6889L23.1784 39.7859Z" fill="white" fill-opacity="0.59"/>
<path d="M31.1967 34.5187L32.1066 38.9569L36.637 38.9242L32.1988 39.8341L32.2315 44.3645L31.3216 39.9263L26.7912 39.959L31.2294 39.0491L31.1967 34.5187Z" fill="white"/>
<path d="M30.9674 107.376L30.2802 103.998L26.8871 104.017L30.2101 103.33L30.1798 99.8832L30.867 103.261L34.2602 103.242L30.9371 103.929L30.9674 107.376Z" fill="white"/>
<path d="M37.3998 115.68L36.2995 110.27L30.8661 110.301L36.1872 109.201L36.1388 103.681L37.2391 109.091L42.6724 109.06L37.3514 110.16L37.3998 115.68Z" fill="white" fill-opacity="0.45"/>
<path d="M100.757 107.921L99.8566 103.495L95.4109 103.521L99.7647 102.621L99.7251 98.1043L100.625 102.53L105.071 102.505L100.717 103.405L100.757 107.921Z" fill="white"/>
<path d="M108.153 101.174L107.594 98.4238L104.831 98.4394L107.537 97.8802L107.512 95.0737L108.071 97.824L110.834 97.8084L108.129 98.3675L108.153 101.174Z" fill="white" fill-opacity="0.15"/>
<path d="M68.8925 115.502C93.0599 112.962 110.592 91.3109 108.052 67.1435C105.512 42.9761 83.8614 25.4437 59.694 27.9838C35.5266 30.5239 17.9942 52.1746 20.5343 76.342C23.0744 100.509 44.7251 118.042 68.8925 115.502Z" fill="white"/>
<mask id="path-34-inside-1_8_29526" fill="white">
<path d="M67.2063 106.585C67.1082 105.816 67.6528 105.111 68.4219 105.012C69.191 104.914 69.8963 105.459 69.9945 106.228C70.0926 106.997 69.5497 107.702 68.7804 107.799L68.7479 107.802C67.9907 107.882 67.3049 107.342 67.2081 106.585L67.2063 106.585ZM62.3065 108.045C61.5314 108.004 60.9367 107.344 60.9762 106.569C61.0157 105.794 61.6771 105.198 62.4523 105.239C63.2272 105.278 63.8219 105.938 63.7824 106.713C63.7454 107.414 63.204 107.968 62.5288 108.039C62.457 108.047 62.3845 108.047 62.3082 108.045L62.3065 108.045ZM73.3423 105.491C73.109 104.751 73.5184 103.96 74.2595 103.727C74.9988 103.493 75.7902 103.903 76.0236 104.644C76.2569 105.383 75.8473 106.173 75.1064 106.408C75.0144 106.437 74.9213 106.455 74.829 106.465C74.1794 106.533 73.5503 106.138 73.344 105.491L73.3423 105.491ZM55.8926 107.136C55.1377 106.958 54.6694 106.202 54.8458 105.447C55.0238 104.691 55.7799 104.222 56.5366 104.4C57.2915 104.578 57.7598 105.335 57.5817 106.09C57.4424 106.688 56.9385 107.106 56.3607 107.167C56.2086 107.183 56.0503 107.173 55.8928 107.138L55.8926 107.136ZM79.1857 103.323C78.8231 102.635 79.0847 101.787 79.7723 101.422C80.4583 101.06 81.3084 101.321 81.671 102.009C82.0335 102.695 81.772 103.545 81.0843 103.908C80.9222 103.994 80.7479 104.045 80.5769 104.063C80.0231 104.121 79.4635 103.845 79.1874 103.323L79.1857 103.323ZM49.7446 105.09C49.0346 104.781 48.7091 103.953 49.0197 103.241C49.3304 102.531 50.1571 102.207 50.8687 102.516C51.5788 102.827 51.9044 103.655 51.5936 104.365C51.3831 104.845 50.9381 105.149 50.4527 105.201C50.2185 105.225 49.9746 105.19 49.7446 105.09ZM84.5458 100.141C84.0652 99.5316 84.171 98.6477 84.779 98.1673C85.3886 97.6868 86.2725 97.7926 86.7531 98.4023C87.232 99.0121 87.1259 99.8943 86.518 100.375C86.3025 100.544 86.0518 100.641 85.7971 100.668C85.3321 100.717 84.8549 100.534 84.5458 100.141ZM44.0668 101.976C43.4232 101.543 43.2519 100.669 43.6837 100.026C44.1154 99.3806 44.9893 99.211 45.6325 99.6411C46.2777 100.074 46.4473 100.948 46.0172 101.592C45.775 101.951 45.3964 102.163 44.9964 102.205C44.6802 102.238 44.3509 102.164 44.0666 101.975L44.0668 101.976ZM89.2448 96.0475C88.6655 95.5346 88.6101 94.6452 89.1247 94.0658C89.6391 93.4846 90.5269 93.431 91.1081 93.9455C91.6891 94.4582 91.7429 95.3477 91.2283 95.9272C90.9858 96.2015 90.6599 96.3568 90.3232 96.3922C89.9454 96.4319 89.5534 96.3193 89.2448 96.0475ZM39.0314 97.905C38.4735 97.3657 38.4595 96.4754 38.9988 95.9175C39.5381 95.3597 40.4284 95.3456 40.9863 95.8849C41.5441 96.4242 41.5582 97.3145 41.0189 97.8724C40.7804 98.1187 40.472 98.26 40.1558 98.2932C39.7575 98.3351 39.343 98.2058 39.0314 97.905ZM93.1444 91.1875C92.4816 90.7836 92.2714 89.9191 92.677 89.2561C93.0792 88.5934 93.9454 88.3831 94.6065 88.7871C95.2692 89.1893 95.4795 90.0555 95.0755 90.7167C94.8365 91.1064 94.441 91.3398 94.0206 91.384C93.7248 91.4151 93.4177 91.3541 93.1444 91.1875ZM34.7965 92.9978C34.3449 92.3678 34.4894 91.4903 35.1194 91.0387C35.7511 90.5869 36.6287 90.7314 37.0803 91.3614C37.5319 91.9914 37.3876 92.8707 36.7574 93.3206C36.5517 93.4683 36.3202 93.5514 36.0861 93.576C35.6006 93.6271 35.1022 93.4237 34.7965 92.9978ZM96.1171 85.7129C95.3931 85.4347 95.031 84.6207 95.3092 83.8967C95.5874 83.1728 96.4013 82.8107 97.1236 83.0891C97.8476 83.3673 98.2095 84.1795 97.9315 84.9052C97.7362 85.4148 97.2749 85.745 96.7655 85.7985C96.5535 85.8208 96.3297 85.7959 96.1153 85.713L96.1171 85.7129ZM31.5134 87.4117C31.1822 86.7102 31.4813 85.8735 32.1827 85.5422C32.884 85.2093 33.7226 85.51 34.0539 86.2114C34.3851 86.9128 34.0859 87.7496 33.383 88.0827C33.2364 88.1517 33.0834 88.192 32.9295 88.2081C32.3518 88.2689 31.7737 87.965 31.5132 87.4099L31.5134 87.4117ZM98.0594 79.7918C97.2978 79.6489 96.7954 78.9136 96.9383 78.152C97.0829 77.3902 97.8164 76.888 98.578 77.0309C99.3413 77.1736 99.842 77.909 99.7009 78.6705C99.5833 79.2946 99.0689 79.7444 98.4672 79.8077C98.3339 79.8217 98.1986 79.8169 98.0592 79.7901L98.0594 79.7918ZM29.2824 81.3295C29.0809 80.5799 29.5253 79.8091 30.2751 79.6093C31.0247 79.4078 31.7955 79.8522 31.9953 80.6019C32.1951 81.3517 31.7507 82.1226 31.0009 82.3223C30.927 82.3422 30.8559 82.3566 30.7841 82.3641C30.1089 82.4351 29.4623 82.0053 29.2824 81.3295ZM98.909 73.6191C98.1325 73.6143 97.5076 72.9801 97.5142 72.2034C97.519 71.427 98.1517 70.804 98.9281 70.8088C99.7046 70.8136 100.33 71.4478 100.323 72.2245C100.319 72.9473 99.7682 73.5392 99.0673 73.6129C99.016 73.6183 98.9627 73.6204 98.9092 73.6209L98.909 73.6191ZM29.6883 76.2301C28.9158 76.2957 28.2367 75.7207 28.1726 74.9463C28.1069 74.1738 28.6819 73.4947 29.4563 73.4306C30.229 73.3666 30.908 73.9399 30.9721 74.7143C31.0351 75.4785 30.4782 76.1488 29.721 76.2284C29.7107 76.2295 29.6988 76.2307 29.6902 76.2316L29.6883 76.2301ZM97.0213 66.248C96.8892 65.4842 97.402 64.7562 98.1658 64.6241C98.9294 64.4903 99.6573 65.0031 99.7894 65.7669C99.9216 66.5307 99.4087 67.2586 98.6449 67.3908C98.6145 67.3974 98.5821 67.4008 98.5513 67.4041C97.8214 67.4808 97.1483 66.9795 97.0213 66.248ZM29.478 70.0029C28.7063 69.9285 28.14 69.2432 28.2142 68.4698C28.2887 67.6981 28.974 67.1318 29.7474 67.206C30.5191 67.2805 31.0854 67.9658 31.0129 68.739C30.9475 69.4164 30.4126 69.9341 29.7631 70.0024C29.6708 70.0121 29.5759 70.0134 29.4799 70.0045L29.478 70.0029ZM95.4796 60.4753C95.2129 59.7464 95.5861 58.9398 96.3167 58.6729C97.0456 58.4062 97.8524 58.7811 98.1191 59.51C98.3858 60.239 98.0109 61.0457 97.282 61.3124C97.1703 61.3518 97.0574 61.3792 96.9446 61.3911C96.319 61.4568 95.7054 61.0945 95.4798 60.477L95.4796 60.4753ZM30.3767 63.8373C29.6305 63.6271 29.1963 62.8501 29.408 62.102C29.6182 61.3558 30.3952 60.9215 31.1433 61.1333C31.8895 61.3434 32.3237 62.1204 32.112 62.8685C31.9507 63.4385 31.4625 63.8251 30.9069 63.8835C30.7343 63.9016 30.5565 63.8875 30.3784 63.8371L30.3767 63.8373ZM92.931 55.0712C92.5393 54.402 92.7617 53.5422 93.4324 53.1485C94.1013 52.755 94.9613 52.9792 95.3548 53.6481C95.7483 54.3171 95.5241 55.1771 94.8552 55.5706C94.6762 55.6758 94.4839 55.7375 94.2907 55.7578C93.7591 55.8137 93.2195 55.5628 92.931 55.0712ZM32.3675 57.9335C31.6715 57.5919 31.3842 56.7494 31.7259 56.055C32.0693 55.3587 32.9099 55.0699 33.6062 55.4132C34.3023 55.7548 34.5911 56.5955 34.2478 57.2918C34.0272 57.7418 33.597 58.0221 33.132 58.0709C32.879 58.0975 32.6136 58.0546 32.3675 57.9335ZM89.4534 50.2157C88.9457 49.6279 89.0132 48.7412 89.5993 48.2337C90.1871 47.726 91.0739 47.7935 91.5797 48.3798C92.0873 48.9676 92.0215 49.8542 91.4337 50.3619C91.2086 50.5549 90.9401 50.6643 90.6649 50.6933C90.2222 50.7398 89.7659 50.5752 89.4532 50.214L89.4534 50.2157ZM35.3877 52.4833C34.7638 52.0235 34.6315 51.1422 35.0913 50.5184C35.5513 49.8963 36.4324 49.7622 37.0562 50.222C37.6802 50.6835 37.8124 51.5631 37.3526 52.1869C37.1073 52.5169 36.7474 52.7102 36.3679 52.7501C36.0312 52.7855 35.6817 52.6995 35.3877 52.4833ZM85.1586 46.0545C85.1586 46.0545 85.1492 46.0469 85.1437 46.044C85.1437 46.044 85.1343 46.0363 85.1322 46.0331C84.5279 45.5453 84.4333 44.6618 84.9247 44.0588C85.4125 43.4545 86.296 43.3599 86.8986 43.8479C86.8986 43.8479 86.908 43.8555 86.9137 43.8601C86.9137 43.8601 86.9232 43.8678 86.9288 43.8724C87.5314 44.3603 87.6243 45.2441 87.1363 45.8466C86.8916 46.1489 86.547 46.3234 86.1897 46.3609C85.8325 46.3985 85.4592 46.2994 85.1586 46.0545ZM39.3285 47.6535C38.7958 47.0908 38.8198 46.2017 39.3843 45.6688C39.9487 45.136 40.8378 45.1601 41.3707 45.7245C41.9035 46.2889 41.8794 47.178 41.315 47.7109C41.0825 47.9323 40.7948 48.0559 40.4974 48.0871C40.0786 48.1312 39.6416 47.9853 39.3302 47.6533L39.3285 47.6535ZM80.1697 42.7042C79.4894 42.3316 79.2405 41.4763 79.6133 40.7977C79.9859 40.1174 80.841 39.8668 81.5198 40.2413C82.2001 40.614 82.4488 41.4675 82.0762 42.1478C81.8456 42.5678 81.4333 42.822 80.9906 42.8685C80.7154 42.8974 80.43 42.8462 80.1697 42.7042ZM44.0628 43.5992C43.6403 42.9506 43.8234 42.0777 44.4737 41.655C45.124 41.2324 45.9955 41.4173 46.4179 42.0659C46.8406 42.7162 46.6556 43.5877 46.007 44.0101C45.8146 44.1358 45.6027 44.2082 45.389 44.2306C44.8814 44.284 44.3615 44.0569 44.0645 43.5991L44.0628 43.5992ZM74.6946 40.3192C73.9587 40.0751 73.5587 39.279 73.8043 38.5411C74.0484 37.8052 74.8431 37.4071 75.5807 37.651C76.3167 37.8951 76.7149 38.6915 76.4708 39.4274C76.2926 39.9681 75.8169 40.3257 75.2836 40.3817C75.0904 40.4021 74.8913 40.3815 74.6944 40.3175L74.6946 40.3192ZM49.4486 40.465C49.1488 39.75 49.4856 38.9265 50.2024 38.6265C50.9175 38.3267 51.741 38.6635 52.041 39.3803C52.341 40.0971 52.0039 40.9189 51.2871 41.2189C51.1581 41.2739 51.0251 41.3069 50.8917 41.3209C50.2918 41.384 49.6934 41.0511 49.4486 40.465ZM68.8794 38.9568C68.1092 38.8476 67.575 38.1382 67.6841 37.368C67.7918 36.5998 68.5029 36.0653 69.2712 36.1729C70.0396 36.2823 70.5741 36.9934 70.4665 37.7617C70.3741 38.4126 69.8495 38.8963 69.2239 38.9621C69.1111 38.9739 68.9951 38.9723 68.8775 38.9553L68.8794 38.9568ZM55.3091 38.3455C55.1413 37.5872 55.6208 36.8386 56.3775 36.6709C57.1358 36.5031 57.8861 36.9824 58.052 37.7392C58.2199 38.4976 57.7405 39.2479 56.9839 39.4155C56.9315 39.4262 56.8788 39.4352 56.8258 39.4408C56.1233 39.5146 55.4646 39.0516 55.3091 38.3455ZM62.9127 38.6524C62.1381 38.682 61.4835 38.0768 61.4539 37.3022C61.4243 36.5276 62.0297 35.8747 62.8043 35.8451C63.5789 35.8155 64.2317 36.4192 64.2612 37.1938C64.291 37.9372 63.7353 38.5694 63.0054 38.6461C62.9746 38.6494 62.9438 38.6526 62.911 38.6526L62.9127 38.6524Z"/>
</mask>
<path d="M67.2063 106.585C67.1082 105.816 67.6528 105.111 68.4219 105.012C69.191 104.914 69.8963 105.459 69.9945 106.228C70.0926 106.997 69.5497 107.702 68.7804 107.799L68.7479 107.802C67.9907 107.882 67.3049 107.342 67.2081 106.585L67.2063 106.585ZM62.3065 108.045C61.5314 108.004 60.9367 107.344 60.9762 106.569C61.0157 105.794 61.6771 105.198 62.4523 105.239C63.2272 105.278 63.8219 105.938 63.7824 106.713C63.7454 107.414 63.204 107.968 62.5288 108.039C62.457 108.047 62.3845 108.047 62.3082 108.045L62.3065 108.045ZM73.3423 105.491C73.109 104.751 73.5184 103.96 74.2595 103.727C74.9988 103.493 75.7902 103.903 76.0236 104.644C76.2569 105.383 75.8473 106.173 75.1064 106.408C75.0144 106.437 74.9213 106.455 74.829 106.465C74.1794 106.533 73.5503 106.138 73.344 105.491L73.3423 105.491ZM55.8926 107.136C55.1377 106.958 54.6694 106.202 54.8458 105.447C55.0238 104.691 55.7799 104.222 56.5366 104.4C57.2915 104.578 57.7598 105.335 57.5817 106.09C57.4424 106.688 56.9385 107.106 56.3607 107.167C56.2086 107.183 56.0503 107.173 55.8928 107.138L55.8926 107.136ZM79.1857 103.323C78.8231 102.635 79.0847 101.787 79.7723 101.422C80.4583 101.06 81.3084 101.321 81.671 102.009C82.0335 102.695 81.772 103.545 81.0843 103.908C80.9222 103.994 80.7479 104.045 80.5769 104.063C80.0231 104.121 79.4635 103.845 79.1874 103.323L79.1857 103.323ZM49.7446 105.09C49.0346 104.781 48.7091 103.953 49.0197 103.241C49.3304 102.531 50.1571 102.207 50.8687 102.516C51.5788 102.827 51.9044 103.655 51.5936 104.365C51.3831 104.845 50.9381 105.149 50.4527 105.201C50.2185 105.225 49.9746 105.19 49.7446 105.09ZM84.5458 100.141C84.0652 99.5316 84.171 98.6477 84.779 98.1673C85.3886 97.6868 86.2725 97.7926 86.7531 98.4023C87.232 99.0121 87.1259 99.8943 86.518 100.375C86.3025 100.544 86.0518 100.641 85.7971 100.668C85.3321 100.717 84.8549 100.534 84.5458 100.141ZM44.0668 101.976C43.4232 101.543 43.2519 100.669 43.6837 100.026C44.1154 99.3806 44.9893 99.211 45.6325 99.6411C46.2777 100.074 46.4473 100.948 46.0172 101.592C45.775 101.951 45.3964 102.163 44.9964 102.205C44.6802 102.238 44.3509 102.164 44.0666 101.975L44.0668 101.976ZM89.2448 96.0475C88.6655 95.5346 88.6101 94.6452 89.1247 94.0658C89.6391 93.4846 90.5269 93.431 91.1081 93.9455C91.6891 94.4582 91.7429 95.3477 91.2283 95.9272C90.9858 96.2015 90.6599 96.3568 90.3232 96.3922C89.9454 96.4319 89.5534 96.3193 89.2448 96.0475ZM39.0314 97.905C38.4735 97.3657 38.4595 96.4754 38.9988 95.9175C39.5381 95.3597 40.4284 95.3456 40.9863 95.8849C41.5441 96.4242 41.5582 97.3145 41.0189 97.8724C40.7804 98.1187 40.472 98.26 40.1558 98.2932C39.7575 98.3351 39.343 98.2058 39.0314 97.905ZM93.1444 91.1875C92.4816 90.7836 92.2714 89.9191 92.677 89.2561C93.0792 88.5934 93.9454 88.3831 94.6065 88.7871C95.2692 89.1893 95.4795 90.0555 95.0755 90.7167C94.8365 91.1064 94.441 91.3398 94.0206 91.384C93.7248 91.4151 93.4177 91.3541 93.1444 91.1875ZM34.7965 92.9978C34.3449 92.3678 34.4894 91.4903 35.1194 91.0387C35.7511 90.5869 36.6287 90.7314 37.0803 91.3614C37.5319 91.9914 37.3876 92.8707 36.7574 93.3206C36.5517 93.4683 36.3202 93.5514 36.0861 93.576C35.6006 93.6271 35.1022 93.4237 34.7965 92.9978ZM96.1171 85.7129C95.3931 85.4347 95.031 84.6207 95.3092 83.8967C95.5874 83.1728 96.4013 82.8107 97.1236 83.0891C97.8476 83.3673 98.2095 84.1795 97.9315 84.9052C97.7362 85.4148 97.2749 85.745 96.7655 85.7985C96.5535 85.8208 96.3297 85.7959 96.1153 85.713L96.1171 85.7129ZM31.5134 87.4117C31.1822 86.7102 31.4813 85.8735 32.1827 85.5422C32.884 85.2093 33.7226 85.51 34.0539 86.2114C34.3851 86.9128 34.0859 87.7496 33.383 88.0827C33.2364 88.1517 33.0834 88.192 32.9295 88.2081C32.3518 88.2689 31.7737 87.965 31.5132 87.4099L31.5134 87.4117ZM98.0594 79.7918C97.2978 79.6489 96.7954 78.9136 96.9383 78.152C97.0829 77.3902 97.8164 76.888 98.578 77.0309C99.3413 77.1736 99.842 77.909 99.7009 78.6705C99.5833 79.2946 99.0689 79.7444 98.4672 79.8077C98.3339 79.8217 98.1986 79.8169 98.0592 79.7901L98.0594 79.7918ZM29.2824 81.3295C29.0809 80.5799 29.5253 79.8091 30.2751 79.6093C31.0247 79.4078 31.7955 79.8522 31.9953 80.6019C32.1951 81.3517 31.7507 82.1226 31.0009 82.3223C30.927 82.3422 30.8559 82.3566 30.7841 82.3641C30.1089 82.4351 29.4623 82.0053 29.2824 81.3295ZM98.909 73.6191C98.1325 73.6143 97.5076 72.9801 97.5142 72.2034C97.519 71.427 98.1517 70.804 98.9281 70.8088C99.7046 70.8136 100.33 71.4478 100.323 72.2245C100.319 72.9473 99.7682 73.5392 99.0673 73.6129C99.016 73.6183 98.9627 73.6204 98.9092 73.6209L98.909 73.6191ZM29.6883 76.2301C28.9158 76.2957 28.2367 75.7207 28.1726 74.9463C28.1069 74.1738 28.6819 73.4947 29.4563 73.4306C30.229 73.3666 30.908 73.9399 30.9721 74.7143C31.0351 75.4785 30.4782 76.1488 29.721 76.2284C29.7107 76.2295 29.6988 76.2307 29.6902 76.2316L29.6883 76.2301ZM97.0213 66.248C96.8892 65.4842 97.402 64.7562 98.1658 64.6241C98.9294 64.4903 99.6573 65.0031 99.7894 65.7669C99.9216 66.5307 99.4087 67.2586 98.6449 67.3908C98.6145 67.3974 98.5821 67.4008 98.5513 67.4041C97.8214 67.4808 97.1483 66.9795 97.0213 66.248ZM29.478 70.0029C28.7063 69.9285 28.14 69.2432 28.2142 68.4698C28.2887 67.6981 28.974 67.1318 29.7474 67.206C30.5191 67.2805 31.0854 67.9658 31.0129 68.739C30.9475 69.4164 30.4126 69.9341 29.7631 70.0024C29.6708 70.0121 29.5759 70.0134 29.4799 70.0045L29.478 70.0029ZM95.4796 60.4753C95.2129 59.7464 95.5861 58.9398 96.3167 58.6729C97.0456 58.4062 97.8524 58.7811 98.1191 59.51C98.3858 60.239 98.0109 61.0457 97.282 61.3124C97.1703 61.3518 97.0574 61.3792 96.9446 61.3911C96.319 61.4568 95.7054 61.0945 95.4798 60.477L95.4796 60.4753ZM30.3767 63.8373C29.6305 63.6271 29.1963 62.8501 29.408 62.102C29.6182 61.3558 30.3952 60.9215 31.1433 61.1333C31.8895 61.3434 32.3237 62.1204 32.112 62.8685C31.9507 63.4385 31.4625 63.8251 30.9069 63.8835C30.7343 63.9016 30.5565 63.8875 30.3784 63.8371L30.3767 63.8373ZM92.931 55.0712C92.5393 54.402 92.7617 53.5422 93.4324 53.1485C94.1013 52.755 94.9613 52.9792 95.3548 53.6481C95.7483 54.3171 95.5241 55.1771 94.8552 55.5706C94.6762 55.6758 94.4839 55.7375 94.2907 55.7578C93.7591 55.8137 93.2195 55.5628 92.931 55.0712ZM32.3675 57.9335C31.6715 57.5919 31.3842 56.7494 31.7259 56.055C32.0693 55.3587 32.9099 55.0699 33.6062 55.4132C34.3023 55.7548 34.5911 56.5955 34.2478 57.2918C34.0272 57.7418 33.597 58.0221 33.132 58.0709C32.879 58.0975 32.6136 58.0546 32.3675 57.9335ZM89.4534 50.2157C88.9457 49.6279 89.0132 48.7412 89.5993 48.2337C90.1871 47.726 91.0739 47.7935 91.5797 48.3798C92.0873 48.9676 92.0215 49.8542 91.4337 50.3619C91.2086 50.5549 90.9401 50.6643 90.6649 50.6933C90.2222 50.7398 89.7659 50.5752 89.4532 50.214L89.4534 50.2157ZM35.3877 52.4833C34.7638 52.0235 34.6315 51.1422 35.0913 50.5184C35.5513 49.8963 36.4324 49.7622 37.0562 50.222C37.6802 50.6835 37.8124 51.5631 37.3526 52.1869C37.1073 52.5169 36.7474 52.7102 36.3679 52.7501C36.0312 52.7855 35.6817 52.6995 35.3877 52.4833ZM85.1586 46.0545C85.1586 46.0545 85.1492 46.0469 85.1437 46.044C85.1437 46.044 85.1343 46.0363 85.1322 46.0331C84.5279 45.5453 84.4333 44.6618 84.9247 44.0588C85.4125 43.4545 86.296 43.3599 86.8986 43.8479C86.8986 43.8479 86.908 43.8555 86.9137 43.8601C86.9137 43.8601 86.9232 43.8678 86.9288 43.8724C87.5314 44.3603 87.6243 45.2441 87.1363 45.8466C86.8916 46.1489 86.547 46.3234 86.1897 46.3609C85.8325 46.3985 85.4592 46.2994 85.1586 46.0545ZM39.3285 47.6535C38.7958 47.0908 38.8198 46.2017 39.3843 45.6688C39.9487 45.136 40.8378 45.1601 41.3707 45.7245C41.9035 46.2889 41.8794 47.178 41.315 47.7109C41.0825 47.9323 40.7948 48.0559 40.4974 48.0871C40.0786 48.1312 39.6416 47.9853 39.3302 47.6533L39.3285 47.6535ZM80.1697 42.7042C79.4894 42.3316 79.2405 41.4763 79.6133 40.7977C79.9859 40.1174 80.841 39.8668 81.5198 40.2413C82.2001 40.614 82.4488 41.4675 82.0762 42.1478C81.8456 42.5678 81.4333 42.822 80.9906 42.8685C80.7154 42.8974 80.43 42.8462 80.1697 42.7042ZM44.0628 43.5992C43.6403 42.9506 43.8234 42.0777 44.4737 41.655C45.124 41.2324 45.9955 41.4173 46.4179 42.0659C46.8406 42.7162 46.6556 43.5877 46.007 44.0101C45.8146 44.1358 45.6027 44.2082 45.389 44.2306C44.8814 44.284 44.3615 44.0569 44.0645 43.5991L44.0628 43.5992ZM74.6946 40.3192C73.9587 40.0751 73.5587 39.279 73.8043 38.5411C74.0484 37.8052 74.8431 37.4071 75.5807 37.651C76.3167 37.8951 76.7149 38.6915 76.4708 39.4274C76.2926 39.9681 75.8169 40.3257 75.2836 40.3817C75.0904 40.4021 74.8913 40.3815 74.6944 40.3175L74.6946 40.3192ZM49.4486 40.465C49.1488 39.75 49.4856 38.9265 50.2024 38.6265C50.9175 38.3267 51.741 38.6635 52.041 39.3803C52.341 40.0971 52.0039 40.9189 51.2871 41.2189C51.1581 41.2739 51.0251 41.3069 50.8917 41.3209C50.2918 41.384 49.6934 41.0511 49.4486 40.465ZM68.8794 38.9568C68.1092 38.8476 67.575 38.1382 67.6841 37.368C67.7918 36.5998 68.5029 36.0653 69.2712 36.1729C70.0396 36.2823 70.5741 36.9934 70.4665 37.7617C70.3741 38.4126 69.8495 38.8963 69.2239 38.9621C69.1111 38.9739 68.9951 38.9723 68.8775 38.9553L68.8794 38.9568ZM55.3091 38.3455C55.1413 37.5872 55.6208 36.8386 56.3775 36.6709C57.1358 36.5031 57.8861 36.9824 58.052 37.7392C58.2199 38.4976 57.7405 39.2479 56.9839 39.4155C56.9315 39.4262 56.8788 39.4352 56.8258 39.4408C56.1233 39.5146 55.4646 39.0516 55.3091 38.3455ZM62.9127 38.6524C62.1381 38.682 61.4835 38.0768 61.4539 37.3022C61.4243 36.5276 62.0297 35.8747 62.8043 35.8451C63.5789 35.8155 64.2317 36.4192 64.2612 37.1938C64.291 37.9372 63.7353 38.5694 63.0054 38.6461C62.9746 38.6494 62.9438 38.6526 62.911 38.6526L62.9127 38.6524Z" fill="url(#paint24_linear_8_29526)" stroke="url(#paint25_linear_8_29526)" stroke-width="2" mask="url(#path-34-inside-1_8_29526)"/>
<path d="M68.4375 111.43C90.1504 109.148 105.902 89.6957 103.62 67.9828C101.338 46.2699 81.8861 30.5181 60.1732 32.8002C38.4603 35.0824 22.7085 54.5342 24.9907 76.2471C27.2728 97.96 46.7246 113.712 68.4375 111.43Z" stroke="url(#paint26_linear_8_29526)" stroke-width="2" stroke-linecap="round" stroke-linejoin="round"/>
<g clip-path="url(#clip0_8_29526)">
<path d="M49.62 74.7368L75.8616 71.9787L77.4478 87.071C77.5626 88.1628 76.7677 89.1422 75.6734 89.2572L53.3964 91.5986C52.3022 91.7136 51.321 90.9209 51.2063 89.8291L49.62 74.7368Z" fill="url(#paint27_linear_8_29526)" stroke="white" stroke-miterlimit="10"/>
<path d="M65.6782 73.0492L59.8027 73.6667L61.5969 90.7369L67.4724 90.1193L65.6782 73.0492Z" fill="url(#paint28_linear_8_29526)" stroke="white" stroke-miterlimit="10"/>
<path d="M58.5752 67.8861C58.2441 67.9209 57.9345 67.9214 57.6702 67.9142C55.9972 67.8711 54.2398 67.5109 52.5894 66.8734C49.2513 65.5845 47.6676 63.4073 48.4558 61.1907C49.1682 59.1881 51.4268 58.3668 54.8165 58.8784C56.8042 59.1784 58.5612 60.0306 59.7654 61.2759C60.5548 62.0938 61.3733 63.5315 61.421 64.9003C61.4697 66.27 60.7437 67.2952 59.4306 67.7112C59.1407 67.8037 58.8506 67.8561 58.5751 67.8851L58.5752 67.8861ZM52.2827 60.9515C52.1528 60.9651 52.0285 60.9832 51.9095 61.0047C50.8903 61.1948 50.6292 61.6182 50.5217 61.9214C49.9726 63.466 53.0301 64.6974 53.3811 64.8335C54.7797 65.3734 56.3242 65.691 57.728 65.7274C58.0395 65.7357 58.4399 65.7316 58.7676 65.6272C59.1362 65.5104 59.2435 65.3592 59.2306 64.9786C59.2053 64.2613 58.6799 63.3047 58.1863 62.7946C57.3149 61.8924 56.0019 61.2705 54.4878 61.0417C53.6589 60.9168 52.9061 60.8859 52.2827 60.9515Z" fill="url(#paint29_linear_8_29526)"/>
<path d="M62.1981 66.6685C61.2238 66.7709 60.3414 66.3657 59.703 65.4969C58.8914 64.3924 58.6414 62.7569 58.7531 61.6273C58.9248 59.9045 59.7755 58.1493 61.1497 56.684C63.4925 54.1851 65.7753 53.4322 67.5777 54.5636C69.5722 55.8158 69.6805 58.505 67.8603 61.581C66.9601 63.1034 65.8043 64.4727 64.5177 65.5408C64.1463 65.8498 63.6386 66.2351 63.0101 66.4712C62.7344 66.5751 62.4627 66.6407 62.1981 66.6685ZM61.4719 64.2022C61.6975 64.5084 61.8763 64.5606 62.2378 64.4246C62.5598 64.3038 62.8759 64.0596 63.1155 63.8604C64.1946 62.9631 65.2095 61.7596 65.9728 60.4695C66.1643 60.1464 67.7999 57.2879 66.4105 56.4151C66.138 56.2447 65.671 56.0728 64.7526 56.5543C64.1362 56.8771 63.4446 57.4387 62.7517 58.1774C61.7055 59.2932 61.0607 60.5949 60.9362 61.8418C60.8661 62.5481 61.0473 63.6239 61.4719 64.2022Z" fill="url(#paint30_linear_8_29526)"/>
<path d="M49.4604 67.3724L70.623 60.0393C71.6625 59.6791 72.7988 60.2284 73.1593 61.2655L74.4053 64.8501L49.4764 73.4883L48.2303 69.9036C47.8698 68.8666 48.4209 67.7326 49.4604 67.3724Z" fill="url(#paint31_linear_8_29526)" stroke="white" stroke-miterlimit="10"/>
<path d="M62.8325 62.7388L57.2509 64.6729L59.15 70.1362L64.7316 68.2021L62.8325 62.7388Z" fill="url(#paint32_linear_8_29526)" stroke="white" stroke-miterlimit="10"/>
<path d="M76.7885 67.289L77.113 65.4652C77.2444 64.7293 78.2569 64.6228 78.5385 65.3154L79.2351 67.0318L81.0627 67.3548C81.8002 67.4856 81.9063 68.4958 81.2122 68.7771L79.4917 69.473L79.1671 71.2968C79.0357 72.0327 78.0232 72.1391 77.7417 71.4466L77.0451 69.7301L75.2175 69.4071C74.48 69.2764 74.3738 68.2661 75.068 67.9849L76.7885 67.289Z" fill="url(#paint33_linear_8_29526)"/>
</g>
</g>
<defs>
<filter id="filter0_d_8_29526" x="56.3118" y="13.3845" width="116.716" height="116.716" filterUnits="userSpaceOnUse" color-interpolation-filters="sRGB">
<feFlood flood-opacity="0" result="BackgroundImageFix"/>
<feColorMatrix in="SourceAlpha" type="matrix" values="0 0 0 0 0 0 0 0 0 0 0 0 0 0 0 0 0 0 127 0" result="hardAlpha"/>
<feMorphology radius="2" operator="dilate" in="SourceAlpha" result="effect1_dropShadow_8_29526"/>
<feOffset/>
<feGaussianBlur stdDeviation="4"/>
<feComposite in2="hardAlpha" operator="out"/>
<feColorMatrix type="matrix" values="0 0 0 0 0.750065 0 0 0 0 0.750065 0 0 0 0 0.750065 0 0 0 0.5 0"/>
<feBlend mode="normal" in2="BackgroundImageFix" result="effect1_dropShadow_8_29526"/>
<feBlend mode="normal" in="SourceGraphic" in2="effect1_dropShadow_8_29526" result="shape"/>
</filter>
<filter id="filter1_d_8_29526" x="31.3118" y="-3.38452" width="116.716" height="116.716" filterUnits="userSpaceOnUse" color-interpolation-filters="sRGB">
<feFlood flood-opacity="0" result="BackgroundImageFix"/>
<feColorMatrix in="SourceAlpha" type="matrix" values="0 0 0 0 0 0 0 0 0 0 0 0 0 0 0 0 0 0 127 0" result="hardAlpha"/>
<feMorphology radius="2" operator="dilate" in="SourceAlpha" result="effect1_dropShadow_8_29526"/>
<feOffset/>
<feGaussianBlur stdDeviation="4"/>
<feComposite in2="hardAlpha" operator="out"/>
<feColorMatrix type="matrix" values="0 0 0 0 0.750065 0 0 0 0 0.750065 0 0 0 0 0.750065 0 0 0 0.5 0"/>
<feBlend mode="normal" in2="BackgroundImageFix" result="effect1_dropShadow_8_29526"/>
<feBlend mode="normal" in="SourceGraphic" in2="effect1_dropShadow_8_29526" result="shape"/>
</filter>
<filter id="filter2_d_8_29526" x="0.0383301" y="7.66089" width="127.597" height="127.597" filterUnits="userSpaceOnUse" color-interpolation-filters="sRGB">
<feFlood flood-opacity="0" result="BackgroundImageFix"/>
<feColorMatrix in="SourceAlpha" type="matrix" values="0 0 0 0 0 0 0 0 0 0 0 0 0 0 0 0 0 0 127 0" result="hardAlpha"/>
<feMorphology radius="2" operator="dilate" in="SourceAlpha" result="effect1_dropShadow_8_29526"/>
<feOffset/>
<feGaussianBlur stdDeviation="4"/>
<feComposite in2="hardAlpha" operator="out"/>
<feColorMatrix type="matrix" values="0 0 0 0 0.750065 0 0 0 0 0.750065 0 0 0 0 0.750065 0 0 0 0.5 0"/>
<feBlend mode="normal" in2="BackgroundImageFix" result="effect1_dropShadow_8_29526"/>
<feBlend mode="normal" in="SourceGraphic" in2="effect1_dropShadow_8_29526" result="shape"/>
</filter>
<radialGradient id="paint0_radial_8_29526" cx="0" cy="0" r="1" gradientUnits="userSpaceOnUse" gradientTransform="translate(114.67 71.7427) rotate(84) scale(44)">
<stop stop-color="white"/>
<stop offset="1" stop-color="#EAEFFF"/>
</radialGradient>
<linearGradient id="paint1_linear_8_29526" x1="65.2694" y1="13.8407" x2="183.78" y2="99.3894" gradientUnits="userSpaceOnUse">
<stop stop-color="#C551E2"/>
<stop offset="0.5" stop-color="#8661FE"/>
<stop offset="1" stop-color="#503CBD"/>
</linearGradient>
<linearGradient id="paint2_linear_8_29526" x1="60.5648" y1="8.32565" x2="190.363" y2="102.022" gradientUnits="userSpaceOnUse">
<stop stop-color="#C551E2"/>
<stop offset="0.5" stop-color="#8661FE"/>
<stop offset="1" stop-color="#503CBD"/>
</linearGradient>
<linearGradient id="paint3_linear_8_29526" x1="104.75" y1="55.5062" x2="110.194" y2="67.1724" gradientUnits="userSpaceOnUse">
<stop stop-color="#C551E2"/>
<stop offset="0.5" stop-color="#8661FE"/>
<stop offset="1" stop-color="#503CBD"/>
</linearGradient>
<linearGradient id="paint4_linear_8_29526" x1="109.282" y1="76.9678" x2="111.848" y2="77.2538" gradientUnits="userSpaceOnUse">
<stop stop-color="#C551E2"/>
<stop offset="0.5" stop-color="#8661FE"/>
<stop offset="1" stop-color="#503CBD"/>
</linearGradient>
<linearGradient id="paint5_linear_8_29526" x1="90.5003" y1="49.6873" x2="112.699" y2="87.1962" gradientUnits="userSpaceOnUse">
<stop stop-color="#C551E2"/>
<stop offset="0.5" stop-color="#8661FE"/>
<stop offset="1" stop-color="#503CBD"/>
</linearGradient>
<linearGradient id="paint6_linear_8_29526" x1="131.725" y1="75.1515" x2="143.812" y2="80.9345" gradientUnits="userSpaceOnUse">
<stop stop-color="#C551E2"/>
<stop offset="0.5" stop-color="#8661FE"/>
<stop offset="1" stop-color="#503CBD"/>
</linearGradient>
<linearGradient id="paint7_linear_8_29526" x1="92.3147" y1="79.2938" x2="104.401" y2="85.0769" gradientUnits="userSpaceOnUse">
<stop stop-color="#C551E2"/>
<stop offset="0.5" stop-color="#8661FE"/>
<stop offset="1" stop-color="#503CBD"/>
</linearGradient>
<linearGradient id="paint8_linear_8_29526" x1="93.5158" y1="60.3443" x2="129.003" y2="101.563" gradientUnits="userSpaceOnUse">
<stop stop-color="#C551E2"/>
<stop offset="0.5" stop-color="#8661FE"/>
<stop offset="1" stop-color="#503CBD"/>
</linearGradient>
<linearGradient id="paint9_linear_8_29526" x1="95.5975" y1="72.0416" x2="98.4583" y2="76.1352" gradientUnits="userSpaceOnUse">
<stop stop-color="#C551E2"/>
<stop offset="0.5" stop-color="#8661FE"/>
<stop offset="1" stop-color="#503CBD"/>
</linearGradient>
<linearGradient id="paint10_linear_8_29526" x1="96.0926" y1="76.7525" x2="98.9535" y2="80.8461" gradientUnits="userSpaceOnUse">
<stop stop-color="#C551E2"/>
<stop offset="0.5" stop-color="#8661FE"/>
<stop offset="1" stop-color="#503CBD"/>
</linearGradient>
<linearGradient id="paint11_linear_8_29526" x1="91.1002" y1="69.2831" x2="103.581" y2="75.1746" gradientUnits="userSpaceOnUse">
<stop stop-color="#C551E2"/>
<stop offset="0.5" stop-color="#8661FE"/>
<stop offset="1" stop-color="#503CBD"/>
</linearGradient>
<radialGradient id="paint12_radial_8_29526" cx="0" cy="0" r="1" gradientUnits="userSpaceOnUse" gradientTransform="translate(89.67 54.9737) rotate(84) scale(44)">
<stop stop-color="white"/>
<stop offset="1" stop-color="#EAEFFF"/>
</radialGradient>
<linearGradient id="paint13_linear_8_29526" x1="40.2694" y1="-2.92831" x2="158.78" y2="82.6204" gradientUnits="userSpaceOnUse">
<stop stop-color="#C551E2"/>
<stop offset="0.5" stop-color="#8661FE"/>
<stop offset="1" stop-color="#503CBD"/>
</linearGradient>
<linearGradient id="paint14_linear_8_29526" x1="35.5648" y1="-8.44339" x2="165.363" y2="85.2526" gradientUnits="userSpaceOnUse">
<stop stop-color="#C551E2"/>
<stop offset="0.5" stop-color="#8661FE"/>
<stop offset="1" stop-color="#503CBD"/>
</linearGradient>
<linearGradient id="paint15_linear_8_29526" x1="79.7495" y1="38.7372" x2="85.194" y2="50.4033" gradientUnits="userSpaceOnUse">
<stop stop-color="#C551E2"/>
<stop offset="0.5" stop-color="#8661FE"/>
<stop offset="1" stop-color="#503CBD"/>
</linearGradient>
<linearGradient id="paint16_linear_8_29526" x1="84.282" y1="60.1988" x2="86.8484" y2="60.4848" gradientUnits="userSpaceOnUse">
<stop stop-color="#C551E2"/>
<stop offset="0.5" stop-color="#8661FE"/>
<stop offset="1" stop-color="#503CBD"/>
</linearGradient>
<linearGradient id="paint17_linear_8_29526" x1="65.5003" y1="32.9182" x2="87.6991" y2="70.4271" gradientUnits="userSpaceOnUse">
<stop stop-color="#C551E2"/>
<stop offset="0.5" stop-color="#8661FE"/>
<stop offset="1" stop-color="#503CBD"/>
</linearGradient>
<linearGradient id="paint18_linear_8_29526" x1="106.725" y1="58.3824" x2="118.812" y2="64.1655" gradientUnits="userSpaceOnUse">
<stop stop-color="#C551E2"/>
<stop offset="0.5" stop-color="#8661FE"/>
<stop offset="1" stop-color="#503CBD"/>
</linearGradient>
<linearGradient id="paint19_linear_8_29526" x1="67.3147" y1="62.5248" x2="79.4014" y2="68.3078" gradientUnits="userSpaceOnUse">
<stop stop-color="#C551E2"/>
<stop offset="0.5" stop-color="#8661FE"/>
<stop offset="1" stop-color="#503CBD"/>
</linearGradient>
<linearGradient id="paint20_linear_8_29526" x1="68.5158" y1="43.5752" x2="104.003" y2="84.7939" gradientUnits="userSpaceOnUse">
<stop stop-color="#C551E2"/>
<stop offset="0.5" stop-color="#8661FE"/>
<stop offset="1" stop-color="#503CBD"/>
</linearGradient>
<linearGradient id="paint21_linear_8_29526" x1="70.5975" y1="55.2725" x2="73.4583" y2="59.3662" gradientUnits="userSpaceOnUse">
<stop stop-color="#C551E2"/>
<stop offset="0.5" stop-color="#8661FE"/>
<stop offset="1" stop-color="#503CBD"/>
</linearGradient>
<linearGradient id="paint22_linear_8_29526" x1="71.0926" y1="59.9835" x2="73.9535" y2="64.0771" gradientUnits="userSpaceOnUse">
<stop stop-color="#C551E2"/>
<stop offset="0.5" stop-color="#8661FE"/>
<stop offset="1" stop-color="#503CBD"/>
</linearGradient>
<linearGradient id="paint23_linear_8_29526" x1="66.1002" y1="52.5141" x2="78.5811" y2="58.4056" gradientUnits="userSpaceOnUse">
<stop stop-color="#C551E2"/>
<stop offset="0.5" stop-color="#8661FE"/>
<stop offset="1" stop-color="#503CBD"/>
</linearGradient>
<linearGradient id="paint24_linear_8_29526" x1="33.7504" y1="31.7425" x2="111.754" y2="90.9841" gradientUnits="userSpaceOnUse">
<stop stop-color="#AF43F2"/>
<stop offset="0.5" stop-color="#F448F7"/>
<stop offset="1" stop-color="#D12C58"/>
</linearGradient>
<linearGradient id="paint25_linear_8_29526" x1="12.908" y1="4.93723" x2="139.417" y2="96.9968" gradientUnits="userSpaceOnUse">
<stop stop-color="#9F51E2"/>
<stop offset="0.5" stop-color="#D457FE"/>
<stop offset="1" stop-color="#B22E95"/>
</linearGradient>
<linearGradient id="paint26_linear_8_29526" x1="31.0058" y1="28.0314" x2="116.438" y2="92.915" gradientUnits="userSpaceOnUse">
<stop stop-color="#AF43F2"/>
<stop offset="0.5" stop-color="#F448F7"/>
<stop offset="1" stop-color="#D12C58"/>
</linearGradient>
<linearGradient id="paint27_linear_8_29526" x1="53.1015" y1="72.6701" x2="71.3354" y2="93.8719" gradientUnits="userSpaceOnUse">
<stop stop-color="#AF43F2"/>
<stop offset="0.5" stop-color="#F448F7"/>
<stop offset="1" stop-color="#D12C58"/>
</linearGradient>
<linearGradient id="paint28_linear_8_29526" x1="60.445" y1="71.8984" x2="70.6851" y2="74.0603" gradientUnits="userSpaceOnUse">
<stop stop-color="#AF43F2"/>
<stop offset="0.5" stop-color="#F448F7"/>
<stop offset="1" stop-color="#D12C58"/>
</linearGradient>
<linearGradient id="paint29_linear_8_29526" x1="49.5942" y1="58.07" x2="60.198" y2="68.7106" gradientUnits="userSpaceOnUse">
<stop stop-color="#AF43F2"/>
<stop offset="0.5" stop-color="#F448F7"/>
<stop offset="1" stop-color="#D12C58"/>
</linearGradient>
<linearGradient id="paint30_linear_8_29526" x1="59.3122" y1="53.5064" x2="72.1911" y2="62.2109" gradientUnits="userSpaceOnUse">
<stop stop-color="#AF43F2"/>
<stop offset="0.5" stop-color="#F448F7"/>
<stop offset="1" stop-color="#D12C58"/>
</linearGradient>
<linearGradient id="paint31_linear_8_29526" x1="50.8654" y1="66.2823" x2="56.8225" y2="75.7242" gradientUnits="userSpaceOnUse">
<stop stop-color="#AF43F2"/>
<stop offset="0.5" stop-color="#F448F7"/>
<stop offset="1" stop-color="#D12C58"/>
</linearGradient>
<linearGradient id="paint32_linear_8_29526" x1="57.8418" y1="63.8648" x2="65.0563" y2="67.1796" gradientUnits="userSpaceOnUse">
<stop stop-color="#AF43F2"/>
<stop offset="0.5" stop-color="#F448F7"/>
<stop offset="1" stop-color="#D12C58"/>
</linearGradient>
<linearGradient id="paint33_linear_8_29526" x1="75.1476" y1="64.4275" x2="82.8131" y2="70.2626" gradientUnits="userSpaceOnUse">
<stop stop-color="#AF43F2"/>
<stop offset="0.5" stop-color="#F448F7"/>
<stop offset="1" stop-color="#D12C58"/>
</linearGradient>
<clipPath id="clip0_8_29526">
<rect width="37.4" height="37.4" fill="white" transform="translate(43.4351 55.6831) rotate(-6)"/>
</clipPath>
</defs>
</svg>
