<svg width="101" height="101" viewBox="0 0 101 101" fill="none" xmlns="http://www.w3.org/2000/svg">
<g filter="url(#filter0_d_8_30558)">
<path d="M54.6257 90.7429C76.5961 88.4337 92.5346 68.7513 90.2254 46.7809C87.9163 24.8105 68.2338 8.87199 46.2634 11.1812C24.293 13.4903 8.3545 33.1728 10.6637 55.1432C12.9729 77.1136 32.6553 93.0521 54.6257 90.7429Z" fill="white"/>
<path d="M53.2188 82.4101C53.1296 81.7109 53.6247 81.0697 54.3239 80.9805C55.0231 80.8913 55.6643 81.3863 55.7535 82.0855C55.8427 82.7847 55.3491 83.4258 54.6498 83.5134L54.6203 83.5165C53.9319 83.5889 53.3084 83.0982 53.2204 82.4099L53.2188 82.4101ZM48.7644 83.7376C48.0598 83.7001 47.5191 83.1002 47.555 82.3958C47.591 81.6913 48.1923 81.1489 48.8969 81.1864C49.6014 81.2223 50.1421 81.8222 50.1061 82.5267C50.0725 83.1634 49.5803 83.6676 48.9665 83.7321C48.9013 83.739 48.8353 83.7396 48.766 83.7375L48.7644 83.7376ZM58.7969 81.4153C58.5849 80.7431 58.9571 80.0237 59.6308 79.8115C60.3029 79.5995 61.0223 79.9716 61.2345 80.6453C61.4466 81.3175 61.0742 82.0353 60.4007 82.2491C60.317 82.2752 60.2324 82.2919 60.1485 82.3007C59.558 82.3628 58.986 82.0034 58.7985 81.4151L58.7969 81.4153ZM42.9336 82.9113C42.2473 82.7494 41.8216 82.062 41.982 81.3758C42.1438 80.688 42.8311 80.2622 43.519 80.424C44.2053 80.586 44.6311 81.2734 44.4691 81.9597C44.3425 82.504 43.8844 82.8837 43.3591 82.9389C43.2208 82.9534 43.077 82.945 42.9338 82.9129L42.9336 82.9113ZM64.1091 79.4445C63.7795 78.8193 64.0173 78.048 64.6424 77.7168C65.266 77.3873 66.0389 77.625 66.3685 78.2502C66.698 78.8739 66.4603 79.6467 65.8351 79.9764C65.6878 80.0547 65.5293 80.1012 65.3739 80.1176C64.8704 80.1705 64.3617 79.9192 64.1107 79.4444L64.1091 79.4445ZM37.3445 81.051C36.6991 80.77 36.4031 80.0172 36.6855 79.37C36.968 78.7245 37.7195 78.4303 38.3664 78.711C39.012 78.9935 39.3079 79.7464 39.0254 80.392C38.8341 80.8284 38.4295 81.1051 37.9882 81.1514C37.7753 81.1738 37.5536 81.1421 37.3445 81.051ZM68.9819 76.5521C68.545 75.9979 68.6412 75.1944 69.1939 74.7577C69.7482 74.3208 70.5517 74.417 70.9886 74.9712C71.4239 75.5256 71.3275 76.3276 70.7748 76.7643C70.5789 76.9185 70.351 77.0068 70.1195 77.0312C69.6968 77.0756 69.2629 76.9091 68.9819 76.5521ZM32.1828 78.2203C31.5978 77.8262 31.442 77.0319 31.8346 76.447C32.227 75.8606 33.0215 75.7064 33.6062 76.0974C34.1928 76.4914 34.347 77.2859 33.956 77.8706C33.7358 78.1969 33.3916 78.3902 33.0279 78.4285C32.7405 78.4587 32.4411 78.3911 32.1827 78.2188L32.1828 78.2203ZM73.2538 72.8305C72.7272 72.3643 72.6768 71.5558 73.1446 71.029C73.6122 70.5006 74.4194 70.4519 74.9477 70.9196C75.4759 71.3857 75.5247 72.1944 75.0569 72.7211C74.8365 72.9706 74.5402 73.1117 74.2341 73.1439C73.8907 73.1799 73.5343 73.0776 73.2538 72.8305ZM27.6052 74.5192C27.0981 74.0289 27.0853 73.2195 27.5756 72.7124C28.0659 72.2052 28.8752 72.1924 29.3824 72.6827C29.8895 73.173 29.9023 73.9824 29.412 74.4895C29.1952 74.7134 28.9149 74.8419 28.6274 74.8721C28.2653 74.9101 27.8885 74.7926 27.6052 74.5192ZM76.7989 68.4123C76.1963 68.0452 76.0053 67.2593 76.374 66.6565C76.7396 66.0541 77.527 65.8629 78.1281 66.2302C78.7305 66.5958 78.9217 67.3832 78.5544 67.9843C78.3371 68.3386 77.9776 68.5508 77.5954 68.591C77.3265 68.6193 77.0473 68.5638 76.7989 68.4123ZM23.7553 70.0581C23.3448 69.4854 23.4762 68.6876 24.0489 68.277C24.6232 67.8663 25.421 67.9977 25.8315 68.5704C26.2421 69.1432 26.1108 69.9425 25.538 70.3515C25.351 70.4858 25.1405 70.5614 24.9276 70.5838C24.4863 70.6301 24.0333 70.4452 23.7553 70.0581ZM79.5013 63.4354C78.8431 63.1825 78.514 62.4425 78.7669 61.7844C79.0198 61.1262 79.7597 60.7971 80.4163 61.0501C81.0745 61.303 81.4035 62.0414 81.1507 62.7012C80.9732 63.1644 80.5538 63.4646 80.0908 63.5133C79.8981 63.5335 79.6946 63.5109 79.4997 63.4356L79.5013 63.4354ZM20.7707 64.9798C20.4695 64.3421 20.7415 63.5814 21.3792 63.2803C22.0166 62.9776 22.7791 63.251 23.0802 63.8886C23.3813 64.5263 23.1093 65.287 22.4703 65.5898C22.3371 65.6525 22.1979 65.6891 22.0581 65.7038C21.5329 65.759 21.0073 65.4828 20.7705 64.9782L20.7707 64.9798ZM81.267 58.0526C80.5747 57.9227 80.1179 57.2543 80.2478 56.5619C80.3793 55.8694 81.0461 55.4128 81.7385 55.5427C82.4324 55.6724 82.8876 56.341 82.7593 57.0332C82.6524 57.6006 82.1848 58.0096 81.6378 58.067C81.5166 58.0798 81.3936 58.0754 81.2669 58.051L81.267 58.0526ZM18.7425 59.4505C18.5593 58.7691 18.9633 58.0683 19.6449 57.8867C20.3264 57.7035 21.0271 58.1075 21.2088 58.7891C21.3904 59.4707 20.9864 60.1715 20.3048 60.3531C20.2376 60.3712 20.173 60.3843 20.1077 60.3911C19.4939 60.4556 18.9061 60.0649 18.7425 59.4505ZM82.0394 52.4411C81.3335 52.4368 80.7654 51.8602 80.7714 51.1541C80.7757 50.4482 81.3509 49.8819 82.0568 49.8862C82.7627 49.8906 83.3308 50.4672 83.3248 51.1732C83.3216 51.8303 82.8205 52.3685 82.1833 52.4354C82.1367 52.4403 82.0882 52.4423 82.0396 52.4427L82.0394 52.4411ZM19.1115 54.8147C18.4092 54.8744 17.7918 54.3517 17.7336 53.6476C17.6739 52.9454 18.1966 52.328 18.9006 52.2697C19.6031 52.2116 20.2203 52.7327 20.2786 53.4367C20.3359 54.1314 19.8296 54.7408 19.1412 54.8131C19.1319 54.8141 19.121 54.8153 19.1132 54.8161L19.1115 54.8147ZM80.3233 45.74C80.2032 45.0457 80.6694 44.3839 81.3637 44.2638C82.058 44.1422 82.7197 44.6084 82.8398 45.3027C82.9599 45.9971 82.4937 46.6588 81.7993 46.7789C81.7717 46.785 81.7422 46.7881 81.7142 46.791C81.0507 46.8608 80.4388 46.4051 80.3233 45.74ZM18.9203 49.1537C18.2188 49.086 17.7039 48.463 17.7714 47.7599C17.8391 47.0583 18.4621 46.5435 19.1652 46.611C19.8668 46.6787 20.3816 47.3017 20.3157 48.0046C20.2563 48.6205 19.77 49.0911 19.1795 49.1531C19.0956 49.162 19.0093 49.1632 18.922 49.1551L18.9203 49.1537ZM78.9218 40.4922C78.6793 39.8295 79.0186 39.0963 79.6828 38.8536C80.3454 38.6112 81.0788 38.952 81.3213 39.6147C81.5638 40.2773 81.2229 41.0107 80.5603 41.2532C80.4588 41.289 80.3561 41.3139 80.2536 41.3247C79.6848 41.3845 79.127 41.055 78.9219 40.4937L78.9218 40.4922ZM19.7373 43.5485C19.0589 43.3574 18.6642 42.6511 18.8567 41.971C19.0477 41.2926 19.7541 40.8978 20.4342 41.0903C21.1126 41.2814 21.5073 41.9877 21.3148 42.6678C21.1682 43.186 20.7244 43.5374 20.2194 43.5905C20.0624 43.607 19.9008 43.5942 19.7389 43.5483L19.7373 43.5485ZM76.6049 35.5793C76.2487 34.971 76.451 34.1893 77.0606 33.8315C77.6688 33.4738 78.4506 33.6775 78.8083 34.2857C79.166 34.8938 78.9623 35.6756 78.3541 36.0333C78.1914 36.129 78.0166 36.1851 77.841 36.2035C77.3577 36.2543 76.8671 36.0262 76.6049 35.5793ZM21.5472 38.1815C20.9144 37.8709 20.6532 37.105 20.9639 36.4737C21.276 35.8407 22.0402 35.5782 22.6732 35.8903C23.306 36.2008 23.5686 36.9651 23.2565 37.598C23.056 38.0072 22.6648 38.262 22.2422 38.3064C22.0122 38.3306 21.7708 38.2915 21.5472 38.1815ZM73.4434 31.1653C72.9819 30.6309 73.0432 29.8248 73.5761 29.3634C74.1104 28.9019 74.9166 28.9633 75.3764 29.4963C75.8379 30.0307 75.7781 30.8366 75.2437 31.2981C75.039 31.4736 74.795 31.5731 74.5448 31.5994C74.1423 31.6417 73.7275 31.4921 73.4432 31.1637L73.4434 31.1653ZM24.2927 33.2267C23.7256 32.8087 23.6053 32.0075 24.0233 31.4404C24.4415 30.8749 25.2425 30.753 25.8096 31.171C26.3769 31.5905 26.497 32.3902 26.079 32.9573C25.856 33.2572 25.5289 33.433 25.1839 33.4693C24.8778 33.5014 24.5601 33.4233 24.2927 33.2267ZM69.5391 27.3824C69.5391 27.3824 69.5305 27.3754 69.5255 27.3728C69.5255 27.3728 69.5169 27.3658 69.515 27.3629C68.9657 26.9195 68.8797 26.1162 69.3264 25.5681C69.7698 25.0187 70.5731 24.9327 71.1209 25.3763C71.1209 25.3763 71.1294 25.3833 71.1346 25.3875C71.1346 25.3875 71.1432 25.3944 71.1483 25.3986C71.6961 25.8422 71.7806 26.6456 71.337 27.1934C71.1145 27.4682 70.8012 27.6268 70.4764 27.6609C70.1517 27.695 69.8123 27.605 69.5391 27.3824ZM27.8753 28.836C27.391 28.3244 27.4129 27.5162 27.926 27.0318C28.4391 26.5473 29.2474 26.5692 29.7318 27.0823C30.2162 27.5954 30.1944 28.4037 29.6812 28.8881C29.4699 29.0895 29.2083 29.2018 28.9379 29.2302C28.5572 29.2702 28.1599 29.1376 27.8768 28.8358L27.8753 28.836ZM65.0037 24.3366C64.3852 23.9979 64.1589 23.2204 64.4979 22.6034C64.8366 21.985 65.6139 21.7571 66.231 22.0976C66.8495 22.4364 67.0756 23.2123 66.7369 23.8308C66.5272 24.2126 66.1524 24.4437 65.7499 24.486C65.4997 24.5123 65.2403 24.4657 65.0037 24.3366ZM32.1792 25.1503C31.7952 24.5607 31.9616 23.767 32.5528 23.3828C33.144 22.9986 33.9362 23.1667 34.3202 23.7564C34.7045 24.3476 34.5363 25.1398 33.9467 25.5238C33.7717 25.6381 33.5791 25.7039 33.3849 25.7243C32.9234 25.7728 32.4508 25.5664 32.1808 25.1501L32.1792 25.1503ZM60.0263 22.1685C59.3573 21.9466 58.9937 21.2228 59.217 20.552C59.4389 19.883 60.1613 19.5211 60.8319 19.7428C61.5009 19.9648 61.863 20.6887 61.6411 21.3577C61.479 21.8492 61.0466 22.1743 60.5618 22.2253C60.3862 22.2438 60.2051 22.2251 60.0262 22.1669L60.0263 22.1685ZM37.0754 22.301C36.8028 21.651 37.1091 20.9023 37.7607 20.6296C38.4108 20.357 39.1594 20.6633 39.4321 21.3149C39.7048 21.9665 39.3984 22.7136 38.7468 22.9863C38.6295 23.0364 38.5086 23.0664 38.3873 23.0791C37.8419 23.1364 37.2979 22.8338 37.0754 22.301ZM54.7398 20.9299C54.0396 20.8307 53.5539 20.1857 53.6532 19.4856C53.751 18.7871 54.3975 18.3013 55.0959 18.3991C55.7945 18.4985 56.2804 19.145 56.1826 19.8434C56.0986 20.4352 55.6217 20.8749 55.0529 20.9347C54.9504 20.9455 54.845 20.944 54.7381 20.9285L54.7398 20.9299ZM42.4032 20.3742C42.2506 19.6848 42.6865 19.0043 43.3744 18.8518C44.0638 18.6993 44.7459 19.135 44.8967 19.823C45.0493 20.5124 44.6135 21.1945 43.9257 21.3469C43.878 21.3567 43.8302 21.3648 43.782 21.3699C43.1433 21.437 42.5445 21.0161 42.4032 20.3742ZM49.3155 20.6532C48.6113 20.6801 48.0162 20.1299 47.9893 19.4257C47.9624 18.7215 48.5128 18.1279 49.217 18.1011C49.9211 18.0742 50.5146 18.623 50.5414 19.3272C50.5685 20.003 50.0633 20.5777 49.3998 20.6475C49.3718 20.6504 49.3438 20.6534 49.314 20.6533L49.3155 20.6532Z" fill="#CBCBCB"/>
<path d="M54.2011 86.7026C73.9401 84.6279 88.2599 66.9444 86.1852 47.2054C84.1106 27.4664 66.4271 13.1466 46.6881 15.2213C26.9491 17.2959 12.6293 34.9794 14.7039 54.7184C16.7786 74.4574 34.4621 88.7772 54.2011 86.7026Z" stroke="#CBCBCB" stroke-width="2" stroke-linecap="round" stroke-linejoin="round"/>
<path d="M49.4774 41.1169C52.857 40.7617 55.5073 39.6222 55.3969 38.5717C55.2865 37.5213 52.4572 36.9577 49.0775 37.3129C45.6979 37.6681 43.0476 38.8076 43.158 39.8581C43.2684 40.9085 46.0977 41.4721 49.4774 41.1169Z" fill="#CBCBCB"/>
<path d="M46.6741 57.7055C46.6503 57.4789 46.4477 57.3145 46.2215 57.3383C45.9954 57.3621 45.8314 57.565 45.8552 57.7916L46.1232 60.3416C46.147 60.5682 46.3496 60.7326 46.5758 60.7088C46.8019 60.685 46.9659 60.4821 46.9421 60.2555L46.6741 57.7055Z" fill="#CBCBCB"/>
<path d="M59.4512 37.7574L60.9243 37.6026C62.6632 37.4198 64.865 39.0706 65.5365 40.6167C65.951 41.5708 66.2496 44.0532 66.2457 45.1219C66.2385 46.997 63.9296 48.0787 62.3667 47.0803C61.9962 46.8443 61.3401 46.0727 61.2948 45.6423L60.9886 42.7286C60.8284 42.7738 60.3598 42.7099 60.3188 42.9027C60.404 43.7139 60.4587 44.533 60.5641 45.342C60.6248 45.8148 60.8186 45.8793 60.6273 46.421C60.1281 47.8451 58.3245 48.4887 57.0199 47.735C55.3873 46.7911 55.8673 44.9307 55.5141 43.3637L54.8459 43.3743L55.2344 46.7569C54.5922 49.1072 51.3182 49.3036 50.4545 46.9906C50.4217 46.9029 50.3 46.5371 50.2941 46.4811L50.0207 43.8798L49.3945 43.9457L49.7007 46.8593C49.7298 47.1359 49.8338 47.1093 49.7166 47.5034C48.9782 50.0005 45.1028 49.5264 44.856 47.1784L44.5695 44.4528L43.9433 44.5186L44.2562 47.496C44.2647 47.5768 44.3608 47.6091 44.3268 47.8389C44.0683 49.5644 41.7735 50.3178 40.3905 49.2974C40.0517 49.0486 39.4609 48.2859 39.4182 47.8788L39.1185 45.0273L38.4922 45.0931L38.8117 48.1326C38.8136 48.1513 38.8772 48.2027 38.8825 48.298C38.8914 48.4872 38.6497 48.998 38.5408 49.1729C37.3457 51.0911 34.3814 50.5417 33.9525 48.3291C33.4341 45.6546 33.2767 42.7819 35.6591 40.9934C36.0785 40.679 37.1135 40.1068 37.6138 40.0542L39.3061 39.8763L39.3895 39.7733L39.1523 37.517C39.1234 37.2419 39.7931 36.4378 40.1456 36.4291L57.8854 34.5645C58.4701 34.5219 59.1797 35.1591 59.2389 35.7232L59.4531 37.7604L59.4512 37.7574ZM40.5049 37.2915C40.1442 37.4017 40.0812 37.6393 40.0843 37.9831C40.1021 39.4077 40.5026 40.9917 40.5553 42.4348C40.6089 42.6758 40.699 42.8753 40.9673 42.9162L58.3173 41.1099C58.585 41.0865 58.7467 40.9501 58.7798 40.6827L58.31 35.9433C58.2713 35.6945 58.0656 35.5165 57.822 35.4856L40.5036 37.2933L40.5049 37.2915Z" fill="#CBCBCB"/>
<path d="M67.6057 64.7137L66.8549 57.5702C66.9448 57.5435 67.0105 57.5712 67.0932 57.5955C67.99 57.861 68.5799 59.9011 68.7382 60.7345L68.8049 60.7714C70.914 60.1051 73.1321 62.1203 72.0874 64.2442L67.6074 64.7151L67.6057 64.7137Z" fill="#CBCBCB"/>
<path d="M36.6497 67.9673L35.8989 60.8238C35.8054 60.8163 35.7469 60.8571 35.671 60.898C34.8491 61.3442 34.6963 63.4624 34.7147 64.3104L34.6571 64.3605C32.4556 64.1473 30.7049 66.5795 32.1683 68.4399L36.6483 67.969L36.6497 67.9673Z" fill="#CBCBCB"/>
<path d="M65.1851 48.3051L65.1324 47.8031C64.1113 48.2828 62.9865 48.2392 62.0415 47.619L61.1336 46.8283C60.1198 49.037 57.1875 49.3593 55.743 47.3949L55.0503 48.3239C53.6451 49.7678 51.3645 49.5047 50.2229 47.9106C49.3064 50.1924 46.1472 50.5244 44.7717 48.4836C43.7952 50.748 40.8134 51.0929 39.3256 49.1204L38.5463 50.1513C37.7181 50.9264 36.648 51.1347 35.5545 50.9103L35.6073 51.4122C37.6502 51.0278 37.9048 53.6154 35.8547 53.7665L36.0551 55.6731C38.0812 55.2937 38.3707 57.9734 36.2988 57.9916L37.346 67.9555L66.9237 64.8467L65.8765 54.8829L65.6328 52.5644L65.4285 50.6204L65.1848 48.3019L65.1851 48.3051ZM48.0953 66.3984L39.8827 67.2615C39.833 67.2668 39.7498 67.2079 39.7023 67.0998C39.6757 67.0413 39.6511 66.9261 39.6286 66.8468L38.1424 52.6022L38.1939 52.3297L46.6644 51.4394L46.7742 51.6761L48.28 65.884C48.3126 66.2687 48.1943 66.3989 48.0937 66.3985L48.0953 66.3984ZM63.7873 60.7757L50.1639 62.2076C50.0815 62.2163 49.9504 62.1798 49.8829 62.1052C49.8455 62.0635 49.8148 61.9804 49.7868 61.9236L48.7022 51.4248L48.8139 51.2166L62.8646 49.7399L63.0236 49.907L64.1458 60.3751C64.1615 60.6594 63.9545 60.7676 63.789 60.7771L63.7873 60.7757Z" fill="#CBCBCB"/>
<path d="M35.9369 51.7388L34.3348 51.9072C33.8946 51.9535 33.5752 52.3479 33.6214 52.7881C33.6677 53.2284 34.0621 53.5478 34.5024 53.5015L36.1045 53.3331C36.5448 53.2869 36.8642 52.8924 36.8179 52.4522C36.7716 52.0119 36.3772 51.6925 35.9369 51.7388Z" fill="#CBCBCB"/>
<path d="M36.3871 56.0215L34.785 56.1899C34.3447 56.2362 34.0253 56.6306 34.0716 57.0709C34.1179 57.5111 34.5123 57.8305 34.9525 57.7842L36.5546 57.6159C36.9949 57.5696 37.3143 57.1752 37.268 56.7349C37.2218 56.2946 36.8273 55.9752 36.3871 56.0215Z" fill="#CBCBCB"/>
<path d="M34.3317 51.9077L30.5727 52.3028C30.2295 52.3389 29.9804 52.6465 30.0165 52.9897L30.6665 59.1744C30.7026 59.5177 31.0102 59.7668 31.3534 59.7307L35.1124 59.3356C35.4557 59.2995 35.7048 58.992 35.6687 58.6487L35.0186 52.464C34.9826 52.1207 34.675 51.8717 34.3317 51.9077Z" fill="#CBCBCB"/>
</g>
<defs>
<filter id="filter0_d_8_30558" x="-3.51746" y="-3" width="107.924" height="107.924" filterUnits="userSpaceOnUse" color-interpolation-filters="sRGB">
<feFlood flood-opacity="0" result="BackgroundImageFix"/>
<feColorMatrix in="SourceAlpha" type="matrix" values="0 0 0 0 0 0 0 0 0 0 0 0 0 0 0 0 0 0 127 0" result="hardAlpha"/>
<feMorphology radius="2" operator="dilate" in="SourceAlpha" result="effect1_dropShadow_8_30558"/>
<feOffset/>
<feGaussianBlur stdDeviation="4"/>
<feComposite in2="hardAlpha" operator="out"/>
<feColorMatrix type="matrix" values="0 0 0 0 0.750065 0 0 0 0 0.750065 0 0 0 0 0.750065 0 0 0 0.5 0"/>
<feBlend mode="normal" in2="BackgroundImageFix" result="effect1_dropShadow_8_30558"/>
<feBlend mode="normal" in="SourceGraphic" in2="effect1_dropShadow_8_30558" result="shape"/>
</filter>
</defs>
</svg>
