<svg width="48" height="47" viewBox="0 0 48 47" fill="none" xmlns="http://www.w3.org/2000/svg">
<path d="M47.5337 23.2441C47.5337 25.0016 45.7919 26.5398 45.4162 28.1877C45.0404 29.8356 45.925 32.0275 45.1852 33.5619C44.4455 35.0962 42.1948 35.7499 41.1262 37.0885C40.0577 38.4272 39.9324 40.7561 38.5859 41.8286C37.2395 42.9011 34.9575 42.5018 33.3997 43.2534C31.8418 44.0049 30.7537 46.0363 29.0549 46.4199C27.3562 46.8035 25.5243 45.4453 23.7669 45.4453C22.0094 45.4453 20.1228 46.7957 18.4788 46.4199C16.8349 46.0442 15.6645 43.9892 14.1341 43.2534C12.6036 42.5175 10.2865 42.8972 8.9478 41.8286C7.60916 40.76 7.47999 38.435 6.4075 37.0885C5.33502 35.742 3.10003 35.1197 2.3485 33.5619C1.59698 32.004 2.50507 29.8864 2.11757 28.1916C1.73007 26.4968 0 25.0016 0 23.2441C0 21.4866 1.74181 19.9484 2.11757 18.3005C2.49333 16.6526 1.60873 14.4607 2.3485 12.9263C3.08828 11.392 5.33893 10.7383 6.4075 9.39965C7.47607 8.061 7.60133 5.73207 8.9478 4.65959C10.2943 3.5871 12.5762 3.98635 14.1341 3.23483C15.6919 2.48331 16.7801 0.451849 18.4788 0.0682599C20.1776 -0.315329 22.0094 1.04289 23.7669 1.04289C25.5243 1.04289 27.411 -0.307501 29.0549 0.0682599C30.6989 0.444021 31.8692 2.49896 33.3997 3.23483C34.9301 3.97069 37.2473 3.59102 38.5859 4.65959C39.9246 5.72816 40.0537 8.05318 41.1262 9.39965C42.1987 10.7461 44.4337 11.3685 45.1852 12.9263C45.9368 14.4842 45.0287 16.6017 45.4162 18.2966C45.8037 19.9914 47.5337 21.4788 47.5337 23.2402V23.2441Z" fill="#0A486E"/>
<path d="M44.2597 30.274C44.2597 30.274 44.021 30.2622 43.9779 30.4149C43.8918 30.7358 44.1188 30.865 44.4006 30.9315L44.6355 31.3543C44.4946 31.4326 44.5689 31.55 44.5415 31.6361C44.5298 31.6752 44.4593 31.6948 44.4476 31.73C44.3889 31.9179 44.6472 32.1254 44.7294 32.2937V32.4816C44.5729 32.7203 44.522 32.9552 44.2128 32.7164C43.9035 32.4776 43.9309 32.3289 44.0718 32.0119L43.6021 31.5421C43.5591 31.4012 43.379 30.9629 43.2733 30.9315C43.1794 30.9041 43.0698 30.9785 42.9915 30.8376H42.8976C42.7919 30.8689 42.5531 31.1116 42.5218 31.1194C42.4396 31.1429 42.056 31.1351 41.9582 31.1194C41.923 31.1116 41.876 30.9746 41.7233 31.0255L41.6294 30.6027C41.6411 30.5558 41.9308 30.3757 41.9582 30.3679C42.1421 30.3248 42.4279 30.407 42.6158 30.3679C42.6941 30.3522 42.9759 30.137 43.0855 30.0861C43.1324 30.0665 43.2107 30.1056 43.2733 30.0861C43.3164 30.0743 43.4965 29.7964 43.5082 29.7573C43.5434 29.6203 43.5082 29.452 43.6021 29.2876C43.7117 29.1036 44.0523 28.9901 43.9779 28.7239C43.9701 28.7005 43.6922 28.4226 43.6491 28.3952C43.5434 28.3325 43.3399 28.3286 43.2733 28.3012C43.2107 28.2738 43.0542 28.1407 42.9915 28.1133C42.925 28.0859 42.7215 28.082 42.6158 28.0194C42.2948 27.8276 42.2948 27.4597 42.6158 27.2679C42.6353 27.2561 42.6823 27.2796 42.7097 27.2679C42.7489 27.2483 42.7684 27.1818 42.8036 27.1739C43.5473 27.0095 43.6295 27.6671 44.1658 27.9724C44.111 28.0742 44.248 28.1133 44.2597 28.1603C44.2832 28.2386 44.2401 28.356 44.2597 28.4421C44.2675 28.4773 44.3497 28.5008 44.3537 28.5361C44.3928 28.8022 44.3967 29.7847 44.3537 30.0391C44.3537 30.0508 44.2675 30.2661 44.2597 30.274Z" fill="#235777"/>
<path d="M40.4081 19.7526C40.3611 19.9091 40.4707 19.9209 40.5021 19.9874C40.7486 20.5158 41.281 21.0051 41.6763 21.3496C41.7663 21.4278 42.0012 21.7097 42.0521 21.7253C42.3769 21.8193 42.5766 21.1578 42.8975 21.2556C42.9406 21.2674 43.2146 21.4474 43.2263 21.4905C43.2537 21.5844 43.1794 21.694 43.3203 21.7723C43.1794 21.8506 43.2537 21.9602 43.2263 22.0541C43.2146 22.0972 42.9367 22.2772 42.8975 22.289C42.8192 22.3124 42.694 22.2655 42.6157 22.289C42.5844 22.2968 42.3417 22.5473 42.2399 22.5708C42.1656 22.5864 41.9386 22.5864 41.8642 22.5708C41.829 22.5629 41.8094 22.4925 41.7702 22.4768C41.4923 22.3672 41.1909 22.2498 40.9718 22.0541C40.9522 21.7605 40.8074 21.4083 40.549 21.2556C40.4394 21.1891 40.232 21.1382 40.0793 21.0677C39.8132 20.9464 39.5666 20.9386 39.6566 20.5511C39.6644 20.5119 39.7466 20.4923 39.7505 20.4571C39.7858 20.2262 39.6683 19.7526 39.9854 19.6586C40.1615 19.6077 40.2437 19.78 40.4081 19.7526Z" fill="#235777"/>
<path d="M46.1383 24.5437C45.9856 24.4928 45.9387 24.6298 45.9034 24.6377C45.7508 24.6651 45.5512 24.6181 45.3868 24.6377C45.4376 24.485 45.3085 24.4537 45.2928 24.4028C45.2537 24.2697 45.2537 23.9918 45.1989 23.8392C45.1597 23.7335 44.9366 23.4517 44.9171 23.3695C44.8936 23.2599 44.8897 22.524 44.9171 22.4301C44.921 22.4144 45.1167 22.2187 45.1519 22.1952C45.1715 22.1835 45.2184 22.207 45.2458 22.1952C45.285 22.1757 45.3046 22.1091 45.3398 22.1013C45.8291 21.9917 46.2361 22.1678 46.1383 22.7119C46.0169 23.3773 46.1579 23.2364 46.2322 23.7452C46.2518 23.8744 46.2557 24.1836 46.2322 24.3089C46.2244 24.3441 46.0874 24.3911 46.1383 24.5437Z" fill="#235777"/>
<path d="M25.5655 5.56774V5.89653C25.3972 5.95915 25.3933 6.20966 25.3776 6.22532C25.362 6.24097 25.2876 6.20575 25.2367 6.22532C25.1976 6.24097 25.1741 6.31143 25.1428 6.31926C24.951 6.35449 24.7709 6.29186 24.5791 6.4132C24.4069 6.52279 24.2816 6.96118 24.1094 7.07078C24.0899 7.08252 24.0468 7.05512 24.0155 7.07078C23.9763 7.09035 23.9568 7.14906 23.9215 7.16472C23.8707 7.18429 23.7924 7.14906 23.7337 7.16472C23.6945 7.17646 23.6749 7.25083 23.6397 7.25866C23.4558 7.30172 23.1661 7.2156 23.217 7.02381C23.2287 6.98075 23.3657 6.92595 23.3109 6.74199C23.2992 6.70676 23.2326 6.68719 23.217 6.64805C23.1974 6.59716 23.2326 6.5228 23.217 6.50714C23.1974 6.48757 23.0526 6.52671 22.9821 6.50714C22.9313 6.49148 22.7708 6.43668 22.7003 6.4132C22.6455 6.39363 22.622 6.26837 22.4655 6.31926C22.5164 6.16661 22.3833 6.13138 22.3715 6.08441C22.2972 5.82216 22.8138 5.82607 22.9821 5.84956C23.0174 5.85347 23.0409 5.93958 23.0761 5.9435C23.4049 5.99047 23.7258 5.84956 24.0155 5.75562C24.0664 5.73996 24.1133 5.60688 24.2973 5.66168L24.8609 6.03744C24.951 6.02178 25.0684 6.05701 25.1428 6.03744C25.3306 5.98655 25.2171 5.50902 25.5655 5.56774Z" fill="#235777"/>
<path d="M10.6288 7.44659C10.7541 7.43485 11.259 7.76755 11.2864 7.86932C11.4273 8.38599 11.0007 8.47602 10.5819 8.38599C10.5506 8.37816 10.3314 8.20594 10.3 8.19811C10.1396 8.16288 9.89688 8.23334 9.7364 8.19811C9.70509 8.19028 9.6816 8.12374 9.64246 8.10417C9.61115 8.08851 9.56809 8.11591 9.54852 8.10417C9.28627 7.93586 9.47024 7.62664 9.40761 7.39962C9.35673 7.20782 9.09448 7.29002 8.98488 7.25871C8.96922 7.25479 8.75394 7.03951 8.75003 7.02386C8.69132 6.82032 8.84006 6.68724 8.84397 6.50719C9.02402 6.50719 9.15319 6.35845 9.36064 6.41325C9.4037 6.42499 9.58375 6.7029 9.59549 6.74204C9.62681 6.85555 9.56809 7.23914 9.83034 7.16477C9.86948 7.15303 9.88905 7.07866 9.92428 7.07083C10.2413 7.00037 10.6288 7.09431 10.6288 7.44659Z" fill="#235777"/>
<path d="M20.8684 20.2226C20.8332 20.066 20.9272 20.0347 21.0094 19.9407C21.1894 19.7372 21.4751 19.6237 21.6669 19.471C22.0036 19.2049 22.0544 18.8761 22.6063 19.0013C22.6416 19.0092 22.6611 19.0757 22.7003 19.0953C22.7277 19.107 22.7747 19.0835 22.7942 19.0953C22.9899 19.2127 23.033 19.4789 23.217 19.6119C23.2013 19.7333 23.2365 19.8742 23.217 19.9877C23.2091 20.0229 23.1348 20.0425 23.123 20.0816C23.1074 20.1443 23.1426 20.2186 23.123 20.2695C23.1074 20.3048 23.0486 20.3243 23.0291 20.3635C23.0134 20.3948 23.0408 20.4378 23.0291 20.4574C22.939 20.5983 22.7942 20.5788 22.7003 20.6923C22.622 20.5514 22.5085 20.6257 22.4185 20.5983C22.3363 20.5748 22.121 20.246 22.0427 20.2226C21.9644 20.1991 21.8509 20.2382 21.7609 20.2226C21.7257 20.2147 21.6983 20.1286 21.6669 20.1286C21.6474 20.1286 21.4203 20.1952 21.2912 20.2226C21.256 20.2304 21.2364 20.3048 21.1972 20.3165C21.0798 20.3517 21.0211 20.1756 20.8684 20.2226Z" fill="#235777"/>
<path d="M32.7047 17.6861C32.6891 17.8231 32.7243 17.9797 32.7047 18.1088C32.7008 18.1441 32.6147 18.1676 32.6108 18.2028C32.5716 18.4611 32.7125 18.8251 32.7047 18.8604C32.6734 18.9778 32.4894 19.1383 32.4229 19.2361C32.4072 19.2596 32.4385 19.3105 32.4229 19.3301C32.2937 19.5023 32.1332 19.6275 31.9062 19.5649C31.6792 19.5023 31.7966 18.9504 31.7653 18.7664C31.7575 18.7312 31.6831 18.7116 31.6714 18.6725C31.6518 18.6177 31.687 18.5433 31.6714 18.4846C31.6675 18.465 31.4757 18.2732 31.4365 18.2498C31.3974 18.2263 31.1978 18.1832 31.1547 18.1558C30.9825 18.0462 30.865 17.8505 30.9198 17.6391C30.9668 17.4669 31.2565 17.5413 31.3426 17.4043H31.4365C31.4835 17.51 31.6009 17.4826 31.6244 17.4982C31.7692 17.5883 31.8162 17.8662 32.0002 17.9679C32.282 17.9405 32.4111 17.6274 32.7047 17.6861Z" fill="#235777"/>
<path d="M31.4839 26.4224L31.5779 26.6572L31.2021 27.4088C31.2569 27.4792 31.3782 27.7297 31.39 27.7845C31.4409 27.9959 31.3469 28.0468 31.296 28.1603C31.2804 28.1916 31.3078 28.2346 31.296 28.2542C31.1669 28.4578 30.7167 28.5478 30.4976 28.4891C30.3058 28.4343 30.2118 28.0663 30.2627 27.8785C30.2784 27.8197 30.4936 27.6827 30.5445 27.5966C30.5602 27.5692 30.5328 27.4557 30.6385 27.4088V27.2209C30.4467 26.9899 30.5054 26.5868 30.7794 26.4224C30.7989 26.4106 30.8459 26.4341 30.8733 26.4224C30.9125 26.4028 30.932 26.3363 30.9673 26.3284C31.1786 26.2776 31.2921 26.4106 31.4839 26.4224Z" fill="#235777"/>
<path d="M12.8835 7.63447C12.8952 7.82626 13.0283 7.93977 12.9774 8.15114C12.9696 8.18637 12.8952 8.20594 12.8835 8.24508C12.8639 8.29988 12.8991 8.37425 12.8835 8.43296C12.8678 8.48776 12.5234 8.84786 12.5077 8.90266C12.4568 9.0788 12.6564 9.20014 12.6016 9.37236C12.5155 9.64635 12.5155 9.71289 12.5077 10.0299C12.5077 10.1082 12.5508 10.3587 12.3668 10.2648C12.3316 10.2452 12.0458 9.95949 12.038 9.936C12.0223 9.87729 12.0576 9.80292 12.038 9.74812C12.0263 9.70898 11.9519 9.68941 11.9441 9.65418C11.9284 9.55633 11.9245 9.27451 11.9441 9.18448C11.9519 9.15317 12.1241 8.93397 12.1319 8.90266C12.2298 8.45253 11.901 8.3899 11.8501 8.15114C11.8345 8.08068 11.8345 7.838 11.8501 7.77538C11.8971 7.60315 12.1867 7.67752 12.2729 7.54053L12.8835 7.63447Z" fill="#235777"/>
<path d="M39.2339 16.2769C39.6957 16.1516 39.864 16.5978 40.1733 16.8405C40.2202 16.8757 40.4981 16.9893 40.549 17.0284C40.7173 17.1576 40.7682 17.3063 40.8778 17.4511V17.639C40.733 17.8739 40.686 18.0422 40.3611 17.9678C40.3416 17.9639 40.0206 17.8034 39.9854 17.7799C39.7114 17.5999 39.4452 17.2241 39.2808 16.9814C39.2378 16.9188 39.1047 16.8366 39.0929 16.7935C39.0577 16.6605 39.0812 16.316 39.2339 16.2769Z" fill="#235777"/>
<path d="M15.091 6.50718C15.4589 6.40541 15.9756 6.7068 16.2652 6.92991C16.2456 7.04342 16.2926 7.20782 16.2652 7.30567C16.2574 7.32916 15.9599 7.62663 15.9364 7.63446C15.7172 7.69317 15.635 7.56009 15.5607 7.54052C15.4315 7.5053 15.4002 7.49747 15.2788 7.44658C15.1223 7.38004 14.6095 7.22347 14.6682 7.02385C14.7543 6.91034 14.9696 6.54241 15.091 6.50718Z" fill="#235777"/>
<path d="M28.243 18.8134C28.3995 18.7703 28.9397 19.2714 29.0414 19.424C29.0571 19.4436 29.0258 19.4945 29.0414 19.518C29.1745 19.7332 29.2763 19.9642 29.4172 20.1755L29.1824 20.4104L28.6187 20.2225C28.5209 20.0816 28.3839 19.9329 28.2899 19.7998C28.2743 19.7802 28.3056 19.7254 28.2899 19.7058C28.2312 19.6197 28.0238 19.4788 28.0081 19.424C27.9376 19.1696 28.0394 18.9621 28.243 18.8134Z" fill="#235777"/>
<path d="M23.4989 29.0527V29.4284L23.1701 29.5224C23.0957 29.3776 22.9627 29.4598 22.8883 29.4284C22.7552 29.3736 22.5595 29.2132 22.4186 29.1466C22.3716 29.1231 22.2933 29.1662 22.2307 29.1466C22.0507 29.0957 21.7336 28.4303 21.808 28.2072L22.2307 28.1133L22.7943 28.6769C23.0409 28.7278 23.2366 29.0449 23.4989 29.0527Z" fill="#235777"/>
<path d="M44.4006 24.5438C44.4632 24.5242 44.6981 24.5281 44.7764 24.5438C44.8116 24.5516 44.8312 24.626 44.8703 24.6377C44.9329 24.6534 45.0073 24.6181 45.0582 24.6377C45.0934 24.6534 45.113 24.7121 45.1521 24.7317C45.1991 24.7551 45.3557 24.763 45.387 24.8726C45.4026 24.9352 45.4026 25.2796 45.387 25.3423C45.3792 25.3657 45.0817 25.6632 45.0582 25.671C44.9643 25.6984 44.8547 25.6241 44.7764 25.765C44.6276 25.6515 44.3693 25.5262 44.2597 25.3423C44.248 25.3227 44.2714 25.2757 44.2597 25.2483C44.2401 25.2092 44.1736 25.1896 44.1658 25.1544C44.1227 24.9587 44.201 24.5986 44.4006 24.5438Z" fill="#235777"/>
<path d="M26.6927 20.9739C26.5284 20.9465 26.4462 21.1188 26.27 21.0679C26.2544 21.064 26.0587 20.8683 26.0352 20.833C26.0234 20.8135 26.0469 20.7665 26.0352 20.7391C26.0156 20.6999 25.9491 20.6804 25.9412 20.6451C25.7886 19.968 26.2583 19.8623 26.8337 19.9406C27.092 19.9758 27.1272 20.242 27.0685 20.4573C27.0333 20.5825 26.6184 20.7587 26.6927 20.9739Z" fill="#235777"/>
<path d="M35.1006 31.2134C35.3941 31.1351 35.719 31.3152 35.899 31.5422C35.9695 31.7849 36.1652 32.0041 36.0869 32.2937C36.083 32.3094 35.8677 32.5247 35.8521 32.5286C35.7268 32.5677 35.6525 32.3994 35.5703 32.3407C35.5468 32.3251 35.4959 32.3564 35.4763 32.3407C35.3941 32.2781 35.2102 32.0941 35.1475 32.0119C35.1319 31.9924 35.1632 31.9415 35.1475 31.918C35.1045 31.8554 34.9714 31.7732 34.9596 31.7301C34.9244 31.597 34.9479 31.2526 35.1006 31.2134Z" fill="#235777"/>
<path d="M36.7446 24.1678L37.1204 23.5572C37.0421 23.2245 37.3709 22.8957 37.684 23.0875C37.9345 23.2402 38.0441 23.5533 37.9658 23.8391C37.9541 23.8821 37.6645 24.0661 37.6371 24.0739C37.4531 24.117 37.2182 24.0348 37.0264 24.2148L36.7446 24.1678Z" fill="#235777"/>
<path d="M20.9625 29.7103C21.0525 29.906 20.7981 30.3209 20.6337 30.3679C20.4028 30.4305 19.9879 30.3522 19.7882 30.2739L19.2716 30.5557C19.2481 30.3718 19.2676 30.2935 19.4125 30.18C19.663 29.9843 19.6434 30.223 19.7882 30.18C19.8 30.18 19.9605 30.0939 19.9761 30.086C20.2423 29.9256 20.3166 29.5263 20.7276 29.6163C20.7707 29.6242 20.8098 29.7612 20.9625 29.7103Z" fill="#235777"/>
<path d="M38.5759 6.60103C38.7755 6.54624 38.9869 6.65975 39.0926 6.83589C39.1043 6.85546 39.0808 6.90243 39.0926 6.92982C39.1121 6.96897 39.1787 6.98854 39.1865 7.02377C39.2765 7.40735 38.936 7.61872 38.5759 7.54044C38.5446 7.53261 38.2588 7.34864 38.2471 7.30559C38.2314 7.24687 38.2314 6.98854 38.2471 6.92982C38.2549 6.90634 38.5524 6.60886 38.5759 6.60103Z" fill="#235777"/>
<path d="M36.4627 17.3102C36.764 17.2514 36.9128 17.4628 36.8384 17.7329C36.8228 17.7838 36.6662 17.8699 36.6505 17.9208C36.627 17.999 36.674 18.1243 36.6505 18.2026C36.6427 18.2378 36.5762 18.2574 36.5566 18.2965C36.5409 18.3278 36.5683 18.3709 36.5566 18.3905C36.4196 18.6057 35.9538 18.5823 35.899 18.3905C35.7346 17.7877 36.4509 17.8503 36.4627 17.3102Z" fill="#235777"/>
<path d="M34.7717 28.2073C34.7717 28.2073 34.7991 28.0194 34.6777 27.9724L34.7717 27.5497L35.2883 27.3618C35.6641 27.538 35.9068 27.9529 35.4762 28.2073C35.4488 28.2229 35.3353 28.1955 35.2883 28.3012L34.7717 28.2073Z" fill="#235777"/>
<path d="M37.4958 14.2103C37.5702 14.046 37.4019 13.8972 37.4019 13.8816C37.4019 13.8502 37.4841 13.8268 37.4958 13.7876C37.5115 13.725 37.4762 13.6506 37.4958 13.5997C37.5115 13.5645 37.5702 13.5449 37.5897 13.5058C37.6093 13.4627 37.5702 13.3884 37.6837 13.3179C38.0164 13.1105 38.2082 13.4667 38.3413 13.6937V13.7876C38.2004 13.8659 38.2747 13.9755 38.2473 14.0694C38.2121 14.1869 37.9851 14.2025 37.9185 14.3043L37.4958 14.2103Z" fill="#235777"/>
<path d="M23.546 35.5347C23.9296 35.429 24.1723 35.656 24.0627 36.0513C23.9805 36.3527 23.1428 36.0122 22.9824 36.3801C22.9197 36.3097 22.8101 36.2549 22.8414 36.1453C22.8767 36.0279 23.0646 36.0122 23.0763 36.0044C23.182 35.9143 23.4873 35.5503 23.546 35.5347Z" fill="#235777"/>
<path d="M34.161 15.9012C34.251 15.8855 34.5563 15.8816 34.6307 15.9012C34.6816 15.9129 34.893 16.14 34.8656 16.23C34.8029 16.4374 34.2784 16.5901 34.0671 16.6527C33.9066 16.5157 33.7813 16.3513 33.7383 16.136L34.161 15.9012Z" fill="#235777"/>
<path d="M23.9683 22.571C23.9174 22.7236 24.0544 22.7628 24.0623 22.8058C24.1405 23.1542 23.8352 23.53 23.4516 23.5104L23.2168 23.1816C23.3107 22.8293 23.573 22.4888 23.9683 22.571Z" fill="#235777"/>
<path d="M19.1776 27.6436C19.2285 27.491 19.0993 27.4597 19.0837 27.4088C19.0328 27.2326 19.205 27.1504 19.1776 26.986C19.3577 26.986 19.4908 26.8334 19.6943 26.8921C19.8861 26.9469 19.98 27.3148 19.9291 27.5027C19.8978 27.6201 19.6669 27.6358 19.6004 27.7376L19.1776 27.6436Z" fill="#235777"/>
<path d="M26.129 7.72848C26.0781 7.88113 26.2151 7.92027 26.2229 7.96333C26.2699 8.16686 26.1329 8.56611 25.8941 8.57394C25.6906 8.48 25.3853 8.51522 25.3774 8.24515C25.4792 7.83024 25.6945 7.65802 26.129 7.72848Z" fill="#235777"/>
<path d="M6.07274 19.8468C6.16668 19.8194 6.31151 19.8389 6.40153 19.8937C6.58941 20.0073 6.74206 20.2382 6.68335 20.4574C6.67944 20.473 6.46416 20.6883 6.4485 20.6922C6.20974 20.7627 5.92792 20.473 5.83789 20.2695V20.1756C5.93966 20.109 5.95532 19.8781 6.07274 19.8468Z" fill="#235777"/>
<path d="M3.20786 14.3982C3.12958 13.7289 3.43488 13.2318 4.05332 13.7876C3.8537 14.089 3.63059 14.4843 3.20786 14.3982Z" fill="#235777"/>
<path d="M2.40917 25.8587C2.50311 25.8313 2.64793 25.8509 2.73796 25.9057C2.78101 25.9331 3.01586 26.1679 3.01978 26.1875C3.12937 26.5789 2.82798 26.6533 2.50311 26.6103C2.28 26.5789 2.22911 26.3715 2.17432 26.1875C2.27608 26.121 2.29174 25.89 2.40917 25.8587Z" fill="#235777"/>
<path d="M8.93836 29.0529C8.84442 28.5401 9.20453 28.5244 9.64291 28.5832C9.99127 28.6301 9.92082 29.0998 9.73685 29.1468C9.65074 29.1703 9.27498 29.1664 9.17321 29.1468C9.13798 29.139 9.0871 29.002 8.93836 29.0529Z" fill="#235777"/>
<path d="M30.6854 19.4708C30.838 19.4239 31.1707 19.69 31.202 19.7996C31.3351 20.2419 30.4779 20.3946 30.3566 19.9875C30.3096 19.8349 30.5758 19.5021 30.6854 19.4708Z" fill="#235777"/>
<path d="M19.4126 1.05861C19.7296 0.972498 19.7923 1.16821 19.9293 1.3874C19.9136 1.64574 19.5183 2.12718 19.3186 1.81013C19.2404 1.68488 19.3147 1.56745 19.1777 1.48134V1.3874C19.2795 1.32086 19.2952 1.08992 19.4126 1.05861Z" fill="#235777"/>
<path d="M34.5371 22.2891L34.8189 22.4769C35.0225 22.8057 34.6545 23.0719 34.3492 23.1345C33.9148 22.7979 34.1027 22.5083 34.5371 22.2891Z" fill="#235777"/>
<path d="M35.9459 15.4313C36.3725 15.3022 36.3647 16.1163 36.1337 16.1829C35.7462 16.2925 35.4331 16.0263 35.711 15.6662C35.7462 15.6192 35.9224 15.4392 35.9459 15.4313Z" fill="#235777"/>
<path d="M24.6261 26.7983V27.1741C24.3208 27.1702 23.6554 27.2485 23.4988 26.9392C23.4049 26.7553 23.6554 26.7983 23.7337 26.7983C24.0311 26.7944 24.3286 26.8022 24.6261 26.7983Z" fill="#235777"/>
<path d="M26.5988 37.3195C26.7006 37.3351 26.8415 37.296 26.9276 37.3195C26.9707 37.3312 27.1547 37.617 27.1625 37.6483C27.2095 37.8596 27.0881 38.1101 26.9276 38.2589C26.6928 37.9927 26.5519 37.6718 26.5988 37.3195Z" fill="#235777"/>
<path d="M28.7594 23.5104C28.5754 23.5143 28.4501 23.6592 28.2427 23.6044C27.9922 23.5378 28.1644 23.2051 28.1957 23.0407L28.6184 22.9468L28.8533 23.1816L28.7594 23.5104Z" fill="#235777"/>
<path d="M37.6371 36.1922C37.7037 36.1726 38.0403 36.1726 38.1068 36.1922C38.2908 36.2391 38.3612 36.7049 38.0129 36.7558C37.4962 36.8302 37.3514 36.2665 37.6371 36.1922Z" fill="#235777"/>
<path d="M8.56226 11.7678C8.33915 12.218 7.90468 12.7972 7.7168 12.0027L7.81074 11.7678H8.56226Z" fill="#235777"/>
<path d="M13.823 4.81616C13.8113 5.18409 13.9522 5.63031 13.4473 5.56768C13.4982 5.41503 13.3612 5.37589 13.3533 5.33283C13.3025 5.10973 13.4434 5.00013 13.4473 4.81616H13.823Z" fill="#235777"/>
<path d="M37.1203 25.5769L37.2142 25.9057L36.9794 26.1405L36.5566 26.0466L36.6506 25.5769H37.1203Z" fill="#235777"/>
<path d="M5.18061 14.68C5.21976 14.7191 5.5642 14.68 5.46243 15.0557C5.32152 15.0244 5.24324 14.8483 5.13364 14.7739C5.0945 14.7465 4.89488 14.7074 4.85182 14.68C4.64046 14.5469 4.58175 14.3629 4.61697 14.1163C4.69917 14.0263 5.13364 14.4568 5.18061 14.539C5.2041 14.5821 5.16496 14.6643 5.18061 14.68Z" fill="#235777"/>
<path d="M17.4865 40.6074C17.7292 40.5722 18.1519 40.5918 18.0502 40.9362C18.0188 41.038 17.7723 41.2141 17.6274 41.1711C17.5061 41.1358 17.4983 40.9127 17.3926 40.8423L17.4865 40.6074Z" fill="#235777"/>
<path d="M13.7292 18.5314C13.7644 18.778 13.7488 19.1929 13.4004 19.0951C13.1342 19.0207 13.2634 18.5354 13.4943 18.4375L13.7292 18.5314Z" fill="#235777"/>
<path d="M32.2354 15.7134C32.2472 15.9013 32.3763 16.0148 32.3294 16.23C32.3215 16.2731 32.1846 16.3162 32.2354 16.4179L31.9536 16.4649V15.9482L32.2354 15.7134Z" fill="#235777"/>
<path d="M33.5505 18.8132C33.664 19.1812 33.0808 19.4708 32.9868 19.142C32.889 18.7976 33.3039 18.778 33.5505 18.8132Z" fill="#235777"/>
<path d="M10.3473 19.4709C10.2259 19.4983 10.0067 19.4553 9.97151 19.33C9.84626 18.8721 10.3668 18.786 10.4412 19.0482C10.4921 19.2283 10.3199 19.3065 10.3473 19.4709Z" fill="#235777"/>
<path d="M29.7926 16.5588C29.9531 17.1694 29.2016 17.1381 29.3229 16.6997C29.3699 16.5353 29.6556 16.5471 29.7926 16.5588Z" fill="#235777"/>
<path d="M43.6021 23.3225C43.8526 23.2912 44.2596 23.299 44.1657 23.6513C44.1148 23.847 43.9504 23.7218 43.8369 23.6983L43.6021 23.3225Z" fill="#235777"/>
<path d="M31.8593 6.69503H31.4836C31.5345 6.55412 31.3896 6.47975 31.3896 6.46018C31.3896 6.44061 31.5345 6.36624 31.4836 6.22533C31.8437 6.17836 31.8946 6.37798 31.8593 6.69503Z" fill="#235777"/>
<path d="M26.5991 10.2647V9.88894C27.2254 9.81849 27.2254 10.3352 26.5991 10.2647Z" fill="#235777"/>
<path d="M33.2685 39.9498C32.7675 40.0712 32.834 39.3979 33.1276 39.4801C33.2841 39.5232 33.2841 39.7972 33.2685 39.9498Z" fill="#235777"/>
<path d="M30.7321 22.1011C30.8808 22.6725 30.2741 22.6334 30.3563 22.3359C30.3681 22.289 30.5012 22.2537 30.4503 22.1011H30.7321Z" fill="#235777"/>
<path d="M19.929 15.5254C19.5728 15.5489 19.3458 14.9226 19.7881 15.0557C19.9486 15.1027 19.9407 15.3727 19.929 15.5254Z" fill="#235777"/>
<path d="M13.3533 20.1284H12.9775V20.5042H13.3533V20.1284Z" fill="#235777"/>
<path d="M3.06691 31.4014C3.29002 31.5853 3.43092 31.7576 3.16085 31.965C2.93774 31.781 2.79683 31.6088 3.06691 31.4014Z" fill="#235777"/>
<path d="M7.34082 10.8285C7.19991 10.7776 7.12554 10.9224 7.10597 10.9224C7.0864 10.9224 7.01203 10.7776 6.87112 10.8285C6.8672 10.441 7.34473 10.441 7.34082 10.8285Z" fill="#235777"/>
<path d="M4.05344 22.8528C4.04561 22.6531 4.0143 22.5005 4.19435 22.3831C4.44877 22.567 4.35875 22.8645 4.05344 22.8528Z" fill="#235777"/>
<path d="M10.9109 27.1741C10.9109 27.5459 10.5391 27.5459 10.5352 27.1741H10.9109Z" fill="#235777"/>
<path d="M29.1351 12.895V13.1768H28.8533C28.8259 12.9968 28.955 12.8676 29.1351 12.895Z" fill="#235777"/>
<path d="M20.4928 7.35254C20.5202 7.53259 20.391 7.66176 20.2109 7.63436V7.35254H20.4928Z" fill="#235777"/>
<path d="M23.7669 42.6386C34.4781 42.6386 43.1613 33.9554 43.1613 23.2442C43.1613 12.533 34.4781 3.84985 23.7669 3.84985C13.0557 3.84985 4.37256 12.533 4.37256 23.2442C4.37256 33.9554 13.0557 42.6386 23.7669 42.6386Z" stroke="white" stroke-width="1.17425" stroke-miterlimit="10"/>
<path d="M25.3847 40.0892C25.3367 39.7126 25.6033 39.3672 25.98 39.3192C26.3566 39.2711 26.7019 39.5378 26.75 39.9144C26.798 40.291 26.5322 40.6363 26.1555 40.6835L26.1396 40.6852C25.7688 40.7241 25.433 40.4598 25.3856 40.0891L25.3847 40.0892ZM22.9855 40.8043C22.6059 40.7841 22.3147 40.4609 22.334 40.0815C22.3534 39.702 22.6773 39.4099 23.0568 39.4301C23.4363 39.4494 23.7275 39.7725 23.7082 40.152C23.69 40.4949 23.4249 40.7665 23.0943 40.8013C23.0592 40.805 23.0237 40.8053 22.9863 40.8042L22.9855 40.8043ZM28.3893 39.5534C28.2751 39.1913 28.4755 38.8038 28.8384 38.6895C29.2004 38.5753 29.5879 38.7758 29.7022 39.1387C29.8165 39.5007 29.6159 39.8873 29.2531 40.0025C29.2081 40.0165 29.1625 40.0256 29.1173 40.0303C28.7992 40.0637 28.4911 39.8702 28.3901 39.5533L28.3893 39.5534ZM19.8448 40.3592C19.4751 40.272 19.2458 39.9017 19.3322 39.5321C19.4194 39.1616 19.7896 38.9323 20.1601 39.0194C20.5298 39.1067 20.7591 39.4769 20.6719 39.8466C20.6037 40.1398 20.3569 40.3443 20.074 40.374C19.9995 40.3819 19.922 40.3773 19.8449 40.36L19.8448 40.3592ZM31.2506 38.4919C31.073 38.1551 31.2012 37.7397 31.5378 37.5613C31.8738 37.3838 32.29 37.5118 32.4676 37.8486C32.6451 38.1845 32.517 38.6008 32.1803 38.7783C32.1009 38.8205 32.0155 38.8456 31.9318 38.8544C31.6607 38.8829 31.3866 38.7475 31.2514 38.4918L31.2506 38.4919ZM16.8343 39.3572C16.4867 39.2058 16.3273 38.8003 16.4794 38.4517C16.6315 38.104 17.0363 37.9455 17.3848 38.0968C17.7325 38.2489 17.8919 38.6545 17.7397 39.0022C17.6367 39.2373 17.4188 39.3863 17.181 39.4113C17.0664 39.4233 16.947 39.4062 16.8343 39.3572ZM33.8752 36.9339C33.6399 36.6354 33.6917 36.2026 33.9894 35.9674C34.288 35.732 34.7208 35.7839 34.9561 36.0824C35.1906 36.381 35.1387 36.813 34.841 37.0482C34.7355 37.1312 34.6127 37.1788 34.488 37.192C34.2603 37.2159 34.0266 37.1262 33.8752 36.9339ZM14.0541 37.8325C13.739 37.6202 13.6551 37.1923 13.8665 36.8773C14.0779 36.5614 14.5058 36.4784 14.8208 36.689C15.1367 36.9012 15.2198 37.3291 15.0092 37.6441C14.8905 37.8199 14.7052 37.924 14.5093 37.9446C14.3545 37.9608 14.1932 37.9245 14.054 37.8316L14.0541 37.8325ZM36.1762 34.9294C35.8926 34.6782 35.8654 34.2427 36.1174 33.959C36.3693 33.6744 36.804 33.6482 37.0886 33.9001C37.3731 34.1511 37.3994 34.5867 37.1474 34.8704C37.0287 35.0048 36.8691 35.0808 36.7042 35.0981C36.5193 35.1176 36.3273 35.0624 36.1762 34.9294ZM11.5885 35.8389C11.3153 35.5748 11.3084 35.1389 11.5725 34.8657C11.8366 34.5925 12.2725 34.5857 12.5457 34.8497C12.8189 35.1138 12.8257 35.5498 12.5617 35.8229C12.4449 35.9435 12.2939 36.0127 12.139 36.029C11.944 36.0495 11.741 35.9862 11.5885 35.8389ZM38.0857 32.5496C37.7611 32.3518 37.6582 31.9285 37.8568 31.6038C38.0537 31.2793 38.4779 31.1764 38.8016 31.3742C39.1261 31.5711 39.2291 31.9953 39.0313 32.319C38.9142 32.5099 38.7206 32.6242 38.5147 32.6458C38.3699 32.661 38.2195 32.6311 38.0857 32.5496ZM9.51478 33.436C9.29364 33.1275 9.36442 32.6978 9.6729 32.4767C9.98223 32.2555 10.4119 32.3262 10.6331 32.6347C10.8542 32.9432 10.7835 33.3738 10.475 33.5941C10.3742 33.6664 10.2609 33.7071 10.1462 33.7192C9.90851 33.7442 9.66448 33.6446 9.51478 33.436ZM39.5413 29.8688C39.1868 29.7326 39.0095 29.3341 39.1457 28.9795C39.2819 28.625 39.6805 28.4478 40.0342 28.5841C40.3887 28.7203 40.5659 29.118 40.4298 29.4734C40.3341 29.7229 40.1082 29.8846 39.8588 29.9108C39.755 29.9217 39.6454 29.9095 39.5405 29.8689L39.5413 29.8688ZM7.90714 30.7007C7.74495 30.3572 7.89144 29.9475 8.2349 29.7853C8.57826 29.6223 8.98894 29.7695 9.15113 30.113C9.31332 30.4564 9.16682 30.8662 8.82262 31.0293C8.75085 31.0631 8.67592 31.0828 8.60059 31.0907C8.31768 31.1204 8.03463 30.9716 7.90705 30.6998L7.90714 30.7007ZM40.4924 26.9695C40.1195 26.8995 39.8734 26.5395 39.9434 26.1666C40.0142 25.7935 40.3734 25.5476 40.7463 25.6176C41.1201 25.6875 41.3653 26.0476 41.2962 26.4204C41.2386 26.726 40.9867 26.9463 40.6921 26.9773C40.6268 26.9841 40.5605 26.9818 40.4923 26.9687L40.4924 26.9695ZM6.81472 27.7225C6.71606 27.3554 6.93365 26.978 7.30079 26.8801C7.66785 26.7815 8.04529 26.9991 8.14312 27.3662C8.24095 27.7334 8.02336 28.1108 7.65621 28.2086C7.62 28.2184 7.5852 28.2254 7.55004 28.2291C7.21943 28.2638 6.90282 28.0534 6.81472 27.7225ZM40.9084 23.947C40.5282 23.9446 40.2222 23.6341 40.2254 23.2538C40.2278 22.8735 40.5376 22.5685 40.9178 22.5708C41.298 22.5732 41.604 22.8838 41.6008 23.2641C41.5991 23.618 41.3291 23.9078 40.9859 23.9439C40.9608 23.9465 40.9347 23.9476 40.9085 23.9478L40.9084 23.947ZM7.01348 25.2255C6.6352 25.2576 6.30265 24.9761 6.27126 24.5968C6.23912 24.2186 6.52066 23.886 6.89986 23.8546C7.27823 23.8233 7.61069 24.104 7.64209 24.4832C7.67295 24.8574 7.40026 25.1856 7.02947 25.2246C7.02445 25.2251 7.01859 25.2258 7.0144 25.2262L7.01348 25.2255ZM39.9841 20.3376C39.9194 19.9636 40.1705 19.6071 40.5445 19.5424C40.9184 19.4769 41.2748 19.728 41.3395 20.102C41.4042 20.476 41.1531 20.8325 40.7791 20.8972C40.7642 20.9004 40.7483 20.9021 40.7333 20.9037C40.3759 20.9412 40.0463 20.6958 39.9841 20.3376ZM6.91048 22.1762C6.53261 22.1398 6.25531 21.8042 6.29167 21.4255C6.32811 21.0476 6.6637 20.7703 7.04241 20.8067C7.42028 20.8431 7.69758 21.1787 7.66206 21.5573C7.63007 21.8891 7.36814 22.1425 7.05008 22.176C7.00488 22.1807 6.95841 22.1814 6.91141 22.177L6.91048 22.1762ZM39.2291 17.5109C39.0985 17.154 39.2813 16.759 39.6391 16.6283C39.996 16.4977 40.391 16.6813 40.5216 17.0382C40.6522 17.3952 40.4686 17.7902 40.1117 17.9208C40.057 17.9401 40.0017 17.9535 39.9465 17.9593C39.6402 17.9915 39.3397 17.8141 39.2292 17.5117L39.2291 17.5109ZM7.35055 19.1571C6.98515 19.0542 6.77253 18.6737 6.8762 18.3074C6.97912 17.942 7.35958 17.7294 7.7259 17.8331C8.0913 17.936 8.30392 18.3165 8.20025 18.6828C8.12127 18.9619 7.88221 19.1512 7.61019 19.1798C7.52565 19.1887 7.43861 19.1817 7.35139 19.157L7.35055 19.1571ZM37.9812 14.8647C37.7894 14.537 37.8983 14.116 38.2267 13.9232C38.5542 13.7306 38.9754 13.8403 39.168 14.1679C39.3607 14.4954 39.251 14.9165 38.9234 15.1092C38.8357 15.1607 38.7416 15.191 38.647 15.2009C38.3867 15.2283 38.1225 15.1054 37.9812 14.8647ZM8.32539 16.2663C7.98454 16.099 7.84386 15.6864 8.01122 15.3464C8.17934 15.0055 8.59098 14.8641 8.93191 15.0322C9.27276 15.1994 9.41419 15.6111 9.24608 15.952C9.13807 16.1724 8.9274 16.3096 8.69973 16.3336C8.57586 16.3466 8.44586 16.3256 8.32539 16.2663ZM36.2783 12.4871C36.0297 12.1993 36.0628 11.7651 36.3498 11.5166C36.6376 11.268 37.0718 11.3011 37.3195 11.5882C37.5681 11.876 37.5359 12.3101 37.248 12.5587C37.1378 12.6532 37.0063 12.7068 36.8716 12.721C36.6548 12.7438 36.4314 12.6632 36.2782 12.4863L36.2783 12.4871ZM9.80424 13.5975C9.49877 13.3723 9.43395 12.9408 9.6591 12.6353C9.88435 12.3307 10.3158 12.265 10.6213 12.4902C10.9268 12.7162 10.9916 13.1469 10.7664 13.4524C10.6463 13.6139 10.4701 13.7086 10.2843 13.7281C10.1194 13.7455 9.94823 13.7034 9.80424 13.5975ZM34.1753 10.4495C34.1753 10.4495 34.1707 10.4458 34.168 10.4444C34.168 10.4444 34.1634 10.4406 34.1624 10.4391C33.8665 10.2002 33.8202 9.76756 34.0608 9.47232C34.2996 9.17641 34.7323 9.13009 35.0273 9.36903C35.0273 9.36903 35.032 9.37278 35.0347 9.37503C35.0347 9.37503 35.0394 9.37877 35.0421 9.38102C35.3372 9.61996 35.3827 10.0527 35.1437 10.3478C35.0239 10.4958 34.8552 10.5812 34.6802 10.5996C34.5053 10.618 34.3225 10.5695 34.1753 10.4495ZM11.7339 11.2325C11.4731 10.957 11.4849 10.5216 11.7612 10.2607C12.0376 9.99977 12.473 10.0116 12.7339 10.2879C12.9948 10.5643 12.983 10.9997 12.7067 11.2606C12.5928 11.369 12.4519 11.4295 12.3063 11.4448C12.1012 11.4664 11.8872 11.395 11.7347 11.2324L11.7339 11.2325ZM31.7324 8.80901C31.3993 8.62654 31.2774 8.20776 31.46 7.87546C31.6425 7.54233 32.0611 7.41962 32.3935 7.60302C32.7267 7.78549 32.8484 8.20343 32.666 8.53656C32.553 8.74223 32.3512 8.86668 32.1344 8.88947C31.9996 8.90363 31.8599 8.87855 31.7324 8.80901ZM14.0521 9.24728C13.8453 8.92968 13.9349 8.50221 14.2534 8.29526C14.5718 8.08831 14.9985 8.17886 15.2054 8.49646C15.4123 8.8149 15.3218 9.24162 15.0042 9.44848C14.9099 9.51001 14.8062 9.54545 14.7016 9.55645C14.453 9.58258 14.1984 9.4714 14.053 9.24719L14.0521 9.24728ZM29.0515 7.64117C28.6911 7.52164 28.4953 7.1318 28.6155 6.7705C28.7351 6.41013 29.1242 6.21522 29.4854 6.33466C29.8457 6.45418 30.0407 6.84412 29.9212 7.20449C29.834 7.46922 29.601 7.64434 29.3399 7.67179C29.2453 7.68173 29.1478 7.67167 29.0514 7.64033L29.0515 7.64117ZM16.6894 7.71257C16.5426 7.36242 16.7075 6.9592 17.0585 6.8123C17.4087 6.66548 17.8119 6.83043 17.9588 7.18142C18.1057 7.5324 17.9406 7.93479 17.5897 8.08169C17.5265 8.10864 17.4613 8.1248 17.396 8.13166C17.1023 8.16254 16.8092 7.99954 16.6894 7.71257ZM26.204 6.97404C25.8269 6.92059 25.5652 6.5732 25.6187 6.19608C25.6714 5.81988 26.0196 5.55818 26.3958 5.61088C26.7721 5.66442 27.0338 6.01265 26.9811 6.38884C26.9359 6.70755 26.679 6.94442 26.3727 6.97662C26.3174 6.98243 26.2606 6.98162 26.2031 6.97329L26.204 6.97404ZM19.5591 6.67472C19.4769 6.30339 19.7117 5.93683 20.0822 5.85473C20.4535 5.77254 20.8209 6.00726 20.9022 6.37784C20.9844 6.74917 20.7497 7.11657 20.3792 7.19867C20.3535 7.20391 20.3277 7.20831 20.3018 7.21104C19.9578 7.24719 19.6352 7.02045 19.5591 6.67472ZM23.2823 6.82499C22.903 6.83947 22.5824 6.54313 22.568 6.16384C22.5535 5.78455 22.8499 5.46482 23.2292 5.45034C23.6085 5.43586 23.9281 5.73146 23.9426 6.11075C23.9572 6.4748 23.6851 6.78435 23.3277 6.82192C23.3126 6.8235 23.2975 6.82508 23.2815 6.82508L23.2823 6.82499Z" fill="white"/>
<path d="M23.997 26.7773C23.997 26.6498 23.8939 26.5464 23.7666 26.5464C23.6393 26.5464 23.5361 26.6498 23.5361 26.7773V28.2124C23.5361 28.34 23.6393 28.4433 23.7666 28.4433C23.8939 28.4433 23.997 28.34 23.997 28.2124V26.7773Z" fill="white"/>
<g clip-path="url(#clip0_299_10209)">
<path d="M15.436 24.5688L30.8782 22.9458L31.8116 31.827C31.8792 32.4695 31.4114 33.0458 30.7675 33.1135L17.6583 34.4913C17.0144 34.559 16.437 34.0925 16.3695 33.45L15.436 24.5688Z" fill="#0A486E" stroke="white" stroke-width="0.647307" stroke-miterlimit="10"/>
<path d="M24.8857 23.5758L21.4282 23.9392L22.484 33.9843L25.9415 33.6209L24.8857 23.5758Z" fill="white" stroke="white" stroke-width="0.647307" stroke-miterlimit="10"/>
<path d="M20.7058 20.5378C20.511 20.5582 20.3288 20.5586 20.1733 20.5543C19.1888 20.5289 18.1546 20.317 17.1834 19.9419C15.219 19.1834 14.2871 17.9022 14.7509 16.5978C15.1702 15.4193 16.4992 14.936 18.494 15.2371C19.6636 15.4136 20.6976 15.9151 21.4062 16.6479C21.8707 17.1292 22.3524 17.9753 22.3804 18.7808C22.4091 19.5868 21.9819 20.1901 21.2092 20.4348C21.0386 20.4893 20.8679 20.5201 20.7057 20.5372L20.7058 20.5378ZM17.0029 16.457C16.9265 16.465 16.8533 16.4757 16.7833 16.4883C16.1835 16.6002 16.0299 16.8494 15.9667 17.0278C15.6435 17.9367 17.4427 18.6613 17.6493 18.7414C18.4723 19.0591 19.3812 19.246 20.2073 19.2675C20.3906 19.2723 20.6262 19.2699 20.8191 19.2085C21.0359 19.1398 21.0991 19.0508 21.0915 18.8268C21.0766 18.4047 20.7674 17.8418 20.477 17.5416C19.9642 17.0107 19.1915 16.6447 18.3005 16.5101C17.8128 16.4366 17.3698 16.4185 17.0029 16.457Z" fill="white"/>
<path d="M22.838 19.8211C22.2646 19.8813 21.7454 19.6429 21.3697 19.1317C20.8921 18.4817 20.745 17.5193 20.8107 16.8545C20.9118 15.8407 21.4124 14.8079 22.221 13.9456C23.5997 12.4751 24.943 12.0321 26.0037 12.6978C27.1773 13.4347 27.2411 15.0172 26.17 16.8273C25.6402 17.7232 24.9601 18.5289 24.2029 19.1575C23.9844 19.3393 23.6857 19.5661 23.3158 19.705C23.1536 19.7661 22.9937 19.8047 22.838 19.8211ZM22.4106 18.3697C22.5434 18.55 22.6486 18.5807 22.8613 18.5006C23.0508 18.4295 23.2368 18.2858 23.3778 18.1687C24.0128 17.6406 24.6101 16.9324 25.0592 16.1732C25.1719 15.9831 26.1344 14.301 25.3168 13.7873C25.1565 13.6871 24.8816 13.586 24.3412 13.8693C23.9784 14.0592 23.5715 14.3897 23.1637 14.8244C22.5481 15.481 22.1686 16.247 22.0954 16.9808C22.0542 17.3964 22.1608 18.0294 22.4106 18.3697Z" fill="white"/>
<path d="M15.342 20.2354L27.7954 15.9202C28.4071 15.7082 29.0757 16.0315 29.2879 16.6417L30.0211 18.7511L15.3515 23.8344L14.6182 21.7249C14.4061 21.1147 14.7303 20.4474 15.342 20.2354Z" fill="#0A486E"/>
<path d="M28.9818 16.7475C28.8285 16.3067 28.3446 16.0721 27.9013 16.2257L15.448 20.5409C15.0047 20.6945 14.7704 21.178 14.9236 21.6189L15.5506 23.4226L29.6088 18.5513L28.9818 16.7475ZM30.4331 18.9509L15.1519 24.246L14.3123 21.8307C14.0413 21.0511 14.4556 20.2001 15.2356 19.9298L27.6888 15.6146C28.4688 15.3443 29.3224 15.756 29.5935 16.5356L30.4331 18.9509Z" fill="white"/>
<path d="M23.2108 17.5086L19.9263 18.6467L21.0438 21.8617L24.3284 20.7236L23.2108 17.5086Z" fill="white" stroke="white" stroke-width="0.647307" stroke-miterlimit="10"/>
<path d="M31.4234 20.1861L31.6144 19.1129C31.6917 18.6798 32.2875 18.6172 32.4532 19.0247L32.8631 20.0348L33.9386 20.2248C34.3726 20.3018 34.435 20.8963 34.0266 21.0618L33.0141 21.4713L32.8231 22.5445C32.7458 22.9776 32.15 23.0402 31.9843 22.6327L31.5744 21.6226L30.4989 21.4326C30.0649 21.3556 30.0025 20.7611 30.4109 20.5956L31.4234 20.1861Z" fill="white"/>
</g>
<defs>
<clipPath id="clip0_299_10209">
<rect width="22.0084" height="22.0084" fill="white" transform="translate(11.7964 13.3567) rotate(-6)"/>
</clipPath>
</defs>
</svg>
