<svg width="81" height="33" viewBox="0 0 81 33" fill="none" xmlns="http://www.w3.org/2000/svg">
<mask id="mask0_54_10054" style="mask-type:alpha" maskUnits="userSpaceOnUse" x="0" y="0" width="81" height="33">
<path d="M19.0422 32.2751H16.8806C14.6748 32.2751 13.4722 31.5101 12.0853 29.5212C6.81049 21.8784 2.39883 11.1687 0.716797 0.723267H5.7998C8.92042 0.723267 10.7426 2.84434 11.1262 4.70115C11.9378 8.72772 14.151 15.4595 16.6888 20.571C19.3741 15.4178 22.1111 7.00999 23.1661 0.723267H27.7696C30.027 0.723267 31.8419 2.07936 31.8419 4.29084C31.8419 5.46613 31.0304 7.77497 29.8278 11.2104C27.6737 17.3581 22.3472 28.2555 19.0348 32.2751H19.0422Z" fill="#1BCA76"/>
<path d="M38.946 31.9135C36.8803 31.9135 34.7261 30.2375 34.7261 27.0733V0.723267H39.8091C41.587 0.723267 43.8371 2.2115 43.8371 4.74983V31.9205H38.946V31.9135Z" fill="#1BCA76"/>
<path d="M63.83 32.6367C54.8149 32.6367 47.9097 26.4891 47.9097 16.7252C47.9097 6.9613 54.1952 0 64.8407 0C72.9484 0 80.7168 5.69561 80.7168 15.8698C80.7168 26.044 74.5788 32.6437 63.8374 32.6437L63.83 32.6367ZM63.9259 6.9613C59.4184 6.9613 57.0207 10.6193 57.0207 15.8629C57.0207 22.4625 59.7061 25.6268 64.6932 25.6268C68.8171 25.6268 71.5984 22.3721 71.5984 16.6278C71.5984 9.79867 69.0089 6.95434 63.9259 6.95434V6.9613Z" fill="#1BCA76"/>
</mask>
<g mask="url(#mask0_54_10054)">
<path d="M7.17382 19.1095C-4.40936 19.1094 -7.89345 12.1629 -7.89345 12.1629V44.7251H86.6659L87.3532 24.3523C77.4042 24.3523 76.5568 11.8669 65.1111 5.40979C47.9014 -4.29906 27.6223 19.1097 7.17382 19.1095Z" fill="#7961FE"/>
<path d="M7.89145 15.051C-3.65423 14.173 -14.3507 -5.71151 -14.3507 -5.71151V-12.8551H87.7121L84.5135 22.1577C78.3847 27.3973 69.7972 10.9931 57.9363 5.24158C39.1022 -3.89133 28.8056 16.6415 7.89145 15.051Z" fill="#7961FE"/>
</g>
</svg>
