<svg width="101" height="101" viewBox="0 0 101 101" fill="none" xmlns="http://www.w3.org/2000/svg">
<g filter="url(#filter0_d_8_30829)">
<path d="M55.1258 90.7429C77.0962 88.4337 93.0347 68.7513 90.7256 46.7809C88.4164 24.8105 68.7339 8.87199 46.7635 11.1812C24.7932 13.4903 8.85463 33.1728 11.1638 55.1432C13.473 77.1136 33.1554 93.0521 55.1258 90.7429Z" fill="url(#paint0_radial_8_30829)"/>
<path d="M53.719 82.4101C53.6298 81.7109 54.1249 81.0697 54.824 80.9805C55.5232 80.8913 56.1644 81.3863 56.2536 82.0855C56.3428 82.7847 55.8493 83.4258 55.15 83.5134L55.1204 83.5165C54.4321 83.5889 53.8086 83.0982 53.7205 82.4099L53.719 82.4101ZM49.2646 83.7376C48.56 83.7001 48.0193 83.1002 48.0552 82.3958C48.0912 81.6913 48.6924 81.1489 49.3971 81.1864C50.1016 81.2223 50.6423 81.8222 50.6063 82.5267C50.5727 83.1634 50.0805 83.6676 49.4667 83.7321C49.4014 83.739 49.3355 83.7396 49.2662 83.7375L49.2646 83.7376ZM59.2971 81.4153C59.0851 80.7431 59.4572 80.0237 60.1309 79.8115C60.8031 79.5995 61.5225 79.9716 61.7347 80.6453C61.9467 81.3175 61.5744 82.0353 60.9009 82.2491C60.8172 82.2752 60.7326 82.2919 60.6486 82.3007C60.0582 82.3628 59.4862 82.0034 59.2987 81.4151L59.2971 81.4153ZM43.4338 82.9113C42.7475 82.7494 42.3217 82.062 42.4821 81.3758C42.6439 80.688 43.3313 80.2622 44.0192 80.424C44.7055 80.586 45.1313 81.2734 44.9693 81.9597C44.8427 82.504 44.3846 82.8837 43.8593 82.9389C43.721 82.9534 43.5772 82.945 43.434 82.9129L43.4338 82.9113ZM64.6093 79.4445C64.2796 78.8193 64.5175 78.048 65.1426 77.7168C65.7662 77.3873 66.5391 77.625 66.8687 78.2502C67.1982 78.8739 66.9605 79.6467 66.3353 79.9764C66.188 80.0547 66.0295 80.1012 65.8741 80.1176C65.3706 80.1705 64.8619 79.9192 64.6108 79.4444L64.6093 79.4445ZM37.8447 81.051C37.1993 80.77 36.9033 80.0172 37.1857 79.37C37.4682 78.7245 38.2196 78.4303 38.8666 78.711C39.5122 78.9935 39.8081 79.7464 39.5256 80.392C39.3342 80.8284 38.9297 81.1051 38.4884 81.1514C38.2755 81.1738 38.0538 81.1421 37.8447 81.051ZM69.4821 76.5521C69.0452 75.9979 69.1414 75.1944 69.6941 74.7577C70.2484 74.3208 71.0519 74.417 71.4888 74.9712C71.9241 75.5256 71.8277 76.3276 71.275 76.7643C71.0791 76.9185 70.8512 77.0068 70.6196 77.0312C70.197 77.0756 69.7631 76.9091 69.4821 76.5521ZM32.683 78.2203C32.098 77.8262 31.9422 77.0319 32.3348 76.447C32.7272 75.8606 33.5217 75.7064 34.1064 76.0974C34.693 76.4914 34.8472 77.2859 34.4562 77.8706C34.2359 78.1969 33.8918 78.3902 33.5281 78.4285C33.2407 78.4587 32.9413 78.3911 32.6828 78.2188L32.683 78.2203ZM73.754 72.8305C73.2274 72.3643 73.1769 71.5558 73.6447 71.029C74.1124 70.5006 74.9195 70.4519 75.4479 70.9196C75.9761 71.3857 76.0249 72.1944 75.5571 72.7211C75.3367 72.9706 75.0404 73.1117 74.7343 73.1439C74.3909 73.1799 74.0345 73.0776 73.754 72.8305ZM28.1054 74.5192C27.5983 74.0289 27.5855 73.2195 28.0758 72.7124C28.5661 72.2052 29.3754 72.1924 29.8826 72.6827C30.3897 73.173 30.4025 73.9824 29.9122 74.4895C29.6954 74.7134 29.4151 74.8419 29.1276 74.8721C28.7655 74.9101 28.3887 74.7926 28.1054 74.5192ZM77.2991 68.4123C76.6965 68.0452 76.5054 67.2593 76.8741 66.6565C77.2397 66.0541 78.0272 65.8629 78.6283 66.2302C79.2307 66.5958 79.4219 67.3832 79.0546 67.9843C78.8373 68.3386 78.4778 68.5508 78.0955 68.591C77.8267 68.6193 77.5475 68.5638 77.2991 68.4123ZM24.2555 70.0581C23.845 69.4854 23.9764 68.6876 24.5491 68.277C25.1234 67.8663 25.9211 67.9977 26.3317 68.5704C26.7423 69.1432 26.611 69.9425 26.0381 70.3515C25.8512 70.4858 25.6407 70.5614 25.4278 70.5838C24.9865 70.6301 24.5334 70.4452 24.2555 70.0581ZM80.0015 63.4354C79.3433 63.1825 79.0141 62.4425 79.267 61.7844C79.5199 61.1262 80.2599 60.7971 80.9165 61.0501C81.5747 61.303 81.9037 62.0414 81.6509 62.7012C81.4734 63.1644 81.054 63.4646 80.5909 63.5133C80.3983 63.5335 80.1948 63.5109 79.9999 63.4356L80.0015 63.4354ZM21.2708 64.9798C20.9697 64.3421 21.2417 63.5814 21.8793 63.2803C22.5168 62.9776 23.2793 63.251 23.5804 63.8886C23.8815 64.5263 23.6095 65.287 22.9705 65.5898C22.8372 65.6525 22.6981 65.6891 22.5583 65.7038C22.033 65.759 21.5075 65.4828 21.2707 64.9782L21.2708 64.9798ZM81.7672 58.0526C81.0749 57.9227 80.6181 57.2543 80.748 56.5619C80.8795 55.8694 81.5463 55.4128 82.2387 55.5427C82.9326 55.6724 83.3878 56.341 83.2595 57.0332C83.1526 57.6006 82.6849 58.0096 82.1379 58.067C82.0167 58.0798 81.8937 58.0754 81.7671 58.051L81.7672 58.0526ZM19.2427 59.4505C19.0595 58.7691 19.4635 58.0683 20.1451 57.8867C20.8266 57.7035 21.5273 58.1075 21.709 58.7891C21.8906 59.4707 21.4866 60.1715 20.805 60.3531C20.7378 60.3712 20.6731 60.3843 20.6079 60.3911C19.9941 60.4556 19.4063 60.0649 19.2427 59.4505ZM82.5396 52.4411C81.8337 52.4368 81.2656 51.8602 81.2715 51.1541C81.2759 50.4482 81.8511 49.8819 82.557 49.8862C83.2629 49.8906 83.8309 50.4672 83.825 51.1732C83.8218 51.8303 83.3206 52.3685 82.6835 52.4354C82.6369 52.4403 82.5884 52.4423 82.5397 52.4427L82.5396 52.4411ZM19.6117 54.8147C18.9094 54.8744 18.292 54.3517 18.2337 53.6476C18.1741 52.9454 18.6968 52.328 19.4008 52.2697C20.1032 52.2116 20.7205 52.7327 20.7788 53.4367C20.8361 54.1314 20.3298 54.7408 19.6414 54.8131C19.6321 54.8141 19.6212 54.8153 19.6134 54.8161L19.6117 54.8147ZM80.8235 45.74C80.7034 45.0457 81.1696 44.3839 81.8639 44.2638C82.5581 44.1422 83.2199 44.6084 83.34 45.3027C83.4601 45.9971 82.9939 46.6588 82.2995 46.7789C82.2719 46.785 82.2424 46.7881 82.2144 46.791C81.5509 46.8608 80.9389 46.4051 80.8235 45.74ZM19.4205 49.1537C18.7189 49.086 18.2041 48.463 18.2716 47.7599C18.3393 47.0583 18.9623 46.5435 19.6654 46.611C20.367 46.6787 20.8818 47.3017 20.8158 48.0046C20.7564 48.6205 20.2702 49.0911 19.6797 49.1531C19.5958 49.162 19.5095 49.1632 19.4222 49.1551L19.4205 49.1537ZM79.4219 40.4922C79.1795 39.8295 79.5187 39.0963 80.183 38.8536C80.8456 38.6112 81.579 38.952 81.8215 39.6147C82.0639 40.2773 81.7231 41.0107 81.0605 41.2532C80.959 41.289 80.8563 41.3139 80.7538 41.3247C80.185 41.3845 79.6272 41.055 79.4221 40.4937L79.4219 40.4922ZM20.2375 43.5485C19.5591 43.3574 19.1644 42.6511 19.3568 41.971C19.5479 41.2926 20.2543 40.8978 20.9344 41.0903C21.6127 41.2814 22.0075 41.9877 21.815 42.6678C21.6684 43.186 21.2246 43.5374 20.7195 43.5905C20.5626 43.607 20.401 43.5942 20.2391 43.5483L20.2375 43.5485ZM77.1051 35.5793C76.7489 34.971 76.9511 34.1893 77.5608 33.8315C78.1689 33.4738 78.9508 33.6775 79.3085 34.2857C79.6662 34.8938 79.4624 35.6756 78.8543 36.0333C78.6915 36.129 78.5168 36.1851 78.3412 36.2035C77.8579 36.2543 77.3673 36.0262 77.1051 35.5793ZM22.0473 38.1815C21.4145 37.8709 21.1534 37.105 21.4641 36.4737C21.7762 35.8407 22.5404 35.5782 23.1734 35.8903C23.8062 36.2008 24.0688 36.9651 23.7567 37.598C23.5561 38.0072 23.165 38.262 22.7423 38.3064C22.5124 38.3306 22.271 38.2915 22.0473 38.1815ZM73.9436 31.1653C73.4821 30.6309 73.5434 29.8248 74.0763 29.3634C74.6106 28.9019 75.4168 28.9633 75.8766 29.4963C76.3381 30.0307 76.2782 30.8366 75.7439 31.2981C75.5392 31.4736 75.2952 31.5731 75.045 31.5994C74.6425 31.6417 74.2277 31.4921 73.9434 31.1637L73.9436 31.1653ZM24.7929 33.2267C24.2258 32.8087 24.1055 32.0075 24.5235 31.4404C24.9416 30.8749 25.7427 30.753 26.3098 31.171C26.877 31.5905 26.9972 32.3902 26.5792 32.9573C26.3562 33.2572 26.0291 33.433 25.6841 33.4693C25.378 33.5014 25.0602 33.4233 24.7929 33.2267ZM70.0392 27.3824C70.0392 27.3824 70.0307 27.3754 70.0257 27.3728C70.0257 27.3728 70.0171 27.3658 70.0152 27.3629C69.4658 26.9195 69.3799 26.1162 69.8266 25.5681C70.27 25.0187 71.0732 24.9327 71.621 25.3763C71.621 25.3763 71.6296 25.3833 71.6348 25.3875C71.6348 25.3875 71.6434 25.3944 71.6485 25.3986C72.1963 25.8422 72.2808 26.6456 71.8372 27.1934C71.6147 27.4682 71.3014 27.6268 70.9766 27.6609C70.6519 27.695 70.3125 27.605 70.0392 27.3824ZM28.3755 28.836C27.8912 28.3244 27.9131 27.5162 28.4262 27.0318C28.9393 26.5473 29.7476 26.5692 30.232 27.0823C30.7164 27.5954 30.6945 28.4037 30.1814 28.8881C29.9701 29.0895 29.7085 29.2018 29.4381 29.2302C29.0574 29.2702 28.6601 29.1376 28.377 28.8358L28.3755 28.836ZM65.5039 24.3366C64.8854 23.9979 64.6591 23.2204 64.998 22.6034C65.3368 21.985 66.1141 21.7571 66.7312 22.0976C67.3497 22.4364 67.5758 23.2123 67.237 23.8308C67.0274 24.2126 66.6526 24.4437 66.2501 24.486C65.9999 24.5123 65.7405 24.4657 65.5039 24.3366ZM32.6794 25.1503C32.2953 24.5607 32.4617 23.767 33.0529 23.3828C33.6441 22.9986 34.4364 23.1667 34.8204 23.7564C35.2046 24.3476 35.0365 25.1398 34.4469 25.5238C34.2719 25.6381 34.0793 25.7039 33.8851 25.7243C33.4235 25.7728 32.9509 25.5664 32.681 25.1501L32.6794 25.1503ZM60.5265 22.1685C59.8575 21.9466 59.4939 21.2228 59.7172 20.552C59.9391 19.883 60.6615 19.5211 61.3321 19.7428C62.0011 19.9648 62.3631 20.6887 62.1412 21.3577C61.9792 21.8492 61.5468 22.1743 61.0619 22.2253C60.8864 22.2438 60.7053 22.2251 60.5263 22.1669L60.5265 22.1685ZM37.5756 22.301C37.303 21.651 37.6092 20.9023 38.2609 20.6296C38.9109 20.357 39.6596 20.6633 39.9323 21.3149C40.205 21.9665 39.8986 22.7136 39.247 22.9863C39.1297 23.0364 39.0087 23.0664 38.8875 23.0791C38.3421 23.1364 37.7981 22.8338 37.5756 22.301ZM55.24 20.9299C54.5398 20.8307 54.0541 20.1857 54.1533 19.4856C54.2512 18.7871 54.8977 18.3013 55.5961 18.3991C56.2947 18.4985 56.7806 19.145 56.6827 19.8434C56.5988 20.4352 56.1219 20.8749 55.5531 20.9347C55.4506 20.9455 55.3451 20.944 55.2382 20.9285L55.24 20.9299ZM42.9034 20.3742C42.7508 19.6848 43.1867 19.0043 43.8745 18.8518C44.5639 18.6993 45.246 19.135 45.3969 19.823C45.5495 20.5124 45.1137 21.1945 44.4259 21.3469C44.3782 21.3567 44.3303 21.3648 44.2822 21.3699C43.6435 21.437 43.0447 21.0161 42.9034 20.3742ZM49.8157 20.6532C49.1115 20.6801 48.5164 20.1299 48.4895 19.4257C48.4626 18.7215 49.013 18.1279 49.7171 18.1011C50.4213 18.0742 51.0147 18.623 51.0416 19.3272C51.0687 20.003 50.5635 20.5777 49.8999 20.6475C49.872 20.6504 49.844 20.6534 49.8141 20.6533L49.8157 20.6532Z" fill="url(#paint1_linear_8_30829)"/>
<path d="M54.7011 86.7026C74.4401 84.6279 88.7599 66.9444 86.6853 47.2054C84.6106 27.4664 66.9271 13.1466 47.1881 15.2213C27.4491 17.2959 13.1293 34.9794 15.204 54.7184C17.2787 74.4574 34.9621 88.7772 54.7011 86.7026Z" stroke="url(#paint2_linear_8_30829)" stroke-width="2" stroke-linecap="round" stroke-linejoin="round"/>
<path d="M49.9772 41.1169C53.3569 40.7617 56.0072 39.6222 55.8968 38.5717C55.7863 37.5213 52.9571 36.9577 49.5774 37.3129C46.1978 37.6681 43.5475 38.8076 43.6579 39.8581C43.7683 40.9085 46.5976 41.4721 49.9772 41.1169Z" fill="url(#paint3_linear_8_30829)"/>
<path d="M47.1741 57.7055C47.1502 57.4789 46.9476 57.3145 46.7215 57.3383C46.4953 57.3621 46.3313 57.565 46.3551 57.7916L46.6231 60.3416C46.647 60.5682 46.8496 60.7326 47.0757 60.7088C47.3019 60.685 47.4659 60.4821 47.4421 60.2555L47.1741 57.7055Z" fill="url(#paint4_linear_8_30829)"/>
<path d="M59.9511 37.7574L61.4243 37.6026C63.1631 37.4198 65.3649 39.0706 66.0365 40.6167C66.451 41.5708 66.7496 44.0532 66.7456 45.1219C66.7385 46.997 64.4295 48.0787 62.8666 47.0803C62.4962 46.8443 61.84 46.0727 61.7948 45.6423L61.4886 42.7286C61.3283 42.7738 60.8597 42.7099 60.8187 42.9027C60.904 43.7139 60.9586 44.533 61.0641 45.342C61.1248 45.8148 61.3185 45.8793 61.1272 46.421C60.628 47.8451 58.8245 48.4887 57.5198 47.735C55.8872 46.7911 56.3672 44.9307 56.014 43.3637L55.3458 43.3743L55.7343 46.7569C55.0921 49.1072 51.8182 49.3036 50.9545 46.9906C50.9217 46.9029 50.8 46.5371 50.7941 46.4811L50.5207 43.8798L49.8944 43.9457L50.2007 46.8593C50.2297 47.1359 50.3338 47.1093 50.2165 47.5034C49.4782 50.0005 45.6027 49.5264 45.3559 47.1784L45.0695 44.4528L44.4432 44.5186L44.7561 47.496C44.7646 47.5768 44.8607 47.6091 44.8268 47.8389C44.5682 49.5644 42.2734 50.3178 40.8905 49.2974C40.5517 49.0486 39.9609 48.2859 39.9181 47.8788L39.6184 45.0273L38.9922 45.0931L39.3116 48.1326C39.3136 48.1513 39.3771 48.2027 39.3824 48.298C39.3913 48.4872 39.1496 48.998 39.0407 49.1729C37.8456 51.0911 34.8814 50.5417 34.4524 48.3291C33.9341 45.6546 33.7767 42.7819 36.159 40.9934C36.5785 40.679 37.6134 40.1068 38.1138 40.0542L39.806 39.8763L39.8894 39.7733L39.6523 37.517C39.6234 37.2419 40.293 36.4378 40.6456 36.4291L58.3854 34.5645C58.97 34.5219 59.6796 35.1591 59.7389 35.7232L59.953 37.7604L59.9511 37.7574ZM41.0049 37.2915C40.6441 37.4017 40.5811 37.6393 40.5842 37.9831C40.602 39.4077 41.0026 40.9917 41.0553 42.4348C41.1089 42.6758 41.199 42.8753 41.4672 42.9162L58.8172 41.1099C59.085 41.0865 59.2466 40.9501 59.2798 40.6827L58.8099 35.9433C58.7712 35.6945 58.5655 35.5165 58.3219 35.4856L41.0035 37.2933L41.0049 37.2915Z" fill="url(#paint5_linear_8_30829)"/>
<path d="M68.1058 64.7137L67.355 57.5702C67.4449 57.5435 67.5106 57.5712 67.5933 57.5955C68.49 57.861 69.0799 59.9011 69.2382 60.7345L69.305 60.7714C71.4141 60.1051 73.6322 62.1203 72.5875 64.2442L68.1075 64.7151L68.1058 64.7137Z" fill="url(#paint6_linear_8_30829)"/>
<path d="M37.1497 67.9673L36.3989 60.8238C36.3054 60.8163 36.2469 60.8571 36.171 60.898C35.3491 61.3442 35.1963 63.4624 35.2147 64.3104L35.1571 64.3605C32.9556 64.1473 31.2049 66.5795 32.6683 68.4399L37.1483 67.969L37.1497 67.9673Z" fill="url(#paint7_linear_8_30829)"/>
<path d="M65.685 48.3051L65.6323 47.8031C64.6112 48.2828 63.4864 48.2392 62.5414 47.619L61.6335 46.8283C60.6197 49.037 57.6873 49.3593 56.2428 47.3949L55.5502 48.3239C54.145 49.7678 51.8644 49.5047 50.7228 47.9106C49.8062 50.1924 46.6471 50.5244 45.2715 48.4836C44.2951 50.748 41.3132 51.0929 39.8255 49.1204L39.0461 50.1513C38.2179 50.9264 37.1479 51.1347 36.0544 50.9103L36.1072 51.4122C38.15 51.0278 38.4047 53.6154 36.3546 53.7665L36.555 55.6731C38.5811 55.2937 38.8706 57.9734 36.7987 57.9916L37.8459 67.9555L67.4236 64.8467L66.3764 54.8829L66.1327 52.5644L65.9284 50.6204L65.6847 48.3019L65.685 48.3051ZM48.5952 66.3984L40.3826 67.2615C40.3329 67.2668 40.2497 67.2079 40.2022 67.0998C40.1756 67.0413 40.1509 66.9261 40.1285 66.8468L38.6423 52.6022L38.6938 52.3297L47.1643 51.4394L47.274 51.6761L48.7799 65.884C48.8125 66.2687 48.6942 66.3989 48.5936 66.3985L48.5952 66.3984ZM64.2872 60.7757L50.6638 62.2076C50.5814 62.2163 50.4503 62.1798 50.3828 62.1052C50.3454 62.0635 50.3147 61.9804 50.2867 61.9236L49.2021 51.4248L49.3137 51.2166L63.3645 49.7399L63.5234 49.907L64.6457 60.3751C64.6614 60.6594 64.4544 60.7676 64.2889 60.7771L64.2872 60.7757Z" fill="url(#paint8_linear_8_30829)"/>
<path d="M36.4369 51.7388L34.8348 51.9072C34.3945 51.9535 34.0751 52.3479 34.1214 52.7881C34.1677 53.2284 34.5621 53.5478 35.0023 53.5015L36.6045 53.3331C37.0447 53.2869 37.3641 52.8924 37.3178 52.4522C37.2716 52.0119 36.8771 51.6925 36.4369 51.7388Z" fill="url(#paint9_linear_8_30829)"/>
<path d="M36.8871 56.0215L35.285 56.1899C34.8447 56.2362 34.5253 56.6306 34.5716 57.0709C34.6179 57.5111 35.0123 57.8305 35.4525 57.7842L37.0546 57.6159C37.4949 57.5696 37.8143 57.1752 37.768 56.7349C37.7218 56.2946 37.3273 55.9752 36.8871 56.0215Z" fill="url(#paint10_linear_8_30829)"/>
<path d="M34.8317 51.9077L31.0727 52.3028C30.7295 52.3389 30.4804 52.6465 30.5165 52.9897L31.1665 59.1744C31.2026 59.5177 31.5102 59.7668 31.8534 59.7307L35.6124 59.3356C35.9557 59.2995 36.2048 58.992 36.1687 58.6487L35.5186 52.464C35.4826 52.1207 35.175 51.8717 34.8317 51.9077Z" fill="url(#paint11_linear_8_30829)"/>
</g>
<defs>
<filter id="filter0_d_8_30829" x="-3.01733" y="-3" width="107.924" height="107.924" filterUnits="userSpaceOnUse" color-interpolation-filters="sRGB">
<feFlood flood-opacity="0" result="BackgroundImageFix"/>
<feColorMatrix in="SourceAlpha" type="matrix" values="0 0 0 0 0 0 0 0 0 0 0 0 0 0 0 0 0 0 127 0" result="hardAlpha"/>
<feMorphology radius="2" operator="dilate" in="SourceAlpha" result="effect1_dropShadow_8_30829"/>
<feOffset/>
<feGaussianBlur stdDeviation="4"/>
<feComposite in2="hardAlpha" operator="out"/>
<feColorMatrix type="matrix" values="0 0 0 0 0.750065 0 0 0 0 0.750065 0 0 0 0 0.750065 0 0 0 0.5 0"/>
<feBlend mode="normal" in2="BackgroundImageFix" result="effect1_dropShadow_8_30829"/>
<feBlend mode="normal" in="SourceGraphic" in2="effect1_dropShadow_8_30829" result="shape"/>
</filter>
<radialGradient id="paint0_radial_8_30829" cx="0" cy="0" r="1" gradientUnits="userSpaceOnUse" gradientTransform="translate(50.9447 50.962) rotate(84) scale(40)">
<stop stop-color="white"/>
<stop offset="1" stop-color="#EAEFFF"/>
</radialGradient>
<linearGradient id="paint1_linear_8_30829" x1="6.03502" y1="-1.67606" x2="113.772" y2="76.0955" gradientUnits="userSpaceOnUse">
<stop stop-color="#C551E2"/>
<stop offset="0.5" stop-color="#8661FE"/>
<stop offset="1" stop-color="#503CBD"/>
</linearGradient>
<linearGradient id="paint2_linear_8_30829" x1="1.75814" y1="-6.68986" x2="119.756" y2="78.4883" gradientUnits="userSpaceOnUse">
<stop stop-color="#C551E2"/>
<stop offset="0.5" stop-color="#8661FE"/>
<stop offset="1" stop-color="#503CBD"/>
</linearGradient>
<linearGradient id="paint3_linear_8_30829" x1="41.9258" y1="36.2017" x2="46.8754" y2="46.8073" gradientUnits="userSpaceOnUse">
<stop stop-color="#C551E2"/>
<stop offset="0.5" stop-color="#8661FE"/>
<stop offset="1" stop-color="#503CBD"/>
</linearGradient>
<linearGradient id="paint4_linear_8_30829" x1="46.0464" y1="55.7121" x2="48.3795" y2="55.9721" gradientUnits="userSpaceOnUse">
<stop stop-color="#C551E2"/>
<stop offset="0.5" stop-color="#8661FE"/>
<stop offset="1" stop-color="#503CBD"/>
</linearGradient>
<linearGradient id="paint5_linear_8_30829" x1="28.9722" y1="30.9114" x2="49.1529" y2="65.0104" gradientUnits="userSpaceOnUse">
<stop stop-color="#C551E2"/>
<stop offset="0.5" stop-color="#8661FE"/>
<stop offset="1" stop-color="#503CBD"/>
</linearGradient>
<linearGradient id="paint6_linear_8_30829" x1="66.4496" y1="54.0608" x2="77.4375" y2="59.3181" gradientUnits="userSpaceOnUse">
<stop stop-color="#C551E2"/>
<stop offset="0.5" stop-color="#8661FE"/>
<stop offset="1" stop-color="#503CBD"/>
</linearGradient>
<linearGradient id="paint7_linear_8_30829" x1="30.6217" y1="57.8264" x2="41.6096" y2="63.0838" gradientUnits="userSpaceOnUse">
<stop stop-color="#C551E2"/>
<stop offset="0.5" stop-color="#8661FE"/>
<stop offset="1" stop-color="#503CBD"/>
</linearGradient>
<linearGradient id="paint8_linear_8_30829" x1="31.7135" y1="40.5998" x2="63.9749" y2="78.0713" gradientUnits="userSpaceOnUse">
<stop stop-color="#C551E2"/>
<stop offset="0.5" stop-color="#8661FE"/>
<stop offset="1" stop-color="#503CBD"/>
</linearGradient>
<linearGradient id="paint9_linear_8_30829" x1="33.606" y1="51.2335" x2="36.2067" y2="54.955" gradientUnits="userSpaceOnUse">
<stop stop-color="#C551E2"/>
<stop offset="0.5" stop-color="#8661FE"/>
<stop offset="1" stop-color="#503CBD"/>
</linearGradient>
<linearGradient id="paint10_linear_8_30829" x1="34.0562" y1="55.5163" x2="36.657" y2="59.2377" gradientUnits="userSpaceOnUse">
<stop stop-color="#C551E2"/>
<stop offset="0.5" stop-color="#8661FE"/>
<stop offset="1" stop-color="#503CBD"/>
</linearGradient>
<linearGradient id="paint11_linear_8_30829" x1="29.5175" y1="48.7262" x2="40.8638" y2="54.0821" gradientUnits="userSpaceOnUse">
<stop stop-color="#C551E2"/>
<stop offset="0.5" stop-color="#8661FE"/>
<stop offset="1" stop-color="#503CBD"/>
</linearGradient>
</defs>
</svg>
