<svg width="48" height="47" viewBox="0 0 48 47" fill="none" xmlns="http://www.w3.org/2000/svg">
<path d="M47.5337 23.2441C47.5337 25.0016 45.7919 26.5398 45.4162 28.1877C45.0404 29.8356 45.925 32.0275 45.1852 33.5619C44.4455 35.0962 42.1948 35.7499 41.1262 37.0885C40.0577 38.4272 39.9324 40.7561 38.5859 41.8286C37.2395 42.9011 34.9575 42.5018 33.3997 43.2533C31.8418 44.0049 30.7537 46.0363 29.0549 46.4199C27.3562 46.8035 25.5243 45.4453 23.7669 45.4453C22.0094 45.4453 20.1228 46.7957 18.4788 46.4199C16.8349 46.0442 15.6645 43.9892 14.1341 43.2533C12.6036 42.5175 10.2865 42.8972 8.9478 41.8286C7.60916 40.76 7.47999 38.435 6.4075 37.0885C5.33502 35.7421 3.10003 35.1197 2.3485 33.5619C1.59698 32.004 2.50507 29.8864 2.11757 28.1916C1.73007 26.4968 0 25.0016 0 23.2441C0 21.4866 1.74181 19.9484 2.11757 18.3005C2.49333 16.6526 1.60873 14.4607 2.3485 12.9263C3.08828 11.392 5.33893 10.7383 6.4075 9.39965C7.47607 8.061 7.60133 5.73207 8.9478 4.65959C10.2943 3.5871 12.5762 3.98635 14.1341 3.23483C15.6919 2.48331 16.7801 0.451849 18.4788 0.0682599C20.1776 -0.315329 22.0094 1.04289 23.7669 1.04289C25.5243 1.04289 27.411 -0.307501 29.0549 0.0682599C30.6989 0.444021 31.8692 2.49896 33.3997 3.23483C34.9301 3.97069 37.2473 3.59102 38.5859 4.65959C39.9246 5.72816 40.0537 8.05318 41.1262 9.39965C42.1987 10.7461 44.4337 11.3685 45.1852 12.9263C45.9368 14.4842 45.0287 16.6017 45.4162 18.2966C45.8037 19.9914 47.5337 21.4788 47.5337 23.2402V23.2441Z" fill="#DC4D4D"/>
<path d="M44.2597 30.274C44.2597 30.274 44.021 30.2622 43.9779 30.4149C43.8918 30.7358 44.1188 30.865 44.4006 30.9315L44.6355 31.3543C44.4946 31.4326 44.5689 31.55 44.5415 31.6361C44.5298 31.6752 44.4593 31.6948 44.4476 31.73C44.3889 31.9179 44.6472 32.1254 44.7294 32.2937V32.4816C44.5729 32.7203 44.522 32.9552 44.2128 32.7164C43.9035 32.4776 43.9309 32.3289 44.0718 32.0119L43.6021 31.5421C43.5591 31.4012 43.379 30.9629 43.2733 30.9315C43.1794 30.9041 43.0698 30.9785 42.9915 30.8376H42.8976C42.7919 30.8689 42.5531 31.1116 42.5218 31.1194C42.4396 31.1429 42.056 31.1351 41.9582 31.1194C41.923 31.1116 41.876 30.9746 41.7233 31.0255L41.6294 30.6027C41.6411 30.5558 41.9308 30.3757 41.9582 30.3679C42.1421 30.3248 42.4279 30.407 42.6158 30.3679C42.6941 30.3522 42.9759 30.137 43.0855 30.0861C43.1324 30.0665 43.2107 30.1056 43.2733 30.0861C43.3164 30.0743 43.4965 29.7964 43.5082 29.7573C43.5434 29.6203 43.5082 29.452 43.6021 29.2876C43.7117 29.1036 44.0523 28.9901 43.9779 28.7239C43.9701 28.7005 43.6922 28.4226 43.6491 28.3952C43.5434 28.3325 43.3399 28.3286 43.2733 28.3012C43.2107 28.2738 43.0542 28.1407 42.9915 28.1133C42.925 28.0859 42.7215 28.082 42.6158 28.0194C42.2948 27.8276 42.2948 27.4597 42.6158 27.2679C42.6353 27.2561 42.6823 27.2796 42.7097 27.2679C42.7489 27.2483 42.7684 27.1818 42.8036 27.1739C43.5473 27.0095 43.6295 27.6671 44.1658 27.9724C44.111 28.0742 44.248 28.1133 44.2597 28.1603C44.2832 28.2386 44.2401 28.356 44.2597 28.4421C44.2675 28.4773 44.3497 28.5008 44.3537 28.5361C44.3928 28.8022 44.3967 29.7847 44.3537 30.0391C44.3537 30.0508 44.2675 30.2661 44.2597 30.274Z" fill="#E67474"/>
<path d="M40.4081 19.7526C40.3611 19.9091 40.4707 19.9209 40.5021 19.9874C40.7486 20.5158 41.281 21.0051 41.6763 21.3496C41.7663 21.4278 42.0012 21.7097 42.0521 21.7253C42.3769 21.8193 42.5766 21.1578 42.8975 21.2556C42.9406 21.2674 43.2146 21.4474 43.2263 21.4905C43.2537 21.5844 43.1794 21.694 43.3203 21.7723C43.1794 21.8506 43.2537 21.9602 43.2263 22.0541C43.2146 22.0972 42.9367 22.2772 42.8975 22.289C42.8192 22.3124 42.694 22.2655 42.6157 22.289C42.5844 22.2968 42.3417 22.5473 42.2399 22.5708C42.1656 22.5864 41.9386 22.5864 41.8642 22.5708C41.829 22.5629 41.8094 22.4925 41.7702 22.4768C41.4923 22.3672 41.1909 22.2498 40.9718 22.0541C40.9522 21.7605 40.8074 21.4083 40.549 21.2556C40.4394 21.1891 40.232 21.1382 40.0793 21.0677C39.8132 20.9464 39.5666 20.9386 39.6566 20.5511C39.6644 20.5119 39.7466 20.4923 39.7505 20.4571C39.7858 20.2262 39.6683 19.7526 39.9854 19.6586C40.1615 19.6077 40.2437 19.78 40.4081 19.7526Z" fill="#E67474"/>
<path d="M46.1383 24.5437C45.9856 24.4928 45.9387 24.6298 45.9034 24.6377C45.7508 24.6651 45.5512 24.6181 45.3868 24.6377C45.4376 24.485 45.3085 24.4537 45.2928 24.4028C45.2537 24.2697 45.2537 23.9918 45.1989 23.8392C45.1597 23.7335 44.9366 23.4517 44.9171 23.3695C44.8936 23.2599 44.8897 22.524 44.9171 22.4301C44.921 22.4144 45.1167 22.2187 45.1519 22.1952C45.1715 22.1835 45.2184 22.207 45.2458 22.1952C45.285 22.1757 45.3046 22.1091 45.3398 22.1013C45.8291 21.9917 46.2361 22.1678 46.1383 22.7119C46.0169 23.3773 46.1579 23.2364 46.2322 23.7452C46.2518 23.8744 46.2557 24.1836 46.2322 24.3089C46.2244 24.3441 46.0874 24.3911 46.1383 24.5437Z" fill="#E67474"/>
<path d="M25.5655 5.56774V5.89653C25.3972 5.95915 25.3933 6.20966 25.3776 6.22532C25.362 6.24097 25.2876 6.20575 25.2367 6.22532C25.1976 6.24097 25.1741 6.31143 25.1428 6.31926C24.951 6.35449 24.7709 6.29186 24.5791 6.4132C24.4069 6.52279 24.2816 6.96118 24.1094 7.07078C24.0899 7.08252 24.0468 7.05512 24.0155 7.07078C23.9763 7.09035 23.9568 7.14906 23.9215 7.16472C23.8707 7.18429 23.7924 7.14906 23.7337 7.16472C23.6945 7.17646 23.6749 7.25083 23.6397 7.25866C23.4558 7.30172 23.1661 7.2156 23.217 7.02381C23.2287 6.98075 23.3657 6.92595 23.3109 6.74199C23.2992 6.70676 23.2326 6.68719 23.217 6.64805C23.1974 6.59716 23.2326 6.5228 23.217 6.50714C23.1974 6.48757 23.0526 6.52671 22.9821 6.50714C22.9313 6.49148 22.7708 6.43668 22.7003 6.4132C22.6455 6.39363 22.622 6.26837 22.4655 6.31926C22.5164 6.16661 22.3833 6.13138 22.3715 6.08441C22.2972 5.82216 22.8138 5.82607 22.9821 5.84956C23.0174 5.85347 23.0409 5.93958 23.0761 5.9435C23.4049 5.99047 23.7258 5.84956 24.0155 5.75562C24.0664 5.73996 24.1133 5.60688 24.2973 5.66168L24.8609 6.03744C24.951 6.02178 25.0684 6.05701 25.1428 6.03744C25.3306 5.98655 25.2171 5.50902 25.5655 5.56774Z" fill="#E67474"/>
<path d="M10.6291 7.44659C10.7543 7.43485 11.2593 7.76755 11.2867 7.86932C11.4276 8.38599 11.0009 8.47602 10.5821 8.38599C10.5508 8.37816 10.3316 8.20594 10.3003 8.19811C10.1398 8.16288 9.89713 8.23334 9.73665 8.19811C9.70533 8.19028 9.68185 8.12374 9.64271 8.10417C9.61139 8.08851 9.56834 8.11591 9.54876 8.10417C9.28651 7.93586 9.47048 7.62664 9.40786 7.39962C9.35697 7.20782 9.09472 7.29002 8.98512 7.25871C8.96947 7.25479 8.75419 7.03951 8.75027 7.02386C8.69156 6.82032 8.8403 6.68724 8.84421 6.50719C9.02427 6.50719 9.15343 6.35845 9.36088 6.41325C9.40394 6.42499 9.58399 6.7029 9.59574 6.74204C9.62705 6.85555 9.56834 7.23914 9.83059 7.16477C9.86973 7.15303 9.8893 7.07866 9.92453 7.07083C10.2416 7.00037 10.6291 7.09431 10.6291 7.44659Z" fill="#E67474"/>
<path d="M20.8684 20.2226C20.8332 20.066 20.9272 20.0347 21.0094 19.9407C21.1894 19.7372 21.4751 19.6237 21.6669 19.471C22.0036 19.2049 22.0544 18.8761 22.6063 19.0013C22.6416 19.0092 22.6611 19.0757 22.7003 19.0953C22.7277 19.107 22.7747 19.0835 22.7942 19.0953C22.9899 19.2127 23.033 19.4789 23.217 19.6119C23.2013 19.7333 23.2365 19.8742 23.217 19.9877C23.2091 20.0229 23.1348 20.0425 23.123 20.0816C23.1074 20.1443 23.1426 20.2186 23.123 20.2695C23.1074 20.3048 23.0486 20.3243 23.0291 20.3635C23.0134 20.3948 23.0408 20.4378 23.0291 20.4574C22.939 20.5983 22.7942 20.5788 22.7003 20.6923C22.622 20.5514 22.5085 20.6257 22.4185 20.5983C22.3363 20.5748 22.121 20.246 22.0427 20.2226C21.9644 20.1991 21.8509 20.2382 21.7609 20.2226C21.7257 20.2147 21.6983 20.1286 21.6669 20.1286C21.6474 20.1286 21.4203 20.1952 21.2912 20.2226C21.256 20.2304 21.2364 20.3048 21.1972 20.3165C21.0798 20.3517 21.0211 20.1756 20.8684 20.2226Z" fill="#E67474"/>
<path d="M32.705 17.6861C32.6893 17.8231 32.7245 17.9797 32.705 18.1088C32.701 18.1441 32.6149 18.1676 32.611 18.2028C32.5719 18.4611 32.7128 18.8251 32.705 18.8604C32.6736 18.9778 32.4897 19.1383 32.4231 19.2361C32.4075 19.2596 32.4388 19.3105 32.4231 19.3301C32.294 19.5023 32.1335 19.6275 31.9065 19.5649C31.6794 19.5023 31.7969 18.9504 31.7656 18.7664C31.7577 18.7312 31.6834 18.7116 31.6716 18.6725C31.652 18.6177 31.6873 18.5433 31.6716 18.4846C31.6677 18.465 31.4759 18.2732 31.4368 18.2498C31.3976 18.2263 31.198 18.1832 31.1549 18.1558C30.9827 18.0462 30.8653 17.8505 30.9201 17.6391C30.9671 17.4669 31.2567 17.5413 31.3428 17.4043H31.4368C31.4837 17.51 31.6012 17.4826 31.6246 17.4982C31.7695 17.5883 31.8164 17.8662 32.0004 17.9679C32.2822 17.9405 32.4114 17.6274 32.705 17.6861Z" fill="#E67474"/>
<path d="M31.4839 26.4224L31.5779 26.6572L31.2021 27.4088C31.2569 27.4792 31.3782 27.7297 31.39 27.7845C31.4409 27.9959 31.3469 28.0468 31.296 28.1603C31.2804 28.1916 31.3078 28.2346 31.296 28.2542C31.1669 28.4578 30.7167 28.5478 30.4976 28.4891C30.3058 28.4343 30.2118 28.0663 30.2627 27.8785C30.2784 27.8197 30.4936 27.6827 30.5445 27.5966C30.5602 27.5692 30.5328 27.4557 30.6385 27.4088V27.2209C30.4467 26.9899 30.5054 26.5868 30.7794 26.4224C30.7989 26.4106 30.8459 26.4341 30.8733 26.4224C30.9125 26.4028 30.932 26.3363 30.9673 26.3284C31.1786 26.2776 31.2921 26.4106 31.4839 26.4224Z" fill="#E67474"/>
<path d="M12.8837 7.63447C12.8954 7.82626 13.0285 7.93977 12.9776 8.15114C12.9698 8.18637 12.8954 8.20594 12.8837 8.24508C12.8641 8.29988 12.8994 8.37425 12.8837 8.43296C12.8681 8.48776 12.5236 8.84786 12.5079 8.90266C12.4571 9.0788 12.6567 9.20014 12.6019 9.37236C12.5158 9.64635 12.5158 9.71289 12.5079 10.0299C12.5079 10.1082 12.551 10.3587 12.367 10.2648C12.3318 10.2452 12.0461 9.95949 12.0382 9.936C12.0226 9.87729 12.0578 9.80292 12.0382 9.74812C12.0265 9.70898 11.9521 9.68941 11.9443 9.65418C11.9286 9.55633 11.9247 9.27451 11.9443 9.18448C11.9521 9.15317 12.1244 8.93397 12.1322 8.90266C12.23 8.45253 11.9012 8.3899 11.8504 8.15114C11.8347 8.08068 11.8347 7.838 11.8504 7.77538C11.8973 7.60315 12.187 7.67752 12.2731 7.54053L12.8837 7.63447Z" fill="#E67474"/>
<path d="M39.2339 16.2769C39.6957 16.1516 39.864 16.5978 40.1733 16.8405C40.2202 16.8757 40.4981 16.9893 40.549 17.0284C40.7173 17.1576 40.7682 17.3063 40.8778 17.4511V17.639C40.733 17.8739 40.686 18.0422 40.3611 17.9678C40.3416 17.9639 40.0206 17.8034 39.9854 17.7799C39.7114 17.5999 39.4452 17.2241 39.2808 16.9814C39.2378 16.9188 39.1047 16.8366 39.0929 16.7935C39.0577 16.6605 39.0812 16.316 39.2339 16.2769Z" fill="#E67474"/>
<path d="M15.0912 6.50718C15.4591 6.40541 15.9758 6.7068 16.2655 6.92991C16.2459 7.04342 16.2929 7.20782 16.2655 7.30567C16.2576 7.32916 15.9602 7.62663 15.9367 7.63446C15.7175 7.69317 15.6353 7.56009 15.5609 7.54052C15.4317 7.5053 15.4004 7.49747 15.2791 7.44658C15.1225 7.38004 14.6098 7.22347 14.6685 7.02385C14.7546 6.91034 14.9699 6.54241 15.0912 6.50718Z" fill="#E67474"/>
<path d="M28.2427 18.8134C28.3993 18.7703 28.9394 19.2714 29.0412 19.424C29.0569 19.4436 29.0255 19.4945 29.0412 19.518C29.1743 19.7332 29.276 19.9642 29.417 20.1755L29.1821 20.4104L28.6185 20.2225C28.5206 20.0816 28.3836 19.9329 28.2897 19.7998C28.274 19.7802 28.3053 19.7254 28.2897 19.7058C28.231 19.6197 28.0235 19.4788 28.0079 19.424C27.9374 19.1696 28.0392 18.9621 28.2427 18.8134Z" fill="#E67474"/>
<path d="M23.4989 29.0527V29.4284L23.1701 29.5224C23.0957 29.3776 22.9627 29.4598 22.8883 29.4284C22.7552 29.3736 22.5595 29.2132 22.4186 29.1466C22.3716 29.1231 22.2933 29.1662 22.2307 29.1466C22.0507 29.0957 21.7336 28.4303 21.808 28.2072L22.2307 28.1133L22.7943 28.6769C23.0409 28.7278 23.2366 29.0449 23.4989 29.0527Z" fill="#E67474"/>
<path d="M44.4006 24.5438C44.4632 24.5242 44.6981 24.5281 44.7764 24.5438C44.8116 24.5516 44.8312 24.626 44.8703 24.6377C44.9329 24.6534 45.0073 24.6181 45.0582 24.6377C45.0934 24.6534 45.113 24.7121 45.1521 24.7317C45.1991 24.7551 45.3557 24.763 45.387 24.8726C45.4026 24.9352 45.4026 25.2796 45.387 25.3423C45.3792 25.3657 45.0817 25.6632 45.0582 25.671C44.9643 25.6984 44.8547 25.6241 44.7764 25.765C44.6276 25.6515 44.3693 25.5262 44.2597 25.3423C44.248 25.3227 44.2714 25.2757 44.2597 25.2483C44.2401 25.2092 44.1736 25.1896 44.1658 25.1544C44.1227 24.9587 44.201 24.5986 44.4006 24.5438Z" fill="#E67474"/>
<path d="M26.6927 20.9739C26.5284 20.9465 26.4462 21.1188 26.27 21.0679C26.2544 21.064 26.0587 20.8683 26.0352 20.833C26.0234 20.8135 26.0469 20.7665 26.0352 20.7391C26.0156 20.6999 25.9491 20.6804 25.9412 20.6451C25.7886 19.968 26.2583 19.8623 26.8337 19.9406C27.092 19.9758 27.1272 20.242 27.0685 20.4573C27.0333 20.5825 26.6184 20.7587 26.6927 20.9739Z" fill="#E67474"/>
<path d="M35.1006 31.2134C35.3941 31.1351 35.719 31.3152 35.899 31.5422C35.9695 31.7849 36.1652 32.0041 36.0869 32.2937C36.083 32.3094 35.8677 32.5247 35.8521 32.5286C35.7268 32.5677 35.6525 32.3994 35.5703 32.3407C35.5468 32.3251 35.4959 32.3564 35.4763 32.3407C35.3941 32.2781 35.2102 32.0941 35.1475 32.0119C35.1319 31.9924 35.1632 31.9415 35.1475 31.918C35.1045 31.8554 34.9714 31.7732 34.9596 31.7301C34.9244 31.597 34.9479 31.2526 35.1006 31.2134Z" fill="#E67474"/>
<path d="M36.7444 24.1678L37.1201 23.5572C37.0419 23.2245 37.3707 22.8957 37.6838 23.0875C37.9343 23.2402 38.0439 23.5533 37.9656 23.8391C37.9539 23.8821 37.6642 24.0661 37.6368 24.0739C37.4528 24.117 37.218 24.0348 37.0262 24.2148L36.7444 24.1678Z" fill="#E67474"/>
<path d="M20.9625 29.7103C21.0525 29.906 20.7981 30.3209 20.6337 30.3679C20.4028 30.4305 19.9879 30.3522 19.7882 30.2739L19.2716 30.5557C19.2481 30.3718 19.2676 30.2935 19.4125 30.18C19.663 29.9843 19.6434 30.223 19.7882 30.18C19.8 30.18 19.9605 30.0939 19.9761 30.086C20.2423 29.9256 20.3166 29.5263 20.7276 29.6163C20.7707 29.6242 20.8098 29.7612 20.9625 29.7103Z" fill="#E67474"/>
<path d="M38.5761 6.60103C38.7758 6.54624 38.9871 6.65975 39.0928 6.83589C39.1045 6.85546 39.0811 6.90243 39.0928 6.92982C39.1124 6.96897 39.1789 6.98854 39.1867 7.02377C39.2768 7.40735 38.9362 7.61872 38.5761 7.54044C38.5448 7.53261 38.2591 7.34864 38.2473 7.30559C38.2317 7.24687 38.2317 6.98854 38.2473 6.92982C38.2552 6.90634 38.5526 6.60886 38.5761 6.60103Z" fill="#E67474"/>
<path d="M36.4627 17.3102C36.764 17.2514 36.9128 17.4628 36.8384 17.7329C36.8228 17.7838 36.6662 17.8699 36.6505 17.9208C36.627 17.999 36.674 18.1243 36.6505 18.2026C36.6427 18.2378 36.5762 18.2574 36.5566 18.2965C36.5409 18.3278 36.5683 18.3709 36.5566 18.3905C36.4196 18.6057 35.9538 18.5823 35.899 18.3905C35.7346 17.7877 36.4509 17.8503 36.4627 17.3102Z" fill="#E67474"/>
<path d="M34.7717 28.2073C34.7717 28.2073 34.7991 28.0194 34.6777 27.9724L34.7717 27.5497L35.2883 27.3618C35.6641 27.538 35.9068 27.9529 35.4762 28.2073C35.4488 28.2229 35.3353 28.1955 35.2883 28.3012L34.7717 28.2073Z" fill="#E67474"/>
<path d="M37.4958 14.2103C37.5702 14.046 37.4019 13.8972 37.4019 13.8816C37.4019 13.8502 37.4841 13.8268 37.4958 13.7876C37.5115 13.725 37.4762 13.6506 37.4958 13.5997C37.5115 13.5645 37.5702 13.5449 37.5897 13.5058C37.6093 13.4627 37.5702 13.3884 37.6837 13.3179C38.0164 13.1105 38.2082 13.4667 38.3413 13.6937V13.7876C38.2004 13.8659 38.2747 13.9755 38.2473 14.0694C38.2121 14.1869 37.9851 14.2025 37.9185 14.3043L37.4958 14.2103Z" fill="#E67474"/>
<path d="M23.5458 35.5347C23.9293 35.429 24.172 35.656 24.0624 36.0513C23.9802 36.3527 23.1426 36.0122 22.9821 36.3801C22.9195 36.3097 22.8099 36.2549 22.8412 36.1453C22.8764 36.0279 23.0643 36.0122 23.0761 36.0044C23.1817 35.9143 23.487 35.5503 23.5458 35.5347Z" fill="#E67474"/>
<path d="M34.161 15.9012C34.251 15.8855 34.5563 15.8816 34.6307 15.9012C34.6816 15.9129 34.893 16.14 34.8656 16.23C34.8029 16.4374 34.2784 16.5901 34.0671 16.6527C33.9066 16.5157 33.7813 16.3513 33.7383 16.136L34.161 15.9012Z" fill="#E67474"/>
<path d="M23.9686 22.571C23.9177 22.7236 24.0547 22.7628 24.0625 22.8058C24.1408 23.1542 23.8355 23.53 23.4519 23.5104L23.217 23.1816C23.311 22.8293 23.5732 22.4888 23.9686 22.571Z" fill="#E67474"/>
<path d="M19.1774 27.6436C19.2283 27.491 19.0991 27.4597 19.0834 27.4088C19.0326 27.2326 19.2048 27.1504 19.1774 26.986C19.3574 26.986 19.4905 26.8334 19.694 26.8921C19.8858 26.9469 19.9798 27.3148 19.9289 27.5027C19.8976 27.6201 19.6666 27.6358 19.6001 27.7376L19.1774 27.6436Z" fill="#E67474"/>
<path d="M26.1292 7.72848C26.0783 7.88113 26.2153 7.92027 26.2231 7.96333C26.2701 8.16686 26.1331 8.56611 25.8944 8.57394C25.6908 8.48 25.3855 8.51522 25.3777 8.24515C25.4795 7.83024 25.6947 7.65802 26.1292 7.72848Z" fill="#E67474"/>
<path d="M6.07299 19.8468C6.16693 19.8194 6.31175 19.8389 6.40178 19.8937C6.58966 20.0073 6.74231 20.2382 6.6836 20.4574C6.67968 20.473 6.4644 20.6883 6.44875 20.6922C6.20998 20.7627 5.92816 20.473 5.83813 20.2695V20.1756C5.9399 20.109 5.95556 19.8781 6.07299 19.8468Z" fill="#E67474"/>
<path d="M3.20761 14.3982C3.12933 13.7289 3.43464 13.2318 4.05308 13.7876C3.85345 14.089 3.63035 14.4843 3.20761 14.3982Z" fill="#E67474"/>
<path d="M2.40917 25.8587C2.50311 25.8313 2.64793 25.8509 2.73796 25.9057C2.78101 25.9331 3.01586 26.1679 3.01978 26.1875C3.12937 26.5789 2.82798 26.6533 2.50311 26.6103C2.28 26.5789 2.22911 26.3715 2.17432 26.1875C2.27608 26.121 2.29174 25.89 2.40917 25.8587Z" fill="#E67474"/>
<path d="M8.93812 29.0529C8.84418 28.5401 9.20428 28.5244 9.64267 28.5832C9.99103 28.6301 9.92058 29.0998 9.73661 29.1468C9.6505 29.1703 9.27474 29.1664 9.17297 29.1468C9.13774 29.139 9.08686 29.002 8.93812 29.0529Z" fill="#E67474"/>
<path d="M30.6854 19.4708C30.838 19.4239 31.1707 19.69 31.202 19.7996C31.3351 20.2419 30.4779 20.3946 30.3566 19.9875C30.3096 19.8349 30.5758 19.5021 30.6854 19.4708Z" fill="#E67474"/>
<path d="M19.4126 1.05861C19.7296 0.972498 19.7923 1.16821 19.9293 1.3874C19.9136 1.64574 19.5183 2.12718 19.3186 1.81013C19.2404 1.68488 19.3147 1.56745 19.1777 1.48134V1.3874C19.2795 1.32086 19.2952 1.08992 19.4126 1.05861Z" fill="#E67474"/>
<path d="M34.5369 22.2891L34.8187 22.4769C35.0222 22.8057 34.6543 23.0719 34.349 23.1345C33.9145 22.7979 34.1024 22.5083 34.5369 22.2891Z" fill="#E67474"/>
<path d="M35.9459 15.4313C36.3725 15.3022 36.3647 16.1163 36.1337 16.1829C35.7462 16.2925 35.4331 16.0263 35.711 15.6662C35.7462 15.6192 35.9224 15.4392 35.9459 15.4313Z" fill="#E67474"/>
<path d="M24.6261 26.7983V27.1741C24.3208 27.1702 23.6554 27.2485 23.4988 26.9392C23.4049 26.7553 23.6554 26.7983 23.7337 26.7983C24.0311 26.7944 24.3286 26.8022 24.6261 26.7983Z" fill="#E67474"/>
<path d="M26.5988 37.3195C26.7006 37.3351 26.8415 37.296 26.9276 37.3195C26.9707 37.3312 27.1547 37.617 27.1625 37.6483C27.2095 37.8596 27.0881 38.1101 26.9276 38.2589C26.6928 37.9927 26.5519 37.6718 26.5988 37.3195Z" fill="#E67474"/>
<path d="M28.7594 23.5104C28.5754 23.5143 28.4501 23.6592 28.2427 23.6044C27.9922 23.5378 28.1644 23.2051 28.1957 23.0407L28.6184 22.9468L28.8533 23.1816L28.7594 23.5104Z" fill="#E67474"/>
<path d="M37.6369 36.1922C37.7034 36.1726 38.04 36.1726 38.1066 36.1922C38.2905 36.2391 38.361 36.7049 38.0126 36.7558C37.496 36.8302 37.3511 36.2665 37.6369 36.1922Z" fill="#E67474"/>
<path d="M8.56226 11.7678C8.33915 12.218 7.90468 12.7972 7.7168 12.0027L7.81074 11.7678H8.56226Z" fill="#E67474"/>
<path d="M13.823 4.81616C13.8113 5.18409 13.9522 5.63031 13.4473 5.56768C13.4982 5.41503 13.3612 5.37589 13.3533 5.33283C13.3025 5.10973 13.4434 5.00013 13.4473 4.81616H13.823Z" fill="#E67474"/>
<path d="M37.1203 25.5769L37.2142 25.9057L36.9794 26.1405L36.5566 26.0466L36.6506 25.5769H37.1203Z" fill="#E67474"/>
<path d="M5.18037 14.68C5.21951 14.7191 5.56396 14.68 5.46219 15.0557C5.32128 15.0244 5.243 14.8483 5.1334 14.7739C5.09426 14.7465 4.89463 14.7074 4.85158 14.68C4.64021 14.5469 4.5815 14.3629 4.61673 14.1163C4.69893 14.0263 5.1334 14.4568 5.18037 14.539C5.20385 14.5821 5.16471 14.6643 5.18037 14.68Z" fill="#E67474"/>
<path d="M17.4865 40.6074C17.7292 40.5722 18.1519 40.5918 18.0502 40.9362C18.0188 41.038 17.7723 41.2141 17.6274 41.1711C17.5061 41.1358 17.4983 40.9127 17.3926 40.8423L17.4865 40.6074Z" fill="#E67474"/>
<path d="M13.729 18.5314C13.7642 18.778 13.7485 19.1929 13.4002 19.0951C13.134 19.0207 13.2632 18.5354 13.4941 18.4375L13.729 18.5314Z" fill="#E67474"/>
<path d="M32.2352 15.7134C32.2469 15.9013 32.3761 16.0148 32.3291 16.23C32.3213 16.2731 32.1843 16.3162 32.2352 16.4179L31.9534 16.4649V15.9482L32.2352 15.7134Z" fill="#E67474"/>
<path d="M33.5505 18.8132C33.664 19.1812 33.0808 19.4708 32.9868 19.142C32.889 18.7976 33.3039 18.778 33.5505 18.8132Z" fill="#E67474"/>
<path d="M10.3473 19.4709C10.2259 19.4983 10.0067 19.4553 9.97151 19.33C9.84626 18.8721 10.3668 18.786 10.4412 19.0482C10.4921 19.2283 10.3199 19.3065 10.3473 19.4709Z" fill="#E67474"/>
<path d="M29.7928 16.5588C29.9533 17.1694 29.2018 17.1381 29.3231 16.6997C29.3701 16.5353 29.6558 16.5471 29.7928 16.5588Z" fill="#E67474"/>
<path d="M43.6021 23.3225C43.8526 23.2912 44.2596 23.299 44.1657 23.6513C44.1148 23.847 43.9504 23.7218 43.8369 23.6983L43.6021 23.3225Z" fill="#E67474"/>
<path d="M31.8596 6.69503H31.4838C31.5347 6.55412 31.3899 6.47975 31.3899 6.46018C31.3899 6.44061 31.5347 6.36624 31.4838 6.22533C31.8439 6.17836 31.8948 6.37798 31.8596 6.69503Z" fill="#E67474"/>
<path d="M26.5989 10.2647V9.88894C27.2251 9.81849 27.2251 10.3352 26.5989 10.2647Z" fill="#E67474"/>
<path d="M33.2685 39.9498C32.7675 40.0712 32.834 39.3979 33.1276 39.4801C33.2841 39.5232 33.2841 39.7972 33.2685 39.9498Z" fill="#E67474"/>
<path d="M30.7321 22.1011C30.8808 22.6725 30.2741 22.6334 30.3563 22.3359C30.3681 22.289 30.5012 22.2537 30.4503 22.1011H30.7321Z" fill="#E67474"/>
<path d="M19.929 15.5254C19.5728 15.5489 19.3458 14.9226 19.7881 15.0557C19.9486 15.1027 19.9407 15.3727 19.929 15.5254Z" fill="#E67474"/>
<path d="M13.3535 20.1284H12.9778V20.5042H13.3535V20.1284Z" fill="#E67474"/>
<path d="M3.06691 31.4014C3.29002 31.5853 3.43092 31.7576 3.16085 31.965C2.93774 31.781 2.79683 31.6088 3.06691 31.4014Z" fill="#E67474"/>
<path d="M7.34106 10.8285C7.20015 10.7776 7.12578 10.9224 7.10621 10.9224C7.08664 10.9224 7.01227 10.7776 6.87136 10.8285C6.86745 10.441 7.34498 10.441 7.34106 10.8285Z" fill="#E67474"/>
<path d="M4.0532 22.8528C4.04537 22.6531 4.01406 22.5005 4.19411 22.3831C4.44853 22.567 4.3585 22.8645 4.0532 22.8528Z" fill="#E67474"/>
<path d="M10.9109 27.1741C10.9109 27.5459 10.5391 27.5459 10.5352 27.1741H10.9109Z" fill="#E67474"/>
<path d="M29.1353 12.895V13.1768H28.8535C28.8261 12.9968 28.9553 12.8676 29.1353 12.895Z" fill="#E67474"/>
<path d="M20.4928 7.35254C20.5202 7.53259 20.391 7.66176 20.2109 7.63436V7.35254H20.4928Z" fill="#E67474"/>
<path d="M23.7669 42.6386C34.4781 42.6386 43.1613 33.9554 43.1613 23.2442C43.1613 12.533 34.4781 3.84985 23.7669 3.84985C13.0557 3.84985 4.37256 12.533 4.37256 23.2442C4.37256 33.9554 13.0557 42.6386 23.7669 42.6386Z" stroke="white" stroke-width="1.17425" stroke-miterlimit="10"/>
<path d="M25.385 40.0892C25.3369 39.7126 25.6036 39.3672 25.9802 39.3192C26.3568 39.2711 26.7022 39.5378 26.7502 39.9144C26.7983 40.291 26.5324 40.6363 26.1557 40.6835L26.1398 40.6852C25.7691 40.7241 25.4332 40.4598 25.3858 40.0891L25.385 40.0892ZM22.9857 40.8043C22.6062 40.7841 22.3149 40.4609 22.3343 40.0815C22.3536 39.702 22.6775 39.4099 23.0571 39.4301C23.4365 39.4494 23.7277 39.7725 23.7084 40.152C23.6903 40.4949 23.4252 40.7665 23.0946 40.8013C23.0594 40.805 23.0239 40.8053 22.9865 40.8042L22.9857 40.8043ZM28.3895 39.5534C28.2753 39.1913 28.4758 38.8038 28.8387 38.6895C29.2007 38.5753 29.5882 38.7758 29.7025 39.1387C29.8167 39.5007 29.6162 39.8873 29.2534 40.0025C29.2083 40.0165 29.1627 40.0256 29.1175 40.0303C28.7994 40.0637 28.4914 39.8702 28.3904 39.5533L28.3895 39.5534ZM19.845 40.3592C19.4754 40.272 19.2461 39.9017 19.3325 39.5321C19.4196 39.1616 19.7899 38.9323 20.1604 39.0194C20.53 39.1067 20.7594 39.4769 20.6721 39.8466C20.6039 40.1398 20.3572 40.3443 20.0742 40.374C19.9998 40.3819 19.9223 40.3773 19.8451 40.36L19.845 40.3592ZM31.2508 38.4919C31.0733 38.1551 31.2014 37.7397 31.5381 37.5613C31.874 37.3838 32.2903 37.5118 32.4678 37.8486C32.6453 38.1845 32.5173 38.6008 32.1805 38.7783C32.1012 38.8205 32.0158 38.8456 31.9321 38.8544C31.6609 38.8829 31.3869 38.7475 31.2517 38.4918L31.2508 38.4919ZM16.8346 39.3572C16.4869 39.2058 16.3275 38.8003 16.4796 38.4517C16.6318 38.104 17.0365 37.9455 17.385 38.0968C17.7327 38.249 17.8921 38.6545 17.74 39.0022C17.6369 39.2373 17.419 39.3863 17.1813 39.4113C17.0666 39.4233 16.9472 39.4062 16.8346 39.3572ZM33.8755 36.9339C33.6402 36.6354 33.692 36.2026 33.9897 35.9674C34.2882 35.732 34.721 35.7839 34.9563 36.0824C35.1908 36.381 35.1389 36.813 34.8412 37.0482C34.7357 37.1312 34.6129 37.1788 34.4882 37.192C34.2605 37.2159 34.0269 37.1262 33.8755 36.9339ZM14.0543 37.8325C13.7392 37.6202 13.6553 37.1923 13.8668 36.8773C14.0781 36.5614 14.5061 36.4784 14.821 36.689C15.137 36.9012 15.22 37.3291 15.0094 37.6441C14.8908 37.8199 14.7054 37.924 14.5095 37.9446C14.3547 37.9608 14.1935 37.9245 14.0542 37.8316L14.0543 37.8325ZM36.1764 34.9294C35.8928 34.6782 35.8656 34.2427 36.1176 33.959C36.3695 33.6744 36.8043 33.6482 37.0888 33.9001C37.3733 34.1511 37.3997 34.5867 37.1477 34.8704C37.0289 35.0048 36.8694 35.0808 36.7045 35.0981C36.5195 35.1176 36.3275 35.0624 36.1764 34.9294ZM11.5887 35.8389C11.3155 35.5748 11.3086 35.1389 11.5727 34.8657C11.8368 34.5925 12.2728 34.5857 12.5459 34.8497C12.8191 35.1138 12.826 35.5498 12.5619 35.8229C12.4451 35.9435 12.2941 36.0127 12.1393 36.029C11.9443 36.0495 11.7413 35.9862 11.5887 35.8389ZM38.086 32.5496C37.7614 32.3518 37.6585 31.9285 37.8571 31.6038C38.054 31.2793 38.4781 31.1764 38.8019 31.3742C39.1264 31.5711 39.2294 31.9953 39.0315 32.319C38.9145 32.5099 38.7209 32.6242 38.515 32.6458C38.3702 32.661 38.2198 32.6311 38.086 32.5496ZM9.51503 33.436C9.29389 33.1276 9.36466 32.6978 9.67315 32.4767C9.98247 32.2555 10.4122 32.3262 10.6333 32.6347C10.8545 32.9432 10.7838 33.3738 10.4752 33.5941C10.3745 33.6664 10.2611 33.7071 10.1465 33.7192C9.90876 33.7442 9.66473 33.6446 9.51503 33.436ZM39.5415 29.8688C39.187 29.7326 39.0097 29.3341 39.146 28.9795C39.2822 28.625 39.6807 28.4478 40.0344 28.5841C40.3889 28.7203 40.5661 29.118 40.43 29.4734C40.3344 29.7229 40.1085 29.8846 39.8591 29.9108C39.7553 29.9217 39.6457 29.9095 39.5407 29.8689L39.5415 29.8688ZM7.90738 30.7007C7.74519 30.3572 7.89169 29.9475 8.23514 29.7853C8.57851 29.6223 8.98918 29.7695 9.15137 30.113C9.31356 30.4564 9.16707 30.8662 8.82286 31.0293C8.7511 31.0631 8.67616 31.0828 8.60083 31.0907C8.31792 31.1204 8.03487 30.9716 7.90729 30.6998L7.90738 30.7007ZM40.4926 26.9695C40.1197 26.8995 39.8737 26.5395 39.9437 26.1666C40.0145 25.7935 40.3737 25.5476 40.7466 25.6176C41.1204 25.6875 41.3655 26.0476 41.2964 26.4204C41.2388 26.7261 40.9869 26.9463 40.6923 26.9773C40.627 26.9841 40.5608 26.9818 40.4925 26.9687L40.4926 26.9695ZM6.81497 27.7225C6.7163 27.3554 6.93389 26.978 7.30103 26.8801C7.66809 26.7815 8.04554 26.9991 8.14336 27.3662C8.24119 27.7334 8.0236 28.1108 7.65646 28.2086C7.62025 28.2184 7.58544 28.2254 7.55029 28.2291C7.21967 28.2638 6.90306 28.0534 6.81497 27.7225ZM40.9087 23.947C40.5284 23.9446 40.2225 23.6341 40.2256 23.2538C40.228 22.8735 40.5378 22.5685 40.918 22.5708C41.2982 22.5732 41.6042 22.8838 41.601 23.2641C41.5993 23.618 41.3294 23.9078 40.9862 23.9439C40.9611 23.9465 40.935 23.9476 40.9087 23.9478L40.9087 23.947ZM7.01372 25.2255C6.63544 25.2576 6.3029 24.9761 6.2715 24.5968C6.23936 24.2186 6.5209 23.886 6.90011 23.8546C7.27848 23.8233 7.61094 24.104 7.64233 24.4832C7.6732 24.8574 7.40051 25.1856 7.02971 25.2246C7.02469 25.2251 7.01883 25.2258 7.01465 25.2262L7.01372 25.2255ZM39.9843 20.3376C39.9196 19.9636 40.1707 19.6071 40.5447 19.5424C40.9186 19.4769 41.2751 19.728 41.3398 20.102C41.4045 20.476 41.1534 20.8325 40.7794 20.8972C40.7645 20.9004 40.7486 20.9021 40.7335 20.9037C40.3761 20.9412 40.0465 20.6958 39.9843 20.3376ZM6.91072 22.1762C6.53285 22.1398 6.25555 21.8042 6.29191 21.4255C6.32836 21.0476 6.66395 20.7703 7.04266 20.8067C7.42053 20.8431 7.69783 21.1787 7.6623 21.5573C7.63031 21.8891 7.36839 22.1425 7.05033 22.176C7.00513 22.1807 6.95865 22.1814 6.91165 22.177L6.91072 22.1762ZM39.2294 17.5109C39.0988 17.154 39.2815 16.759 39.6393 16.6283C39.9962 16.4977 40.3913 16.6813 40.5219 17.0382C40.6525 17.3952 40.4689 17.7902 40.1119 17.9208C40.0573 17.9401 40.002 17.9535 39.9468 17.9593C39.6404 17.9915 39.34 17.8141 39.2295 17.5117L39.2294 17.5109ZM7.35079 19.1571C6.9854 19.0542 6.77278 18.6737 6.87644 18.3074C6.97936 17.942 7.35983 17.7294 7.72615 17.8331C8.09154 17.936 8.30417 18.3165 8.2005 18.6828C8.12151 18.9619 7.88246 19.1512 7.61043 19.1798C7.5259 19.1887 7.43885 19.1817 7.35163 19.157L7.35079 19.1571ZM37.9815 14.8647C37.7896 14.537 37.8985 14.116 38.2269 13.9232C38.5545 13.7306 38.9756 13.8403 39.1683 14.1679C39.361 14.4954 39.2512 14.9165 38.9237 15.1092C38.836 15.1607 38.7418 15.191 38.6473 15.2009C38.3869 15.2283 38.1227 15.1054 37.9815 14.8647ZM8.32563 16.2663C7.98479 16.099 7.8441 15.6864 8.01147 15.3464C8.17958 15.0055 8.59122 14.8641 8.93216 15.0322C9.27301 15.1994 9.41444 15.6111 9.24632 15.952C9.13832 16.1724 8.92764 16.3096 8.69998 16.3336C8.5761 16.3466 8.44611 16.3256 8.32563 16.2663ZM36.2786 12.4871C36.03 12.1993 36.063 11.7651 36.35 11.5166C36.6379 11.268 37.0721 11.3011 37.3197 11.5882C37.5683 11.876 37.5361 12.3101 37.2483 12.5587C37.138 12.6532 37.0066 12.7068 36.8718 12.721C36.655 12.7438 36.4316 12.6632 36.2785 12.4863L36.2786 12.4871ZM9.80448 13.5975C9.49902 13.3723 9.4342 12.9408 9.65935 12.6353C9.88459 12.3307 10.316 12.265 10.6215 12.4902C10.9271 12.7162 10.9918 13.1469 10.7666 13.4524C10.6465 13.6139 10.4703 13.7086 10.2845 13.7281C10.1196 13.7455 9.94847 13.7034 9.80448 13.5975ZM34.1756 10.4495C34.1756 10.4495 34.171 10.4458 34.1683 10.4444C34.1683 10.4444 34.1636 10.4406 34.1626 10.4391C33.8667 10.2002 33.8204 9.76756 34.061 9.47232C34.2999 9.17641 34.7325 9.13009 35.0276 9.36903C35.0276 9.36903 35.0322 9.37278 35.035 9.37503C35.035 9.37503 35.0396 9.37877 35.0424 9.38102C35.3375 9.61996 35.3829 10.0527 35.144 10.3478C35.0241 10.4958 34.8554 10.5812 34.6805 10.5996C34.5055 10.618 34.3227 10.5695 34.1756 10.4495ZM11.7342 11.2325C11.4733 10.957 11.4851 10.5216 11.7615 10.2607C12.0379 9.99977 12.4732 10.0116 12.7341 10.2879C12.9951 10.5643 12.9833 10.9997 12.7069 11.2606C12.5931 11.369 12.4522 11.4295 12.3065 11.4448C12.1015 11.4664 11.8875 11.395 11.735 11.2324L11.7342 11.2325ZM31.7327 8.80901C31.3995 8.62654 31.2777 8.20776 31.4602 7.87546C31.6427 7.54233 32.0614 7.41962 32.3938 7.60302C32.7269 7.78549 32.8487 8.20343 32.6662 8.53656C32.5533 8.74223 32.3514 8.86668 32.1346 8.88947C31.9999 8.90363 31.8602 8.87854 31.7327 8.80901ZM14.0524 9.24728C13.8455 8.92968 13.9352 8.50221 14.2536 8.29526C14.572 8.08831 14.9988 8.17886 15.2056 8.49646C15.4126 8.8149 15.322 9.24162 15.0044 9.44848C14.9102 9.51001 14.8064 9.54545 14.7018 9.55645C14.4532 9.58258 14.1987 9.4714 14.0532 9.24719L14.0524 9.24728ZM29.0517 7.64117C28.6914 7.52164 28.4955 7.1318 28.6158 6.7705C28.7353 6.41013 29.1244 6.21522 29.4856 6.33466C29.846 6.45418 30.041 6.84412 29.9215 7.20449C29.8342 7.46922 29.6013 7.64434 29.3401 7.67179C29.2455 7.68173 29.148 7.67167 29.0516 7.64033L29.0517 7.64117ZM16.6896 7.71257C16.5428 7.36242 16.7078 6.9592 17.0587 6.8123C17.4089 6.66548 17.8121 6.83043 17.959 7.18142C18.1059 7.5324 17.9409 7.93479 17.5899 8.08169C17.5267 8.10864 17.4616 8.1248 17.3963 8.13166C17.1025 8.16254 16.8095 7.99954 16.6896 7.71257ZM26.2042 6.97404C25.8271 6.92059 25.5655 6.5732 25.6189 6.19608C25.6716 5.81988 26.0199 5.55818 26.3961 5.61088C26.7723 5.66442 27.034 6.01265 26.9813 6.38884C26.9361 6.70755 26.6792 6.94442 26.3729 6.97662C26.3177 6.98243 26.2609 6.98162 26.2033 6.97329L26.2042 6.97404ZM19.5593 6.67472C19.4771 6.30339 19.712 5.93683 20.0824 5.85473C20.4538 5.77254 20.8212 6.00726 20.9024 6.37784C20.9846 6.74917 20.7499 7.11657 20.3794 7.19867C20.3537 7.20391 20.328 7.20831 20.302 7.21104C19.958 7.24719 19.6354 7.02045 19.5593 6.67472ZM23.2825 6.82499C22.9032 6.83947 22.5827 6.54313 22.5682 6.16384C22.5537 5.78455 22.8502 5.46482 23.2295 5.45034C23.6087 5.43586 23.9284 5.73146 23.9429 6.11075C23.9574 6.4748 23.6853 6.78435 23.3279 6.82192C23.3128 6.8235 23.2978 6.82508 23.2817 6.82508L23.2825 6.82499Z" fill="white"/>
<path d="M23.9973 26.7773C23.9973 26.6498 23.8941 26.5464 23.7668 26.5464C23.6396 26.5464 23.5364 26.6498 23.5364 26.7773V28.2124C23.5364 28.34 23.6396 28.4433 23.7668 28.4433C23.8941 28.4433 23.9973 28.34 23.9973 28.2124V26.7773Z" fill="white"/>
<path d="M29.5531 16.4207H30.3822C31.3608 16.4207 32.4899 17.4684 32.7733 18.3684C32.9482 18.9237 32.9692 20.323 32.9045 20.9177C32.7908 21.9611 31.4422 22.4281 30.6306 21.7809C30.4382 21.6279 30.1181 21.16 30.1181 20.9177V19.2779C30.0262 19.2936 29.7691 19.2307 29.735 19.3356C29.735 19.7922 29.7175 20.2513 29.7289 20.7078C29.735 20.9746 29.8391 21.0218 29.7009 21.3122C29.3397 22.0757 28.2981 22.3284 27.6159 21.8325C26.7623 21.2116 27.1384 20.2041 27.0334 19.3111L26.6609 19.2779L26.6792 21.1836C26.1842 22.4544 24.3502 22.3721 24.0048 21.034C23.9917 20.9833 23.9453 20.7726 23.9453 20.7411V19.277H23.5929V20.9169C23.5929 21.0725 23.6523 21.0638 23.564 21.2763C23.0069 22.6231 20.8773 22.1325 20.8773 20.811V19.277H20.5249V20.9527C20.5249 20.9982 20.5765 21.0218 20.5441 21.1477C20.2992 22.0932 18.9777 22.3783 18.2676 21.7293C18.0936 21.571 17.8093 21.1119 17.8093 20.8827V19.2779H17.4569V20.9886C17.4569 20.9991 17.4892 21.0314 17.4866 21.0848C17.4805 21.1906 17.3161 21.4608 17.2452 21.5518C16.4677 22.5497 14.8498 22.0704 14.7404 20.8137C14.6084 19.2945 14.6888 17.6862 16.1196 16.83C16.3715 16.6795 16.9811 16.4216 17.2627 16.4216H18.2151L18.2676 16.3691V15.0992C18.2676 14.9444 18.6874 14.536 18.8842 14.5517H28.8683C29.1963 14.5622 29.554 14.9584 29.554 15.2759V16.4224L29.5531 16.4207ZM19.0337 15.0528C18.8264 15.0931 18.7775 15.2216 18.7591 15.4132C18.6856 16.2073 18.8159 17.1125 18.7608 17.9188C18.7766 18.0561 18.8151 18.1724 18.962 18.2109L28.7257 18.2205C28.8762 18.2232 28.9741 18.1567 29.0082 18.0098L29.024 15.3441C29.017 15.2033 28.9129 15.0922 28.7791 15.0607L19.0328 15.0537L19.0337 15.0528Z" fill="white"/>
<path d="M32.5151 31.9033V27.8829C32.5667 27.8733 32.6017 27.8926 32.6463 27.9109C33.13 28.1112 33.339 29.2814 33.3783 29.7545L33.4133 29.779C34.6264 29.5315 35.7432 30.783 35.0374 31.9042H32.516L32.5151 31.9033Z" fill="white"/>
<path d="M15.0927 31.9033V27.8829C15.0411 27.8733 15.0062 27.8926 14.9616 27.9109C14.4779 28.1112 14.2689 29.2814 14.2295 29.7545L14.1946 29.779C12.9815 29.5315 11.8647 30.783 12.5705 31.9042H15.0919L15.0927 31.9033Z" fill="white"/>
<path d="M32.1276 22.6274V22.345C31.5311 22.5522 30.9076 22.4621 30.4178 22.0616L29.9586 21.5683C29.2651 22.7385 27.6139 22.7464 26.9248 21.5683L26.4848 22.045C25.6181 22.7665 24.364 22.4866 23.8218 21.5325C23.1781 22.749 21.4001 22.749 20.7538 21.5325C20.0777 22.7359 18.3977 22.7534 17.6849 21.5683L17.1907 22.0966C16.6844 22.4796 16.0765 22.533 15.481 22.3441V22.6266C16.6406 22.5321 16.631 23.9874 15.481 23.9515V25.0246C16.631 24.9319 16.6354 26.4406 15.481 26.3295V31.9373H32.1276V26.3295V25.0246V23.9306V22.6257V22.6274ZM21.5557 31.6994H16.9336C16.9056 31.6994 16.8628 31.6618 16.8427 31.5988C16.8313 31.5647 16.8243 31.4991 16.8164 31.4536L16.8226 23.4373L16.8672 23.2886H21.6345L21.6817 23.4268L21.6887 31.4239C21.6843 31.6399 21.6108 31.7055 21.5549 31.6994H21.5557ZM30.6198 29.4876H22.9524C22.9061 29.4876 22.8352 29.4596 22.802 29.4141C22.7836 29.3888 22.7714 29.3407 22.7592 29.3074L22.7697 23.3997L22.844 23.2904H30.7519L30.8306 23.3927L30.8428 29.2856C30.835 29.4447 30.7134 29.4928 30.6207 29.4885L30.6198 29.4876Z" fill="white"/>
<path d="M15.6455 22.8276H14.7438C14.496 22.8276 14.2952 23.0285 14.2952 23.2763C14.2952 23.5241 14.496 23.7249 14.7438 23.7249H15.6455C15.8933 23.7249 16.0942 23.5241 16.0942 23.2763C16.0942 23.0285 15.8933 22.8276 15.6455 22.8276Z" fill="white"/>
<path d="M15.6455 25.238H14.7438C14.496 25.238 14.2952 25.4389 14.2952 25.6867C14.2952 25.9345 14.496 26.1354 14.7438 26.1354H15.6455C15.8933 26.1354 16.0942 25.9345 16.0942 25.6867C16.0942 25.4389 15.8933 25.238 15.6455 25.238Z" fill="white"/>
<path d="M14.742 22.8276H12.6264C12.4332 22.8276 12.2766 22.9843 12.2766 23.1775V26.6583C12.2766 26.8515 12.4332 27.0081 12.6264 27.0081H14.742C14.9352 27.0081 15.0919 26.8515 15.0919 26.6583V23.1775C15.0919 22.9843 14.9352 22.8276 14.742 22.8276Z" fill="white"/>
</svg>
